<?xml version="1.0" encoding="UTF-8" standalone="no"?>
<!-- Created with Inkscape (http://www.inkscape.org/) -->

<svg
   version="1.1"
   id="svg4819"
   width="547.18591"
   height="287.33408"
   viewBox="0 0 547.18592 287.33406"
   sodipodi:docname="cocotb user survey 2023.pdf"
   xmlns:inkscape="http://www.inkscape.org/namespaces/inkscape"
   xmlns:sodipodi="http://sodipodi.sourceforge.net/DTD/sodipodi-0.dtd"
   xmlns="http://www.w3.org/2000/svg"
   xmlns:svg="http://www.w3.org/2000/svg">
  <defs
     id="defs4823">
    <clipPath
       clipPathUnits="userSpaceOnUse"
       id="clipPath5023">
      <path
         d="M 175,187 H 470 V 341 H 175 Z"
         id="path5021" />
    </clipPath>
    <clipPath
       clipPathUnits="userSpaceOnUse"
       id="clipPath5035">
      <path
         d="M 175.75,187 H 177 v 153 h -1.25 z"
         id="path5033" />
    </clipPath>
    <clipPath
       clipPathUnits="userSpaceOnUse"
       id="clipPath5069">
      <path
         d="M 175.75,187 H 177 v 153 h -1.25 z"
         id="path5067" />
    </clipPath>
  </defs>
  <sodipodi:namedview
     id="namedview4821"
     pagecolor="#ffffff"
     bordercolor="#666666"
     borderopacity="1.0"
     inkscape:showpageshadow="2"
     inkscape:pageopacity="0.0"
     inkscape:pagecheckerboard="0"
     inkscape:deskcolor="#d1d1d1"
     showgrid="false" />
  <g
     id="g4827"
     inkscape:groupmode="layer"
     inkscape:label="Page 1"
     transform="matrix(1.3333333,0,0,1.3333333,-83.752342,-183.35157)">
    <text
       xml:space="preserve"
       style="font-variant:normal;font-size:12px;font-family:CairoFont-1;-inkscape-font-specification:CairoFont-1-0;writing-mode:lr-tb;fill:#18191c;fill-opacity:1;fill-rule:nonzero;stroke:none"
       id="text4943"
       x="62.700001"
       y="146.25"><tspan
         x="62.700001 73.5 80.256004 86.748001 90.852005 97.356003 100.47601 107.376 114.372 117.492 123.216 130.224 136.98 140.10001 146.856 153.18001 159.68401 162.804 169.23601 176.23199 182.664 189.66 193.728 200.616"
         y="146.25"
         sodipodi:role="line"
         id="tspan4941">Where do you use cocotb?</tspan></text>
    <text
       xml:space="preserve"
       style="font-variant:normal;font-size:9px;font-family:CairoFont-1;-inkscape-font-specification:CairoFont-1-0;writing-mode:lr-tb;fill:#18191c;fill-opacity:1;fill-rule:nonzero;stroke:none"
       id="text4947"
       x="62.700001"
       y="166"><tspan
         x="62.700001 67.973999 73.238998 75.687004 78.873001 83.849998 88.709999 93.984001 99.339005 104.523 109.383 114.36"
         y="166"
         sodipodi:role="line"
         id="tspan4945">48 responses</tspan></text>
    <g
       id="g5019"
       clip-path="url(#clipPath5023)">
      <g
         id="g5025">
        <path
           d="M 175.75,187 H 469 V 340 H 175.75 Z"
           style="fill:none;stroke:#eeeeee;stroke-width:0.75;stroke-linecap:butt;stroke-linejoin:miter;stroke-miterlimit:4;stroke-dasharray:none;stroke-opacity:1"
           id="path5027" />
      </g>
    </g>
    <g
       id="g5031"
       clip-path="url(#clipPath5035)">
      <path
         d="m 175.75,187 h 0.75 v 153 h -0.75 z"
         style="fill:#eeeeee;fill-opacity:1;fill-rule:nonzero;stroke:none"
         id="path5037" />
    </g>
    <path
       d="M 249.25,187 H 250 v 153 h -0.75 z"
       style="fill:#eeeeee;fill-opacity:1;fill-rule:nonzero;stroke:none"
       id="path5041" />
    <path
       d="m 322,187 h 0.75 V 340 H 322 Z"
       style="fill:#eeeeee;fill-opacity:1;fill-rule:nonzero;stroke:none"
       id="path5043" />
    <path
       d="m 395.5,187 h 0.75 v 153 h -0.75 z"
       style="fill:#eeeeee;fill-opacity:1;fill-rule:nonzero;stroke:none"
       id="path5045" />
    <path
       d="M 468.25,187 H 469 v 153 h -0.75 z"
       style="fill:#eeeeee;fill-opacity:1;fill-rule:nonzero;stroke:none"
       id="path5047" />
    <path
       d="m 212.5,187 h 0.75 v 153 h -0.75 z"
       style="fill:#f8f8f8;fill-opacity:1;fill-rule:nonzero;stroke:none"
       id="path5049" />
    <path
       d="M 285.25,187 H 286 v 153 h -0.75 z"
       style="fill:#f8f8f8;fill-opacity:1;fill-rule:nonzero;stroke:none"
       id="path5051" />
    <path
       d="m 358.75,187 h 0.75 v 153 h -0.75 z"
       style="fill:#f8f8f8;fill-opacity:1;fill-rule:nonzero;stroke:none"
       id="path5053" />
    <path
       d="m 431.5,187 h 0.75 v 153 h -0.75 z"
       style="fill:#f8f8f8;fill-opacity:1;fill-rule:nonzero;stroke:none"
       id="path5055" />
    <path
       d="m 176.5,196.75 h 225.75 v 31.5 H 176.5 Z"
       style="fill:#3776ab;fill-opacity:1;fill-rule:nonzero;stroke:none"
       id="path5057" />
    <path
       d="m 176.5,247.75 h 138 v 31.5 h -138 z"
       style="fill:#3776ab;fill-opacity:1;fill-rule:nonzero;stroke:none"
       id="path5059" />
    <path
       d="m 176.5,298.75 h 204 v 31.5 h -204 z"
       style="fill:#3776ab;fill-opacity:1;fill-rule:nonzero;stroke:none"
       id="path5061" />
    <g
       id="g5065"
       clip-path="url(#clipPath5069)">
      <path
         d="m 175.75,187 h 0.75 v 153 h -0.75 z"
         style="fill:#333333;fill-opacity:1;fill-rule:nonzero;stroke:none"
         id="path5071" />
    </g>
    <path
       d="m 402.25,212.5 h 9 v 0.75 h -9 z"
       style="fill:#999999;fill-opacity:1;fill-rule:nonzero;stroke:none"
       id="path5075" />
    <path
       d="m 314.5,263.5 h 9 v 0.75 h -9 z"
       style="fill:#999999;fill-opacity:1;fill-rule:nonzero;stroke:none"
       id="path5077" />
    <path
       d="m 380.5,314.5 h 9 v 0.75 h -9 z"
       style="fill:#999999;fill-opacity:1;fill-rule:nonzero;stroke:none"
       id="path5079" />
    <text
       xml:space="preserve"
       style="font-variant:normal;font-size:9px;font-family:CairoFont-2;-inkscape-font-specification:CairoFont-2-0;writing-mode:lr-tb;fill:#444444;fill-opacity:1;fill-rule:nonzero;stroke:none"
       id="text5083"
       x="173.625"
       y="352.89999"><tspan
         x="173.625 244.248 249.252 317.375 322.379 390.5 395.504 463.625 468.629"
         y="352.89999"
         sodipodi:role="line"
         id="tspan5081">010203040</tspan></text>
    <text
       xml:space="preserve"
       style="font-variant:normal;font-size:9px;font-family:CairoFont-2;-inkscape-font-specification:CairoFont-2-0;writing-mode:lr-tb;fill:#222222;fill-opacity:1;fill-rule:nonzero;stroke:none"
       id="text5091"
       x="134.75"
       y="215.89999"><tspan
         x="134.75 137.243 142.24699 147.25101 152.255 156.755 159.248 162.245"
         y="215.89999"
         sodipodi:role="line"
         id="tspan5085">Industry</tspan><tspan
         x="126.75 132.744 137.244 142.248 147.252 152.256 159.75299 161.75101"
         y="266.64999"
         sodipodi:role="line"
         id="tspan5087">Academia</tspan><tspan
         x="98.25 100.743 105.74699 108.24 113.244 118.24799 123.252 128.22899 132.72899 135.222 140.226 143.22299 148.22699 150.22499 155.229 159.729 162.222"
         y="317.39999"
         sodipodi:role="line"
         id="tspan5089">In hobby projects</tspan></text>
    <path
       d="m 411.629,213.949 0.789,-0.105 c 0.094,0.449 0.246,0.769 0.465,0.968 0.219,0.2 0.484,0.297 0.797,0.297 0.371,0 0.687,-0.129 0.941,-0.386 0.258,-0.258 0.387,-0.578 0.387,-0.957 0,-0.364 -0.117,-0.664 -0.356,-0.899 -0.238,-0.238 -0.539,-0.355 -0.906,-0.355 -0.148,0 -0.336,0.031 -0.558,0.09 l 0.089,-0.696 c 0.051,0.004 0.094,0.008 0.125,0.008 0.34,0 0.641,-0.086 0.91,-0.262 0.27,-0.175 0.407,-0.449 0.407,-0.812 0,-0.293 -0.098,-0.531 -0.297,-0.723 -0.195,-0.191 -0.449,-0.285 -0.758,-0.285 -0.309,0 -0.566,0.098 -0.769,0.289 -0.207,0.195 -0.336,0.484 -0.395,0.871 l -0.793,-0.14 c 0.098,-0.532 0.316,-0.942 0.66,-1.235 0.344,-0.289 0.77,-0.437 1.278,-0.437 0.351,0 0.675,0.078 0.972,0.226 0.297,0.153 0.52,0.36 0.68,0.617 0.156,0.262 0.234,0.539 0.234,0.832 0,0.278 -0.074,0.532 -0.226,0.762 -0.149,0.227 -0.367,0.41 -0.66,0.543 0.378,0.09 0.675,0.27 0.886,0.547 0.211,0.277 0.317,0.625 0.317,1.039 0,0.563 -0.207,1.039 -0.618,1.43 -0.41,0.394 -0.925,0.59 -1.554,0.59 -0.567,0 -1.035,-0.168 -1.41,-0.508 -0.371,-0.336 -0.586,-0.774 -0.637,-1.309 z m 7.973,1.699 h -0.79 v -5.039 c -0.191,0.184 -0.441,0.364 -0.75,0.547 -0.308,0.18 -0.585,0.317 -0.832,0.406 v -0.765 c 0.442,-0.207 0.829,-0.457 1.161,-0.754 0.332,-0.297 0.566,-0.582 0.703,-0.863 h 0.508 z m 6.253,1.895 c -0.437,-0.551 -0.804,-1.195 -1.109,-1.934 -0.301,-0.738 -0.453,-1.5 -0.449,-2.293 -0.004,-0.695 0.109,-1.363 0.336,-2.004 0.265,-0.742 0.672,-1.48 1.222,-2.214 h 0.567 c -0.356,0.609 -0.59,1.043 -0.703,1.304 -0.18,0.407 -0.321,0.828 -0.422,1.266 -0.125,0.547 -0.188,1.098 -0.188,1.652 0,1.41 0.438,2.817 1.313,4.223 z m 5.372,-6.758 -0.786,0.063 c -0.07,-0.313 -0.171,-0.536 -0.296,-0.676 -0.215,-0.227 -0.481,-0.34 -0.793,-0.34 -0.254,0 -0.473,0.07 -0.664,0.211 -0.25,0.18 -0.446,0.445 -0.59,0.797 -0.141,0.348 -0.219,0.844 -0.223,1.488 0.191,-0.289 0.422,-0.504 0.699,-0.644 0.274,-0.141 0.563,-0.211 0.867,-0.211 0.524,0 0.973,0.191 1.344,0.582 0.371,0.386 0.559,0.886 0.559,1.504 0,0.402 -0.09,0.781 -0.262,1.125 -0.176,0.347 -0.414,0.613 -0.719,0.8 -0.304,0.184 -0.652,0.278 -1.039,0.278 -0.66,0 -1.195,-0.246 -1.613,-0.731 -0.414,-0.484 -0.621,-1.281 -0.621,-2.394 0,-1.246 0.226,-2.153 0.687,-2.719 0.403,-0.492 0.942,-0.738 1.621,-0.738 0.508,0 0.922,0.144 1.247,0.429 0.324,0.282 0.519,0.676 0.582,1.176 z M 428,213.562 c -0.004,0.274 0.055,0.536 0.172,0.782 0.117,0.25 0.277,0.441 0.484,0.57 0.207,0.129 0.426,0.195 0.656,0.195 0.333,0 0.622,-0.132 0.86,-0.402 0.242,-0.269 0.363,-0.637 0.363,-1.102 0,-0.445 -0.121,-0.796 -0.355,-1.05 -0.239,-0.258 -0.539,-0.387 -0.899,-0.387 -0.359,0 -0.66,0.129 -0.91,0.387 -0.25,0.254 -0.375,0.593 -0.371,1.007 z m 6.66,2.086 v -1.539 h -2.797 v -0.726 l 2.942,-4.176 h 0.644 v 4.176 h 0.871 v 0.726 h -0.871 v 1.539 z m 0,-2.265 v -2.906 l -2.019,2.906 z m 2.906,2.265 v -0.898 h 0.903 v 0.898 z m 6.161,-4.863 -0.786,0.063 c -0.07,-0.313 -0.168,-0.536 -0.296,-0.676 -0.215,-0.227 -0.481,-0.34 -0.793,-0.34 -0.25,0 -0.473,0.07 -0.664,0.211 -0.25,0.18 -0.446,0.445 -0.59,0.797 -0.141,0.348 -0.215,0.844 -0.223,1.488 0.191,-0.289 0.422,-0.504 0.699,-0.644 0.274,-0.141 0.563,-0.211 0.867,-0.211 0.528,0 0.973,0.191 1.344,0.582 0.371,0.386 0.559,0.886 0.559,1.504 0,0.402 -0.09,0.781 -0.262,1.125 -0.176,0.347 -0.414,0.613 -0.719,0.8 -0.304,0.184 -0.652,0.278 -1.039,0.278 -0.656,0 -1.195,-0.246 -1.613,-0.731 -0.414,-0.484 -0.621,-1.281 -0.621,-2.394 0,-1.246 0.23,-2.153 0.687,-2.719 0.403,-0.492 0.942,-0.738 1.621,-0.738 0.508,0 0.922,0.144 1.247,0.429 0.324,0.282 0.519,0.676 0.582,1.176 z m -3.227,2.777 c 0,0.274 0.055,0.536 0.172,0.782 0.117,0.25 0.277,0.441 0.484,0.57 0.211,0.129 0.426,0.195 0.656,0.195 0.333,0 0.622,-0.132 0.86,-0.402 0.242,-0.269 0.363,-0.637 0.363,-1.102 0,-0.445 -0.121,-0.796 -0.355,-1.05 -0.239,-0.258 -0.539,-0.387 -0.899,-0.387 -0.355,0 -0.66,0.129 -0.91,0.387 -0.25,0.254 -0.371,0.593 -0.371,1.007 z m 4.273,-2.808 c 0,-0.461 0.118,-0.852 0.348,-1.172 0.231,-0.324 0.567,-0.484 1.004,-0.484 0.406,0 0.742,0.144 1.004,0.433 0.266,0.289 0.398,0.711 0.398,1.274 0,0.543 -0.132,0.961 -0.402,1.257 -0.266,0.293 -0.598,0.442 -0.988,0.442 -0.391,0 -0.715,-0.145 -0.977,-0.434 -0.258,-0.293 -0.387,-0.73 -0.387,-1.316 z m 1.375,-1.109 c -0.195,0 -0.359,0.082 -0.488,0.253 -0.133,0.168 -0.195,0.481 -0.195,0.934 0,0.414 0.062,0.707 0.195,0.875 0.133,0.168 0.297,0.25 0.488,0.25 0.2,0 0.364,-0.082 0.497,-0.254 0.128,-0.168 0.195,-0.48 0.195,-0.93 0,-0.418 -0.067,-0.711 -0.199,-0.878 -0.133,-0.168 -0.297,-0.25 -0.493,-0.25 z m 0.004,6.242 3.524,-6.789 h 0.644 l -3.511,6.789 z m 2.786,-1.75 c 0,-0.461 0.117,-0.852 0.347,-1.176 0.231,-0.32 0.57,-0.481 1.012,-0.481 0.406,0 0.738,0.145 1.004,0.434 0.265,0.289 0.398,0.715 0.398,1.274 0,0.542 -0.133,0.964 -0.402,1.257 -0.27,0.293 -0.602,0.442 -0.996,0.442 -0.391,0 -0.715,-0.145 -0.973,-0.438 -0.258,-0.289 -0.39,-0.726 -0.39,-1.312 z m 1.382,-1.11 c -0.199,0 -0.367,0.086 -0.496,0.254 -0.129,0.172 -0.195,0.481 -0.195,0.938 0,0.41 0.066,0.699 0.199,0.867 0.129,0.172 0.293,0.258 0.484,0.258 0.204,0 0.372,-0.086 0.5,-0.258 0.133,-0.168 0.196,-0.481 0.196,-0.93 0,-0.418 -0.067,-0.707 -0.196,-0.879 -0.132,-0.168 -0.296,-0.25 -0.492,-0.25 z m 3.043,4.516 h -0.566 c 0.875,-1.406 1.312,-2.813 1.312,-4.223 0,-0.55 -0.062,-1.097 -0.187,-1.636 -0.102,-0.442 -0.242,-0.864 -0.418,-1.266 -0.117,-0.266 -0.352,-0.703 -0.707,-1.32 h 0.566 c 0.551,0.734 0.957,1.472 1.219,2.214 0.227,0.641 0.34,1.309 0.34,2.004 0,0.793 -0.152,1.555 -0.453,2.293 -0.305,0.739 -0.672,1.383 -1.106,1.934 z"
       style="fill:#202124;fill-opacity:1;fill-rule:nonzero;stroke:#ffffff;stroke-width:2.25;stroke-linecap:butt;stroke-linejoin:miter;stroke-miterlimit:4;stroke-dasharray:none;stroke-opacity:1"
       id="path5095" />
    <text
       xml:space="preserve"
       style="font-variant:normal;font-size:9px;font-family:CairoFont-2;-inkscape-font-specification:CairoFont-2-0;writing-mode:lr-tb;fill:#202124;fill-opacity:1;fill-rule:nonzero;stroke:none"
       id="text5099"
       x="411.25"
       y="215.64999"><tspan
         x="411.25 416.254 421.258 423.75101 426.74799 431.75201 436.75601 439.24899 444.22601 452.22699"
         y="215.64999"
         sodipodi:role="line"
         id="tspan5097">31 (64.6%)</tspan></text>
    <path
       d="m 326.852,266.648 h -0.79 v -5.039 c -0.191,0.184 -0.441,0.364 -0.75,0.547 -0.308,0.18 -0.585,0.317 -0.832,0.406 v -0.765 c 0.442,-0.207 0.829,-0.457 1.161,-0.754 0.332,-0.297 0.566,-0.582 0.703,-0.863 h 0.508 z m 2.14,-1.488 0.762,-0.07 c 0.062,0.359 0.187,0.617 0.367,0.777 0.184,0.16 0.414,0.242 0.699,0.242 0.242,0 0.457,-0.054 0.641,-0.168 0.184,-0.109 0.332,-0.257 0.449,-0.445 0.117,-0.187 0.215,-0.437 0.293,-0.754 0.082,-0.316 0.121,-0.637 0.121,-0.965 0,-0.035 -0.004,-0.089 -0.004,-0.16 -0.16,0.254 -0.375,0.457 -0.648,0.613 -0.274,0.157 -0.57,0.235 -0.891,0.235 -0.535,0 -0.984,-0.192 -1.355,-0.578 -0.367,-0.387 -0.551,-0.899 -0.551,-1.532 0,-0.652 0.191,-1.179 0.578,-1.578 0.383,-0.398 0.867,-0.597 1.445,-0.597 0.418,0 0.805,0.113 1.149,0.34 0.348,0.226 0.613,0.546 0.793,0.964 0.18,0.418 0.269,1.024 0.269,1.813 0,0.824 -0.089,1.48 -0.269,1.965 -0.176,0.488 -0.442,0.859 -0.797,1.117 -0.352,0.254 -0.766,0.383 -1.242,0.383 -0.504,0 -0.914,-0.141 -1.235,-0.422 -0.316,-0.281 -0.511,-0.672 -0.574,-1.18 z m 3.238,-2.844 c 0,-0.453 -0.121,-0.812 -0.363,-1.082 -0.242,-0.265 -0.531,-0.398 -0.871,-0.398 -0.351,0 -0.656,0.144 -0.918,0.43 -0.262,0.289 -0.39,0.66 -0.39,1.117 0,0.41 0.121,0.742 0.371,1 0.246,0.258 0.55,0.383 0.914,0.383 0.367,0 0.668,-0.125 0.906,-0.383 0.234,-0.258 0.351,-0.613 0.351,-1.067 z m 5.875,6.227 c -0.437,-0.551 -0.804,-1.195 -1.109,-1.934 -0.301,-0.738 -0.453,-1.5 -0.453,-2.293 0,-0.695 0.113,-1.363 0.34,-2.004 0.265,-0.742 0.672,-1.48 1.222,-2.214 h 0.567 c -0.356,0.609 -0.59,1.043 -0.703,1.304 -0.18,0.407 -0.321,0.828 -0.422,1.266 -0.125,0.547 -0.188,1.098 -0.188,1.652 0,1.41 0.438,2.817 1.313,4.223 z m 1.274,-3.594 0.789,-0.105 c 0.09,0.449 0.246,0.769 0.465,0.968 0.219,0.2 0.484,0.297 0.797,0.297 0.371,0 0.687,-0.129 0.941,-0.386 0.258,-0.258 0.387,-0.578 0.387,-0.957 0,-0.364 -0.121,-0.664 -0.356,-0.899 -0.238,-0.238 -0.539,-0.355 -0.906,-0.355 -0.148,0 -0.336,0.031 -0.558,0.09 l 0.089,-0.696 c 0.051,0.004 0.094,0.008 0.125,0.008 0.336,0 0.641,-0.086 0.91,-0.262 0.27,-0.175 0.407,-0.449 0.407,-0.812 0,-0.293 -0.102,-0.531 -0.297,-0.723 -0.195,-0.191 -0.449,-0.285 -0.758,-0.285 -0.309,0 -0.566,0.098 -0.769,0.289 -0.207,0.195 -0.34,0.484 -0.399,0.871 l -0.789,-0.14 c 0.098,-0.532 0.316,-0.942 0.66,-1.235 0.34,-0.289 0.77,-0.437 1.278,-0.437 0.351,0 0.675,0.078 0.972,0.226 0.293,0.153 0.52,0.36 0.68,0.617 0.156,0.262 0.234,0.539 0.234,0.832 0,0.278 -0.074,0.532 -0.226,0.762 -0.149,0.227 -0.371,0.41 -0.664,0.543 0.382,0.09 0.679,0.27 0.89,0.547 0.211,0.277 0.317,0.625 0.317,1.039 0,0.563 -0.207,1.039 -0.618,1.43 -0.41,0.394 -0.929,0.59 -1.554,0.59 -0.567,0 -1.035,-0.168 -1.41,-0.508 -0.371,-0.336 -0.586,-0.774 -0.637,-1.309 z m 5.113,0.211 0.762,-0.07 c 0.062,0.359 0.187,0.617 0.367,0.777 0.184,0.16 0.414,0.242 0.699,0.242 0.242,0 0.457,-0.054 0.641,-0.168 0.184,-0.109 0.332,-0.257 0.449,-0.445 0.117,-0.187 0.215,-0.437 0.293,-0.754 0.082,-0.316 0.121,-0.637 0.121,-0.965 0,-0.035 -0.004,-0.089 -0.004,-0.16 -0.16,0.254 -0.375,0.457 -0.648,0.613 -0.274,0.157 -0.57,0.235 -0.891,0.235 -0.535,0 -0.984,-0.192 -1.355,-0.578 -0.367,-0.387 -0.551,-0.899 -0.551,-1.532 0,-0.652 0.191,-1.179 0.578,-1.578 0.383,-0.398 0.867,-0.597 1.445,-0.597 0.422,0 0.805,0.113 1.149,0.34 0.348,0.226 0.613,0.546 0.793,0.964 0.18,0.418 0.269,1.024 0.269,1.813 0,0.824 -0.089,1.48 -0.265,1.965 -0.18,0.488 -0.446,0.859 -0.801,1.117 -0.352,0.254 -0.766,0.383 -1.238,0.383 -0.504,0 -0.918,-0.141 -1.239,-0.422 -0.316,-0.281 -0.507,-0.672 -0.574,-1.18 z m 3.238,-2.844 c 0,-0.453 -0.121,-0.812 -0.363,-1.082 -0.242,-0.265 -0.531,-0.398 -0.871,-0.398 -0.351,0 -0.656,0.144 -0.918,0.43 -0.262,0.289 -0.39,0.66 -0.39,1.117 0,0.41 0.121,0.742 0.371,1 0.246,0.258 0.55,0.383 0.914,0.383 0.367,0 0.668,-0.125 0.906,-0.383 0.234,-0.258 0.351,-0.613 0.351,-1.067 z m 2.086,4.332 v -0.898 h 0.903 v 0.898 z m 6.161,-4.863 -0.786,0.063 c -0.07,-0.313 -0.168,-0.536 -0.296,-0.676 -0.215,-0.227 -0.481,-0.34 -0.793,-0.34 -0.25,0 -0.473,0.07 -0.664,0.211 -0.25,0.18 -0.446,0.445 -0.59,0.797 -0.141,0.348 -0.215,0.844 -0.223,1.488 0.191,-0.289 0.422,-0.504 0.699,-0.644 0.274,-0.141 0.563,-0.211 0.867,-0.211 0.528,0 0.973,0.191 1.344,0.582 0.371,0.386 0.559,0.886 0.559,1.504 0,0.402 -0.09,0.781 -0.262,1.125 -0.176,0.347 -0.414,0.613 -0.719,0.8 -0.304,0.184 -0.652,0.278 -1.039,0.278 -0.656,0 -1.195,-0.246 -1.613,-0.731 -0.414,-0.484 -0.621,-1.281 -0.621,-2.394 0,-1.246 0.23,-2.153 0.687,-2.719 0.403,-0.492 0.942,-0.738 1.621,-0.738 0.508,0 0.922,0.144 1.247,0.429 0.324,0.282 0.519,0.676 0.582,1.176 z m -3.227,2.777 c 0,0.274 0.055,0.536 0.172,0.782 0.117,0.25 0.277,0.441 0.484,0.57 0.211,0.129 0.426,0.195 0.656,0.195 0.333,0 0.622,-0.132 0.86,-0.402 0.242,-0.269 0.363,-0.637 0.363,-1.102 0,-0.445 -0.121,-0.796 -0.355,-1.05 -0.239,-0.258 -0.539,-0.387 -0.899,-0.387 -0.355,0 -0.66,0.129 -0.91,0.387 -0.25,0.254 -0.371,0.593 -0.371,1.007 z m 4.273,-2.808 c 0,-0.461 0.118,-0.852 0.348,-1.172 0.231,-0.324 0.567,-0.484 1.004,-0.484 0.406,0 0.742,0.144 1.004,0.433 0.266,0.289 0.398,0.711 0.398,1.274 0,0.543 -0.132,0.961 -0.402,1.257 -0.266,0.293 -0.598,0.442 -0.988,0.442 -0.391,0 -0.715,-0.145 -0.977,-0.434 -0.258,-0.293 -0.387,-0.73 -0.387,-1.316 z m 1.375,-1.109 c -0.195,0 -0.359,0.082 -0.488,0.253 -0.133,0.168 -0.199,0.481 -0.199,0.934 0,0.414 0.066,0.707 0.199,0.875 0.133,0.168 0.293,0.25 0.488,0.25 0.2,0 0.364,-0.082 0.497,-0.254 0.128,-0.168 0.195,-0.48 0.195,-0.93 0,-0.418 -0.067,-0.711 -0.199,-0.878 -0.133,-0.168 -0.297,-0.25 -0.493,-0.25 z m 0.004,6.242 3.524,-6.789 h 0.644 l -3.511,6.789 z m 2.786,-1.75 c 0,-0.461 0.117,-0.852 0.347,-1.176 0.231,-0.32 0.57,-0.481 1.012,-0.481 0.406,0 0.738,0.145 1.004,0.434 0.265,0.289 0.398,0.715 0.398,1.274 0,0.542 -0.133,0.964 -0.402,1.257 -0.27,0.293 -0.602,0.442 -0.996,0.442 -0.391,0 -0.715,-0.145 -0.973,-0.438 -0.258,-0.289 -0.39,-0.726 -0.39,-1.312 z m 1.382,-1.11 c -0.199,0 -0.367,0.086 -0.496,0.254 -0.129,0.172 -0.195,0.481 -0.195,0.938 0,0.41 0.066,0.699 0.199,0.867 0.129,0.172 0.293,0.258 0.484,0.258 0.204,0 0.372,-0.086 0.5,-0.258 0.133,-0.168 0.196,-0.481 0.196,-0.93 0,-0.418 -0.067,-0.707 -0.196,-0.879 -0.132,-0.168 -0.296,-0.25 -0.492,-0.25 z m 3.043,4.516 h -0.57 c 0.879,-1.406 1.316,-2.813 1.316,-4.223 0,-0.55 -0.062,-1.097 -0.191,-1.636 -0.098,-0.442 -0.238,-0.864 -0.414,-1.266 -0.117,-0.266 -0.352,-0.703 -0.711,-1.32 h 0.57 c 0.551,0.734 0.957,1.472 1.219,2.214 0.227,0.641 0.34,1.309 0.34,2.004 0,0.793 -0.152,1.555 -0.453,2.293 -0.305,0.739 -0.672,1.383 -1.106,1.934 z"
       style="fill:#202124;fill-opacity:1;fill-rule:nonzero;stroke:#ffffff;stroke-width:2.25;stroke-linecap:butt;stroke-linejoin:miter;stroke-miterlimit:4;stroke-dasharray:none;stroke-opacity:1"
       id="path5103" />
    <text
       xml:space="preserve"
       style="font-variant:normal;font-size:9px;font-family:CairoFont-2;-inkscape-font-specification:CairoFont-2-0;writing-mode:lr-tb;fill:#202124;fill-opacity:1;fill-rule:nonzero;stroke:none"
       id="text5107"
       x="323.5"
       y="266.64999"><tspan
         x="323.5 328.504 333.508 336.00101 338.99799 344.00201 349.00601 351.49899 356.47601 364.47699"
         y="266.64999"
         sodipodi:role="line"
         id="tspan5105">19 (39.6%)</tspan></text>
    <path
       d="m 394.031,316.891 v 0.757 h -4.258 c -0.007,-0.187 0.024,-0.371 0.09,-0.546 0.11,-0.29 0.285,-0.579 0.524,-0.86 0.238,-0.281 0.582,-0.605 1.035,-0.972 0.699,-0.575 1.172,-1.032 1.418,-1.368 0.246,-0.336 0.371,-0.652 0.371,-0.949 0,-0.312 -0.113,-0.578 -0.34,-0.793 -0.223,-0.215 -0.516,-0.324 -0.875,-0.324 -0.379,0 -0.684,0.113 -0.914,0.344 -0.227,0.226 -0.344,0.543 -0.348,0.949 l -0.812,-0.086 c 0.055,-0.605 0.266,-1.066 0.629,-1.387 0.363,-0.316 0.851,-0.476 1.465,-0.476 0.617,0 1.105,0.172 1.464,0.515 0.364,0.344 0.543,0.77 0.543,1.274 0,0.258 -0.054,0.511 -0.16,0.761 -0.105,0.25 -0.281,0.512 -0.523,0.786 -0.246,0.277 -0.652,0.656 -1.219,1.136 -0.476,0.399 -0.781,0.668 -0.914,0.809 -0.137,0.141 -0.246,0.285 -0.336,0.43 z m 2.059,-2.735 c -0.328,-0.121 -0.57,-0.293 -0.727,-0.515 -0.16,-0.223 -0.238,-0.489 -0.238,-0.797 0,-0.469 0.168,-0.864 0.504,-1.184 0.336,-0.32 0.785,-0.48 1.344,-0.48 0.562,0 1.015,0.164 1.359,0.492 0.344,0.324 0.516,0.723 0.516,1.191 0,0.301 -0.078,0.559 -0.239,0.782 -0.156,0.222 -0.394,0.39 -0.711,0.511 0.395,0.129 0.696,0.336 0.903,0.625 0.207,0.285 0.308,0.629 0.308,1.028 0,0.55 -0.195,1.015 -0.582,1.39 -0.39,0.375 -0.906,0.563 -1.539,0.563 -0.636,0 -1.148,-0.192 -1.539,-0.567 -0.39,-0.375 -0.586,-0.847 -0.586,-1.41 0,-0.418 0.11,-0.769 0.321,-1.051 0.211,-0.281 0.515,-0.476 0.906,-0.578 z m -0.156,-1.34 c 0,0.305 0.097,0.555 0.293,0.746 0.195,0.196 0.453,0.29 0.765,0.29 0.305,0 0.555,-0.094 0.75,-0.286 0.196,-0.191 0.289,-0.429 0.293,-0.707 -0.004,-0.289 -0.101,-0.535 -0.305,-0.73 -0.199,-0.199 -0.449,-0.297 -0.746,-0.297 -0.304,0 -0.554,0.098 -0.754,0.289 -0.199,0.195 -0.296,0.426 -0.296,0.695 z m -0.254,2.977 c -0.004,0.223 0.05,0.441 0.16,0.652 0.105,0.211 0.265,0.375 0.476,0.493 0.211,0.113 0.438,0.171 0.68,0.171 0.379,0 0.692,-0.121 0.938,-0.363 0.246,-0.246 0.367,-0.555 0.367,-0.93 0,-0.378 -0.125,-0.695 -0.379,-0.945 -0.254,-0.246 -0.57,-0.371 -0.953,-0.371 -0.371,0 -0.68,0.121 -0.926,0.367 -0.242,0.246 -0.367,0.555 -0.363,0.926 z m 8.425,3.75 c -0.437,-0.551 -0.804,-1.195 -1.109,-1.934 -0.301,-0.738 -0.453,-1.5 -0.449,-2.293 -0.004,-0.695 0.109,-1.363 0.336,-2.004 0.265,-0.742 0.672,-1.48 1.222,-2.214 h 0.567 c -0.356,0.609 -0.59,1.043 -0.703,1.304 -0.18,0.407 -0.321,0.828 -0.422,1.266 -0.125,0.547 -0.188,1.098 -0.188,1.652 0,1.41 0.438,2.817 1.313,4.223 z m 1.27,-3.582 0.828,-0.07 c 0.063,0.406 0.207,0.711 0.43,0.914 0.222,0.203 0.492,0.304 0.812,0.304 0.379,0 0.7,-0.144 0.965,-0.429 0.262,-0.289 0.395,-0.668 0.395,-1.145 0,-0.449 -0.125,-0.805 -0.379,-1.066 -0.254,-0.262 -0.586,-0.391 -0.996,-0.391 -0.254,0 -0.485,0.059 -0.688,0.172 -0.207,0.117 -0.367,0.266 -0.484,0.453 l -0.742,-0.098 0.621,-3.308 h 3.207 v 0.754 h -2.574 l -0.344,1.73 c 0.383,-0.269 0.789,-0.402 1.215,-0.402 0.562,0 1.039,0.195 1.425,0.586 0.387,0.387 0.579,0.89 0.579,1.5 0,0.586 -0.168,1.09 -0.508,1.512 -0.414,0.523 -0.981,0.785 -1.692,0.785 -0.59,0 -1.066,-0.164 -1.437,-0.492 -0.371,-0.329 -0.582,-0.766 -0.633,-1.309 z m 6.215,-1.805 c -0.328,-0.121 -0.57,-0.293 -0.727,-0.515 -0.16,-0.223 -0.238,-0.489 -0.238,-0.797 0,-0.469 0.168,-0.864 0.504,-1.184 0.336,-0.32 0.785,-0.48 1.344,-0.48 0.562,0 1.015,0.164 1.359,0.492 0.344,0.324 0.516,0.723 0.516,1.191 0,0.301 -0.078,0.559 -0.239,0.782 -0.156,0.222 -0.394,0.39 -0.711,0.511 0.395,0.129 0.696,0.336 0.903,0.625 0.207,0.285 0.308,0.629 0.308,1.028 0,0.55 -0.195,1.015 -0.582,1.39 -0.39,0.375 -0.902,0.563 -1.539,0.563 -0.636,0 -1.148,-0.192 -1.539,-0.567 -0.39,-0.375 -0.586,-0.847 -0.586,-1.41 0,-0.418 0.11,-0.769 0.321,-1.051 0.211,-0.281 0.515,-0.476 0.906,-0.578 z m -0.156,-1.34 c 0,0.305 0.097,0.555 0.293,0.746 0.195,0.196 0.453,0.29 0.765,0.29 0.305,0 0.555,-0.094 0.75,-0.286 0.196,-0.191 0.293,-0.429 0.293,-0.707 0,-0.289 -0.101,-0.535 -0.305,-0.73 -0.199,-0.199 -0.449,-0.297 -0.746,-0.297 -0.304,0 -0.554,0.098 -0.754,0.289 -0.199,0.195 -0.296,0.426 -0.296,0.695 z m -0.254,2.977 c 0,0.223 0.05,0.441 0.16,0.652 0.105,0.211 0.265,0.375 0.476,0.493 0.211,0.113 0.438,0.171 0.68,0.171 0.379,0 0.692,-0.121 0.938,-0.363 0.246,-0.246 0.367,-0.555 0.367,-0.93 0,-0.378 -0.125,-0.695 -0.379,-0.945 -0.254,-0.246 -0.57,-0.371 -0.953,-0.371 -0.371,0 -0.68,0.121 -0.926,0.367 -0.242,0.246 -0.363,0.555 -0.363,0.926 z m 4.636,1.855 v -0.898 h 0.903 v 0.898 z m 2.063,-1.699 0.789,-0.105 c 0.094,0.449 0.246,0.769 0.465,0.968 0.219,0.2 0.484,0.297 0.797,0.297 0.371,0 0.687,-0.129 0.941,-0.386 0.258,-0.258 0.387,-0.578 0.387,-0.957 0,-0.364 -0.117,-0.664 -0.356,-0.899 -0.238,-0.238 -0.539,-0.355 -0.906,-0.355 -0.148,0 -0.336,0.031 -0.558,0.09 l 0.089,-0.696 c 0.051,0.004 0.094,0.008 0.125,0.008 0.34,0 0.641,-0.086 0.91,-0.262 0.27,-0.175 0.407,-0.449 0.407,-0.812 0,-0.293 -0.098,-0.531 -0.297,-0.723 -0.195,-0.191 -0.449,-0.285 -0.758,-0.285 -0.309,0 -0.566,0.098 -0.769,0.289 -0.207,0.195 -0.336,0.484 -0.395,0.871 l -0.793,-0.14 c 0.098,-0.532 0.316,-0.942 0.66,-1.235 0.344,-0.289 0.77,-0.437 1.278,-0.437 0.351,0 0.675,0.078 0.972,0.226 0.297,0.153 0.52,0.36 0.68,0.617 0.156,0.262 0.234,0.539 0.234,0.832 0,0.278 -0.074,0.532 -0.226,0.762 -0.149,0.227 -0.367,0.41 -0.66,0.543 0.378,0.09 0.675,0.27 0.886,0.547 0.211,0.277 0.317,0.625 0.317,1.039 0,0.563 -0.207,1.039 -0.618,1.43 -0.41,0.394 -0.925,0.59 -1.554,0.59 -0.567,0 -1.035,-0.168 -1.41,-0.508 -0.371,-0.336 -0.586,-0.774 -0.637,-1.309 z m 5.144,-3.195 c 0,-0.461 0.118,-0.852 0.348,-1.172 0.231,-0.324 0.567,-0.484 1.004,-0.484 0.406,0 0.742,0.144 1.004,0.433 0.266,0.289 0.398,0.711 0.398,1.274 0,0.543 -0.132,0.961 -0.402,1.257 -0.266,0.293 -0.598,0.442 -0.988,0.442 -0.391,0 -0.715,-0.145 -0.977,-0.434 -0.258,-0.293 -0.387,-0.73 -0.387,-1.316 z m 1.375,-1.109 c -0.195,0 -0.359,0.082 -0.488,0.253 -0.133,0.168 -0.195,0.481 -0.195,0.934 0,0.414 0.062,0.707 0.195,0.875 0.133,0.168 0.297,0.25 0.488,0.25 0.2,0 0.364,-0.082 0.497,-0.254 0.128,-0.168 0.195,-0.48 0.195,-0.93 0,-0.418 -0.067,-0.711 -0.199,-0.878 -0.133,-0.168 -0.297,-0.25 -0.493,-0.25 z m 0.004,6.242 3.524,-6.789 h 0.644 l -3.511,6.789 z m 2.786,-1.75 c 0,-0.461 0.117,-0.852 0.347,-1.176 0.235,-0.32 0.57,-0.481 1.012,-0.481 0.406,0 0.738,0.145 1.004,0.434 0.265,0.289 0.398,0.715 0.398,1.274 0,0.542 -0.133,0.964 -0.402,1.257 -0.27,0.293 -0.602,0.442 -0.996,0.442 -0.391,0 -0.715,-0.145 -0.973,-0.438 -0.258,-0.289 -0.39,-0.726 -0.39,-1.312 z m 1.382,-1.11 c -0.199,0 -0.367,0.086 -0.496,0.254 -0.129,0.172 -0.195,0.481 -0.195,0.938 0,0.41 0.066,0.699 0.199,0.867 0.129,0.172 0.293,0.258 0.488,0.258 0.2,0 0.368,-0.086 0.496,-0.258 0.133,-0.168 0.196,-0.481 0.196,-0.93 0,-0.418 -0.067,-0.707 -0.196,-0.879 -0.132,-0.168 -0.296,-0.25 -0.492,-0.25 z m 3.043,4.516 h -0.566 c 0.875,-1.406 1.312,-2.813 1.312,-4.223 0,-0.55 -0.062,-1.097 -0.187,-1.636 -0.102,-0.442 -0.242,-0.864 -0.418,-1.266 -0.117,-0.266 -0.352,-0.703 -0.707,-1.32 h 0.566 c 0.551,0.734 0.957,1.472 1.219,2.214 0.227,0.641 0.34,1.309 0.34,2.004 0,0.793 -0.152,1.555 -0.453,2.293 -0.305,0.739 -0.672,1.383 -1.106,1.934 z"
       style="fill:#202124;fill-opacity:1;fill-rule:nonzero;stroke:#ffffff;stroke-width:2.25;stroke-linecap:butt;stroke-linejoin:miter;stroke-miterlimit:4;stroke-dasharray:none;stroke-opacity:1"
       id="path5111" />
    <text
       xml:space="preserve"
       style="font-variant:normal;font-size:9px;font-family:CairoFont-2;-inkscape-font-specification:CairoFont-2-0;writing-mode:lr-tb;fill:#202124;fill-opacity:1;fill-rule:nonzero;stroke:none"
       id="text5115"
       x="389.5"
       y="317.64999"><tspan
         x="389.5 394.504 399.508 402.00101 404.99799 410.00201 415.00601 417.49899 422.47601 430.47699"
         y="317.64999"
         sodipodi:role="line"
         id="tspan5113">28 (58.3%)</tspan></text>
  </g>
</svg>
