<?xml version="1.0" encoding="UTF-8" standalone="no"?>
<!-- Created with Inkscape (http://www.inkscape.org/) -->

<svg
   version="1.1"
   id="svg4819"
   width="593.31055"
   height="287.33408"
   viewBox="0 0 593.31055 287.33406"
   sodipodi:docname="cocotb user survey 2023.pdf"
   xmlns:inkscape="http://www.inkscape.org/namespaces/inkscape"
   xmlns:sodipodi="http://sodipodi.sourceforge.net/DTD/sodipodi-0.dtd"
   xmlns="http://www.w3.org/2000/svg"
   xmlns:svg="http://www.w3.org/2000/svg">
  <defs
     id="defs4823">
    <clipPath
       clipPathUnits="userSpaceOnUse"
       id="clipPath11185">
      <path
         d="M 175,198.5 H 470 V 352 H 175 Z"
         id="path11183" />
    </clipPath>
    <clipPath
       clipPathUnits="userSpaceOnUse"
       id="clipPath11197">
      <path
         d="M 175.75,198.5 H 177 v 153 h -1.25 z"
         id="path11195" />
    </clipPath>
    <clipPath
       clipPathUnits="userSpaceOnUse"
       id="clipPath11207">
      <path
         d="m 249,198.5 h 1 v 153 h -1 z"
         id="path11205" />
    </clipPath>
    <clipPath
       clipPathUnits="userSpaceOnUse"
       id="clipPath11217">
      <path
         d="m 322,198.5 h 1 v 153 h -1 z"
         id="path11215" />
    </clipPath>
    <clipPath
       clipPathUnits="userSpaceOnUse"
       id="clipPath11227">
      <path
         d="m 395,198.5 h 2 v 153 h -2 z"
         id="path11225" />
    </clipPath>
    <clipPath
       clipPathUnits="userSpaceOnUse"
       id="clipPath11237">
      <path
         d="m 468,198.5 h 1 v 153 h -1 z"
         id="path11235" />
    </clipPath>
    <clipPath
       clipPathUnits="userSpaceOnUse"
       id="clipPath11247">
      <path
         d="m 212,198.5 h 2 v 153 h -2 z"
         id="path11245" />
    </clipPath>
    <clipPath
       clipPathUnits="userSpaceOnUse"
       id="clipPath11257">
      <path
         d="m 285,198.5 h 1 v 153 h -1 z"
         id="path11255" />
    </clipPath>
    <clipPath
       clipPathUnits="userSpaceOnUse"
       id="clipPath11267">
      <path
         d="m 358,198.5 h 2 v 153 h -2 z"
         id="path11265" />
    </clipPath>
    <clipPath
       clipPathUnits="userSpaceOnUse"
       id="clipPath11277">
      <path
         d="m 431,198.5 h 2 v 153 h -2 z"
         id="path11275" />
    </clipPath>
    <clipPath
       clipPathUnits="userSpaceOnUse"
       id="clipPath11303">
      <path
         d="M 175.75,198.5 H 177 v 153 h -1.25 z"
         id="path11301" />
    </clipPath>
  </defs>
  <sodipodi:namedview
     id="namedview4821"
     pagecolor="#ffffff"
     bordercolor="#666666"
     borderopacity="1.0"
     inkscape:showpageshadow="2"
     inkscape:pageopacity="0.0"
     inkscape:pagecheckerboard="0"
     inkscape:deskcolor="#d1d1d1"
     showgrid="false" />
  <g
     id="g10971"
     inkscape:groupmode="layer"
     inkscape:label="Page 9"
     transform="matrix(1.3333333,0,0,1.3333333,-83.752124,-198.68488)">
    <text
       xml:space="preserve"
       style="font-variant:normal;font-size:12px;font-family:CairoFont-1;-inkscape-font-specification:CairoFont-1-0;writing-mode:lr-tb;fill:#18191c;fill-opacity:1;fill-rule:nonzero;stroke:none"
       id="text11151"
       x="62.700001"
       y="157.75"><tspan
         x="62.700001 73.5 80.256004 83.304001 89.736 96.492004 99.612 105.492 111.996 116.208 122.53201 125.592 132.588 139.34399 145.68001 148.8 155.79601 160.104 163.224 169.65601 176.65201 183.084 190.08 194.14799 201.036 204.15599 210.81599 214.90799 221.412 224.532 230.26799 237.26399 244.02 247.14 253.896 260.23199 263.28 270.048 276.936"
         y="157.75"
         sodipodi:role="line"
         id="tspan11149">Which versions of cocotb are you using?</tspan></text>
    <text
       xml:space="preserve"
       style="font-variant:normal;font-size:9px;font-family:CairoFont-1;-inkscape-font-specification:CairoFont-1-0;writing-mode:lr-tb;fill:#18191c;fill-opacity:1;fill-rule:nonzero;stroke:none"
       id="text11155"
       x="62.700001"
       y="177.5"><tspan
         x="62.700001 67.973999 73.238998 75.687004 78.873001 83.849998 88.709999 93.984001 99.339005 104.523 109.383 114.36"
         y="177.5"
         sodipodi:role="line"
         id="tspan11153">46 responses</tspan></text>
    <g
       id="g11179">
      <g
         id="g11181"
         clip-path="url(#clipPath11185)">
        <g
           id="g11187">
          <path
             d="M 175.75,198.5 H 469 v 153 H 175.75 Z"
             style="fill:none;stroke:#eeeeee;stroke-width:0.75;stroke-linecap:butt;stroke-linejoin:miter;stroke-miterlimit:4;stroke-dasharray:none;stroke-opacity:1"
             id="path11189" />
        </g>
      </g>
    </g>
    <g
       id="g11191">
      <g
         id="g11193"
         clip-path="url(#clipPath11197)">
        <path
           d="m 175.75,198.5 h 0.75 v 153 h -0.75 z"
           style="fill:#eeeeee;fill-opacity:1;fill-rule:nonzero;stroke:none"
           id="path11199" />
      </g>
    </g>
    <g
       id="g11201">
      <g
         id="g11203"
         clip-path="url(#clipPath11207)">
        <path
           d="M 249.25,198.5 H 250 v 153 h -0.75 z"
           style="fill:#eeeeee;fill-opacity:1;fill-rule:nonzero;stroke:none"
           id="path11209" />
      </g>
    </g>
    <g
       id="g11211">
      <g
         id="g11213"
         clip-path="url(#clipPath11217)">
        <path
           d="m 322,198.5 h 0.75 v 153 H 322 Z"
           style="fill:#eeeeee;fill-opacity:1;fill-rule:nonzero;stroke:none"
           id="path11219" />
      </g>
    </g>
    <g
       id="g11221">
      <g
         id="g11223"
         clip-path="url(#clipPath11227)">
        <path
           d="m 395.5,198.5 h 0.75 v 153 h -0.75 z"
           style="fill:#eeeeee;fill-opacity:1;fill-rule:nonzero;stroke:none"
           id="path11229" />
      </g>
    </g>
    <g
       id="g11231">
      <g
         id="g11233"
         clip-path="url(#clipPath11237)">
        <path
           d="M 468.25,198.5 H 469 v 153 h -0.75 z"
           style="fill:#eeeeee;fill-opacity:1;fill-rule:nonzero;stroke:none"
           id="path11239" />
      </g>
    </g>
    <g
       id="g11241">
      <g
         id="g11243"
         clip-path="url(#clipPath11247)">
        <path
           d="m 212.5,198.5 h 0.75 v 153 h -0.75 z"
           style="fill:#f8f8f8;fill-opacity:1;fill-rule:nonzero;stroke:none"
           id="path11249" />
      </g>
    </g>
    <g
       id="g11251">
      <g
         id="g11253"
         clip-path="url(#clipPath11257)">
        <path
           d="M 285.25,198.5 H 286 v 153 h -0.75 z"
           style="fill:#f8f8f8;fill-opacity:1;fill-rule:nonzero;stroke:none"
           id="path11259" />
      </g>
    </g>
    <g
       id="g11261">
      <g
         id="g11263"
         clip-path="url(#clipPath11267)">
        <path
           d="m 358.75,198.5 h 0.75 v 153 h -0.75 z"
           style="fill:#f8f8f8;fill-opacity:1;fill-rule:nonzero;stroke:none"
           id="path11269" />
      </g>
    </g>
    <g
       id="g11271">
      <g
         id="g11273"
         clip-path="url(#clipPath11277)">
        <path
           d="m 431.5,198.5 h 0.75 v 153 h -0.75 z"
           style="fill:#f8f8f8;fill-opacity:1;fill-rule:nonzero;stroke:none"
           id="path11279" />
      </g>
    </g>
    <g
       id="g11281">
      <path
         d="M 176.5,203 H 454 v 13.5 H 176.5 Z"
         style="fill:#3776ab;fill-opacity:1;fill-rule:nonzero;stroke:none"
         id="path11283" />
      <path
         d="M 176.5,224.75 H 256 v 13.5 h -79.5 z"
         style="fill:#3776ab;fill-opacity:1;fill-rule:nonzero;stroke:none"
         id="path11285" />
      <path
         d="m 176.5,246.5 h 14.25 V 260 H 176.5 Z"
         style="fill:#3776ab;fill-opacity:1;fill-rule:nonzero;stroke:none"
         id="path11287" />
      <path
         d="m 176.5,268.25 h 50.25 v 13.5 H 176.5 Z"
         style="fill:#3776ab;fill-opacity:1;fill-rule:nonzero;stroke:none"
         id="path11289" />
      <path
         d="m 176.5,290 h 6.75 v 13.5 h -6.75 z"
         style="fill:#3776ab;fill-opacity:1;fill-rule:nonzero;stroke:none"
         id="path11291" />
      <path
         d="m 176.5,311.75 h 6.75 v 13.5 h -6.75 z"
         style="fill:#3776ab;fill-opacity:1;fill-rule:nonzero;stroke:none"
         id="path11293" />
      <path
         d="m 176.5,333.5 h 6.75 V 347 h -6.75 z"
         style="fill:#3776ab;fill-opacity:1;fill-rule:nonzero;stroke:none"
         id="path11295" />
    </g>
    <g
       id="g11297">
      <g
         id="g11299"
         clip-path="url(#clipPath11303)">
        <path
           d="m 175.75,198.5 h 0.75 v 153 h -0.75 z"
           style="fill:#333333;fill-opacity:1;fill-rule:nonzero;stroke:none"
           id="path11305" />
      </g>
    </g>
    <g
       id="g11307">
      <path
         d="m 454,209.75 h 9 v 0.75 h -9 z"
         style="fill:#999999;fill-opacity:1;fill-rule:nonzero;stroke:none"
         id="path11309" />
      <path
         d="m 256,231.5 h 9 v 0.75 h -9 z"
         style="fill:#999999;fill-opacity:1;fill-rule:nonzero;stroke:none"
         id="path11311" />
      <path
         d="m 190.75,253.25 h 9 V 254 h -9 z"
         style="fill:#999999;fill-opacity:1;fill-rule:nonzero;stroke:none"
         id="path11313" />
      <path
         d="m 226.75,275 h 9 v 0.75 h -9 z"
         style="fill:#999999;fill-opacity:1;fill-rule:nonzero;stroke:none"
         id="path11315" />
      <path
         d="m 183.25,296.75 h 9 v 0.75 h -9 z"
         style="fill:#999999;fill-opacity:1;fill-rule:nonzero;stroke:none"
         id="path11317" />
      <path
         d="m 183.25,318.5 h 9 v 0.75 h -9 z"
         style="fill:#999999;fill-opacity:1;fill-rule:nonzero;stroke:none"
         id="path11319" />
      <path
         d="m 183.25,340.25 h 9 V 341 h -9 z"
         style="fill:#999999;fill-opacity:1;fill-rule:nonzero;stroke:none"
         id="path11321" />
      <text
         xml:space="preserve"
         transform="translate(173.625,364.39999)"
         style="font-variant:normal;font-size:9px;font-family:CairoFont-2;-inkscape-font-specification:CairoFont-2-0;writing-mode:lr-tb;fill:#444444;fill-opacity:1;fill-rule:nonzero;stroke:none"
         id="text11325"><tspan
           x="0 70.623001 75.626999 143.75 148.754 216.875 221.879 290 295.004"
           y="0"
           sodipodi:role="line"
           id="tspan11323">010203040</tspan></text>
      <text
         xml:space="preserve"
         transform="translate(147.25,212.89999)"
         style="font-variant:normal;font-size:9px;font-family:CairoFont-2;-inkscape-font-specification:CairoFont-2-0;writing-mode:lr-tb;fill:#222222;fill-opacity:1;fill-rule:nonzero;stroke:none"
         id="text11341"><tspan
           x="0 5.0040002 7.4970002 12.501 14.994"
           y="0"
           sodipodi:role="line"
           id="tspan11327">1.7.x</tspan><tspan
           x="0 5.0040002 7.4970002 12.501 14.994"
           y="21.750004"
           sodipodi:role="line"
           id="tspan11329">1.6.x</tspan><tspan
           x="0 5.0040002 7.4970002 12.501 14.994"
           y="43.500008"
           sodipodi:role="line"
           id="tspan11331">1.5.x</tspan><tspan
           x="-71 -65.996002 -63.503002 -58.499001 -53.495003 -48.995003 -43.991001 -41.993 -37.016003 -32.012001 -24.515001 -19.511002 -14.507001 -12.014001 -9.5210009 -5.0210009 -0.017000999 2.9799991 7.4799991 9.4779987 14.481999"
           y="65.250008"
           sodipodi:role="line"
           id="tspan11333">a development version</tspan><tspan
           x="7.0000019 12.004002 14.497002"
           y="87.000015"
           sodipodi:role="line"
           id="tspan11335">1.4</tspan><tspan
           x="-17.499996 -12.495996 -10.002996 -4.9989958 -2.505996 2.498004 4.991004 9.9680042 14.972004"
           y="108.75001"
           sodipodi:role="line"
           id="tspan11337">1.8.0 dev</tspan><tspan
           x="-65.499992 -60.495995 -55.995995 -51.495995 -48.498993 -43.998993 -38.994991 -33.990993 -30.993994 -26.493994 -21.489992 -19.491993 -16.998993 -11.994993 -9.5019932 -5.0019932 -0.024993001 2.972007 7.4720068 9.4700069 14.474007"
           y="130.50002"
           sodipodi:role="line"
           id="tspan11339">oss-cad-suite version</tspan></text>
      <path
         d="m 463.379,211.199 0.789,-0.105 c 0.094,0.449 0.246,0.769 0.465,0.968 0.219,0.2 0.484,0.297 0.797,0.297 0.371,0 0.687,-0.129 0.941,-0.386 0.258,-0.258 0.387,-0.578 0.387,-0.957 0,-0.364 -0.117,-0.664 -0.356,-0.899 -0.238,-0.238 -0.539,-0.355 -0.906,-0.355 -0.148,0 -0.336,0.031 -0.558,0.09 l 0.089,-0.696 c 0.051,0.004 0.094,0.008 0.125,0.008 0.34,0 0.641,-0.086 0.91,-0.262 0.27,-0.175 0.407,-0.449 0.407,-0.812 0,-0.293 -0.098,-0.531 -0.297,-0.723 -0.195,-0.191 -0.449,-0.285 -0.758,-0.285 -0.309,0 -0.566,0.098 -0.769,0.289 -0.207,0.195 -0.336,0.484 -0.395,0.871 l -0.793,-0.14 c 0.098,-0.532 0.316,-0.942 0.66,-1.235 0.344,-0.289 0.77,-0.437 1.278,-0.437 0.351,0 0.675,0.078 0.972,0.226 0.297,0.153 0.52,0.36 0.68,0.617 0.156,0.262 0.234,0.539 0.234,0.832 0,0.278 -0.074,0.532 -0.226,0.762 -0.149,0.227 -0.367,0.41 -0.66,0.543 0.378,0.09 0.675,0.27 0.886,0.547 0.211,0.277 0.317,0.625 0.317,1.039 0,0.563 -0.207,1.039 -0.618,1.43 -0.41,0.394 -0.925,0.59 -1.554,0.59 -0.567,0 -1.035,-0.168 -1.41,-0.508 -0.371,-0.336 -0.586,-0.774 -0.637,-1.309 z m 6.211,-1.793 c -0.328,-0.121 -0.57,-0.293 -0.727,-0.515 -0.16,-0.223 -0.238,-0.489 -0.238,-0.797 0,-0.469 0.168,-0.864 0.504,-1.184 0.336,-0.32 0.785,-0.48 1.344,-0.48 0.562,0 1.015,0.164 1.359,0.492 0.344,0.324 0.516,0.723 0.516,1.191 0,0.301 -0.078,0.559 -0.239,0.782 -0.156,0.222 -0.394,0.39 -0.711,0.511 0.395,0.129 0.696,0.336 0.903,0.625 0.207,0.285 0.308,0.629 0.308,1.028 0,0.55 -0.195,1.015 -0.582,1.39 -0.39,0.375 -0.902,0.563 -1.539,0.563 -0.636,0 -1.148,-0.192 -1.539,-0.567 -0.39,-0.375 -0.586,-0.847 -0.586,-1.41 0,-0.418 0.11,-0.769 0.321,-1.051 0.211,-0.281 0.515,-0.476 0.906,-0.578 z m -0.156,-1.34 c 0,0.305 0.097,0.555 0.293,0.746 0.195,0.196 0.453,0.29 0.765,0.29 0.305,0 0.555,-0.094 0.75,-0.286 0.196,-0.191 0.293,-0.429 0.293,-0.707 0,-0.289 -0.101,-0.535 -0.305,-0.73 -0.199,-0.199 -0.449,-0.297 -0.746,-0.297 -0.304,0 -0.554,0.098 -0.754,0.289 -0.199,0.195 -0.296,0.426 -0.296,0.695 z m -0.254,2.977 c 0,0.223 0.05,0.441 0.16,0.652 0.105,0.211 0.265,0.375 0.476,0.493 0.211,0.113 0.438,0.171 0.68,0.171 0.379,0 0.692,-0.121 0.938,-0.363 0.246,-0.246 0.367,-0.555 0.367,-0.93 0,-0.378 -0.125,-0.695 -0.379,-0.945 -0.254,-0.246 -0.57,-0.371 -0.953,-0.371 -0.371,0 -0.68,0.121 -0.926,0.367 -0.242,0.246 -0.363,0.555 -0.363,0.926 z m 8.425,3.75 c -0.437,-0.551 -0.804,-1.195 -1.109,-1.934 -0.301,-0.738 -0.449,-1.5 -0.449,-2.293 0,-0.695 0.109,-1.363 0.336,-2.004 0.265,-0.742 0.672,-1.48 1.222,-2.214 h 0.567 c -0.356,0.609 -0.59,1.043 -0.703,1.304 -0.18,0.407 -0.321,0.828 -0.422,1.266 -0.125,0.547 -0.188,1.098 -0.188,1.652 0,1.41 0.438,2.817 1.313,4.223 z m 2.485,-5.387 c -0.328,-0.121 -0.57,-0.293 -0.727,-0.515 -0.16,-0.223 -0.238,-0.489 -0.238,-0.797 0,-0.469 0.168,-0.864 0.504,-1.184 0.336,-0.32 0.785,-0.48 1.344,-0.48 0.562,0 1.015,0.164 1.359,0.492 0.344,0.324 0.516,0.723 0.516,1.191 0,0.301 -0.078,0.559 -0.239,0.782 -0.156,0.222 -0.394,0.39 -0.711,0.511 0.395,0.129 0.696,0.336 0.903,0.625 0.207,0.285 0.308,0.629 0.308,1.028 0,0.55 -0.195,1.015 -0.582,1.39 -0.39,0.375 -0.902,0.563 -1.539,0.563 -0.636,0 -1.148,-0.192 -1.539,-0.567 -0.39,-0.375 -0.586,-0.847 -0.586,-1.41 0,-0.418 0.11,-0.769 0.321,-1.051 0.211,-0.281 0.515,-0.476 0.906,-0.578 z m -0.156,-1.34 c 0,0.305 0.097,0.555 0.293,0.746 0.195,0.196 0.453,0.29 0.765,0.29 0.305,0 0.555,-0.094 0.75,-0.286 0.196,-0.191 0.293,-0.429 0.293,-0.707 0,-0.289 -0.101,-0.535 -0.305,-0.73 -0.199,-0.199 -0.449,-0.297 -0.746,-0.297 -0.304,0 -0.554,0.098 -0.754,0.289 -0.199,0.195 -0.296,0.426 -0.296,0.695 z m -0.254,2.977 c 0,0.223 0.05,0.441 0.16,0.652 0.105,0.211 0.265,0.375 0.476,0.493 0.211,0.113 0.438,0.171 0.68,0.171 0.379,0 0.692,-0.121 0.938,-0.363 0.246,-0.246 0.367,-0.555 0.367,-0.93 0,-0.378 -0.125,-0.695 -0.379,-0.945 -0.254,-0.246 -0.57,-0.371 -0.953,-0.371 -0.371,0 -0.68,0.121 -0.926,0.367 -0.242,0.246 -0.363,0.555 -0.363,0.926 z m 8.351,1.098 v 0.757 h -4.258 c -0.007,-0.187 0.024,-0.371 0.09,-0.546 0.11,-0.29 0.285,-0.579 0.524,-0.86 0.238,-0.281 0.582,-0.605 1.035,-0.972 0.699,-0.575 1.172,-1.032 1.418,-1.368 0.246,-0.336 0.371,-0.652 0.371,-0.949 0,-0.312 -0.113,-0.578 -0.34,-0.793 -0.223,-0.215 -0.516,-0.324 -0.875,-0.324 -0.379,0 -0.684,0.113 -0.914,0.344 -0.227,0.226 -0.344,0.543 -0.348,0.949 l -0.812,-0.086 c 0.055,-0.605 0.266,-1.066 0.629,-1.387 0.363,-0.316 0.851,-0.476 1.465,-0.476 0.617,0 1.105,0.172 1.464,0.515 0.364,0.344 0.543,0.77 0.543,1.274 0,0.258 -0.054,0.511 -0.16,0.761 -0.105,0.25 -0.281,0.512 -0.523,0.786 -0.246,0.277 -0.652,0.656 -1.219,1.136 -0.476,0.399 -0.781,0.668 -0.914,0.809 -0.137,0.141 -0.246,0.285 -0.336,0.43 z m 1.285,0.757 V 212 h 0.903 v 0.898 z m 6.161,-4.863 -0.786,0.063 c -0.07,-0.313 -0.168,-0.536 -0.296,-0.676 -0.215,-0.227 -0.481,-0.34 -0.793,-0.34 -0.25,0 -0.473,0.07 -0.664,0.211 -0.25,0.18 -0.446,0.445 -0.59,0.797 -0.141,0.348 -0.215,0.844 -0.223,1.488 0.191,-0.289 0.422,-0.504 0.699,-0.644 0.274,-0.141 0.563,-0.211 0.867,-0.211 0.528,0 0.973,0.191 1.344,0.582 0.371,0.386 0.559,0.886 0.559,1.504 0,0.402 -0.09,0.781 -0.262,1.125 -0.176,0.347 -0.414,0.613 -0.719,0.8 -0.304,0.184 -0.652,0.278 -1.039,0.278 -0.656,0 -1.195,-0.246 -1.613,-0.731 -0.414,-0.484 -0.621,-1.281 -0.621,-2.394 0,-1.246 0.23,-2.153 0.687,-2.719 0.403,-0.492 0.942,-0.738 1.621,-0.738 0.508,0 0.922,0.144 1.247,0.429 0.324,0.282 0.519,0.676 0.582,1.176 z m -3.227,2.777 c 0,0.274 0.055,0.536 0.172,0.782 0.117,0.25 0.277,0.441 0.484,0.57 0.211,0.129 0.426,0.195 0.656,0.195 0.333,0 0.622,-0.132 0.86,-0.402 0.242,-0.269 0.363,-0.637 0.363,-1.102 0,-0.445 -0.121,-0.796 -0.355,-1.05 -0.239,-0.258 -0.539,-0.387 -0.899,-0.387 -0.355,0 -0.66,0.129 -0.91,0.387 -0.25,0.254 -0.371,0.593 -0.371,1.007 z m 4.273,-2.808 c 0,-0.461 0.118,-0.852 0.348,-1.172 0.231,-0.324 0.567,-0.484 1.004,-0.484 0.406,0 0.742,0.144 1.004,0.433 0.266,0.289 0.398,0.711 0.398,1.274 0,0.543 -0.132,0.961 -0.402,1.257 -0.266,0.293 -0.598,0.442 -0.988,0.442 -0.391,0 -0.715,-0.145 -0.977,-0.434 -0.258,-0.293 -0.387,-0.73 -0.387,-1.316 z m 1.375,-1.109 c -0.195,0 -0.359,0.082 -0.488,0.253 -0.133,0.168 -0.195,0.481 -0.195,0.934 0,0.414 0.062,0.707 0.195,0.875 0.133,0.168 0.297,0.25 0.488,0.25 0.2,0 0.364,-0.082 0.497,-0.254 0.128,-0.168 0.195,-0.48 0.195,-0.93 0,-0.418 -0.067,-0.711 -0.199,-0.878 -0.133,-0.168 -0.297,-0.25 -0.493,-0.25 z m 0.004,6.242 3.524,-6.789 h 0.644 l -3.511,6.789 z m 2.786,-1.75 c 0,-0.461 0.117,-0.852 0.347,-1.176 0.235,-0.32 0.57,-0.481 1.012,-0.481 0.406,0 0.738,0.145 1.004,0.434 0.265,0.289 0.398,0.715 0.398,1.274 0,0.542 -0.133,0.964 -0.402,1.257 -0.27,0.293 -0.602,0.442 -0.996,0.442 -0.391,0 -0.715,-0.145 -0.973,-0.438 -0.258,-0.289 -0.39,-0.726 -0.39,-1.312 z m 1.382,-1.11 c -0.199,0 -0.367,0.086 -0.496,0.254 -0.129,0.172 -0.195,0.481 -0.195,0.938 0,0.41 0.066,0.699 0.199,0.867 0.129,0.172 0.293,0.258 0.488,0.258 0.2,0 0.368,-0.086 0.496,-0.258 0.133,-0.168 0.196,-0.481 0.196,-0.93 0,-0.418 -0.067,-0.707 -0.196,-0.879 -0.132,-0.168 -0.296,-0.25 -0.492,-0.25 z m 3.043,4.516 h -0.566 c 0.875,-1.406 1.312,-2.813 1.312,-4.223 0,-0.55 -0.062,-1.097 -0.187,-1.636 -0.102,-0.442 -0.242,-0.864 -0.418,-1.266 -0.117,-0.266 -0.352,-0.703 -0.707,-1.32 h 0.566 c 0.551,0.734 0.957,1.472 1.219,2.214 0.227,0.641 0.34,1.309 0.34,2.004 0,0.793 -0.152,1.555 -0.453,2.293 -0.305,0.739 -0.672,1.383 -1.106,1.934 z"
         style="fill:#202124;fill-opacity:1;fill-rule:nonzero;stroke:none"
         id="path11343" />
      <g
         id="g11345">
        <path
           d="m 463.379,211.199 0.789,-0.105 c 0.094,0.449 0.246,0.769 0.465,0.968 0.219,0.2 0.484,0.297 0.797,0.297 0.371,0 0.687,-0.129 0.941,-0.386 0.258,-0.258 0.387,-0.578 0.387,-0.957 0,-0.364 -0.117,-0.664 -0.356,-0.899 -0.238,-0.238 -0.539,-0.355 -0.906,-0.355 -0.148,0 -0.336,0.031 -0.558,0.09 l 0.089,-0.696 c 0.051,0.004 0.094,0.008 0.125,0.008 0.34,0 0.641,-0.086 0.91,-0.262 0.27,-0.175 0.407,-0.449 0.407,-0.812 0,-0.293 -0.098,-0.531 -0.297,-0.723 -0.195,-0.191 -0.449,-0.285 -0.758,-0.285 -0.309,0 -0.566,0.098 -0.769,0.289 -0.207,0.195 -0.336,0.484 -0.395,0.871 l -0.793,-0.14 c 0.098,-0.532 0.316,-0.942 0.66,-1.235 0.344,-0.289 0.77,-0.437 1.278,-0.437 0.351,0 0.675,0.078 0.972,0.226 0.297,0.153 0.52,0.36 0.68,0.617 0.156,0.262 0.234,0.539 0.234,0.832 0,0.278 -0.074,0.532 -0.226,0.762 -0.149,0.227 -0.367,0.41 -0.66,0.543 0.378,0.09 0.675,0.27 0.886,0.547 0.211,0.277 0.317,0.625 0.317,1.039 0,0.563 -0.207,1.039 -0.618,1.43 -0.41,0.394 -0.925,0.59 -1.554,0.59 -0.567,0 -1.035,-0.168 -1.41,-0.508 -0.371,-0.336 -0.586,-0.774 -0.637,-1.309 z m 6.211,-1.793 c -0.328,-0.121 -0.57,-0.293 -0.727,-0.515 -0.16,-0.223 -0.238,-0.489 -0.238,-0.797 0,-0.469 0.168,-0.864 0.504,-1.184 0.336,-0.32 0.785,-0.48 1.344,-0.48 0.562,0 1.015,0.164 1.359,0.492 0.344,0.324 0.516,0.723 0.516,1.191 0,0.301 -0.078,0.559 -0.239,0.782 -0.156,0.222 -0.394,0.39 -0.711,0.511 0.395,0.129 0.696,0.336 0.903,0.625 0.207,0.285 0.308,0.629 0.308,1.028 0,0.55 -0.195,1.015 -0.582,1.39 -0.39,0.375 -0.902,0.563 -1.539,0.563 -0.636,0 -1.148,-0.192 -1.539,-0.567 -0.39,-0.375 -0.586,-0.847 -0.586,-1.41 0,-0.418 0.11,-0.769 0.321,-1.051 0.211,-0.281 0.515,-0.476 0.906,-0.578 z m -0.156,-1.34 c 0,0.305 0.097,0.555 0.293,0.746 0.195,0.196 0.453,0.29 0.765,0.29 0.305,0 0.555,-0.094 0.75,-0.286 0.196,-0.191 0.293,-0.429 0.293,-0.707 0,-0.289 -0.101,-0.535 -0.305,-0.73 -0.199,-0.199 -0.449,-0.297 -0.746,-0.297 -0.304,0 -0.554,0.098 -0.754,0.289 -0.199,0.195 -0.296,0.426 -0.296,0.695 z m -0.254,2.977 c 0,0.223 0.05,0.441 0.16,0.652 0.105,0.211 0.265,0.375 0.476,0.493 0.211,0.113 0.438,0.171 0.68,0.171 0.379,0 0.692,-0.121 0.938,-0.363 0.246,-0.246 0.367,-0.555 0.367,-0.93 0,-0.378 -0.125,-0.695 -0.379,-0.945 -0.254,-0.246 -0.57,-0.371 -0.953,-0.371 -0.371,0 -0.68,0.121 -0.926,0.367 -0.242,0.246 -0.363,0.555 -0.363,0.926 z m 8.425,3.75 c -0.437,-0.551 -0.804,-1.195 -1.109,-1.934 -0.301,-0.738 -0.449,-1.5 -0.449,-2.293 0,-0.695 0.109,-1.363 0.336,-2.004 0.265,-0.742 0.672,-1.48 1.222,-2.214 h 0.567 c -0.356,0.609 -0.59,1.043 -0.703,1.304 -0.18,0.407 -0.321,0.828 -0.422,1.266 -0.125,0.547 -0.188,1.098 -0.188,1.652 0,1.41 0.438,2.817 1.313,4.223 z m 2.485,-5.387 c -0.328,-0.121 -0.57,-0.293 -0.727,-0.515 -0.16,-0.223 -0.238,-0.489 -0.238,-0.797 0,-0.469 0.168,-0.864 0.504,-1.184 0.336,-0.32 0.785,-0.48 1.344,-0.48 0.562,0 1.015,0.164 1.359,0.492 0.344,0.324 0.516,0.723 0.516,1.191 0,0.301 -0.078,0.559 -0.239,0.782 -0.156,0.222 -0.394,0.39 -0.711,0.511 0.395,0.129 0.696,0.336 0.903,0.625 0.207,0.285 0.308,0.629 0.308,1.028 0,0.55 -0.195,1.015 -0.582,1.39 -0.39,0.375 -0.902,0.563 -1.539,0.563 -0.636,0 -1.148,-0.192 -1.539,-0.567 -0.39,-0.375 -0.586,-0.847 -0.586,-1.41 0,-0.418 0.11,-0.769 0.321,-1.051 0.211,-0.281 0.515,-0.476 0.906,-0.578 z m -0.156,-1.34 c 0,0.305 0.097,0.555 0.293,0.746 0.195,0.196 0.453,0.29 0.765,0.29 0.305,0 0.555,-0.094 0.75,-0.286 0.196,-0.191 0.293,-0.429 0.293,-0.707 0,-0.289 -0.101,-0.535 -0.305,-0.73 -0.199,-0.199 -0.449,-0.297 -0.746,-0.297 -0.304,0 -0.554,0.098 -0.754,0.289 -0.199,0.195 -0.296,0.426 -0.296,0.695 z m -0.254,2.977 c 0,0.223 0.05,0.441 0.16,0.652 0.105,0.211 0.265,0.375 0.476,0.493 0.211,0.113 0.438,0.171 0.68,0.171 0.379,0 0.692,-0.121 0.938,-0.363 0.246,-0.246 0.367,-0.555 0.367,-0.93 0,-0.378 -0.125,-0.695 -0.379,-0.945 -0.254,-0.246 -0.57,-0.371 -0.953,-0.371 -0.371,0 -0.68,0.121 -0.926,0.367 -0.242,0.246 -0.363,0.555 -0.363,0.926 z m 8.351,1.098 v 0.757 h -4.258 c -0.007,-0.187 0.024,-0.371 0.09,-0.546 0.11,-0.29 0.285,-0.579 0.524,-0.86 0.238,-0.281 0.582,-0.605 1.035,-0.972 0.699,-0.575 1.172,-1.032 1.418,-1.368 0.246,-0.336 0.371,-0.652 0.371,-0.949 0,-0.312 -0.113,-0.578 -0.34,-0.793 -0.223,-0.215 -0.516,-0.324 -0.875,-0.324 -0.379,0 -0.684,0.113 -0.914,0.344 -0.227,0.226 -0.344,0.543 -0.348,0.949 l -0.812,-0.086 c 0.055,-0.605 0.266,-1.066 0.629,-1.387 0.363,-0.316 0.851,-0.476 1.465,-0.476 0.617,0 1.105,0.172 1.464,0.515 0.364,0.344 0.543,0.77 0.543,1.274 0,0.258 -0.054,0.511 -0.16,0.761 -0.105,0.25 -0.281,0.512 -0.523,0.786 -0.246,0.277 -0.652,0.656 -1.219,1.136 -0.476,0.399 -0.781,0.668 -0.914,0.809 -0.137,0.141 -0.246,0.285 -0.336,0.43 z m 1.285,0.757 V 212 h 0.903 v 0.898 z m 6.161,-4.863 -0.786,0.063 c -0.07,-0.313 -0.168,-0.536 -0.296,-0.676 -0.215,-0.227 -0.481,-0.34 -0.793,-0.34 -0.25,0 -0.473,0.07 -0.664,0.211 -0.25,0.18 -0.446,0.445 -0.59,0.797 -0.141,0.348 -0.215,0.844 -0.223,1.488 0.191,-0.289 0.422,-0.504 0.699,-0.644 0.274,-0.141 0.563,-0.211 0.867,-0.211 0.528,0 0.973,0.191 1.344,0.582 0.371,0.386 0.559,0.886 0.559,1.504 0,0.402 -0.09,0.781 -0.262,1.125 -0.176,0.347 -0.414,0.613 -0.719,0.8 -0.304,0.184 -0.652,0.278 -1.039,0.278 -0.656,0 -1.195,-0.246 -1.613,-0.731 -0.414,-0.484 -0.621,-1.281 -0.621,-2.394 0,-1.246 0.23,-2.153 0.687,-2.719 0.403,-0.492 0.942,-0.738 1.621,-0.738 0.508,0 0.922,0.144 1.247,0.429 0.324,0.282 0.519,0.676 0.582,1.176 z m -3.227,2.777 c 0,0.274 0.055,0.536 0.172,0.782 0.117,0.25 0.277,0.441 0.484,0.57 0.211,0.129 0.426,0.195 0.656,0.195 0.333,0 0.622,-0.132 0.86,-0.402 0.242,-0.269 0.363,-0.637 0.363,-1.102 0,-0.445 -0.121,-0.796 -0.355,-1.05 -0.239,-0.258 -0.539,-0.387 -0.899,-0.387 -0.355,0 -0.66,0.129 -0.91,0.387 -0.25,0.254 -0.371,0.593 -0.371,1.007 z m 4.273,-2.808 c 0,-0.461 0.118,-0.852 0.348,-1.172 0.231,-0.324 0.567,-0.484 1.004,-0.484 0.406,0 0.742,0.144 1.004,0.433 0.266,0.289 0.398,0.711 0.398,1.274 0,0.543 -0.132,0.961 -0.402,1.257 -0.266,0.293 -0.598,0.442 -0.988,0.442 -0.391,0 -0.715,-0.145 -0.977,-0.434 -0.258,-0.293 -0.387,-0.73 -0.387,-1.316 z m 1.375,-1.109 c -0.195,0 -0.359,0.082 -0.488,0.253 -0.133,0.168 -0.195,0.481 -0.195,0.934 0,0.414 0.062,0.707 0.195,0.875 0.133,0.168 0.297,0.25 0.488,0.25 0.2,0 0.364,-0.082 0.497,-0.254 0.128,-0.168 0.195,-0.48 0.195,-0.93 0,-0.418 -0.067,-0.711 -0.199,-0.878 -0.133,-0.168 -0.297,-0.25 -0.493,-0.25 z m 0.004,6.242 3.524,-6.789 h 0.644 l -3.511,6.789 z m 2.786,-1.75 c 0,-0.461 0.117,-0.852 0.347,-1.176 0.235,-0.32 0.57,-0.481 1.012,-0.481 0.406,0 0.738,0.145 1.004,0.434 0.265,0.289 0.398,0.715 0.398,1.274 0,0.542 -0.133,0.964 -0.402,1.257 -0.27,0.293 -0.602,0.442 -0.996,0.442 -0.391,0 -0.715,-0.145 -0.973,-0.438 -0.258,-0.289 -0.39,-0.726 -0.39,-1.312 z m 1.382,-1.11 c -0.199,0 -0.367,0.086 -0.496,0.254 -0.129,0.172 -0.195,0.481 -0.195,0.938 0,0.41 0.066,0.699 0.199,0.867 0.129,0.172 0.293,0.258 0.488,0.258 0.2,0 0.368,-0.086 0.496,-0.258 0.133,-0.168 0.196,-0.481 0.196,-0.93 0,-0.418 -0.067,-0.707 -0.196,-0.879 -0.132,-0.168 -0.296,-0.25 -0.492,-0.25 z m 3.043,4.516 h -0.566 c 0.875,-1.406 1.312,-2.813 1.312,-4.223 0,-0.55 -0.062,-1.097 -0.187,-1.636 -0.102,-0.442 -0.242,-0.864 -0.418,-1.266 -0.117,-0.266 -0.352,-0.703 -0.707,-1.32 h 0.566 c 0.551,0.734 0.957,1.472 1.219,2.214 0.227,0.641 0.34,1.309 0.34,2.004 0,0.793 -0.152,1.555 -0.453,2.293 -0.305,0.739 -0.672,1.383 -1.106,1.934 z"
           style="fill:none;stroke:#ffffff;stroke-width:2.25;stroke-linecap:butt;stroke-linejoin:miter;stroke-miterlimit:4;stroke-dasharray:none;stroke-opacity:1"
           id="path11347" />
      </g>
      <text
         xml:space="preserve"
         transform="translate(463,212.89999)"
         style="font-variant:normal;font-size:9px;font-family:CairoFont-2;-inkscape-font-specification:CairoFont-2-0;writing-mode:lr-tb;fill:#202124;fill-opacity:1;fill-rule:nonzero;stroke:none"
         id="text11351"><tspan
           x="0 5.0040002 10.008 12.501 15.498 20.502001 25.506001 27.999001 32.976002 40.977001"
           y="0"
           sodipodi:role="line"
           id="tspan11349">38 (82.6%)</tspan></text>
      <g
         id="g11353">
        <path
           d="m 268.352,234.648 h -0.79 v -5.039 c -0.191,0.184 -0.441,0.364 -0.75,0.547 -0.308,0.18 -0.585,0.317 -0.832,0.406 v -0.765 c 0.442,-0.207 0.829,-0.457 1.161,-0.754 0.332,-0.297 0.566,-0.582 0.703,-0.863 h 0.508 z m 4.339,0 h -0.793 v -5.039 c -0.187,0.184 -0.437,0.364 -0.75,0.547 -0.308,0.18 -0.586,0.317 -0.832,0.406 v -0.765 c 0.446,-0.207 0.832,-0.457 1.161,-0.754 0.332,-0.297 0.566,-0.582 0.703,-0.863 h 0.511 z m 6.262,1.895 c -0.433,-0.551 -0.805,-1.195 -1.105,-1.934 -0.301,-0.738 -0.453,-1.5 -0.453,-2.293 0,-0.695 0.113,-1.363 0.339,-2.004 0.262,-0.742 0.668,-1.48 1.219,-2.214 h 0.57 c -0.355,0.609 -0.589,1.043 -0.703,1.304 -0.179,0.407 -0.32,0.828 -0.422,1.266 -0.128,0.547 -0.191,1.098 -0.191,1.652 0,1.41 0.438,2.817 1.316,4.223 z m 5.426,-2.652 v 0.757 h -4.258 c -0.004,-0.187 0.027,-0.371 0.094,-0.546 0.109,-0.29 0.281,-0.579 0.519,-0.86 0.239,-0.281 0.586,-0.605 1.036,-0.972 0.699,-0.575 1.175,-1.032 1.421,-1.368 0.247,-0.336 0.368,-0.652 0.368,-0.949 0,-0.312 -0.114,-0.578 -0.336,-0.793 -0.223,-0.215 -0.516,-0.324 -0.875,-0.324 -0.383,0 -0.688,0.113 -0.914,0.344 -0.231,0.226 -0.348,0.543 -0.348,0.949 l -0.813,-0.086 c 0.055,-0.605 0.262,-1.066 0.625,-1.387 0.364,-0.316 0.852,-0.476 1.465,-0.476 0.617,0 1.11,0.172 1.469,0.515 0.359,0.344 0.539,0.77 0.539,1.274 0,0.258 -0.051,0.511 -0.156,0.761 -0.106,0.25 -0.281,0.512 -0.527,0.786 -0.243,0.277 -0.649,0.656 -1.219,1.136 -0.473,0.399 -0.778,0.668 -0.914,0.809 -0.133,0.141 -0.246,0.285 -0.332,0.43 z m 0.848,-0.942 0.793,-0.105 c 0.089,0.449 0.246,0.769 0.464,0.968 0.215,0.2 0.481,0.297 0.797,0.297 0.371,0 0.684,-0.129 0.942,-0.386 0.257,-0.258 0.382,-0.578 0.382,-0.957 0,-0.364 -0.117,-0.664 -0.355,-0.899 -0.234,-0.238 -0.539,-0.355 -0.902,-0.355 -0.153,0 -0.336,0.031 -0.559,0.09 l 0.086,-0.696 c 0.055,0.004 0.098,0.008 0.129,0.008 0.336,0 0.641,-0.086 0.91,-0.262 0.27,-0.175 0.402,-0.449 0.402,-0.812 0,-0.293 -0.097,-0.531 -0.293,-0.723 -0.195,-0.191 -0.449,-0.285 -0.761,-0.285 -0.309,0 -0.563,0.098 -0.77,0.289 -0.203,0.195 -0.336,0.484 -0.394,0.871 l -0.789,-0.14 c 0.093,-0.532 0.316,-0.942 0.656,-1.235 0.344,-0.289 0.769,-0.437 1.281,-0.437 0.352,0 0.676,0.078 0.969,0.226 0.297,0.153 0.523,0.36 0.68,0.617 0.156,0.262 0.234,0.539 0.234,0.832 0,0.278 -0.074,0.532 -0.223,0.762 -0.148,0.227 -0.371,0.41 -0.664,0.543 0.383,0.09 0.676,0.27 0.887,0.547 0.211,0.277 0.316,0.625 0.316,1.039 0,0.563 -0.203,1.039 -0.613,1.43 -0.41,0.394 -0.93,0.59 -1.555,0.59 -0.566,0 -1.035,-0.168 -1.41,-0.508 -0.375,-0.336 -0.586,-0.774 -0.64,-1.309 z m 5.441,1.699 v -0.898 h 0.898 v 0.898 z m 2.176,-1.488 0.758,-0.07 c 0.066,0.359 0.187,0.617 0.371,0.777 0.179,0.16 0.414,0.242 0.699,0.242 0.242,0 0.453,-0.054 0.637,-0.168 0.183,-0.109 0.336,-0.257 0.453,-0.445 0.117,-0.187 0.215,-0.437 0.293,-0.754 0.078,-0.316 0.117,-0.637 0.117,-0.965 0,-0.035 0,-0.089 -0.004,-0.16 -0.156,0.254 -0.375,0.457 -0.648,0.613 -0.274,0.157 -0.571,0.235 -0.891,0.235 -0.531,0 -0.984,-0.192 -1.352,-0.578 -0.371,-0.387 -0.554,-0.899 -0.554,-1.532 0,-0.652 0.195,-1.179 0.578,-1.578 0.387,-0.398 0.867,-0.597 1.449,-0.597 0.418,0 0.801,0.113 1.148,0.34 0.348,0.226 0.61,0.546 0.793,0.964 0.18,0.418 0.27,1.024 0.27,1.813 0,0.824 -0.09,1.48 -0.27,1.965 -0.179,0.488 -0.445,0.859 -0.796,1.117 -0.352,0.254 -0.766,0.383 -1.243,0.383 -0.504,0 -0.914,-0.141 -1.234,-0.422 -0.32,-0.281 -0.512,-0.672 -0.574,-1.18 z m 3.238,-2.844 c 0,-0.453 -0.121,-0.812 -0.363,-1.082 -0.242,-0.265 -0.531,-0.398 -0.871,-0.398 -0.352,0 -0.66,0.144 -0.922,0.43 -0.258,0.289 -0.391,0.66 -0.391,1.117 0,0.41 0.125,0.742 0.371,1 0.25,0.258 0.555,0.383 0.918,0.383 0.367,0 0.668,-0.125 0.903,-0.383 0.238,-0.258 0.355,-0.613 0.355,-1.067 z m 1.789,-0.562 c 0,-0.461 0.117,-0.852 0.348,-1.172 0.234,-0.324 0.566,-0.484 1.008,-0.484 0.402,0 0.738,0.144 1.003,0.433 0.266,0.289 0.399,0.711 0.399,1.274 0,0.543 -0.133,0.961 -0.402,1.257 -0.27,0.293 -0.598,0.442 -0.993,0.442 -0.39,0 -0.714,-0.145 -0.972,-0.434 -0.258,-0.293 -0.391,-0.73 -0.391,-1.316 z m 1.379,-1.109 c -0.199,0 -0.359,0.082 -0.492,0.253 -0.129,0.168 -0.196,0.481 -0.196,0.934 0,0.414 0.067,0.707 0.2,0.875 0.129,0.168 0.293,0.25 0.488,0.25 0.199,0 0.363,-0.082 0.492,-0.254 0.133,-0.168 0.196,-0.48 0.196,-0.93 0,-0.418 -0.067,-0.711 -0.196,-0.878 -0.133,-0.168 -0.297,-0.25 -0.492,-0.25 z m 0.004,6.242 3.523,-6.789 h 0.641 l -3.512,6.789 z m 2.785,-1.75 c 0,-0.461 0.117,-0.852 0.348,-1.176 0.23,-0.32 0.566,-0.481 1.011,-0.481 0.403,0 0.739,0.145 1.004,0.434 0.266,0.289 0.395,0.715 0.395,1.274 0,0.542 -0.133,0.964 -0.399,1.257 -0.269,0.293 -0.601,0.442 -0.996,0.442 -0.39,0 -0.714,-0.145 -0.972,-0.438 -0.262,-0.289 -0.391,-0.726 -0.391,-1.312 z m 1.379,-1.11 c -0.199,0 -0.363,0.086 -0.492,0.254 -0.133,0.172 -0.196,0.481 -0.196,0.938 0,0.41 0.063,0.699 0.196,0.867 0.133,0.172 0.297,0.258 0.488,0.258 0.203,0 0.367,-0.086 0.5,-0.258 0.129,-0.168 0.195,-0.481 0.195,-0.93 0,-0.418 -0.066,-0.707 -0.199,-0.879 -0.133,-0.168 -0.297,-0.25 -0.492,-0.25 z m 3.043,4.516 h -0.566 c 0.875,-1.406 1.312,-2.813 1.312,-4.223 0,-0.55 -0.062,-1.097 -0.187,-1.636 -0.098,-0.442 -0.239,-0.864 -0.418,-1.266 -0.114,-0.266 -0.348,-0.703 -0.707,-1.32 h 0.566 c 0.551,0.734 0.957,1.472 1.223,2.214 0.226,0.641 0.339,1.309 0.339,2.004 0,0.793 -0.152,1.555 -0.457,2.293 -0.3,0.739 -0.671,1.383 -1.105,1.934 z"
           style="fill:#202124;fill-opacity:1;fill-rule:nonzero;stroke:#ffffff;stroke-width:2.25;stroke-linecap:butt;stroke-linejoin:miter;stroke-miterlimit:4;stroke-dasharray:none;stroke-opacity:1"
           id="path11355" />
      </g>
      <text
         xml:space="preserve"
         transform="translate(265,234.64999)"
         style="font-variant:normal;font-size:9px;font-family:CairoFont-2;-inkscape-font-specification:CairoFont-2-0;writing-mode:lr-tb;fill:#202124;fill-opacity:1;fill-rule:nonzero;stroke:none"
         id="text11359"><tspan
           x="0 4.3379998 9.342 11.835 14.832 19.836 24.84 27.333 32.337002 40.338001"
           y="0"
           sodipodi:role="line"
           id="tspan11357">11 (23.9%)</tspan></text>
      <g
         id="g11361">
        <path
           d="m 204.281,255.641 v 0.757 h -4.258 c -0.007,-0.187 0.024,-0.371 0.09,-0.546 0.11,-0.29 0.285,-0.579 0.524,-0.86 0.238,-0.281 0.582,-0.605 1.035,-0.972 0.699,-0.575 1.172,-1.032 1.418,-1.368 0.246,-0.336 0.371,-0.652 0.371,-0.949 0,-0.312 -0.113,-0.578 -0.34,-0.793 -0.223,-0.215 -0.516,-0.324 -0.875,-0.324 -0.379,0 -0.684,0.113 -0.914,0.344 -0.23,0.226 -0.344,0.543 -0.348,0.949 l -0.812,-0.086 c 0.055,-0.605 0.266,-1.066 0.629,-1.387 0.363,-0.316 0.851,-0.476 1.465,-0.476 0.617,0 1.105,0.172 1.464,0.515 0.364,0.344 0.543,0.77 0.543,1.274 0,0.258 -0.054,0.511 -0.16,0.761 -0.105,0.25 -0.281,0.512 -0.523,0.786 -0.246,0.277 -0.652,0.656 -1.223,1.136 -0.472,0.399 -0.777,0.668 -0.914,0.809 -0.133,0.141 -0.242,0.285 -0.332,0.43 z m 5.074,2.652 c -0.437,-0.551 -0.804,-1.195 -1.109,-1.934 -0.301,-0.738 -0.449,-1.5 -0.449,-2.293 0,-0.695 0.109,-1.363 0.336,-2.004 0.265,-0.742 0.672,-1.48 1.222,-2.214 h 0.567 c -0.356,0.609 -0.59,1.043 -0.703,1.304 -0.18,0.407 -0.321,0.828 -0.422,1.266 -0.125,0.547 -0.188,1.098 -0.188,1.652 0,1.41 0.438,2.817 1.313,4.223 z m 3.805,-1.895 v -1.539 h -2.797 v -0.726 l 2.942,-4.176 h 0.644 v 4.176 h 0.871 v 0.726 h -0.871 v 1.539 z m 0,-2.265 v -2.906 l -2.019,2.906 z m 2.906,2.265 V 255.5 h 0.903 v 0.898 z m 2.063,-1.699 0.789,-0.105 c 0.09,0.449 0.246,0.769 0.465,0.968 0.219,0.2 0.484,0.297 0.797,0.297 0.371,0 0.687,-0.129 0.941,-0.386 0.258,-0.258 0.387,-0.578 0.387,-0.957 0,-0.364 -0.117,-0.664 -0.356,-0.899 -0.238,-0.238 -0.539,-0.355 -0.906,-0.355 -0.148,0 -0.336,0.031 -0.558,0.09 l 0.089,-0.696 c 0.051,0.004 0.094,0.008 0.125,0.008 0.34,0 0.641,-0.086 0.91,-0.262 0.27,-0.175 0.407,-0.449 0.407,-0.812 0,-0.293 -0.102,-0.531 -0.297,-0.723 -0.195,-0.191 -0.449,-0.285 -0.758,-0.285 -0.309,0 -0.566,0.098 -0.769,0.289 -0.207,0.195 -0.34,0.484 -0.395,0.871 l -0.793,-0.14 c 0.098,-0.532 0.316,-0.942 0.66,-1.235 0.344,-0.289 0.77,-0.437 1.278,-0.437 0.351,0 0.675,0.078 0.972,0.226 0.297,0.153 0.52,0.36 0.68,0.617 0.156,0.262 0.234,0.539 0.234,0.832 0,0.278 -0.074,0.532 -0.226,0.762 -0.149,0.227 -0.367,0.41 -0.664,0.543 0.382,0.09 0.679,0.27 0.89,0.547 0.211,0.277 0.317,0.625 0.317,1.039 0,0.563 -0.207,1.039 -0.618,1.43 -0.41,0.394 -0.925,0.59 -1.554,0.59 -0.567,0 -1.035,-0.168 -1.41,-0.508 -0.371,-0.336 -0.586,-0.774 -0.637,-1.309 z m 5.144,-3.195 c 0,-0.461 0.118,-0.852 0.348,-1.172 0.231,-0.324 0.567,-0.484 1.004,-0.484 0.406,0 0.742,0.144 1.004,0.433 0.266,0.289 0.398,0.711 0.398,1.274 0,0.543 -0.132,0.961 -0.402,1.257 -0.266,0.293 -0.598,0.442 -0.988,0.442 -0.391,0 -0.715,-0.145 -0.977,-0.434 -0.258,-0.293 -0.387,-0.73 -0.387,-1.316 z m 1.375,-1.109 c -0.195,0 -0.359,0.082 -0.488,0.253 -0.133,0.168 -0.195,0.481 -0.195,0.934 0,0.414 0.062,0.707 0.195,0.875 0.133,0.168 0.297,0.25 0.488,0.25 0.2,0 0.364,-0.082 0.497,-0.254 0.128,-0.168 0.195,-0.48 0.195,-0.93 0,-0.418 -0.067,-0.711 -0.199,-0.878 -0.133,-0.168 -0.297,-0.25 -0.493,-0.25 z m 0.004,6.242 3.524,-6.789 h 0.644 l -3.511,6.789 z m 2.786,-1.75 c 0,-0.461 0.117,-0.852 0.347,-1.176 0.235,-0.32 0.57,-0.481 1.012,-0.481 0.406,0 0.738,0.145 1.004,0.434 0.265,0.289 0.398,0.715 0.398,1.274 0,0.542 -0.133,0.964 -0.402,1.257 -0.27,0.293 -0.602,0.442 -0.996,0.442 -0.391,0 -0.715,-0.145 -0.973,-0.438 -0.258,-0.289 -0.39,-0.726 -0.39,-1.312 z m 1.382,-1.11 c -0.199,0 -0.367,0.086 -0.496,0.254 -0.129,0.172 -0.195,0.481 -0.195,0.938 0,0.41 0.066,0.699 0.199,0.867 0.129,0.172 0.293,0.258 0.488,0.258 0.2,0 0.368,-0.086 0.496,-0.258 0.133,-0.168 0.196,-0.481 0.196,-0.93 0,-0.418 -0.067,-0.707 -0.196,-0.879 -0.132,-0.168 -0.296,-0.25 -0.492,-0.25 z m 3.043,4.516 h -0.566 c 0.875,-1.406 1.312,-2.813 1.312,-4.223 0,-0.55 -0.062,-1.097 -0.187,-1.636 -0.102,-0.442 -0.242,-0.864 -0.418,-1.266 -0.117,-0.266 -0.352,-0.703 -0.707,-1.32 h 0.566 c 0.551,0.734 0.957,1.472 1.219,2.214 0.227,0.641 0.34,1.309 0.34,2.004 0,0.793 -0.152,1.555 -0.453,2.293 -0.305,0.739 -0.672,1.383 -1.106,1.934 z"
           style="fill:#202124;fill-opacity:1;fill-rule:nonzero;stroke:#ffffff;stroke-width:2.25;stroke-linecap:butt;stroke-linejoin:miter;stroke-miterlimit:4;stroke-dasharray:none;stroke-opacity:1"
           id="path11363" />
      </g>
      <text
         xml:space="preserve"
         transform="translate(199.75,256.39999)"
         style="font-variant:normal;font-size:9px;font-family:CairoFont-2;-inkscape-font-specification:CairoFont-2-0;writing-mode:lr-tb;fill:#202124;fill-opacity:1;fill-rule:nonzero;stroke:none"
         id="text11367"><tspan
           x="0 5.0040002 7.4970002 10.494 15.498 17.990999 22.995001 30.996"
           y="0"
           sodipodi:role="line"
           id="tspan11365">2 (4.3%)</tspan></text>
      <g
         id="g11369">
        <path
           d="m 236.176,272.551 v -0.758 h 4.172 v 0.613 c -0.41,0.438 -0.817,1.016 -1.219,1.742 -0.406,0.723 -0.715,1.465 -0.934,2.231 -0.16,0.539 -0.261,1.129 -0.304,1.769 h -0.813 c 0.008,-0.503 0.11,-1.117 0.297,-1.836 0.191,-0.718 0.465,-1.41 0.82,-2.074 0.356,-0.668 0.735,-1.23 1.137,-1.687 z m 9.179,7.492 c -0.437,-0.551 -0.804,-1.195 -1.109,-1.934 -0.301,-0.738 -0.449,-1.5 -0.449,-2.293 0,-0.695 0.109,-1.363 0.336,-2.004 0.265,-0.742 0.672,-1.48 1.222,-2.214 h 0.567 c -0.356,0.609 -0.59,1.043 -0.703,1.304 -0.18,0.407 -0.321,0.828 -0.422,1.266 -0.125,0.547 -0.188,1.098 -0.188,1.652 0,1.41 0.438,2.817 1.313,4.223 z m 4.247,-1.895 h -0.79 v -5.039 c -0.191,0.184 -0.441,0.364 -0.75,0.547 -0.308,0.18 -0.585,0.317 -0.832,0.406 v -0.765 c 0.442,-0.207 0.829,-0.457 1.161,-0.754 0.332,-0.297 0.566,-0.582 0.703,-0.863 h 0.508 z m 2.023,-1.687 0.828,-0.07 c 0.063,0.406 0.207,0.711 0.43,0.914 0.222,0.203 0.496,0.304 0.812,0.304 0.379,0 0.703,-0.144 0.965,-0.429 0.262,-0.289 0.395,-0.668 0.395,-1.145 0,-0.449 -0.125,-0.805 -0.379,-1.066 -0.254,-0.262 -0.586,-0.391 -0.996,-0.391 -0.254,0 -0.485,0.059 -0.688,0.172 -0.207,0.117 -0.367,0.266 -0.484,0.453 l -0.742,-0.098 0.621,-3.308 h 3.203 v 0.754 h -2.57 l -0.344,1.73 c 0.386,-0.269 0.789,-0.402 1.215,-0.402 0.562,0 1.039,0.195 1.425,0.586 0.387,0.387 0.579,0.89 0.579,1.5 0,0.586 -0.168,1.09 -0.508,1.512 -0.414,0.523 -0.977,0.785 -1.692,0.785 -0.586,0 -1.066,-0.164 -1.437,-0.492 -0.371,-0.329 -0.582,-0.766 -0.633,-1.309 z m 5.441,1.687 v -0.898 h 0.903 v 0.898 z m 6.215,-0.757 v 0.757 h -4.258 c -0.007,-0.187 0.024,-0.371 0.09,-0.546 0.11,-0.29 0.285,-0.579 0.524,-0.86 0.238,-0.281 0.582,-0.605 1.035,-0.972 0.699,-0.575 1.172,-1.032 1.418,-1.368 0.246,-0.336 0.367,-0.652 0.367,-0.949 0,-0.312 -0.109,-0.578 -0.336,-0.793 -0.223,-0.215 -0.516,-0.324 -0.875,-0.324 -0.383,0 -0.687,0.113 -0.914,0.344 -0.23,0.226 -0.344,0.543 -0.348,0.949 l -0.812,-0.086 c 0.055,-0.605 0.266,-1.066 0.629,-1.387 0.363,-0.316 0.851,-0.476 1.461,-0.476 0.621,0 1.109,0.172 1.468,0.515 0.36,0.344 0.543,0.77 0.543,1.274 0,0.258 -0.054,0.511 -0.16,0.761 -0.105,0.25 -0.281,0.512 -0.523,0.786 -0.246,0.277 -0.652,0.656 -1.223,1.136 -0.472,0.399 -0.777,0.668 -0.914,0.809 -0.133,0.141 -0.246,0.285 -0.332,0.43 z m 0.992,-4.137 c 0,-0.461 0.118,-0.852 0.348,-1.172 0.231,-0.324 0.567,-0.484 1.004,-0.484 0.406,0 0.742,0.144 1.004,0.433 0.266,0.289 0.398,0.711 0.398,1.274 0,0.543 -0.132,0.961 -0.402,1.257 -0.266,0.293 -0.598,0.442 -0.988,0.442 -0.391,0 -0.715,-0.145 -0.977,-0.434 -0.258,-0.293 -0.387,-0.73 -0.387,-1.316 z m 1.375,-1.109 c -0.195,0 -0.359,0.082 -0.488,0.253 -0.133,0.168 -0.195,0.481 -0.195,0.934 0,0.414 0.062,0.707 0.195,0.875 0.133,0.168 0.297,0.25 0.488,0.25 0.2,0 0.364,-0.082 0.497,-0.254 0.128,-0.168 0.195,-0.48 0.195,-0.93 0,-0.418 -0.067,-0.711 -0.199,-0.878 -0.133,-0.168 -0.297,-0.25 -0.493,-0.25 z m 0.004,6.242 3.524,-6.789 h 0.644 l -3.511,6.789 z m 2.786,-1.75 c 0,-0.461 0.117,-0.852 0.347,-1.176 0.235,-0.32 0.57,-0.481 1.012,-0.481 0.406,0 0.738,0.145 1.004,0.434 0.265,0.289 0.398,0.715 0.398,1.274 0,0.542 -0.133,0.964 -0.402,1.257 -0.27,0.293 -0.602,0.442 -0.996,0.442 -0.391,0 -0.715,-0.145 -0.973,-0.438 -0.258,-0.289 -0.39,-0.726 -0.39,-1.312 z m 1.382,-1.11 c -0.199,0 -0.367,0.086 -0.496,0.254 -0.129,0.172 -0.195,0.481 -0.195,0.938 0,0.41 0.066,0.699 0.199,0.867 0.129,0.172 0.293,0.258 0.488,0.258 0.2,0 0.368,-0.086 0.496,-0.258 0.133,-0.168 0.196,-0.481 0.196,-0.93 0,-0.418 -0.067,-0.707 -0.196,-0.879 -0.132,-0.168 -0.296,-0.25 -0.492,-0.25 z m 3.043,4.516 h -0.566 c 0.875,-1.406 1.312,-2.813 1.312,-4.223 0,-0.55 -0.062,-1.097 -0.187,-1.636 -0.102,-0.442 -0.242,-0.864 -0.418,-1.266 -0.117,-0.266 -0.352,-0.703 -0.707,-1.32 h 0.566 c 0.551,0.734 0.957,1.472 1.219,2.214 0.227,0.641 0.34,1.309 0.34,2.004 0,0.793 -0.152,1.555 -0.453,2.293 -0.305,0.739 -0.672,1.383 -1.106,1.934 z"
           style="fill:#202124;fill-opacity:1;fill-rule:nonzero;stroke:#ffffff;stroke-width:2.25;stroke-linecap:butt;stroke-linejoin:miter;stroke-miterlimit:4;stroke-dasharray:none;stroke-opacity:1"
           id="path11371" />
      </g>
      <text
         xml:space="preserve"
         transform="translate(235.75,278.14999)"
         style="font-variant:normal;font-size:9px;font-family:CairoFont-2;-inkscape-font-specification:CairoFont-2-0;writing-mode:lr-tb;fill:#202124;fill-opacity:1;fill-rule:nonzero;stroke:none"
         id="text11375"><tspan
           x="0 5.0040002 7.4970002 10.494 15.498 20.502001 22.995001 27.999001 36"
           y="0"
           sodipodi:role="line"
           id="tspan11373">7 (15.2%)</tspan></text>
      <g
         id="g11377">
        <path
           d="m 195.602,299.898 h -0.79 v -5.039 c -0.191,0.184 -0.441,0.364 -0.75,0.547 -0.308,0.18 -0.585,0.317 -0.832,0.406 v -0.765 c 0.442,-0.207 0.829,-0.457 1.161,-0.754 0.332,-0.297 0.566,-0.582 0.703,-0.863 h 0.508 z m 6.253,1.895 c -0.437,-0.551 -0.804,-1.195 -1.109,-1.934 -0.301,-0.738 -0.449,-1.5 -0.449,-2.293 0,-0.695 0.109,-1.363 0.336,-2.004 0.265,-0.742 0.672,-1.48 1.222,-2.214 h 0.567 c -0.356,0.609 -0.59,1.043 -0.703,1.304 -0.18,0.407 -0.321,0.828 -0.422,1.266 -0.125,0.547 -0.188,1.098 -0.188,1.652 0,1.41 0.438,2.817 1.313,4.223 z m 5.426,-2.652 v 0.757 h -4.258 c -0.007,-0.187 0.024,-0.371 0.09,-0.546 0.11,-0.29 0.285,-0.579 0.524,-0.86 0.238,-0.281 0.582,-0.605 1.035,-0.972 0.699,-0.575 1.172,-1.032 1.418,-1.368 0.246,-0.336 0.371,-0.652 0.371,-0.949 0,-0.312 -0.113,-0.578 -0.34,-0.793 -0.223,-0.215 -0.516,-0.324 -0.875,-0.324 -0.379,0 -0.684,0.113 -0.914,0.344 -0.23,0.226 -0.344,0.543 -0.348,0.949 l -0.812,-0.086 c 0.055,-0.605 0.266,-1.066 0.629,-1.387 0.363,-0.316 0.851,-0.476 1.465,-0.476 0.617,0 1.105,0.172 1.464,0.515 0.364,0.344 0.543,0.77 0.543,1.274 0,0.258 -0.054,0.511 -0.16,0.761 -0.105,0.25 -0.281,0.512 -0.523,0.786 -0.246,0.277 -0.652,0.656 -1.223,1.136 -0.472,0.399 -0.777,0.668 -0.914,0.809 -0.133,0.141 -0.242,0.285 -0.332,0.43 z m 1.285,0.757 V 299 h 0.903 v 0.898 z m 6.215,-0.757 v 0.757 h -4.258 c -0.007,-0.187 0.024,-0.371 0.09,-0.546 0.11,-0.29 0.285,-0.579 0.524,-0.86 0.238,-0.281 0.582,-0.605 1.035,-0.972 0.699,-0.575 1.172,-1.032 1.418,-1.368 0.246,-0.336 0.371,-0.652 0.371,-0.949 0,-0.312 -0.113,-0.578 -0.34,-0.793 -0.223,-0.215 -0.516,-0.324 -0.875,-0.324 -0.379,0 -0.684,0.113 -0.914,0.344 -0.23,0.226 -0.344,0.543 -0.348,0.949 l -0.812,-0.086 c 0.055,-0.605 0.266,-1.066 0.629,-1.387 0.363,-0.316 0.851,-0.476 1.465,-0.476 0.617,0 1.105,0.172 1.464,0.515 0.364,0.344 0.543,0.77 0.543,1.274 0,0.258 -0.054,0.511 -0.16,0.761 -0.105,0.25 -0.281,0.512 -0.523,0.786 -0.246,0.277 -0.652,0.656 -1.223,1.136 -0.472,0.399 -0.777,0.668 -0.914,0.809 -0.133,0.141 -0.242,0.285 -0.332,0.43 z m 0.992,-4.137 c 0,-0.461 0.118,-0.852 0.348,-1.172 0.231,-0.324 0.567,-0.484 1.004,-0.484 0.406,0 0.742,0.144 1.004,0.433 0.266,0.289 0.398,0.711 0.398,1.274 0,0.543 -0.132,0.961 -0.402,1.257 -0.266,0.293 -0.598,0.442 -0.988,0.442 -0.391,0 -0.715,-0.145 -0.977,-0.434 -0.258,-0.293 -0.387,-0.73 -0.387,-1.316 z m 1.375,-1.109 c -0.195,0 -0.359,0.082 -0.488,0.253 -0.133,0.168 -0.195,0.481 -0.195,0.934 0,0.414 0.062,0.707 0.195,0.875 0.133,0.168 0.297,0.25 0.488,0.25 0.2,0 0.364,-0.082 0.497,-0.254 0.128,-0.168 0.195,-0.48 0.195,-0.93 0,-0.418 -0.067,-0.711 -0.199,-0.878 -0.133,-0.168 -0.297,-0.25 -0.493,-0.25 z m 0.004,6.242 3.524,-6.789 h 0.644 l -3.511,6.789 z m 2.786,-1.75 c 0,-0.461 0.117,-0.852 0.347,-1.176 0.235,-0.32 0.57,-0.481 1.012,-0.481 0.406,0 0.738,0.145 1.004,0.434 0.265,0.289 0.398,0.715 0.398,1.274 0,0.542 -0.133,0.964 -0.402,1.257 -0.27,0.293 -0.602,0.442 -0.996,0.442 -0.391,0 -0.715,-0.145 -0.973,-0.438 -0.258,-0.289 -0.39,-0.726 -0.39,-1.312 z m 1.382,-1.11 c -0.199,0 -0.367,0.086 -0.496,0.254 -0.129,0.172 -0.195,0.481 -0.195,0.938 0,0.41 0.066,0.699 0.199,0.867 0.129,0.172 0.293,0.258 0.488,0.258 0.2,0 0.368,-0.086 0.496,-0.258 0.133,-0.168 0.196,-0.481 0.196,-0.93 0,-0.418 -0.067,-0.707 -0.196,-0.879 -0.132,-0.168 -0.296,-0.25 -0.492,-0.25 z m 3.043,4.516 h -0.566 c 0.875,-1.406 1.312,-2.813 1.312,-4.223 0,-0.55 -0.062,-1.097 -0.187,-1.636 -0.102,-0.442 -0.242,-0.864 -0.418,-1.266 -0.117,-0.266 -0.352,-0.703 -0.707,-1.32 h 0.566 c 0.551,0.734 0.957,1.472 1.219,2.214 0.227,0.641 0.34,1.309 0.34,2.004 0,0.793 -0.152,1.555 -0.453,2.293 -0.305,0.739 -0.672,1.383 -1.106,1.934 z"
           style="fill:#202124;fill-opacity:1;fill-rule:nonzero;stroke:#ffffff;stroke-width:2.25;stroke-linecap:butt;stroke-linejoin:miter;stroke-miterlimit:4;stroke-dasharray:none;stroke-opacity:1"
           id="path11379" />
      </g>
      <text
         xml:space="preserve"
         transform="translate(192.25,299.89999)"
         style="font-variant:normal;font-size:9px;font-family:CairoFont-2;-inkscape-font-specification:CairoFont-2-0;writing-mode:lr-tb;fill:#202124;fill-opacity:1;fill-rule:nonzero;stroke:none"
         id="text11383"><tspan
           x="0 5.0040002 7.4970002 10.494 15.498 17.990999 22.995001 30.996"
           y="0"
           sodipodi:role="line"
           id="tspan11381">1 (2.2%)</tspan></text>
      <g
         id="g11385">
        <path
           d="m 195.602,321.648 h -0.79 v -5.039 c -0.191,0.184 -0.441,0.364 -0.75,0.547 -0.308,0.18 -0.585,0.317 -0.832,0.406 v -0.765 c 0.442,-0.207 0.829,-0.457 1.161,-0.754 0.332,-0.297 0.566,-0.582 0.703,-0.863 h 0.508 z m 6.253,1.895 c -0.437,-0.551 -0.804,-1.195 -1.109,-1.934 -0.301,-0.738 -0.449,-1.5 -0.449,-2.293 0,-0.695 0.109,-1.363 0.336,-2.004 0.265,-0.742 0.672,-1.48 1.222,-2.214 h 0.567 c -0.356,0.609 -0.59,1.043 -0.703,1.304 -0.18,0.407 -0.321,0.828 -0.422,1.266 -0.125,0.547 -0.188,1.098 -0.188,1.652 0,1.41 0.438,2.817 1.313,4.223 z m 5.426,-2.652 v 0.757 h -4.258 c -0.007,-0.187 0.024,-0.371 0.09,-0.546 0.11,-0.29 0.285,-0.579 0.524,-0.86 0.238,-0.281 0.582,-0.605 1.035,-0.972 0.699,-0.575 1.172,-1.032 1.418,-1.368 0.246,-0.336 0.371,-0.652 0.371,-0.949 0,-0.312 -0.113,-0.578 -0.34,-0.793 -0.223,-0.215 -0.516,-0.324 -0.875,-0.324 -0.379,0 -0.684,0.113 -0.914,0.344 -0.23,0.226 -0.344,0.543 -0.348,0.949 l -0.812,-0.086 c 0.055,-0.605 0.266,-1.066 0.629,-1.387 0.363,-0.316 0.851,-0.476 1.465,-0.476 0.617,0 1.105,0.172 1.464,0.515 0.364,0.344 0.543,0.77 0.543,1.274 0,0.258 -0.054,0.511 -0.16,0.761 -0.105,0.25 -0.281,0.512 -0.523,0.786 -0.246,0.277 -0.652,0.656 -1.223,1.136 -0.472,0.399 -0.777,0.668 -0.914,0.809 -0.133,0.141 -0.242,0.285 -0.332,0.43 z m 1.285,0.757 v -0.898 h 0.903 v 0.898 z m 6.215,-0.757 v 0.757 h -4.258 c -0.007,-0.187 0.024,-0.371 0.09,-0.546 0.11,-0.29 0.285,-0.579 0.524,-0.86 0.238,-0.281 0.582,-0.605 1.035,-0.972 0.699,-0.575 1.172,-1.032 1.418,-1.368 0.246,-0.336 0.371,-0.652 0.371,-0.949 0,-0.312 -0.113,-0.578 -0.34,-0.793 -0.223,-0.215 -0.516,-0.324 -0.875,-0.324 -0.379,0 -0.684,0.113 -0.914,0.344 -0.23,0.226 -0.344,0.543 -0.348,0.949 l -0.812,-0.086 c 0.055,-0.605 0.266,-1.066 0.629,-1.387 0.363,-0.316 0.851,-0.476 1.465,-0.476 0.617,0 1.105,0.172 1.464,0.515 0.364,0.344 0.543,0.77 0.543,1.274 0,0.258 -0.054,0.511 -0.16,0.761 -0.105,0.25 -0.281,0.512 -0.523,0.786 -0.246,0.277 -0.652,0.656 -1.223,1.136 -0.472,0.399 -0.777,0.668 -0.914,0.809 -0.133,0.141 -0.242,0.285 -0.332,0.43 z m 0.992,-4.137 c 0,-0.461 0.118,-0.852 0.348,-1.172 0.231,-0.324 0.567,-0.484 1.004,-0.484 0.406,0 0.742,0.144 1.004,0.433 0.266,0.289 0.398,0.711 0.398,1.274 0,0.543 -0.132,0.961 -0.402,1.257 -0.266,0.293 -0.598,0.442 -0.988,0.442 -0.391,0 -0.715,-0.145 -0.977,-0.434 -0.258,-0.293 -0.387,-0.73 -0.387,-1.316 z m 1.375,-1.109 c -0.195,0 -0.359,0.082 -0.488,0.253 -0.133,0.168 -0.195,0.481 -0.195,0.934 0,0.414 0.062,0.707 0.195,0.875 0.133,0.168 0.297,0.25 0.488,0.25 0.2,0 0.364,-0.082 0.497,-0.254 0.128,-0.168 0.195,-0.48 0.195,-0.93 0,-0.418 -0.067,-0.711 -0.199,-0.878 -0.133,-0.168 -0.297,-0.25 -0.493,-0.25 z m 0.004,6.242 3.524,-6.789 h 0.644 l -3.511,6.789 z m 2.786,-1.75 c 0,-0.461 0.117,-0.852 0.347,-1.176 0.235,-0.32 0.57,-0.481 1.012,-0.481 0.406,0 0.738,0.145 1.004,0.434 0.265,0.289 0.398,0.715 0.398,1.274 0,0.542 -0.133,0.964 -0.402,1.257 -0.27,0.293 -0.602,0.442 -0.996,0.442 -0.391,0 -0.715,-0.145 -0.973,-0.438 -0.258,-0.289 -0.39,-0.726 -0.39,-1.312 z m 1.382,-1.11 c -0.199,0 -0.367,0.086 -0.496,0.254 -0.129,0.172 -0.195,0.481 -0.195,0.938 0,0.41 0.066,0.699 0.199,0.867 0.129,0.172 0.293,0.258 0.488,0.258 0.2,0 0.368,-0.086 0.496,-0.258 0.133,-0.168 0.196,-0.481 0.196,-0.93 0,-0.418 -0.067,-0.707 -0.196,-0.879 -0.132,-0.168 -0.296,-0.25 -0.492,-0.25 z m 3.043,4.516 h -0.566 c 0.875,-1.406 1.312,-2.813 1.312,-4.223 0,-0.55 -0.062,-1.097 -0.187,-1.636 -0.102,-0.442 -0.242,-0.864 -0.418,-1.266 -0.117,-0.266 -0.352,-0.703 -0.707,-1.32 h 0.566 c 0.551,0.734 0.957,1.472 1.219,2.214 0.227,0.641 0.34,1.309 0.34,2.004 0,0.793 -0.152,1.555 -0.453,2.293 -0.305,0.739 -0.672,1.383 -1.106,1.934 z"
           style="fill:#202124;fill-opacity:1;fill-rule:nonzero;stroke:#ffffff;stroke-width:2.25;stroke-linecap:butt;stroke-linejoin:miter;stroke-miterlimit:4;stroke-dasharray:none;stroke-opacity:1"
           id="path11387" />
      </g>
      <text
         xml:space="preserve"
         transform="translate(192.25,321.64999)"
         style="font-variant:normal;font-size:9px;font-family:CairoFont-2;-inkscape-font-specification:CairoFont-2-0;writing-mode:lr-tb;fill:#202124;fill-opacity:1;fill-rule:nonzero;stroke:none"
         id="text11391"><tspan
           x="0 5.0040002 7.4970002 10.494 15.498 17.990999 22.995001 30.996"
           y="0"
           sodipodi:role="line"
           id="tspan11389">1 (2.2%)</tspan></text>
      <g
         id="g11393">
        <path
           d="m 195.602,343.398 h -0.79 v -5.039 c -0.191,0.184 -0.441,0.364 -0.75,0.547 -0.308,0.18 -0.585,0.317 -0.832,0.406 v -0.765 c 0.442,-0.207 0.829,-0.457 1.161,-0.754 0.332,-0.297 0.566,-0.582 0.703,-0.863 h 0.508 z m 6.253,1.895 c -0.437,-0.551 -0.804,-1.195 -1.109,-1.934 -0.301,-0.738 -0.449,-1.5 -0.449,-2.293 0,-0.695 0.109,-1.363 0.336,-2.004 0.265,-0.742 0.672,-1.48 1.222,-2.214 h 0.567 c -0.356,0.609 -0.59,1.043 -0.703,1.304 -0.18,0.407 -0.321,0.828 -0.422,1.266 -0.125,0.547 -0.188,1.098 -0.188,1.652 0,1.41 0.438,2.817 1.313,4.223 z m 5.426,-2.652 v 0.757 h -4.258 c -0.007,-0.187 0.024,-0.371 0.09,-0.546 0.11,-0.29 0.285,-0.579 0.524,-0.86 0.238,-0.281 0.582,-0.605 1.035,-0.972 0.699,-0.575 1.172,-1.032 1.418,-1.368 0.246,-0.336 0.371,-0.652 0.371,-0.949 0,-0.312 -0.113,-0.578 -0.34,-0.793 -0.223,-0.215 -0.516,-0.324 -0.875,-0.324 -0.379,0 -0.684,0.113 -0.914,0.344 -0.23,0.226 -0.344,0.543 -0.348,0.949 l -0.812,-0.086 c 0.055,-0.605 0.266,-1.066 0.629,-1.387 0.363,-0.316 0.851,-0.476 1.465,-0.476 0.617,0 1.105,0.172 1.464,0.515 0.364,0.344 0.543,0.77 0.543,1.274 0,0.258 -0.054,0.511 -0.16,0.761 -0.105,0.25 -0.281,0.512 -0.523,0.786 -0.246,0.277 -0.652,0.656 -1.223,1.136 -0.472,0.399 -0.777,0.668 -0.914,0.809 -0.133,0.141 -0.242,0.285 -0.332,0.43 z m 1.285,0.757 V 342.5 h 0.903 v 0.898 z m 6.215,-0.757 v 0.757 h -4.258 c -0.007,-0.187 0.024,-0.371 0.09,-0.546 0.11,-0.29 0.285,-0.579 0.524,-0.86 0.238,-0.281 0.582,-0.605 1.035,-0.972 0.699,-0.575 1.172,-1.032 1.418,-1.368 0.246,-0.336 0.371,-0.652 0.371,-0.949 0,-0.312 -0.113,-0.578 -0.34,-0.793 -0.223,-0.215 -0.516,-0.324 -0.875,-0.324 -0.379,0 -0.684,0.113 -0.914,0.344 -0.23,0.226 -0.344,0.543 -0.348,0.949 l -0.812,-0.086 c 0.055,-0.605 0.266,-1.066 0.629,-1.387 0.363,-0.316 0.851,-0.476 1.465,-0.476 0.617,0 1.105,0.172 1.464,0.515 0.364,0.344 0.543,0.77 0.543,1.274 0,0.258 -0.054,0.511 -0.16,0.761 -0.105,0.25 -0.281,0.512 -0.523,0.786 -0.246,0.277 -0.652,0.656 -1.223,1.136 -0.472,0.399 -0.777,0.668 -0.914,0.809 -0.133,0.141 -0.242,0.285 -0.332,0.43 z m 0.992,-4.137 c 0,-0.461 0.118,-0.852 0.348,-1.172 0.231,-0.324 0.567,-0.484 1.004,-0.484 0.406,0 0.742,0.144 1.004,0.433 0.266,0.289 0.398,0.711 0.398,1.274 0,0.543 -0.132,0.961 -0.402,1.257 -0.266,0.293 -0.598,0.442 -0.988,0.442 -0.391,0 -0.715,-0.145 -0.977,-0.434 -0.258,-0.293 -0.387,-0.73 -0.387,-1.316 z m 1.375,-1.109 c -0.195,0 -0.359,0.082 -0.488,0.253 -0.133,0.168 -0.195,0.481 -0.195,0.934 0,0.414 0.062,0.707 0.195,0.875 0.133,0.168 0.297,0.25 0.488,0.25 0.2,0 0.364,-0.082 0.497,-0.254 0.128,-0.168 0.195,-0.48 0.195,-0.93 0,-0.418 -0.067,-0.711 -0.199,-0.878 -0.133,-0.168 -0.297,-0.25 -0.493,-0.25 z m 0.004,6.242 3.524,-6.789 h 0.644 l -3.511,6.789 z m 2.786,-1.75 c 0,-0.461 0.117,-0.852 0.347,-1.176 0.235,-0.32 0.57,-0.481 1.012,-0.481 0.406,0 0.738,0.145 1.004,0.434 0.265,0.289 0.398,0.715 0.398,1.274 0,0.542 -0.133,0.964 -0.402,1.257 -0.27,0.293 -0.602,0.442 -0.996,0.442 -0.391,0 -0.715,-0.145 -0.973,-0.438 -0.258,-0.289 -0.39,-0.726 -0.39,-1.312 z m 1.382,-1.11 c -0.199,0 -0.367,0.086 -0.496,0.254 -0.129,0.172 -0.195,0.481 -0.195,0.938 0,0.41 0.066,0.699 0.199,0.867 0.129,0.172 0.293,0.258 0.488,0.258 0.2,0 0.368,-0.086 0.496,-0.258 0.133,-0.168 0.196,-0.481 0.196,-0.93 0,-0.418 -0.067,-0.707 -0.196,-0.879 -0.132,-0.168 -0.296,-0.25 -0.492,-0.25 z m 3.043,4.516 h -0.566 c 0.875,-1.406 1.312,-2.813 1.312,-4.223 0,-0.55 -0.062,-1.097 -0.187,-1.636 -0.102,-0.442 -0.242,-0.864 -0.418,-1.266 -0.117,-0.266 -0.352,-0.703 -0.707,-1.32 h 0.566 c 0.551,0.734 0.957,1.472 1.219,2.214 0.227,0.641 0.34,1.309 0.34,2.004 0,0.793 -0.152,1.555 -0.453,2.293 -0.305,0.739 -0.672,1.383 -1.106,1.934 z"
           style="fill:#202124;fill-opacity:1;fill-rule:nonzero;stroke:#ffffff;stroke-width:2.25;stroke-linecap:butt;stroke-linejoin:miter;stroke-miterlimit:4;stroke-dasharray:none;stroke-opacity:1"
           id="path11395" />
      </g>
      <text
         xml:space="preserve"
         transform="translate(192.25,343.39999)"
         style="font-variant:normal;font-size:9px;font-family:CairoFont-2;-inkscape-font-specification:CairoFont-2-0;writing-mode:lr-tb;fill:#202124;fill-opacity:1;fill-rule:nonzero;stroke:none"
         id="text11399"><tspan
           x="0 5.0040002 7.4970002 10.494 15.498 17.990999 22.995001 30.996"
           y="0"
           sodipodi:role="line"
           id="tspan11397">1 (2.2%)</tspan></text>
    </g>
  </g>
</svg>
