<?xml version="1.0" encoding="UTF-8" standalone="no"?>
<!-- Created with Inkscape (http://www.inkscape.org/) -->

<svg
   version="1.1"
   id="svg4819"
   width="601.73438"
   height="305.98181"
   viewBox="0 0 601.73438 305.9818"
   sodipodi:docname="cocotb user survey 2023.pdf"
   xmlns:inkscape="http://www.inkscape.org/namespaces/inkscape"
   xmlns:sodipodi="http://sodipodi.sourceforge.net/DTD/sodipodi-0.dtd"
   xmlns="http://www.w3.org/2000/svg"
   xmlns:svg="http://www.w3.org/2000/svg">
  <defs
     id="defs4823">
    <clipPath
       clipPathUnits="userSpaceOnUse"
       id="clipPath11411">
      <path
         d="M 62.699,439.5 H 514 v 180 H 62.699 Z"
         id="path11409" />
    </clipPath>
    <clipPath
       clipPathUnits="userSpaceOnUse"
       id="clipPath11421">
      <path
         d="M 175,439.5 H 470 V 593 H 175 Z"
         id="path11419" />
    </clipPath>
    <clipPath
       clipPathUnits="userSpaceOnUse"
       id="clipPath11433">
      <path
         d="M 175.75,439.5 H 177 v 153 h -1.25 z"
         id="path11431" />
    </clipPath>
    <clipPath
       clipPathUnits="userSpaceOnUse"
       id="clipPath11443">
      <path
         d="m 249,439.5 h 1 v 153 h -1 z"
         id="path11441" />
    </clipPath>
    <clipPath
       clipPathUnits="userSpaceOnUse"
       id="clipPath11453">
      <path
         d="m 322,439.5 h 1 v 153 h -1 z"
         id="path11451" />
    </clipPath>
    <clipPath
       clipPathUnits="userSpaceOnUse"
       id="clipPath11463">
      <path
         d="m 395,439.5 h 2 v 153 h -2 z"
         id="path11461" />
    </clipPath>
    <clipPath
       clipPathUnits="userSpaceOnUse"
       id="clipPath11473">
      <path
         d="m 468,439.5 h 1 v 153 h -1 z"
         id="path11471" />
    </clipPath>
    <clipPath
       clipPathUnits="userSpaceOnUse"
       id="clipPath11483">
      <path
         d="m 212,439.5 h 2 v 153 h -2 z"
         id="path11481" />
    </clipPath>
    <clipPath
       clipPathUnits="userSpaceOnUse"
       id="clipPath11493">
      <path
         d="m 285,439.5 h 1 v 153 h -1 z"
         id="path11491" />
    </clipPath>
    <clipPath
       clipPathUnits="userSpaceOnUse"
       id="clipPath11503">
      <path
         d="m 358,439.5 h 2 v 153 h -2 z"
         id="path11501" />
    </clipPath>
    <clipPath
       clipPathUnits="userSpaceOnUse"
       id="clipPath11513">
      <path
         d="m 431,439.5 h 2 v 153 h -2 z"
         id="path11511" />
    </clipPath>
    <clipPath
       clipPathUnits="userSpaceOnUse"
       id="clipPath11537">
      <path
         d="M 175.75,439.5 H 177 v 153 h -1.25 z"
         id="path11535" />
    </clipPath>
  </defs>
  <sodipodi:namedview
     id="namedview4821"
     pagecolor="#ffffff"
     bordercolor="#666666"
     borderopacity="1.0"
     inkscape:showpageshadow="2"
     inkscape:pageopacity="0.0"
     inkscape:pagecheckerboard="0"
     inkscape:deskcolor="#d1d1d1"
     showgrid="false" />
  <g
     id="g10971"
     inkscape:groupmode="layer"
     inkscape:label="Page 9"
     transform="matrix(1.3333333,0,0,1.3333333,-83.598804,-520.01821)">
    <text
       xml:space="preserve"
       style="font-variant:normal;font-size:12px;font-family:CairoFont-1;-inkscape-font-specification:CairoFont-1-0;writing-mode:lr-tb;fill:#18191c;fill-opacity:1;fill-rule:nonzero;stroke:none"
       id="text11159"
       x="62.700001"
       y="398.75"><tspan
         x="62.700001 73.5 80.256004 83.304001 89.736 96.492004 99.612 105.492 111.996 116.208 122.53201 125.592 132.588 139.34399 143.592 149.916 154.23601 157.356 164.35201 168.66 171.78 179.58 185.39999 189.468 196.224 203.22 209.98799 213.108 219.76799 223.86 230.364 233.48399 239.22 246.216 252.98399 256.09201 262.86002 269.18399 272.24402 279 285.888 289.008 298.164 301.224 305.29199 312.048 315.15601 321.58801 328.58401 335.01602 342.02402 346.08002 352.96802"
         y="398.75"
         sodipodi:role="line"
         id="tspan11157">Which version(s) of Python are you using with cocotb?</tspan></text>
    <text
       xml:space="preserve"
       style="font-variant:normal;font-size:9px;font-family:CairoFont-1;-inkscape-font-specification:CairoFont-1-0;writing-mode:lr-tb;fill:#18191c;fill-opacity:1;fill-rule:nonzero;stroke:none"
       id="text11163"
       x="62.700001"
       y="418.5"><tspan
         x="62.700001 67.973999 73.238998 75.687004 78.873001 83.849998 88.709999 93.984001 99.339005 104.523 109.383 114.36"
         y="418.5"
         sodipodi:role="line"
         id="tspan11161">48 responses</tspan></text>
    <g
       id="g11405">
      <g
         id="g11407"
         clip-path="url(#clipPath11411)">
        <path
           d="M 62.5,439.5 H 514 v 180 H 62.5 Z"
           style="fill:#ffffff;fill-opacity:1;fill-rule:nonzero;stroke:none"
           id="path11413" />
      </g>
    </g>
    <g
       id="g11415">
      <g
         id="g11417"
         clip-path="url(#clipPath11421)">
        <g
           id="g11423">
          <path
             d="M 175.75,439.5 H 469 v 153 H 175.75 Z"
             style="fill:none;stroke:#eeeeee;stroke-width:0.75;stroke-linecap:butt;stroke-linejoin:miter;stroke-miterlimit:4;stroke-dasharray:none;stroke-opacity:1"
             id="path11425" />
        </g>
      </g>
    </g>
    <g
       id="g11427">
      <g
         id="g11429"
         clip-path="url(#clipPath11433)">
        <path
           d="m 175.75,439.5 h 0.75 v 153 h -0.75 z"
           style="fill:#eeeeee;fill-opacity:1;fill-rule:nonzero;stroke:none"
           id="path11435" />
      </g>
    </g>
    <g
       id="g11437">
      <g
         id="g11439"
         clip-path="url(#clipPath11443)">
        <path
           d="M 249.25,439.5 H 250 v 153 h -0.75 z"
           style="fill:#eeeeee;fill-opacity:1;fill-rule:nonzero;stroke:none"
           id="path11445" />
      </g>
    </g>
    <g
       id="g11447">
      <g
         id="g11449"
         clip-path="url(#clipPath11453)">
        <path
           d="m 322,439.5 h 0.75 v 153 H 322 Z"
           style="fill:#eeeeee;fill-opacity:1;fill-rule:nonzero;stroke:none"
           id="path11455" />
      </g>
    </g>
    <g
       id="g11457">
      <g
         id="g11459"
         clip-path="url(#clipPath11463)">
        <path
           d="m 395.5,439.5 h 0.75 v 153 h -0.75 z"
           style="fill:#eeeeee;fill-opacity:1;fill-rule:nonzero;stroke:none"
           id="path11465" />
      </g>
    </g>
    <g
       id="g11467">
      <g
         id="g11469"
         clip-path="url(#clipPath11473)">
        <path
           d="M 468.25,439.5 H 469 v 153 h -0.75 z"
           style="fill:#eeeeee;fill-opacity:1;fill-rule:nonzero;stroke:none"
           id="path11475" />
      </g>
    </g>
    <g
       id="g11477">
      <g
         id="g11479"
         clip-path="url(#clipPath11483)">
        <path
           d="m 212.5,439.5 h 0.75 v 153 h -0.75 z"
           style="fill:#f8f8f8;fill-opacity:1;fill-rule:nonzero;stroke:none"
           id="path11485" />
      </g>
    </g>
    <g
       id="g11487">
      <g
         id="g11489"
         clip-path="url(#clipPath11493)">
        <path
           d="M 285.25,439.5 H 286 v 153 h -0.75 z"
           style="fill:#f8f8f8;fill-opacity:1;fill-rule:nonzero;stroke:none"
           id="path11495" />
      </g>
    </g>
    <g
       id="g11497">
      <g
         id="g11499"
         clip-path="url(#clipPath11503)">
        <path
           d="m 358.75,439.5 h 0.75 v 153 h -0.75 z"
           style="fill:#f8f8f8;fill-opacity:1;fill-rule:nonzero;stroke:none"
           id="path11505" />
      </g>
    </g>
    <g
       id="g11507">
      <g
         id="g11509"
         clip-path="url(#clipPath11513)">
        <path
           d="m 431.5,439.5 h 0.75 v 153 h -0.75 z"
           style="fill:#f8f8f8;fill-opacity:1;fill-rule:nonzero;stroke:none"
           id="path11515" />
      </g>
    </g>
    <g
       id="g11517">
      <path
         d="m 176.5,444.75 h 219 v 15.75 h -219 z"
         style="fill:#3776ab;fill-opacity:1;fill-rule:nonzero;stroke:none"
         id="path11519" />
      <path
         d="M 176.5,470.25 H 439 V 486 H 176.5 Z"
         style="fill:#3776ab;fill-opacity:1;fill-rule:nonzero;stroke:none"
         id="path11521" />
      <path
         d="M 176.5,495.75 H 351.25 V 511.5 H 176.5 Z"
         style="fill:#3776ab;fill-opacity:1;fill-rule:nonzero;stroke:none"
         id="path11523" />
      <path
         d="m 176.5,520.5 h 248.25 v 15.75 H 176.5 Z"
         style="fill:#3776ab;fill-opacity:1;fill-rule:nonzero;stroke:none"
         id="path11525" />
      <path
         d="M 176.5,546 H 220 v 15.75 h -43.5 z"
         style="fill:#3776ab;fill-opacity:1;fill-rule:nonzero;stroke:none"
         id="path11527" />
      <path
         d="m 176.5,571.5 h 57.75 v 15.75 H 176.5 Z"
         style="fill:#3776ab;fill-opacity:1;fill-rule:nonzero;stroke:none"
         id="path11529" />
    </g>
    <g
       id="g11531">
      <g
         id="g11533"
         clip-path="url(#clipPath11537)">
        <path
           d="m 175.75,439.5 h 0.75 v 153 h -0.75 z"
           style="fill:#333333;fill-opacity:1;fill-rule:nonzero;stroke:none"
           id="path11539" />
      </g>
    </g>
    <g
       id="g11541">
      <path
         d="m 395.5,452.25 h 9 V 453 h -9 z"
         style="fill:#999999;fill-opacity:1;fill-rule:nonzero;stroke:none"
         id="path11543" />
      <path
         d="m 439,477.75 h 9 v 0.75 h -9 z"
         style="fill:#999999;fill-opacity:1;fill-rule:nonzero;stroke:none"
         id="path11545" />
      <path
         d="m 351.25,503.25 h 9 V 504 h -9 z"
         style="fill:#999999;fill-opacity:1;fill-rule:nonzero;stroke:none"
         id="path11547" />
      <path
         d="m 424.75,528 h 9 v 0.75 h -9 z"
         style="fill:#999999;fill-opacity:1;fill-rule:nonzero;stroke:none"
         id="path11549" />
      <path
         d="m 220,553.5 h 9 v 0.75 h -9 z"
         style="fill:#999999;fill-opacity:1;fill-rule:nonzero;stroke:none"
         id="path11551" />
      <path
         d="m 234.25,579 h 9 v 0.75 h -9 z"
         style="fill:#999999;fill-opacity:1;fill-rule:nonzero;stroke:none"
         id="path11553" />
      <text
         xml:space="preserve"
         transform="translate(173.625,605.39996)"
         style="font-variant:normal;font-size:9px;font-family:CairoFont-2;-inkscape-font-specification:CairoFont-2-0;writing-mode:lr-tb;fill:#444444;fill-opacity:1;fill-rule:nonzero;stroke:none"
         id="text11557"><tspan
           x="0 73.125 143.75 148.754 216.875 221.879 290 295.004"
           y="0"
           sodipodi:role="line"
           id="tspan11555">05101520</tspan></text>
      <text
         xml:space="preserve"
         transform="translate(119.39999,455.71249)"
         style="font-variant:normal;font-size:9px;font-family:CairoFont-2;-inkscape-font-specification:CairoFont-2-0;writing-mode:lr-tb;fill:#222222;fill-opacity:1;fill-rule:nonzero;stroke:none"
         id="text11571"><tspan
           x="0 5.994 10.494 12.987 17.990999 22.995001 27.999001 30.492001 35.469002 37.962002 42.299999"
           y="0"
           sodipodi:role="line"
           id="tspan11559">Python 3.11</tspan><tspan
           x="-0.64999348 5.3440065 9.8440065 12.337007 17.341007 22.345007 27.349007 29.842007 34.819008 37.312008 42.316006"
           y="25.374996"
           sodipodi:role="line"
           id="tspan11561">Python 3.10</tspan><tspan
           x="4.3500104 10.34401 14.84401 17.337011 22.341011 27.345011 32.34901 34.84201 39.819012 42.312012"
           y="50.749992"
           sodipodi:role="line"
           id="tspan11563">Python 3.9</tspan><tspan
           x="4.3500104 10.34401 14.84401 17.337011 22.341011 27.345011 32.34901 34.84201 39.819012 42.312012"
           y="76.125023"
           sodipodi:role="line"
           id="tspan11565">Python 3.8</tspan><tspan
           x="4.3500104 10.34401 14.84401 17.337011 22.341011 27.345011 32.34901 34.84201 39.819012 42.312012"
           y="101.50002"
           sodipodi:role="line"
           id="tspan11567">Python 3.7</tspan><tspan
           x="4.3500104 10.34401 14.84401 17.337011 22.341011 27.345011 32.34901 34.84201 39.819012 42.312012"
           y="126.87502"
           sodipodi:role="line"
           id="tspan11569">Python 3.6</tspan></text>
      <path
         d="m 407.852,455.398 h -0.79 v -5.039 c -0.191,0.184 -0.441,0.364 -0.75,0.547 -0.308,0.18 -0.585,0.317 -0.832,0.406 v -0.765 c 0.442,-0.207 0.829,-0.457 1.161,-0.754 0.332,-0.297 0.566,-0.582 0.703,-0.863 h 0.508 z m 2.023,-1.687 0.828,-0.07 c 0.063,0.406 0.207,0.711 0.43,0.914 0.222,0.203 0.492,0.304 0.812,0.304 0.379,0 0.7,-0.144 0.965,-0.429 0.262,-0.289 0.395,-0.668 0.395,-1.145 0,-0.449 -0.125,-0.805 -0.379,-1.066 -0.254,-0.262 -0.586,-0.391 -0.996,-0.391 -0.254,0 -0.485,0.059 -0.688,0.172 -0.207,0.117 -0.367,0.266 -0.484,0.453 l -0.742,-0.098 0.621,-3.308 h 3.207 v 0.754 h -2.574 l -0.344,1.73 c 0.383,-0.269 0.789,-0.402 1.215,-0.402 0.562,0 1.039,0.195 1.425,0.586 0.387,0.387 0.579,0.89 0.579,1.5 0,0.586 -0.168,1.09 -0.508,1.512 -0.414,0.523 -0.981,0.785 -1.692,0.785 -0.59,0 -1.066,-0.164 -1.437,-0.492 -0.371,-0.329 -0.582,-0.766 -0.633,-1.309 z m 9.23,3.582 c -0.437,-0.551 -0.804,-1.195 -1.109,-1.934 -0.301,-0.738 -0.453,-1.5 -0.449,-2.293 -0.004,-0.695 0.109,-1.363 0.336,-2.004 0.265,-0.742 0.672,-1.48 1.222,-2.214 h 0.567 c -0.356,0.609 -0.59,1.043 -0.703,1.304 -0.18,0.407 -0.321,0.828 -0.422,1.266 -0.125,0.547 -0.188,1.098 -0.188,1.652 0,1.41 0.438,2.817 1.313,4.223 z m 1.274,-3.594 0.789,-0.105 c 0.09,0.449 0.246,0.769 0.465,0.968 0.219,0.2 0.484,0.297 0.797,0.297 0.371,0 0.687,-0.129 0.941,-0.386 0.258,-0.258 0.387,-0.578 0.387,-0.957 0,-0.364 -0.121,-0.664 -0.356,-0.899 -0.238,-0.238 -0.539,-0.355 -0.906,-0.355 -0.148,0 -0.336,0.031 -0.558,0.09 l 0.089,-0.696 c 0.051,0.004 0.094,0.008 0.125,0.008 0.336,0 0.641,-0.086 0.91,-0.262 0.27,-0.175 0.407,-0.449 0.407,-0.812 0,-0.293 -0.102,-0.531 -0.297,-0.723 -0.195,-0.191 -0.449,-0.285 -0.758,-0.285 -0.309,0 -0.566,0.098 -0.769,0.289 -0.207,0.195 -0.34,0.484 -0.395,0.871 l -0.793,-0.14 c 0.098,-0.532 0.316,-0.942 0.66,-1.235 0.34,-0.289 0.77,-0.437 1.278,-0.437 0.351,0 0.675,0.078 0.972,0.226 0.293,0.153 0.52,0.36 0.68,0.617 0.156,0.262 0.234,0.539 0.234,0.832 0,0.278 -0.074,0.532 -0.226,0.762 -0.149,0.227 -0.371,0.41 -0.66,0.543 0.378,0.09 0.675,0.27 0.886,0.547 0.211,0.277 0.317,0.625 0.317,1.039 0,0.563 -0.207,1.039 -0.618,1.43 -0.41,0.394 -0.929,0.59 -1.554,0.59 -0.567,0 -1.035,-0.168 -1.41,-0.508 -0.371,-0.336 -0.586,-0.774 -0.637,-1.309 z m 7.973,1.699 h -0.79 v -5.039 c -0.191,0.184 -0.441,0.364 -0.75,0.547 -0.308,0.18 -0.585,0.317 -0.832,0.406 v -0.765 c 0.442,-0.207 0.829,-0.457 1.161,-0.754 0.332,-0.297 0.566,-0.582 0.703,-0.863 h 0.508 z m 2.464,0 V 454.5 h 0.903 v 0.898 z m 2.063,-1.699 0.789,-0.105 c 0.094,0.449 0.246,0.769 0.465,0.968 0.219,0.2 0.484,0.297 0.797,0.297 0.371,0 0.687,-0.129 0.941,-0.386 0.258,-0.258 0.387,-0.578 0.387,-0.957 0,-0.364 -0.117,-0.664 -0.356,-0.899 -0.238,-0.238 -0.539,-0.355 -0.906,-0.355 -0.148,0 -0.336,0.031 -0.558,0.09 l 0.089,-0.696 c 0.051,0.004 0.094,0.008 0.125,0.008 0.34,0 0.641,-0.086 0.91,-0.262 0.27,-0.175 0.407,-0.449 0.407,-0.812 0,-0.293 -0.098,-0.531 -0.297,-0.723 -0.195,-0.191 -0.449,-0.285 -0.758,-0.285 -0.309,0 -0.566,0.098 -0.769,0.289 -0.207,0.195 -0.336,0.484 -0.395,0.871 l -0.793,-0.14 c 0.098,-0.532 0.316,-0.942 0.66,-1.235 0.344,-0.289 0.77,-0.437 1.278,-0.437 0.351,0 0.675,0.078 0.972,0.226 0.297,0.153 0.52,0.36 0.68,0.617 0.156,0.262 0.234,0.539 0.234,0.832 0,0.278 -0.074,0.532 -0.226,0.762 -0.149,0.227 -0.367,0.41 -0.66,0.543 0.378,0.09 0.675,0.27 0.886,0.547 0.211,0.277 0.317,0.625 0.317,1.039 0,0.563 -0.207,1.039 -0.618,1.43 -0.41,0.394 -0.925,0.59 -1.554,0.59 -0.567,0 -1.035,-0.168 -1.41,-0.508 -0.371,-0.336 -0.586,-0.774 -0.637,-1.309 z m 5.144,-3.195 c 0,-0.461 0.118,-0.852 0.348,-1.172 0.231,-0.324 0.567,-0.484 1.004,-0.484 0.406,0 0.742,0.144 1.004,0.433 0.266,0.289 0.398,0.711 0.398,1.274 0,0.543 -0.132,0.961 -0.402,1.257 -0.266,0.293 -0.598,0.442 -0.988,0.442 -0.391,0 -0.715,-0.145 -0.977,-0.434 -0.258,-0.293 -0.387,-0.73 -0.387,-1.316 z m 1.375,-1.109 c -0.195,0 -0.359,0.082 -0.488,0.253 -0.133,0.168 -0.195,0.481 -0.195,0.934 0,0.414 0.062,0.707 0.195,0.875 0.133,0.168 0.297,0.25 0.488,0.25 0.2,0 0.364,-0.082 0.497,-0.254 0.128,-0.168 0.195,-0.48 0.195,-0.93 0,-0.418 -0.067,-0.711 -0.199,-0.878 -0.133,-0.168 -0.297,-0.25 -0.493,-0.25 z m 0.004,6.242 3.524,-6.789 h 0.644 l -3.511,6.789 z m 2.786,-1.75 c 0,-0.461 0.117,-0.852 0.347,-1.176 0.235,-0.32 0.57,-0.481 1.012,-0.481 0.406,0 0.738,0.145 1.004,0.434 0.265,0.289 0.398,0.715 0.398,1.274 0,0.542 -0.133,0.964 -0.402,1.257 -0.27,0.293 -0.602,0.442 -0.996,0.442 -0.391,0 -0.715,-0.145 -0.973,-0.438 -0.258,-0.289 -0.39,-0.726 -0.39,-1.312 z m 1.382,-1.11 c -0.199,0 -0.367,0.086 -0.496,0.254 -0.129,0.172 -0.195,0.481 -0.195,0.938 0,0.41 0.066,0.699 0.199,0.867 0.129,0.172 0.293,0.258 0.488,0.258 0.2,0 0.368,-0.086 0.496,-0.258 0.133,-0.168 0.196,-0.481 0.196,-0.93 0,-0.418 -0.067,-0.707 -0.196,-0.879 -0.132,-0.168 -0.296,-0.25 -0.492,-0.25 z m 3.043,4.516 h -0.566 c 0.875,-1.406 1.312,-2.813 1.312,-4.223 0,-0.55 -0.062,-1.097 -0.187,-1.636 -0.102,-0.442 -0.242,-0.864 -0.418,-1.266 -0.117,-0.266 -0.352,-0.703 -0.707,-1.32 h 0.566 c 0.551,0.734 0.957,1.472 1.219,2.214 0.227,0.641 0.34,1.309 0.34,2.004 0,0.793 -0.152,1.555 -0.453,2.293 -0.305,0.739 -0.672,1.383 -1.106,1.934 z"
         style="fill:#202124;fill-opacity:1;fill-rule:nonzero;stroke:none"
         id="path11573" />
      <g
         id="g11575">
        <path
           d="m 407.852,455.398 h -0.79 v -5.039 c -0.191,0.184 -0.441,0.364 -0.75,0.547 -0.308,0.18 -0.585,0.317 -0.832,0.406 v -0.765 c 0.442,-0.207 0.829,-0.457 1.161,-0.754 0.332,-0.297 0.566,-0.582 0.703,-0.863 h 0.508 z m 2.023,-1.687 0.828,-0.07 c 0.063,0.406 0.207,0.711 0.43,0.914 0.222,0.203 0.492,0.304 0.812,0.304 0.379,0 0.7,-0.144 0.965,-0.429 0.262,-0.289 0.395,-0.668 0.395,-1.145 0,-0.449 -0.125,-0.805 -0.379,-1.066 -0.254,-0.262 -0.586,-0.391 -0.996,-0.391 -0.254,0 -0.485,0.059 -0.688,0.172 -0.207,0.117 -0.367,0.266 -0.484,0.453 l -0.742,-0.098 0.621,-3.308 h 3.207 v 0.754 h -2.574 l -0.344,1.73 c 0.383,-0.269 0.789,-0.402 1.215,-0.402 0.562,0 1.039,0.195 1.425,0.586 0.387,0.387 0.579,0.89 0.579,1.5 0,0.586 -0.168,1.09 -0.508,1.512 -0.414,0.523 -0.981,0.785 -1.692,0.785 -0.59,0 -1.066,-0.164 -1.437,-0.492 -0.371,-0.329 -0.582,-0.766 -0.633,-1.309 z m 9.23,3.582 c -0.437,-0.551 -0.804,-1.195 -1.109,-1.934 -0.301,-0.738 -0.453,-1.5 -0.449,-2.293 -0.004,-0.695 0.109,-1.363 0.336,-2.004 0.265,-0.742 0.672,-1.48 1.222,-2.214 h 0.567 c -0.356,0.609 -0.59,1.043 -0.703,1.304 -0.18,0.407 -0.321,0.828 -0.422,1.266 -0.125,0.547 -0.188,1.098 -0.188,1.652 0,1.41 0.438,2.817 1.313,4.223 z m 1.274,-3.594 0.789,-0.105 c 0.09,0.449 0.246,0.769 0.465,0.968 0.219,0.2 0.484,0.297 0.797,0.297 0.371,0 0.687,-0.129 0.941,-0.386 0.258,-0.258 0.387,-0.578 0.387,-0.957 0,-0.364 -0.121,-0.664 -0.356,-0.899 -0.238,-0.238 -0.539,-0.355 -0.906,-0.355 -0.148,0 -0.336,0.031 -0.558,0.09 l 0.089,-0.696 c 0.051,0.004 0.094,0.008 0.125,0.008 0.336,0 0.641,-0.086 0.91,-0.262 0.27,-0.175 0.407,-0.449 0.407,-0.812 0,-0.293 -0.102,-0.531 -0.297,-0.723 -0.195,-0.191 -0.449,-0.285 -0.758,-0.285 -0.309,0 -0.566,0.098 -0.769,0.289 -0.207,0.195 -0.34,0.484 -0.395,0.871 l -0.793,-0.14 c 0.098,-0.532 0.316,-0.942 0.66,-1.235 0.34,-0.289 0.77,-0.437 1.278,-0.437 0.351,0 0.675,0.078 0.972,0.226 0.293,0.153 0.52,0.36 0.68,0.617 0.156,0.262 0.234,0.539 0.234,0.832 0,0.278 -0.074,0.532 -0.226,0.762 -0.149,0.227 -0.371,0.41 -0.66,0.543 0.378,0.09 0.675,0.27 0.886,0.547 0.211,0.277 0.317,0.625 0.317,1.039 0,0.563 -0.207,1.039 -0.618,1.43 -0.41,0.394 -0.929,0.59 -1.554,0.59 -0.567,0 -1.035,-0.168 -1.41,-0.508 -0.371,-0.336 -0.586,-0.774 -0.637,-1.309 z m 7.973,1.699 h -0.79 v -5.039 c -0.191,0.184 -0.441,0.364 -0.75,0.547 -0.308,0.18 -0.585,0.317 -0.832,0.406 v -0.765 c 0.442,-0.207 0.829,-0.457 1.161,-0.754 0.332,-0.297 0.566,-0.582 0.703,-0.863 h 0.508 z m 2.464,0 V 454.5 h 0.903 v 0.898 z m 2.063,-1.699 0.789,-0.105 c 0.094,0.449 0.246,0.769 0.465,0.968 0.219,0.2 0.484,0.297 0.797,0.297 0.371,0 0.687,-0.129 0.941,-0.386 0.258,-0.258 0.387,-0.578 0.387,-0.957 0,-0.364 -0.117,-0.664 -0.356,-0.899 -0.238,-0.238 -0.539,-0.355 -0.906,-0.355 -0.148,0 -0.336,0.031 -0.558,0.09 l 0.089,-0.696 c 0.051,0.004 0.094,0.008 0.125,0.008 0.34,0 0.641,-0.086 0.91,-0.262 0.27,-0.175 0.407,-0.449 0.407,-0.812 0,-0.293 -0.098,-0.531 -0.297,-0.723 -0.195,-0.191 -0.449,-0.285 -0.758,-0.285 -0.309,0 -0.566,0.098 -0.769,0.289 -0.207,0.195 -0.336,0.484 -0.395,0.871 l -0.793,-0.14 c 0.098,-0.532 0.316,-0.942 0.66,-1.235 0.344,-0.289 0.77,-0.437 1.278,-0.437 0.351,0 0.675,0.078 0.972,0.226 0.297,0.153 0.52,0.36 0.68,0.617 0.156,0.262 0.234,0.539 0.234,0.832 0,0.278 -0.074,0.532 -0.226,0.762 -0.149,0.227 -0.367,0.41 -0.66,0.543 0.378,0.09 0.675,0.27 0.886,0.547 0.211,0.277 0.317,0.625 0.317,1.039 0,0.563 -0.207,1.039 -0.618,1.43 -0.41,0.394 -0.925,0.59 -1.554,0.59 -0.567,0 -1.035,-0.168 -1.41,-0.508 -0.371,-0.336 -0.586,-0.774 -0.637,-1.309 z m 5.144,-3.195 c 0,-0.461 0.118,-0.852 0.348,-1.172 0.231,-0.324 0.567,-0.484 1.004,-0.484 0.406,0 0.742,0.144 1.004,0.433 0.266,0.289 0.398,0.711 0.398,1.274 0,0.543 -0.132,0.961 -0.402,1.257 -0.266,0.293 -0.598,0.442 -0.988,0.442 -0.391,0 -0.715,-0.145 -0.977,-0.434 -0.258,-0.293 -0.387,-0.73 -0.387,-1.316 z m 1.375,-1.109 c -0.195,0 -0.359,0.082 -0.488,0.253 -0.133,0.168 -0.195,0.481 -0.195,0.934 0,0.414 0.062,0.707 0.195,0.875 0.133,0.168 0.297,0.25 0.488,0.25 0.2,0 0.364,-0.082 0.497,-0.254 0.128,-0.168 0.195,-0.48 0.195,-0.93 0,-0.418 -0.067,-0.711 -0.199,-0.878 -0.133,-0.168 -0.297,-0.25 -0.493,-0.25 z m 0.004,6.242 3.524,-6.789 h 0.644 l -3.511,6.789 z m 2.786,-1.75 c 0,-0.461 0.117,-0.852 0.347,-1.176 0.235,-0.32 0.57,-0.481 1.012,-0.481 0.406,0 0.738,0.145 1.004,0.434 0.265,0.289 0.398,0.715 0.398,1.274 0,0.542 -0.133,0.964 -0.402,1.257 -0.27,0.293 -0.602,0.442 -0.996,0.442 -0.391,0 -0.715,-0.145 -0.973,-0.438 -0.258,-0.289 -0.39,-0.726 -0.39,-1.312 z m 1.382,-1.11 c -0.199,0 -0.367,0.086 -0.496,0.254 -0.129,0.172 -0.195,0.481 -0.195,0.938 0,0.41 0.066,0.699 0.199,0.867 0.129,0.172 0.293,0.258 0.488,0.258 0.2,0 0.368,-0.086 0.496,-0.258 0.133,-0.168 0.196,-0.481 0.196,-0.93 0,-0.418 -0.067,-0.707 -0.196,-0.879 -0.132,-0.168 -0.296,-0.25 -0.492,-0.25 z m 3.043,4.516 h -0.566 c 0.875,-1.406 1.312,-2.813 1.312,-4.223 0,-0.55 -0.062,-1.097 -0.187,-1.636 -0.102,-0.442 -0.242,-0.864 -0.418,-1.266 -0.117,-0.266 -0.352,-0.703 -0.707,-1.32 h 0.566 c 0.551,0.734 0.957,1.472 1.219,2.214 0.227,0.641 0.34,1.309 0.34,2.004 0,0.793 -0.152,1.555 -0.453,2.293 -0.305,0.739 -0.672,1.383 -1.106,1.934 z"
           style="fill:none;stroke:#ffffff;stroke-width:2.25;stroke-linecap:butt;stroke-linejoin:miter;stroke-miterlimit:4;stroke-dasharray:none;stroke-opacity:1"
           id="path11577" />
      </g>
      <text
         xml:space="preserve"
         transform="translate(404.5,455.39999)"
         style="font-variant:normal;font-size:9px;font-family:CairoFont-2;-inkscape-font-specification:CairoFont-2-0;writing-mode:lr-tb;fill:#202124;fill-opacity:1;fill-rule:nonzero;stroke:none"
         id="text11581"><tspan
           x="0 5.0040002 10.008 12.501 15.498 20.502001 25.506001 27.999001 32.976002 40.977001"
           y="0"
           sodipodi:role="line"
           id="tspan11579">15 (31.3%)</tspan></text>
      <g
         id="g11583">
        <path
           d="m 451.352,480.898 h -0.79 v -5.039 c -0.191,0.184 -0.441,0.364 -0.75,0.547 -0.308,0.18 -0.585,0.317 -0.832,0.406 v -0.765 c 0.442,-0.207 0.829,-0.457 1.161,-0.754 0.332,-0.297 0.566,-0.582 0.703,-0.863 h 0.508 z m 3.238,-3.492 c -0.328,-0.121 -0.57,-0.293 -0.727,-0.515 -0.16,-0.223 -0.238,-0.489 -0.238,-0.797 0,-0.469 0.168,-0.864 0.504,-1.184 0.336,-0.32 0.785,-0.48 1.344,-0.48 0.562,0 1.015,0.164 1.359,0.492 0.344,0.324 0.516,0.723 0.516,1.191 0,0.301 -0.078,0.559 -0.239,0.782 -0.156,0.222 -0.394,0.39 -0.711,0.511 0.395,0.129 0.696,0.336 0.903,0.625 0.207,0.285 0.308,0.629 0.308,1.028 0,0.55 -0.195,1.015 -0.582,1.39 -0.39,0.375 -0.902,0.563 -1.539,0.563 -0.636,0 -1.148,-0.192 -1.539,-0.567 -0.39,-0.375 -0.586,-0.847 -0.586,-1.41 0,-0.418 0.11,-0.769 0.321,-1.051 0.211,-0.281 0.515,-0.476 0.906,-0.578 z m -0.156,-1.34 c 0,0.305 0.097,0.555 0.293,0.746 0.195,0.196 0.453,0.29 0.765,0.29 0.305,0 0.555,-0.094 0.75,-0.286 0.196,-0.191 0.293,-0.429 0.293,-0.707 0,-0.289 -0.101,-0.535 -0.305,-0.73 -0.199,-0.199 -0.449,-0.297 -0.746,-0.297 -0.304,0 -0.554,0.098 -0.754,0.289 -0.199,0.195 -0.296,0.426 -0.296,0.695 z m -0.254,2.977 c 0,0.223 0.05,0.441 0.16,0.652 0.105,0.211 0.265,0.375 0.476,0.493 0.211,0.113 0.438,0.171 0.68,0.171 0.379,0 0.692,-0.121 0.938,-0.363 0.246,-0.246 0.367,-0.555 0.367,-0.93 0,-0.378 -0.125,-0.695 -0.379,-0.945 -0.254,-0.246 -0.57,-0.371 -0.953,-0.371 -0.371,0 -0.68,0.121 -0.926,0.367 -0.242,0.246 -0.363,0.555 -0.363,0.926 z m 8.425,3.75 c -0.437,-0.551 -0.804,-1.195 -1.109,-1.934 -0.301,-0.738 -0.449,-1.5 -0.449,-2.293 0,-0.695 0.109,-1.363 0.336,-2.004 0.265,-0.742 0.672,-1.48 1.222,-2.214 h 0.567 c -0.356,0.609 -0.59,1.043 -0.703,1.304 -0.18,0.407 -0.321,0.828 -0.422,1.266 -0.125,0.547 -0.188,1.098 -0.188,1.652 0,1.41 0.438,2.817 1.313,4.223 z m 1.274,-3.594 0.789,-0.105 c 0.094,0.449 0.246,0.769 0.465,0.968 0.219,0.2 0.484,0.297 0.797,0.297 0.371,0 0.687,-0.129 0.941,-0.386 0.258,-0.258 0.387,-0.578 0.387,-0.957 0,-0.364 -0.117,-0.664 -0.356,-0.899 -0.238,-0.238 -0.539,-0.355 -0.906,-0.355 -0.148,0 -0.336,0.031 -0.558,0.09 l 0.089,-0.696 c 0.051,0.004 0.094,0.008 0.125,0.008 0.34,0 0.641,-0.086 0.91,-0.262 0.27,-0.175 0.407,-0.449 0.407,-0.812 0,-0.293 -0.098,-0.531 -0.297,-0.723 -0.195,-0.191 -0.449,-0.285 -0.758,-0.285 -0.309,0 -0.566,0.098 -0.769,0.289 -0.207,0.195 -0.336,0.484 -0.395,0.871 l -0.793,-0.14 c 0.098,-0.532 0.316,-0.942 0.66,-1.235 0.344,-0.289 0.77,-0.437 1.278,-0.437 0.351,0 0.675,0.078 0.972,0.226 0.297,0.153 0.52,0.36 0.68,0.617 0.156,0.262 0.234,0.539 0.234,0.832 0,0.278 -0.074,0.532 -0.226,0.762 -0.149,0.227 -0.367,0.41 -0.66,0.543 0.378,0.09 0.675,0.27 0.886,0.547 0.211,0.277 0.317,0.625 0.317,1.039 0,0.563 -0.207,1.039 -0.618,1.43 -0.41,0.394 -0.925,0.59 -1.554,0.59 -0.567,0 -1.035,-0.168 -1.41,-0.508 -0.371,-0.336 -0.586,-0.774 -0.637,-1.309 z m 5.047,-3.898 v -0.758 h 4.172 v 0.613 c -0.41,0.438 -0.817,1.016 -1.219,1.742 -0.406,0.723 -0.715,1.465 -0.934,2.231 -0.16,0.539 -0.261,1.129 -0.304,1.769 h -0.813 c 0.008,-0.503 0.11,-1.117 0.297,-1.836 0.191,-0.718 0.465,-1.41 0.82,-2.074 0.356,-0.668 0.735,-1.23 1.137,-1.687 z m 5.39,5.597 V 480 h 0.903 v 0.898 z m 2.059,-1.687 0.828,-0.07 c 0.063,0.406 0.207,0.711 0.43,0.914 0.222,0.203 0.496,0.304 0.812,0.304 0.379,0 0.703,-0.144 0.965,-0.429 0.266,-0.289 0.395,-0.668 0.395,-1.145 0,-0.449 -0.125,-0.805 -0.379,-1.066 -0.254,-0.262 -0.586,-0.391 -0.996,-0.391 -0.254,0 -0.485,0.059 -0.688,0.172 -0.207,0.117 -0.367,0.266 -0.484,0.453 l -0.742,-0.098 0.621,-3.308 h 3.207 v 0.754 h -2.574 l -0.344,1.73 c 0.386,-0.269 0.789,-0.402 1.215,-0.402 0.562,0 1.039,0.195 1.425,0.586 0.387,0.387 0.579,0.89 0.579,1.5 0,0.586 -0.168,1.09 -0.508,1.512 -0.414,0.523 -0.977,0.785 -1.692,0.785 -0.586,0 -1.066,-0.164 -1.437,-0.492 -0.371,-0.329 -0.582,-0.766 -0.633,-1.309 z m 5.148,-3.207 c 0,-0.461 0.118,-0.852 0.348,-1.172 0.231,-0.324 0.567,-0.484 1.004,-0.484 0.406,0 0.742,0.144 1.004,0.433 0.266,0.289 0.398,0.711 0.398,1.274 0,0.543 -0.132,0.961 -0.402,1.257 -0.266,0.293 -0.598,0.442 -0.988,0.442 -0.391,0 -0.715,-0.145 -0.977,-0.434 -0.258,-0.293 -0.387,-0.73 -0.387,-1.316 z m 1.375,-1.109 c -0.195,0 -0.359,0.082 -0.488,0.253 -0.133,0.168 -0.195,0.481 -0.195,0.934 0,0.414 0.062,0.707 0.195,0.875 0.133,0.168 0.297,0.25 0.488,0.25 0.2,0 0.364,-0.082 0.497,-0.254 0.128,-0.168 0.195,-0.48 0.195,-0.93 0,-0.418 -0.067,-0.711 -0.199,-0.878 -0.133,-0.168 -0.297,-0.25 -0.493,-0.25 z m 0.004,6.242 3.524,-6.789 h 0.644 l -3.511,6.789 z m 2.786,-1.75 c 0,-0.461 0.117,-0.852 0.347,-1.176 0.235,-0.32 0.57,-0.481 1.012,-0.481 0.406,0 0.738,0.145 1.004,0.434 0.265,0.289 0.398,0.715 0.398,1.274 0,0.542 -0.133,0.964 -0.402,1.257 -0.27,0.293 -0.602,0.442 -0.996,0.442 -0.391,0 -0.715,-0.145 -0.973,-0.438 -0.258,-0.289 -0.39,-0.726 -0.39,-1.312 z m 1.382,-1.11 c -0.199,0 -0.367,0.086 -0.496,0.254 -0.129,0.172 -0.195,0.481 -0.195,0.938 0,0.41 0.066,0.699 0.199,0.867 0.129,0.172 0.293,0.258 0.488,0.258 0.2,0 0.368,-0.086 0.496,-0.258 0.133,-0.168 0.196,-0.481 0.196,-0.93 0,-0.418 -0.067,-0.707 -0.196,-0.879 -0.132,-0.168 -0.296,-0.25 -0.492,-0.25 z m 3.043,4.516 h -0.566 c 0.875,-1.406 1.312,-2.813 1.312,-4.223 0,-0.55 -0.062,-1.097 -0.187,-1.636 -0.102,-0.442 -0.242,-0.864 -0.418,-1.266 -0.117,-0.266 -0.352,-0.703 -0.707,-1.32 h 0.566 c 0.551,0.734 0.957,1.472 1.219,2.214 0.227,0.641 0.34,1.309 0.34,2.004 0,0.793 -0.152,1.555 -0.453,2.293 -0.305,0.739 -0.672,1.383 -1.106,1.934 z"
           style="fill:#202124;fill-opacity:1;fill-rule:nonzero;stroke:#ffffff;stroke-width:2.25;stroke-linecap:butt;stroke-linejoin:miter;stroke-miterlimit:4;stroke-dasharray:none;stroke-opacity:1"
           id="path11585" />
      </g>
      <text
         xml:space="preserve"
         transform="translate(448,480.89999)"
         style="font-variant:normal;font-size:9px;font-family:CairoFont-2;-inkscape-font-specification:CairoFont-2-0;writing-mode:lr-tb;fill:#202124;fill-opacity:1;fill-rule:nonzero;stroke:none"
         id="text11589"><tspan
           x="0 5.0040002 10.008 12.501 15.498 20.502001 25.506001 27.999001 32.976002 40.977001"
           y="0"
           sodipodi:role="line"
           id="tspan11587">18 (37.5%)</tspan></text>
      <g
         id="g11591">
        <path
           d="m 363.602,506.398 h -0.79 v -5.039 c -0.191,0.184 -0.441,0.364 -0.75,0.547 -0.308,0.18 -0.585,0.317 -0.832,0.406 v -0.765 c 0.442,-0.207 0.829,-0.457 1.161,-0.754 0.332,-0.297 0.566,-0.582 0.703,-0.863 h 0.508 z m 6.179,-0.757 v 0.757 h -4.258 c -0.007,-0.187 0.024,-0.371 0.09,-0.546 0.11,-0.29 0.285,-0.579 0.524,-0.86 0.238,-0.281 0.582,-0.605 1.035,-0.972 0.699,-0.575 1.172,-1.032 1.418,-1.368 0.246,-0.336 0.367,-0.652 0.367,-0.949 0,-0.312 -0.109,-0.578 -0.336,-0.793 -0.223,-0.215 -0.516,-0.324 -0.875,-0.324 -0.383,0 -0.687,0.113 -0.914,0.344 -0.23,0.226 -0.344,0.543 -0.348,0.949 l -0.812,-0.086 c 0.055,-0.605 0.266,-1.066 0.629,-1.387 0.363,-0.316 0.851,-0.476 1.461,-0.476 0.621,0 1.109,0.172 1.468,0.515 0.36,0.344 0.543,0.77 0.543,1.274 0,0.258 -0.054,0.511 -0.16,0.761 -0.105,0.25 -0.281,0.512 -0.523,0.786 -0.246,0.277 -0.652,0.656 -1.223,1.136 -0.472,0.399 -0.777,0.668 -0.914,0.809 -0.133,0.141 -0.246,0.285 -0.332,0.43 z m 5.074,2.652 c -0.437,-0.551 -0.804,-1.195 -1.109,-1.934 -0.301,-0.738 -0.453,-1.5 -0.453,-2.293 0,-0.695 0.113,-1.363 0.34,-2.004 0.265,-0.742 0.672,-1.48 1.222,-2.214 h 0.567 c -0.356,0.609 -0.59,1.043 -0.703,1.304 -0.18,0.407 -0.321,0.828 -0.422,1.266 -0.125,0.547 -0.188,1.098 -0.188,1.652 0,1.41 0.438,2.817 1.313,4.223 z m 5.426,-2.652 v 0.757 h -4.258 c -0.007,-0.187 0.024,-0.371 0.09,-0.546 0.11,-0.29 0.285,-0.579 0.524,-0.86 0.238,-0.281 0.582,-0.605 1.035,-0.972 0.699,-0.575 1.172,-1.032 1.418,-1.368 0.246,-0.336 0.367,-0.652 0.367,-0.949 0,-0.312 -0.109,-0.578 -0.336,-0.793 -0.223,-0.215 -0.516,-0.324 -0.875,-0.324 -0.383,0 -0.687,0.113 -0.914,0.344 -0.23,0.226 -0.344,0.543 -0.348,0.949 l -0.812,-0.086 c 0.055,-0.605 0.266,-1.066 0.629,-1.387 0.363,-0.316 0.851,-0.476 1.461,-0.476 0.621,0 1.109,0.172 1.468,0.515 0.36,0.344 0.543,0.77 0.543,1.274 0,0.258 -0.054,0.511 -0.16,0.761 -0.105,0.25 -0.281,0.512 -0.523,0.786 -0.246,0.277 -0.652,0.656 -1.223,1.136 -0.472,0.399 -0.777,0.668 -0.914,0.809 -0.133,0.141 -0.246,0.285 -0.332,0.43 z m 0.844,-0.93 0.828,-0.07 c 0.063,0.406 0.207,0.711 0.43,0.914 0.222,0.203 0.496,0.304 0.812,0.304 0.379,0 0.703,-0.144 0.965,-0.429 0.266,-0.289 0.395,-0.668 0.395,-1.145 0,-0.449 -0.125,-0.805 -0.379,-1.066 -0.254,-0.262 -0.586,-0.391 -0.996,-0.391 -0.254,0 -0.485,0.059 -0.688,0.172 -0.207,0.117 -0.367,0.266 -0.484,0.453 l -0.742,-0.098 0.621,-3.308 h 3.207 v 0.754 h -2.574 l -0.344,1.73 c 0.386,-0.269 0.789,-0.402 1.215,-0.402 0.562,0 1.039,0.195 1.425,0.586 0.387,0.387 0.579,0.89 0.579,1.5 0,0.586 -0.168,1.09 -0.508,1.512 -0.414,0.523 -0.977,0.785 -1.692,0.785 -0.586,0 -1.066,-0.164 -1.437,-0.492 -0.371,-0.329 -0.582,-0.766 -0.633,-1.309 z m 5.148,-3.207 c 0,-0.461 0.118,-0.852 0.348,-1.172 0.231,-0.324 0.567,-0.484 1.004,-0.484 0.406,0 0.742,0.144 1.004,0.433 0.266,0.289 0.398,0.711 0.398,1.274 0,0.543 -0.132,0.961 -0.402,1.257 -0.266,0.293 -0.598,0.442 -0.988,0.442 -0.391,0 -0.715,-0.145 -0.977,-0.434 -0.258,-0.293 -0.387,-0.73 -0.387,-1.316 z m 1.375,-1.109 c -0.195,0 -0.359,0.082 -0.488,0.253 -0.133,0.168 -0.199,0.481 -0.199,0.934 0,0.414 0.066,0.707 0.199,0.875 0.133,0.168 0.293,0.25 0.488,0.25 0.2,0 0.364,-0.082 0.497,-0.254 0.128,-0.168 0.195,-0.48 0.195,-0.93 0,-0.418 -0.067,-0.711 -0.199,-0.878 -0.133,-0.168 -0.297,-0.25 -0.493,-0.25 z m 0.004,6.242 3.524,-6.789 h 0.644 l -3.511,6.789 z m 2.786,-1.75 c 0,-0.461 0.117,-0.852 0.347,-1.176 0.231,-0.32 0.57,-0.481 1.012,-0.481 0.406,0 0.738,0.145 1.004,0.434 0.265,0.289 0.398,0.715 0.398,1.274 0,0.542 -0.133,0.964 -0.402,1.257 -0.27,0.293 -0.602,0.442 -0.996,0.442 -0.391,0 -0.715,-0.145 -0.973,-0.438 -0.258,-0.289 -0.39,-0.726 -0.39,-1.312 z m 1.382,-1.11 c -0.199,0 -0.367,0.086 -0.496,0.254 -0.129,0.172 -0.195,0.481 -0.195,0.938 0,0.41 0.066,0.699 0.199,0.867 0.129,0.172 0.293,0.258 0.484,0.258 0.204,0 0.372,-0.086 0.5,-0.258 0.133,-0.168 0.196,-0.481 0.196,-0.93 0,-0.418 -0.067,-0.707 -0.196,-0.879 -0.132,-0.168 -0.296,-0.25 -0.492,-0.25 z m 3.043,4.516 h -0.57 c 0.879,-1.406 1.316,-2.813 1.316,-4.223 0,-0.55 -0.062,-1.097 -0.191,-1.636 -0.098,-0.442 -0.238,-0.864 -0.414,-1.266 -0.117,-0.266 -0.352,-0.703 -0.711,-1.32 h 0.57 c 0.551,0.734 0.957,1.472 1.219,2.214 0.227,0.641 0.34,1.309 0.34,2.004 0,0.793 -0.152,1.555 -0.453,2.293 -0.305,0.739 -0.672,1.383 -1.106,1.934 z"
           style="fill:#202124;fill-opacity:1;fill-rule:nonzero;stroke:#ffffff;stroke-width:2.25;stroke-linecap:butt;stroke-linejoin:miter;stroke-miterlimit:4;stroke-dasharray:none;stroke-opacity:1"
           id="path11593" />
      </g>
      <text
         xml:space="preserve"
         transform="translate(360.25,506.39999)"
         style="font-variant:normal;font-size:9px;font-family:CairoFont-2;-inkscape-font-specification:CairoFont-2-0;writing-mode:lr-tb;fill:#202124;fill-opacity:1;fill-rule:nonzero;stroke:none"
         id="text11597"><tspan
           x="0 5.0040002 10.008 12.501 15.498 20.502001 25.506001 33.507"
           y="0"
           sodipodi:role="line"
           id="tspan11595">12 (25%)</tspan></text>
      <g
         id="g11599">
        <path
           d="m 437.102,531.148 h -0.79 v -5.039 c -0.191,0.184 -0.441,0.364 -0.75,0.547 -0.308,0.18 -0.585,0.317 -0.832,0.406 v -0.765 c 0.442,-0.207 0.829,-0.457 1.161,-0.754 0.332,-0.297 0.566,-0.582 0.703,-0.863 h 0.508 z m 2.074,-5.597 v -0.758 h 4.172 v 0.613 c -0.41,0.438 -0.817,1.016 -1.219,1.742 -0.406,0.723 -0.715,1.465 -0.934,2.231 -0.16,0.539 -0.261,1.129 -0.304,1.769 h -0.813 c 0.008,-0.503 0.106,-1.117 0.297,-1.836 0.191,-0.718 0.465,-1.41 0.82,-2.074 0.356,-0.668 0.735,-1.23 1.137,-1.687 z m 9.179,7.492 c -0.437,-0.551 -0.804,-1.195 -1.109,-1.934 -0.301,-0.738 -0.449,-1.5 -0.449,-2.293 0,-0.695 0.109,-1.363 0.336,-2.004 0.265,-0.742 0.672,-1.48 1.222,-2.214 h 0.567 c -0.356,0.609 -0.59,1.043 -0.703,1.304 -0.18,0.407 -0.321,0.828 -0.422,1.266 -0.125,0.547 -0.188,1.098 -0.188,1.652 0,1.41 0.438,2.817 1.313,4.223 z m 1.274,-3.594 0.789,-0.105 c 0.094,0.449 0.246,0.769 0.465,0.968 0.219,0.2 0.484,0.297 0.797,0.297 0.371,0 0.687,-0.129 0.941,-0.386 0.258,-0.258 0.387,-0.578 0.387,-0.957 0,-0.364 -0.117,-0.664 -0.356,-0.899 -0.238,-0.238 -0.539,-0.355 -0.906,-0.355 -0.148,0 -0.336,0.031 -0.558,0.09 l 0.089,-0.696 c 0.051,0.004 0.094,0.008 0.125,0.008 0.34,0 0.641,-0.086 0.91,-0.262 0.27,-0.175 0.407,-0.449 0.407,-0.812 0,-0.293 -0.098,-0.531 -0.297,-0.723 -0.195,-0.191 -0.449,-0.285 -0.758,-0.285 -0.309,0 -0.566,0.098 -0.769,0.289 -0.207,0.195 -0.336,0.484 -0.395,0.871 l -0.793,-0.14 c 0.098,-0.532 0.316,-0.942 0.66,-1.235 0.344,-0.289 0.77,-0.437 1.278,-0.437 0.351,0 0.675,0.078 0.972,0.226 0.297,0.153 0.52,0.36 0.68,0.617 0.156,0.262 0.234,0.539 0.234,0.832 0,0.278 -0.074,0.532 -0.226,0.762 -0.149,0.227 -0.367,0.41 -0.66,0.543 0.378,0.09 0.675,0.27 0.886,0.547 0.211,0.277 0.317,0.625 0.317,1.039 0,0.563 -0.207,1.039 -0.618,1.43 -0.41,0.394 -0.925,0.59 -1.554,0.59 -0.567,0 -1.035,-0.168 -1.41,-0.508 -0.371,-0.336 -0.586,-0.774 -0.637,-1.309 z m 4.996,0.012 0.828,-0.07 c 0.063,0.406 0.207,0.711 0.43,0.914 0.222,0.203 0.496,0.304 0.812,0.304 0.379,0 0.703,-0.144 0.965,-0.429 0.266,-0.289 0.395,-0.668 0.395,-1.145 0,-0.449 -0.125,-0.805 -0.379,-1.066 -0.254,-0.262 -0.586,-0.391 -0.996,-0.391 -0.254,0 -0.485,0.059 -0.688,0.172 -0.207,0.117 -0.367,0.266 -0.484,0.453 l -0.742,-0.098 0.621,-3.308 h 3.207 v 0.754 h -2.574 l -0.344,1.73 c 0.386,-0.269 0.789,-0.402 1.215,-0.402 0.562,0 1.039,0.195 1.425,0.586 0.387,0.387 0.579,0.89 0.579,1.5 0,0.586 -0.168,1.09 -0.508,1.512 -0.414,0.523 -0.977,0.785 -1.692,0.785 -0.586,0 -1.066,-0.164 -1.437,-0.492 -0.371,-0.329 -0.582,-0.766 -0.633,-1.309 z m 5.441,1.687 v -0.898 h 0.903 v 0.898 z m 4.594,0 v -1.539 h -2.797 v -0.726 l 2.942,-4.176 h 0.644 v 4.176 h 0.871 v 0.726 h -0.871 v 1.539 z m 0,-2.265 v -2.906 l -2.019,2.906 z m 2.613,-2.629 c 0,-0.461 0.118,-0.852 0.348,-1.172 0.231,-0.324 0.567,-0.484 1.004,-0.484 0.406,0 0.742,0.144 1.004,0.433 0.266,0.289 0.398,0.711 0.398,1.274 0,0.543 -0.132,0.961 -0.402,1.257 -0.266,0.293 -0.598,0.442 -0.988,0.442 -0.391,0 -0.715,-0.145 -0.977,-0.434 -0.258,-0.293 -0.387,-0.73 -0.387,-1.316 z m 1.375,-1.109 c -0.195,0 -0.359,0.082 -0.488,0.253 -0.133,0.168 -0.199,0.481 -0.199,0.934 0,0.414 0.066,0.707 0.199,0.875 0.133,0.168 0.293,0.25 0.488,0.25 0.2,0 0.364,-0.082 0.497,-0.254 0.128,-0.168 0.195,-0.48 0.195,-0.93 0,-0.418 -0.067,-0.711 -0.199,-0.878 -0.133,-0.168 -0.297,-0.25 -0.493,-0.25 z m 0.004,6.242 3.524,-6.789 h 0.644 l -3.511,6.789 z m 2.786,-1.75 c 0,-0.461 0.117,-0.852 0.347,-1.176 0.231,-0.32 0.57,-0.481 1.012,-0.481 0.406,0 0.738,0.145 1.004,0.434 0.265,0.289 0.398,0.715 0.398,1.274 0,0.542 -0.133,0.964 -0.402,1.257 -0.27,0.293 -0.602,0.442 -0.996,0.442 -0.391,0 -0.715,-0.145 -0.973,-0.438 -0.258,-0.289 -0.39,-0.726 -0.39,-1.312 z m 1.382,-1.11 c -0.199,0 -0.367,0.086 -0.496,0.254 -0.129,0.172 -0.195,0.481 -0.195,0.938 0,0.41 0.066,0.699 0.199,0.867 0.129,0.172 0.293,0.258 0.484,0.258 0.204,0 0.372,-0.086 0.5,-0.258 0.133,-0.168 0.196,-0.481 0.196,-0.93 0,-0.418 -0.067,-0.707 -0.196,-0.879 -0.132,-0.168 -0.296,-0.25 -0.492,-0.25 z m 3.043,4.516 h -0.566 c 0.875,-1.406 1.312,-2.813 1.312,-4.223 0,-0.55 -0.062,-1.097 -0.187,-1.636 -0.102,-0.442 -0.242,-0.864 -0.418,-1.266 -0.117,-0.266 -0.352,-0.703 -0.707,-1.32 h 0.566 c 0.551,0.734 0.957,1.472 1.219,2.214 0.227,0.641 0.34,1.309 0.34,2.004 0,0.793 -0.152,1.555 -0.453,2.293 -0.305,0.739 -0.672,1.383 -1.106,1.934 z"
           style="fill:#202124;fill-opacity:1;fill-rule:nonzero;stroke:#ffffff;stroke-width:2.25;stroke-linecap:butt;stroke-linejoin:miter;stroke-miterlimit:4;stroke-dasharray:none;stroke-opacity:1"
           id="path11601" />
      </g>
      <text
         xml:space="preserve"
         transform="translate(433.75,531.15002)"
         style="font-variant:normal;font-size:9px;font-family:CairoFont-2;-inkscape-font-specification:CairoFont-2-0;writing-mode:lr-tb;fill:#202124;fill-opacity:1;fill-rule:nonzero;stroke:none"
         id="text11605"><tspan
           x="0 5.0040002 10.008 12.501 15.498 20.502001 25.506001 27.999001 32.976002 40.977001"
           y="0"
           sodipodi:role="line"
           id="tspan11603">17 (35.4%)</tspan></text>
      <g
         id="g11607">
        <path
           d="m 229.379,554.949 0.789,-0.105 c 0.09,0.449 0.246,0.769 0.465,0.968 0.219,0.2 0.484,0.297 0.797,0.297 0.371,0 0.687,-0.129 0.941,-0.386 0.258,-0.258 0.387,-0.578 0.387,-0.957 0,-0.364 -0.117,-0.664 -0.356,-0.899 -0.238,-0.238 -0.539,-0.355 -0.906,-0.355 -0.148,0 -0.336,0.031 -0.558,0.09 l 0.089,-0.696 c 0.051,0.004 0.094,0.008 0.125,0.008 0.34,0 0.641,-0.086 0.91,-0.262 0.27,-0.175 0.407,-0.449 0.407,-0.812 0,-0.293 -0.102,-0.531 -0.297,-0.723 -0.195,-0.191 -0.449,-0.285 -0.758,-0.285 -0.309,0 -0.566,0.098 -0.769,0.289 -0.207,0.195 -0.34,0.484 -0.395,0.871 l -0.793,-0.14 c 0.098,-0.532 0.316,-0.942 0.66,-1.235 0.344,-0.289 0.77,-0.437 1.278,-0.437 0.351,0 0.675,0.078 0.972,0.226 0.297,0.153 0.52,0.36 0.68,0.617 0.156,0.262 0.234,0.539 0.234,0.832 0,0.278 -0.074,0.532 -0.226,0.762 -0.149,0.227 -0.367,0.41 -0.664,0.543 0.382,0.09 0.679,0.27 0.89,0.547 0.211,0.277 0.317,0.625 0.317,1.039 0,0.563 -0.207,1.039 -0.618,1.43 -0.41,0.394 -0.925,0.59 -1.554,0.59 -0.567,0 -1.035,-0.168 -1.41,-0.508 -0.371,-0.336 -0.586,-0.774 -0.637,-1.309 z m 9.226,3.594 c -0.437,-0.551 -0.804,-1.195 -1.109,-1.934 -0.301,-0.738 -0.449,-1.5 -0.449,-2.293 0,-0.695 0.109,-1.363 0.336,-2.004 0.265,-0.742 0.672,-1.48 1.222,-2.214 h 0.567 c -0.356,0.609 -0.59,1.043 -0.703,1.304 -0.18,0.407 -0.321,0.828 -0.422,1.266 -0.125,0.547 -0.188,1.098 -0.188,1.652 0,1.41 0.438,2.817 1.313,4.223 z m 5.372,-6.758 -0.786,0.063 c -0.07,-0.313 -0.168,-0.536 -0.3,-0.676 -0.211,-0.227 -0.477,-0.34 -0.789,-0.34 -0.25,0 -0.473,0.07 -0.664,0.211 -0.25,0.18 -0.446,0.445 -0.59,0.797 -0.141,0.348 -0.215,0.844 -0.223,1.488 0.191,-0.289 0.422,-0.504 0.699,-0.644 0.274,-0.141 0.563,-0.211 0.864,-0.211 0.531,0 0.976,0.191 1.347,0.582 0.371,0.386 0.559,0.886 0.559,1.504 0,0.402 -0.09,0.781 -0.262,1.125 -0.176,0.347 -0.414,0.613 -0.719,0.8 -0.304,0.184 -0.652,0.278 -1.039,0.278 -0.66,0 -1.195,-0.246 -1.613,-0.731 -0.414,-0.484 -0.621,-1.281 -0.621,-2.394 0,-1.246 0.23,-2.153 0.687,-2.719 0.403,-0.492 0.942,-0.738 1.621,-0.738 0.508,0 0.922,0.144 1.247,0.429 0.324,0.282 0.519,0.676 0.582,1.176 z m -3.227,2.777 c 0,0.274 0.055,0.536 0.172,0.782 0.117,0.25 0.277,0.441 0.484,0.57 0.211,0.129 0.426,0.195 0.656,0.195 0.333,0 0.622,-0.132 0.86,-0.402 0.242,-0.269 0.363,-0.637 0.363,-1.102 0,-0.445 -0.121,-0.796 -0.355,-1.05 -0.239,-0.258 -0.539,-0.387 -0.899,-0.387 -0.359,0 -0.66,0.129 -0.91,0.387 -0.25,0.254 -0.371,0.593 -0.371,1.007 z m 4.566,2.086 v -0.898 h 0.903 v 0.898 z m 2.063,-1.699 0.789,-0.105 c 0.09,0.449 0.246,0.769 0.465,0.968 0.219,0.2 0.484,0.297 0.797,0.297 0.371,0 0.687,-0.129 0.941,-0.386 0.258,-0.258 0.387,-0.578 0.387,-0.957 0,-0.364 -0.117,-0.664 -0.356,-0.899 -0.238,-0.238 -0.539,-0.355 -0.906,-0.355 -0.148,0 -0.336,0.031 -0.558,0.09 l 0.089,-0.696 c 0.051,0.004 0.094,0.008 0.125,0.008 0.34,0 0.641,-0.086 0.91,-0.262 0.27,-0.175 0.407,-0.449 0.407,-0.812 0,-0.293 -0.102,-0.531 -0.297,-0.723 -0.195,-0.191 -0.449,-0.285 -0.758,-0.285 -0.309,0 -0.566,0.098 -0.769,0.289 -0.207,0.195 -0.34,0.484 -0.395,0.871 l -0.793,-0.14 c 0.098,-0.532 0.316,-0.942 0.66,-1.235 0.344,-0.289 0.77,-0.437 1.278,-0.437 0.351,0 0.675,0.078 0.972,0.226 0.297,0.153 0.52,0.36 0.68,0.617 0.156,0.262 0.234,0.539 0.234,0.832 0,0.278 -0.074,0.532 -0.226,0.762 -0.149,0.227 -0.367,0.41 -0.664,0.543 0.382,0.09 0.679,0.27 0.89,0.547 0.211,0.277 0.317,0.625 0.317,1.039 0,0.563 -0.207,1.039 -0.618,1.43 -0.41,0.394 -0.925,0.59 -1.554,0.59 -0.567,0 -1.035,-0.168 -1.41,-0.508 -0.371,-0.336 -0.586,-0.774 -0.637,-1.309 z m 5.144,-3.195 c 0,-0.461 0.118,-0.852 0.348,-1.172 0.231,-0.324 0.567,-0.484 1.004,-0.484 0.406,0 0.742,0.144 1.004,0.433 0.266,0.289 0.398,0.711 0.398,1.274 0,0.543 -0.132,0.961 -0.402,1.257 -0.266,0.293 -0.598,0.442 -0.988,0.442 -0.391,0 -0.715,-0.145 -0.977,-0.434 -0.258,-0.293 -0.387,-0.73 -0.387,-1.316 z m 1.375,-1.109 c -0.195,0 -0.359,0.082 -0.488,0.253 -0.133,0.168 -0.195,0.481 -0.195,0.934 0,0.414 0.062,0.707 0.195,0.875 0.133,0.168 0.297,0.25 0.488,0.25 0.2,0 0.364,-0.082 0.497,-0.254 0.128,-0.168 0.195,-0.48 0.195,-0.93 0,-0.418 -0.067,-0.711 -0.199,-0.878 -0.133,-0.168 -0.297,-0.25 -0.493,-0.25 z m 0.004,6.242 3.524,-6.789 h 0.644 l -3.511,6.789 z m 2.786,-1.75 c 0,-0.461 0.117,-0.852 0.347,-1.176 0.231,-0.32 0.57,-0.481 1.012,-0.481 0.402,0 0.738,0.145 1.004,0.434 0.265,0.289 0.398,0.715 0.398,1.274 0,0.542 -0.133,0.964 -0.402,1.257 -0.27,0.293 -0.602,0.442 -0.996,0.442 -0.391,0 -0.715,-0.145 -0.973,-0.438 -0.258,-0.289 -0.39,-0.726 -0.39,-1.312 z m 1.382,-1.11 c -0.199,0 -0.367,0.086 -0.496,0.254 -0.129,0.172 -0.195,0.481 -0.195,0.938 0,0.41 0.066,0.699 0.199,0.867 0.129,0.172 0.293,0.258 0.484,0.258 0.204,0 0.372,-0.086 0.5,-0.258 0.133,-0.168 0.196,-0.481 0.196,-0.93 0,-0.418 -0.067,-0.707 -0.196,-0.879 -0.132,-0.168 -0.296,-0.25 -0.492,-0.25 z m 3.043,4.516 h -0.566 c 0.875,-1.406 1.312,-2.813 1.312,-4.223 0,-0.55 -0.062,-1.097 -0.187,-1.636 -0.102,-0.442 -0.242,-0.864 -0.418,-1.266 -0.117,-0.266 -0.352,-0.703 -0.707,-1.32 h 0.566 c 0.551,0.734 0.957,1.472 1.219,2.214 0.227,0.641 0.34,1.309 0.34,2.004 0,0.793 -0.152,1.555 -0.453,2.293 -0.305,0.739 -0.672,1.383 -1.106,1.934 z"
           style="fill:#202124;fill-opacity:1;fill-rule:nonzero;stroke:#ffffff;stroke-width:2.25;stroke-linecap:butt;stroke-linejoin:miter;stroke-miterlimit:4;stroke-dasharray:none;stroke-opacity:1"
           id="path11609" />
      </g>
      <text
         xml:space="preserve"
         transform="translate(229,556.65002)"
         style="font-variant:normal;font-size:9px;font-family:CairoFont-2;-inkscape-font-specification:CairoFont-2-0;writing-mode:lr-tb;fill:#202124;fill-opacity:1;fill-rule:nonzero;stroke:none"
         id="text11613"><tspan
           x="0 5.0040002 7.4970002 10.494 15.498 17.990999 22.995001 30.996"
           y="0"
           sodipodi:role="line"
           id="tspan11611">3 (6.3%)</tspan></text>
      <g
         id="g11615">
        <path
           d="m 246.16,582.148 v -1.539 h -2.797 v -0.726 l 2.942,-4.176 h 0.644 v 4.176 h 0.871 v 0.726 h -0.871 v 1.539 z m 0,-2.265 v -2.906 l -2.019,2.906 z m 6.695,4.16 c -0.437,-0.551 -0.804,-1.195 -1.109,-1.934 -0.301,-0.738 -0.449,-1.5 -0.449,-2.293 0,-0.695 0.109,-1.363 0.336,-2.004 0.265,-0.742 0.672,-1.48 1.222,-2.214 h 0.567 c -0.356,0.609 -0.59,1.043 -0.703,1.304 -0.18,0.407 -0.321,0.828 -0.422,1.266 -0.125,0.547 -0.188,1.098 -0.188,1.652 0,1.41 0.438,2.817 1.313,4.223 z m 2.485,-5.387 c -0.328,-0.121 -0.57,-0.293 -0.731,-0.515 -0.156,-0.223 -0.234,-0.489 -0.234,-0.797 0,-0.469 0.168,-0.864 0.504,-1.184 0.336,-0.32 0.785,-0.48 1.344,-0.48 0.562,0 1.015,0.164 1.359,0.492 0.344,0.324 0.516,0.723 0.516,1.191 0,0.301 -0.078,0.559 -0.239,0.782 -0.156,0.222 -0.394,0.39 -0.711,0.511 0.395,0.129 0.696,0.336 0.903,0.625 0.207,0.285 0.308,0.629 0.308,1.028 0,0.55 -0.195,1.015 -0.586,1.39 -0.386,0.375 -0.898,0.563 -1.535,0.563 -0.636,0 -1.148,-0.192 -1.539,-0.567 -0.39,-0.375 -0.586,-0.847 -0.586,-1.41 0,-0.418 0.11,-0.769 0.321,-1.051 0.211,-0.281 0.515,-0.476 0.906,-0.578 z m -0.156,-1.34 c 0,0.305 0.097,0.555 0.293,0.746 0.195,0.196 0.453,0.29 0.765,0.29 0.305,0 0.555,-0.094 0.75,-0.286 0.196,-0.191 0.289,-0.429 0.289,-0.707 0,-0.289 -0.097,-0.535 -0.301,-0.73 -0.199,-0.199 -0.449,-0.297 -0.746,-0.297 -0.304,0 -0.554,0.098 -0.754,0.289 -0.199,0.195 -0.296,0.426 -0.296,0.695 z m -0.254,2.977 c 0,0.223 0.05,0.441 0.16,0.652 0.105,0.211 0.265,0.375 0.476,0.493 0.211,0.113 0.438,0.171 0.68,0.171 0.379,0 0.692,-0.121 0.938,-0.363 0.246,-0.246 0.367,-0.555 0.367,-0.93 0,-0.378 -0.125,-0.695 -0.379,-0.945 -0.254,-0.246 -0.57,-0.371 -0.953,-0.371 -0.371,0 -0.68,0.121 -0.926,0.367 -0.242,0.246 -0.363,0.555 -0.363,0.926 z m 4.636,1.855 v -0.898 h 0.903 v 0.898 z m 2.063,-1.699 0.789,-0.105 c 0.09,0.449 0.246,0.769 0.465,0.968 0.219,0.2 0.484,0.297 0.797,0.297 0.371,0 0.687,-0.129 0.941,-0.386 0.258,-0.258 0.387,-0.578 0.387,-0.957 0,-0.364 -0.117,-0.664 -0.356,-0.899 -0.238,-0.238 -0.539,-0.355 -0.906,-0.355 -0.148,0 -0.336,0.031 -0.558,0.09 l 0.089,-0.696 c 0.051,0.004 0.094,0.008 0.125,0.008 0.34,0 0.641,-0.086 0.91,-0.262 0.27,-0.175 0.407,-0.449 0.407,-0.812 0,-0.293 -0.102,-0.531 -0.297,-0.723 -0.195,-0.191 -0.449,-0.285 -0.758,-0.285 -0.309,0 -0.566,0.098 -0.769,0.289 -0.207,0.195 -0.34,0.484 -0.395,0.871 l -0.793,-0.14 c 0.098,-0.532 0.316,-0.942 0.66,-1.235 0.344,-0.289 0.77,-0.437 1.278,-0.437 0.351,0 0.675,0.078 0.972,0.226 0.297,0.153 0.52,0.36 0.68,0.617 0.156,0.262 0.234,0.539 0.234,0.832 0,0.278 -0.074,0.532 -0.226,0.762 -0.149,0.227 -0.367,0.41 -0.664,0.543 0.382,0.09 0.679,0.27 0.89,0.547 0.211,0.277 0.317,0.625 0.317,1.039 0,0.563 -0.207,1.039 -0.618,1.43 -0.41,0.394 -0.925,0.59 -1.554,0.59 -0.567,0 -1.035,-0.168 -1.41,-0.508 -0.371,-0.336 -0.586,-0.774 -0.637,-1.309 z m 5.144,-3.195 c 0,-0.461 0.114,-0.852 0.348,-1.172 0.231,-0.324 0.567,-0.484 1.004,-0.484 0.406,0 0.742,0.144 1.004,0.433 0.266,0.289 0.398,0.711 0.398,1.274 0,0.543 -0.132,0.961 -0.402,1.257 -0.266,0.293 -0.598,0.442 -0.988,0.442 -0.391,0 -0.715,-0.145 -0.977,-0.434 -0.258,-0.293 -0.387,-0.73 -0.387,-1.316 z m 1.375,-1.109 c -0.195,0 -0.359,0.082 -0.488,0.253 -0.133,0.168 -0.199,0.481 -0.199,0.934 0,0.414 0.066,0.707 0.199,0.875 0.133,0.168 0.293,0.25 0.488,0.25 0.2,0 0.364,-0.082 0.497,-0.254 0.128,-0.168 0.195,-0.48 0.195,-0.93 0,-0.418 -0.067,-0.711 -0.199,-0.878 -0.133,-0.168 -0.297,-0.25 -0.493,-0.25 z m 0.004,6.242 3.524,-6.789 h 0.644 l -3.511,6.789 z m 2.786,-1.75 c 0,-0.461 0.117,-0.852 0.347,-1.176 0.231,-0.32 0.57,-0.481 1.012,-0.481 0.402,0 0.738,0.145 1.004,0.434 0.265,0.289 0.398,0.715 0.398,1.274 0,0.542 -0.133,0.964 -0.402,1.257 -0.27,0.293 -0.602,0.442 -0.996,0.442 -0.391,0 -0.715,-0.145 -0.973,-0.438 -0.258,-0.289 -0.39,-0.726 -0.39,-1.312 z m 1.382,-1.11 c -0.199,0 -0.367,0.086 -0.496,0.254 -0.129,0.172 -0.195,0.481 -0.195,0.938 0,0.41 0.066,0.699 0.199,0.867 0.129,0.172 0.293,0.258 0.484,0.258 0.204,0 0.372,-0.086 0.5,-0.258 0.133,-0.168 0.196,-0.481 0.196,-0.93 0,-0.418 -0.067,-0.707 -0.196,-0.879 -0.132,-0.168 -0.296,-0.25 -0.492,-0.25 z m 3.043,4.516 h -0.566 c 0.875,-1.406 1.312,-2.813 1.312,-4.223 0,-0.55 -0.062,-1.097 -0.187,-1.636 -0.102,-0.442 -0.242,-0.864 -0.418,-1.266 -0.117,-0.266 -0.352,-0.703 -0.707,-1.32 h 0.566 c 0.551,0.734 0.957,1.472 1.219,2.214 0.227,0.641 0.34,1.309 0.34,2.004 0,0.793 -0.152,1.555 -0.453,2.293 -0.305,0.739 -0.672,1.383 -1.106,1.934 z"
           style="fill:#202124;fill-opacity:1;fill-rule:nonzero;stroke:#ffffff;stroke-width:2.25;stroke-linecap:butt;stroke-linejoin:miter;stroke-miterlimit:4;stroke-dasharray:none;stroke-opacity:1"
           id="path11617" />
      </g>
      <text
         xml:space="preserve"
         transform="translate(243.25,582.14996)"
         style="font-variant:normal;font-size:9px;font-family:CairoFont-2;-inkscape-font-specification:CairoFont-2-0;writing-mode:lr-tb;fill:#202124;fill-opacity:1;fill-rule:nonzero;stroke:none"
         id="text11621"><tspan
           x="0 5.0040002 7.4970002 10.494 15.498 17.990999 22.995001 30.996"
           y="0"
           sodipodi:role="line"
           id="tspan11619">4 (8.3%)</tspan></text>
    </g>
  </g>
</svg>
