<?xml version="1.0" encoding="UTF-8" standalone="no"?>
<!-- Created with Inkscape (http://www.inkscape.org/) -->

<svg
   version="1.1"
   id="svg4819"
   width="602.66602"
   height="306.64838"
   viewBox="0 0 602.66602 306.64836"
   sodipodi:docname="cocotb user survey 2023.pdf"
   xmlns:inkscape="http://www.inkscape.org/namespaces/inkscape"
   xmlns:sodipodi="http://sodipodi.sourceforge.net/DTD/sodipodi-0.dtd"
   xmlns="http://www.w3.org/2000/svg"
   xmlns:svg="http://www.w3.org/2000/svg">
  <defs
     id="defs4823">
    <clipPath
       clipPathUnits="userSpaceOnUse"
       id="clipPath14003">
      <path
         d="m 62.199,637.5 h 6 v 6 h -6 z"
         id="path14001" />
    </clipPath>
    <clipPath
       clipPathUnits="userSpaceOnUse"
       id="clipPath14511">
      <path
         d="M 62.699,463 H 514 V 643 H 62.699 Z"
         id="path14509" />
    </clipPath>
    <clipPath
       clipPathUnits="userSpaceOnUse"
       id="clipPath14521">
      <path
         d="M 107,470 H 514.199 V 606 H 107 Z"
         id="path14519" />
    </clipPath>
    <clipPath
       clipPathUnits="userSpaceOnUse"
       id="clipPath14533">
      <path
         d="M 107.5,604 H 514 v 1.5 H 107.5 Z"
         id="path14531" />
    </clipPath>
    <clipPath
       clipPathUnits="userSpaceOnUse"
       id="clipPath14543">
      <path
         d="M 107.5,559 H 514 v 2 H 107.5 Z"
         id="path14541" />
    </clipPath>
    <clipPath
       clipPathUnits="userSpaceOnUse"
       id="clipPath14553">
      <path
         d="M 107.5,515 H 514 v 2 H 107.5 Z"
         id="path14551" />
    </clipPath>
    <clipPath
       clipPathUnits="userSpaceOnUse"
       id="clipPath14563">
      <path
         d="M 107.5,470.5 H 514 V 472 H 107.5 Z"
         id="path14561" />
    </clipPath>
    <clipPath
       clipPathUnits="userSpaceOnUse"
       id="clipPath14573">
      <path
         d="M 107.5,582 H 514 v 1 H 107.5 Z"
         id="path14571" />
    </clipPath>
    <clipPath
       clipPathUnits="userSpaceOnUse"
       id="clipPath14583">
      <path
         d="M 107.5,538 H 514 v 1 H 107.5 Z"
         id="path14581" />
    </clipPath>
    <clipPath
       clipPathUnits="userSpaceOnUse"
       id="clipPath14593">
      <path
         d="M 107.5,493 H 514 v 1 H 107.5 Z"
         id="path14591" />
    </clipPath>
    <clipPath
       clipPathUnits="userSpaceOnUse"
       id="clipPath14603">
      <path
         d="m 123,604 h 51 v 1.5 h -51 z"
         id="path14601" />
    </clipPath>
    <clipPath
       clipPathUnits="userSpaceOnUse"
       id="clipPath14623">
      <path
         d="M 107.5,604 H 514 v 1.5 H 107.5 Z"
         id="path14621" />
    </clipPath>
  </defs>
  <sodipodi:namedview
     id="namedview4821"
     pagecolor="#ffffff"
     bordercolor="#666666"
     borderopacity="1.0"
     inkscape:showpageshadow="2"
     inkscape:pageopacity="0.0"
     inkscape:pagecheckerboard="0"
     inkscape:deskcolor="#d1d1d1"
     showgrid="false" />
  <g
     id="g13945"
     inkscape:groupmode="layer"
     inkscape:label="Page 12"
     transform="matrix(1.3333333,0,0,1.3333333,-82.932291,-551.35159)">
    <g
       id="g13997">
      <g
         id="g13999"
         clip-path="url(#clipPath14003)">
        <path
           d="m 62.199,403 h 471.602 v 234.5 c 0,3.312 -2.688,6 -6,6 H 68.199 c -3.312,0 -6,-2.688 -6,-6 z m 471.102,0 H 62.699 v 234.5 c 0,3.035 2.465,5.5 5.5,5.5 h 459.602 c 3.035,0 5.5,-2.465 5.5,-5.5 z"
           style="fill:#dadce0;fill-opacity:1;fill-rule:nonzero;stroke:none"
           id="path14005" />
      </g>
    </g>
    <text
       xml:space="preserve"
       style="font-variant:normal;font-size:12px;font-family:CairoFont-1;-inkscape-font-specification:CairoFont-1-0;writing-mode:lr-tb;fill:#18191c;fill-opacity:1;fill-rule:nonzero;stroke:none"
       id="text14071"
       x="62.700001"
       y="422.25"><tspan
         x="62.700001 71.388 78.384003 87.540001 90.660004 101.316 108.07201 114.50401 121.26 124.38 131.28 138.276 141.396 147.132 154.12801 160.884 164.004 170.508 177.276 180.276 187.17599 192.996 196.116 202.87199 209.20799 212.256 219.024 225.912 229.032 235.464 242.45999 248.892 255.888 259.95599 266.84399"
         y="422.25"
         sodipodi:role="line"
         id="tspan14069">How much do you enjoy using cocotb?</tspan></text>
    <text
       xml:space="preserve"
       style="font-variant:normal;font-size:9px;font-family:CairoFont-1;-inkscape-font-specification:CairoFont-1-0;writing-mode:lr-tb;fill:#18191c;fill-opacity:1;fill-rule:nonzero;stroke:none"
       id="text14075"
       x="62.700001"
       y="442"><tspan
         x="62.700001 67.973999 73.238998 75.687004 78.873001 83.849998 88.709999 93.984001 99.339005 104.523 109.383 114.36"
         y="442"
         sodipodi:role="line"
         id="tspan14073">48 responses</tspan></text>
    <g
       id="g14505">
      <g
         id="g14507"
         clip-path="url(#clipPath14511)">
        <path
           d="M 62.5,463 H 514 V 643 H 62.5 Z"
           style="fill:#ffffff;fill-opacity:1;fill-rule:nonzero;stroke:none"
           id="path14513" />
      </g>
    </g>
    <g
       id="g14515">
      <g
         id="g14517"
         clip-path="url(#clipPath14521)">
        <g
           id="g14523">
          <path
             d="M 107.5,470.5 H 514 v 135 H 107.5 Z"
             style="fill:none;stroke:#eeeeee;stroke-width:0.75;stroke-linecap:butt;stroke-linejoin:miter;stroke-miterlimit:4;stroke-dasharray:none;stroke-opacity:1"
             id="path14525" />
        </g>
      </g>
    </g>
    <g
       id="g14527">
      <g
         id="g14529"
         clip-path="url(#clipPath14533)">
        <path
           d="M 107.5,604.75 H 514 v 0.75 H 107.5 Z"
           style="fill:#eeeeee;fill-opacity:1;fill-rule:nonzero;stroke:none"
           id="path14535" />
      </g>
    </g>
    <g
       id="g14537">
      <g
         id="g14539"
         clip-path="url(#clipPath14543)">
        <path
           d="M 107.5,559.75 H 514 v 0.75 H 107.5 Z"
           style="fill:#eeeeee;fill-opacity:1;fill-rule:nonzero;stroke:none"
           id="path14545" />
      </g>
    </g>
    <g
       id="g14547">
      <g
         id="g14549"
         clip-path="url(#clipPath14553)">
        <path
           d="M 107.5,515.5 H 514 v 0.75 H 107.5 Z"
           style="fill:#eeeeee;fill-opacity:1;fill-rule:nonzero;stroke:none"
           id="path14555" />
      </g>
    </g>
    <g
       id="g14557">
      <g
         id="g14559"
         clip-path="url(#clipPath14563)">
        <path
           d="M 107.5,470.5 H 514 v 0.75 H 107.5 Z"
           style="fill:#eeeeee;fill-opacity:1;fill-rule:nonzero;stroke:none"
           id="path14565" />
      </g>
    </g>
    <g
       id="g14567">
      <g
         id="g14569"
         clip-path="url(#clipPath14573)">
        <path
           d="M 107.5,582.25 H 514 V 583 H 107.5 Z"
           style="fill:#f8f8f8;fill-opacity:1;fill-rule:nonzero;stroke:none"
           id="path14575" />
      </g>
    </g>
    <g
       id="g14577">
      <g
         id="g14579"
         clip-path="url(#clipPath14583)">
        <path
           d="M 107.5,538 H 514 v 0.75 H 107.5 Z"
           style="fill:#f8f8f8;fill-opacity:1;fill-rule:nonzero;stroke:none"
           id="path14585" />
      </g>
    </g>
    <g
       id="g14587">
      <g
         id="g14589"
         clip-path="url(#clipPath14593)">
        <path
           d="M 107.5,493 H 514 v 0.75 H 107.5 Z"
           style="fill:#f8f8f8;fill-opacity:1;fill-rule:nonzero;stroke:none"
           id="path14595" />
      </g>
    </g>
    <g
       id="g14597">
      <g
         id="g14599"
         clip-path="url(#clipPath14603)">
        <path
           d="m 123.25,604.75 h 50.25 v 0.375 h -50.25 z"
           style="fill:#3776ab;fill-opacity:1;fill-rule:nonzero;stroke:none"
           id="path14605" />
      </g>
    </g>
    <g
       id="g14607">
      <path
         d="m 204.25,601 h 50.25 v 3.75 h -50.25 z"
         style="fill:#3776ab;fill-opacity:1;fill-rule:nonzero;stroke:none"
         id="path14609" />
      <path
         d="m 286,583 h 49.5 v 21.75 H 286 Z"
         style="fill:#3776ab;fill-opacity:1;fill-rule:nonzero;stroke:none"
         id="path14611" />
      <path
         d="m 367,542.5 h 50.25 v 62.25 H 367 Z"
         style="fill:#3776ab;fill-opacity:1;fill-rule:nonzero;stroke:none"
         id="path14613" />
      <path
         d="m 448,480.25 h 50.25 v 124.5 H 448 Z"
         style="fill:#3776ab;fill-opacity:1;fill-rule:nonzero;stroke:none"
         id="path14615" />
    </g>
    <g
       id="g14617">
      <g
         id="g14619"
         clip-path="url(#clipPath14623)">
        <path
           d="M 107.5,604.75 H 514 v 0.75 H 107.5 Z"
           style="fill:#333333;fill-opacity:1;fill-rule:nonzero;stroke:none"
           id="path14625" />
      </g>
    </g>
    <g
       id="g14627">
      <path
         d="m 148,595.75 h 0.75 v 9 H 148 Z"
         style="fill:#999999;fill-opacity:1;fill-rule:nonzero;stroke:none"
         id="path14629" />
      <path
         d="m 229,592 h 0.75 v 9 H 229 Z"
         style="fill:#999999;fill-opacity:1;fill-rule:nonzero;stroke:none"
         id="path14631" />
      <text
         xml:space="preserve"
         transform="translate(145.95,618.39996)"
         style="font-variant:normal;font-size:9px;font-family:CairoFont-2;-inkscape-font-specification:CairoFont-2-0;writing-mode:lr-tb;fill:#222222;fill-opacity:1;fill-rule:nonzero;stroke:none"
         id="text14635"><tspan
           x="0 81.153 162.3 243.453 324.60001"
           y="0"
           sodipodi:role="line"
           id="tspan14633">12345</tspan></text>
      <text
         xml:space="preserve"
         transform="translate(93.5,608.27496)"
         style="font-variant:normal;font-size:9px;font-family:CairoFont-2;-inkscape-font-specification:CairoFont-2-0;writing-mode:lr-tb;fill:#444444;fill-opacity:1;fill-rule:nonzero;stroke:none"
         id="text14645"><tspan
           x="0"
           y="0"
           id="tspan14637">0</tspan><tspan
           x="-5.0000038 0.0039960002"
           y="-44.749996"
           sodipodi:role="line"
           id="tspan14639">10</tspan><tspan
           x="-5.0000038 0.0039960002"
           y="-89.499931"
           sodipodi:role="line"
           id="tspan14641">20</tspan><tspan
           x="-5.0000038 0.0039960002"
           y="-134.24997"
           sodipodi:role="line"
           id="tspan14643">30</tspan></text>
      <g
         id="g14647">
        <path
           d="m 135.125,591.223 c 0,-0.762 0.078,-1.375 0.234,-1.84 0.157,-0.465 0.391,-0.821 0.7,-1.074 0.308,-0.25 0.695,-0.379 1.164,-0.379 0.347,0 0.652,0.07 0.91,0.211 0.262,0.136 0.476,0.339 0.648,0.601 0.168,0.262 0.301,0.582 0.399,0.957 0.097,0.379 0.144,0.887 0.144,1.524 0,0.757 -0.078,1.367 -0.23,1.832 -0.156,0.461 -0.391,0.82 -0.699,1.074 -0.309,0.254 -0.7,0.383 -1.172,0.383 -0.621,0 -1.106,-0.223 -1.461,-0.668 -0.426,-0.539 -0.637,-1.41 -0.637,-2.621 z m 0.813,0 c 0,1.058 0.121,1.761 0.371,2.113 0.246,0.348 0.55,0.523 0.914,0.523 0.363,0 0.672,-0.175 0.918,-0.527 0.246,-0.352 0.371,-1.055 0.371,-2.109 0,-1.059 -0.125,-1.766 -0.371,-2.114 -0.246,-0.347 -0.555,-0.523 -0.926,-0.523 -0.363,0 -0.653,0.152 -0.871,0.461 -0.27,0.394 -0.406,1.117 -0.406,2.176 z m 8.417,5.07 c -0.437,-0.551 -0.804,-1.195 -1.109,-1.934 -0.301,-0.738 -0.449,-1.5 -0.449,-2.293 0,-0.695 0.109,-1.363 0.336,-2.004 0.265,-0.742 0.672,-1.48 1.222,-2.214 h 0.567 c -0.356,0.609 -0.59,1.043 -0.703,1.304 -0.18,0.407 -0.321,0.828 -0.422,1.266 -0.125,0.547 -0.188,1.098 -0.188,1.652 0,1.41 0.438,2.817 1.313,4.223 z m 1.27,-5.07 c 0,-0.762 0.078,-1.375 0.234,-1.84 0.157,-0.465 0.391,-0.821 0.7,-1.074 0.308,-0.25 0.695,-0.379 1.164,-0.379 0.347,0 0.652,0.07 0.91,0.211 0.262,0.136 0.476,0.339 0.648,0.601 0.168,0.262 0.301,0.582 0.399,0.957 0.097,0.379 0.144,0.887 0.144,1.524 0,0.757 -0.078,1.367 -0.23,1.832 -0.156,0.461 -0.391,0.82 -0.699,1.074 -0.309,0.254 -0.7,0.383 -1.172,0.383 -0.621,0 -1.106,-0.223 -1.461,-0.668 -0.426,-0.539 -0.637,-1.41 -0.637,-2.621 z m 0.813,0 c 0,1.058 0.121,1.761 0.371,2.113 0.246,0.348 0.55,0.523 0.914,0.523 0.363,0 0.672,-0.175 0.918,-0.527 0.246,-0.352 0.371,-1.055 0.371,-2.109 0,-1.059 -0.125,-1.766 -0.371,-2.114 -0.246,-0.347 -0.555,-0.523 -0.926,-0.523 -0.363,0 -0.653,0.152 -0.871,0.461 -0.27,0.394 -0.406,1.117 -0.406,2.176 z m 4.335,-1.719 c 0,-0.461 0.118,-0.852 0.348,-1.172 0.231,-0.324 0.567,-0.484 1.004,-0.484 0.406,0 0.742,0.144 1.004,0.433 0.266,0.289 0.398,0.711 0.398,1.274 0,0.543 -0.132,0.961 -0.402,1.257 -0.266,0.293 -0.598,0.442 -0.988,0.442 -0.391,0 -0.715,-0.145 -0.977,-0.434 -0.258,-0.293 -0.387,-0.73 -0.387,-1.316 z m 1.375,-1.109 c -0.195,0 -0.359,0.082 -0.488,0.253 -0.133,0.168 -0.199,0.481 -0.199,0.934 0,0.414 0.066,0.707 0.199,0.875 0.133,0.168 0.293,0.25 0.488,0.25 0.2,0 0.364,-0.082 0.497,-0.254 0.128,-0.168 0.195,-0.48 0.195,-0.93 0,-0.418 -0.067,-0.711 -0.199,-0.878 -0.133,-0.168 -0.297,-0.25 -0.493,-0.25 z m 0.004,6.242 3.524,-6.789 h 0.644 l -3.511,6.789 z m 2.786,-1.75 c 0,-0.461 0.117,-0.852 0.347,-1.176 0.231,-0.32 0.57,-0.481 1.012,-0.481 0.406,0 0.738,0.145 1.004,0.434 0.265,0.289 0.398,0.715 0.398,1.274 0,0.542 -0.133,0.964 -0.402,1.257 -0.27,0.293 -0.602,0.442 -0.996,0.442 -0.391,0 -0.715,-0.145 -0.973,-0.438 -0.258,-0.289 -0.39,-0.726 -0.39,-1.312 z m 1.382,-1.11 c -0.199,0 -0.367,0.086 -0.496,0.254 -0.129,0.172 -0.195,0.481 -0.195,0.938 0,0.41 0.066,0.699 0.199,0.867 0.129,0.172 0.293,0.258 0.484,0.258 0.204,0 0.372,-0.086 0.5,-0.258 0.133,-0.168 0.196,-0.481 0.196,-0.93 0,-0.418 -0.067,-0.707 -0.196,-0.879 -0.132,-0.168 -0.296,-0.25 -0.492,-0.25 z m 3.043,4.516 h -0.566 c 0.875,-1.406 1.312,-2.813 1.312,-4.223 0,-0.55 -0.062,-1.097 -0.187,-1.636 -0.102,-0.442 -0.242,-0.864 -0.418,-1.266 -0.117,-0.266 -0.352,-0.703 -0.707,-1.32 h 0.566 c 0.551,0.734 0.957,1.472 1.219,2.214 0.227,0.641 0.34,1.309 0.34,2.004 0,0.793 -0.152,1.555 -0.453,2.293 -0.305,0.739 -0.672,1.383 -1.106,1.934 z"
           style="fill:#202124;fill-opacity:1;fill-rule:nonzero;stroke:#ffffff;stroke-width:2.25;stroke-linecap:butt;stroke-linejoin:miter;stroke-miterlimit:4;stroke-dasharray:none;stroke-opacity:1"
           id="path14649" />
      </g>
      <text
         xml:space="preserve"
         transform="translate(134.75,594.39996)"
         style="font-variant:normal;font-size:9px;font-family:CairoFont-2;-inkscape-font-specification:CairoFont-2-0;writing-mode:lr-tb;fill:#202124;fill-opacity:1;fill-rule:nonzero;stroke:none"
         id="text14653"><tspan
           x="0 5.0040002 7.4970002 10.494 15.498 23.499001"
           y="0"
           sodipodi:role="line"
           id="tspan14651">0 (0%)</tspan></text>
      <g
         id="g14655">
        <path
           d="m 215.352,590.648 h -0.79 v -5.039 c -0.191,0.184 -0.441,0.364 -0.75,0.547 -0.308,0.18 -0.585,0.317 -0.832,0.406 v -0.765 c 0.442,-0.207 0.829,-0.457 1.161,-0.754 0.332,-0.297 0.566,-0.582 0.703,-0.863 h 0.508 z m 6.253,1.895 c -0.437,-0.551 -0.804,-1.195 -1.109,-1.934 -0.301,-0.738 -0.453,-1.5 -0.449,-2.293 -0.004,-0.695 0.109,-1.363 0.336,-2.004 0.265,-0.742 0.672,-1.48 1.222,-2.214 h 0.567 c -0.356,0.609 -0.59,1.043 -0.703,1.304 -0.18,0.407 -0.321,0.828 -0.422,1.266 -0.125,0.547 -0.188,1.098 -0.188,1.652 0,1.41 0.438,2.817 1.313,4.223 z m 5.426,-2.652 v 0.757 h -4.258 c -0.007,-0.187 0.024,-0.371 0.09,-0.546 0.11,-0.29 0.285,-0.579 0.524,-0.86 0.238,-0.281 0.582,-0.605 1.035,-0.972 0.699,-0.575 1.172,-1.032 1.418,-1.368 0.246,-0.336 0.367,-0.652 0.371,-0.949 -0.004,-0.312 -0.113,-0.578 -0.34,-0.793 -0.223,-0.215 -0.516,-0.324 -0.875,-0.324 -0.383,0 -0.687,0.113 -0.914,0.344 -0.23,0.226 -0.344,0.543 -0.348,0.949 l -0.812,-0.086 c 0.055,-0.605 0.266,-1.066 0.629,-1.387 0.363,-0.316 0.851,-0.476 1.465,-0.476 0.617,0 1.105,0.172 1.464,0.515 0.36,0.344 0.543,0.77 0.543,1.274 0,0.258 -0.054,0.511 -0.16,0.761 -0.105,0.25 -0.281,0.512 -0.523,0.786 -0.246,0.277 -0.652,0.656 -1.219,1.136 -0.476,0.399 -0.781,0.668 -0.914,0.809 -0.137,0.141 -0.25,0.285 -0.336,0.43 z m 1.285,0.757 v -0.898 h 0.903 v 0.898 z m 5.036,0 h -0.79 v -5.039 c -0.191,0.184 -0.441,0.364 -0.75,0.547 -0.308,0.18 -0.585,0.317 -0.832,0.406 v -0.765 c 0.442,-0.207 0.829,-0.457 1.161,-0.754 0.332,-0.297 0.566,-0.582 0.703,-0.863 h 0.508 z m 2.171,-4.894 c 0,-0.461 0.118,-0.852 0.348,-1.172 0.231,-0.324 0.567,-0.484 1.004,-0.484 0.406,0 0.742,0.144 1.004,0.433 0.266,0.289 0.398,0.711 0.398,1.274 0,0.543 -0.132,0.961 -0.402,1.257 -0.266,0.293 -0.598,0.442 -0.988,0.442 -0.391,0 -0.715,-0.145 -0.977,-0.434 -0.258,-0.293 -0.387,-0.73 -0.387,-1.316 z m 1.375,-1.109 c -0.195,0 -0.359,0.082 -0.488,0.253 -0.133,0.168 -0.195,0.481 -0.195,0.934 0,0.414 0.062,0.707 0.195,0.875 0.133,0.168 0.297,0.25 0.488,0.25 0.2,0 0.364,-0.082 0.497,-0.254 0.128,-0.168 0.195,-0.48 0.195,-0.93 0,-0.418 -0.067,-0.711 -0.199,-0.878 -0.133,-0.168 -0.297,-0.25 -0.493,-0.25 z m 0.004,6.242 3.524,-6.789 h 0.644 l -3.511,6.789 z m 2.786,-1.75 c 0,-0.461 0.117,-0.852 0.347,-1.176 0.235,-0.32 0.57,-0.481 1.012,-0.481 0.406,0 0.738,0.145 1.004,0.434 0.265,0.289 0.398,0.715 0.398,1.274 0,0.542 -0.133,0.964 -0.402,1.257 -0.27,0.293 -0.602,0.442 -0.996,0.442 -0.391,0 -0.715,-0.145 -0.973,-0.438 -0.258,-0.289 -0.39,-0.726 -0.39,-1.312 z m 1.382,-1.11 c -0.199,0 -0.367,0.086 -0.496,0.254 -0.129,0.172 -0.195,0.481 -0.195,0.938 0,0.41 0.066,0.699 0.199,0.867 0.129,0.172 0.293,0.258 0.488,0.258 0.2,0 0.368,-0.086 0.496,-0.258 0.133,-0.168 0.196,-0.481 0.196,-0.93 0,-0.418 -0.067,-0.707 -0.196,-0.879 -0.132,-0.168 -0.296,-0.25 -0.492,-0.25 z m 3.043,4.516 h -0.566 c 0.875,-1.406 1.312,-2.813 1.312,-4.223 0,-0.55 -0.062,-1.097 -0.187,-1.636 -0.102,-0.442 -0.242,-0.864 -0.418,-1.266 -0.117,-0.266 -0.352,-0.703 -0.707,-1.32 h 0.566 c 0.551,0.734 0.957,1.472 1.219,2.214 0.227,0.641 0.34,1.309 0.34,2.004 0,0.793 -0.152,1.555 -0.453,2.293 -0.305,0.739 -0.672,1.383 -1.106,1.934 z"
           style="fill:#202124;fill-opacity:1;fill-rule:nonzero;stroke:#ffffff;stroke-width:2.25;stroke-linecap:butt;stroke-linejoin:miter;stroke-miterlimit:4;stroke-dasharray:none;stroke-opacity:1"
           id="path14657" />
      </g>
      <text
         xml:space="preserve"
         transform="translate(212,590.65002)"
         style="font-variant:normal;font-size:9px;font-family:CairoFont-2;-inkscape-font-specification:CairoFont-2-0;writing-mode:lr-tb;fill:#202124;fill-opacity:1;fill-rule:nonzero;stroke:none"
         id="text14661"><tspan
           x="0 5.0040002 7.4970002 10.494 15.498 17.990999 22.995001 30.996"
           y="0"
           sodipodi:role="line"
           id="tspan14659">1 (2.1%)</tspan></text>
      <text
         xml:space="preserve"
         transform="translate(291.25,592.14996)"
         style="font-variant:normal;font-size:9px;font-family:CairoFont-2;-inkscape-font-specification:CairoFont-2-0;writing-mode:lr-tb;fill:#ffffff;fill-opacity:1;fill-rule:nonzero;stroke:none"
         id="text14669"><tspan
           x="0 5.0040002 7.4970002 10.494 15.498 20.502001 22.995001 27.999001 36"
           y="0"
           sodipodi:role="line"
           id="tspan14663">5 (10.4%)</tspan><tspan
           x="78.5 83.503998 88.507996 91.000999 93.998001 99.001999 104.006 106.499 111.476 119.477"
           y="-40.499935"
           sodipodi:role="line"
           id="tspan14665">14 (29.2%)</tspan><tspan
           x="159.5 164.504 169.508 172.00099 174.998 180.002 185.006 187.49899 192.476 200.47701"
           y="-102.74997"
           sodipodi:role="line"
           id="tspan14667">28 (58.3%)</tspan></text>
    </g>
  </g>
</svg>
