<?xml version="1.0" encoding="UTF-8" standalone="no"?>
<!-- Created with Inkscape (http://www.inkscape.org/) -->

<svg
   version="1.1"
   id="svg4819"
   width="601.84668"
   height="273.33411"
   viewBox="0 0 601.84668 273.33409"
   sodipodi:docname="cocotb user survey 2023.pdf"
   xmlns:inkscape="http://www.inkscape.org/namespaces/inkscape"
   xmlns:sodipodi="http://sodipodi.sourceforge.net/DTD/sodipodi-0.dtd"
   xmlns="http://www.w3.org/2000/svg"
   xmlns:svg="http://www.w3.org/2000/svg">
  <defs
     id="defs4823">
    <clipPath
       clipPathUnits="userSpaceOnUse"
       id="clipPath15135">
      <path
         d="M 107,103 H 514.199 V 240 H 107 Z"
         id="path15133" />
    </clipPath>
    <clipPath
       clipPathUnits="userSpaceOnUse"
       id="clipPath15147">
      <path
         d="M 107.5,238 H 514 v 1 H 107.5 Z"
         id="path15145" />
    </clipPath>
    <clipPath
       clipPathUnits="userSpaceOnUse"
       id="clipPath15157">
      <path
         d="M 107.5,204 H 514 v 2 H 107.5 Z"
         id="path15155" />
    </clipPath>
    <clipPath
       clipPathUnits="userSpaceOnUse"
       id="clipPath15167">
      <path
         d="M 107.5,171 H 514 v 2 H 107.5 Z"
         id="path15165" />
    </clipPath>
    <clipPath
       clipPathUnits="userSpaceOnUse"
       id="clipPath15177">
      <path
         d="M 107.5,137 H 514 v 2 H 107.5 Z"
         id="path15175" />
    </clipPath>
    <clipPath
       clipPathUnits="userSpaceOnUse"
       id="clipPath15187">
      <path
         d="M 107.5,104 H 514 v 1 H 107.5 Z"
         id="path15185" />
    </clipPath>
    <clipPath
       clipPathUnits="userSpaceOnUse"
       id="clipPath15197">
      <path
         d="M 107.5,221 H 514 v 2 H 107.5 Z"
         id="path15195" />
    </clipPath>
    <clipPath
       clipPathUnits="userSpaceOnUse"
       id="clipPath15207">
      <path
         d="M 107.5,188 H 514 v 1 H 107.5 Z"
         id="path15205" />
    </clipPath>
    <clipPath
       clipPathUnits="userSpaceOnUse"
       id="clipPath15217">
      <path
         d="M 107.5,154 H 514 v 1 H 107.5 Z"
         id="path15215" />
    </clipPath>
    <clipPath
       clipPathUnits="userSpaceOnUse"
       id="clipPath15227">
      <path
         d="M 107.5,120 H 514 v 2 H 107.5 Z"
         id="path15225" />
    </clipPath>
    <clipPath
       clipPathUnits="userSpaceOnUse"
       id="clipPath15249">
      <path
         d="M 107.5,238 H 514 v 1 H 107.5 Z"
         id="path15247" />
    </clipPath>
  </defs>
  <sodipodi:namedview
     id="namedview4821"
     pagecolor="#ffffff"
     bordercolor="#666666"
     borderopacity="1.0"
     inkscape:showpageshadow="2"
     inkscape:pageopacity="0.0"
     inkscape:pagecheckerboard="0"
     inkscape:deskcolor="#d1d1d1"
     showgrid="false" />
  <g
     id="g15053"
     inkscape:groupmode="layer"
     inkscape:label="Page 13"
     transform="matrix(1.3333333,0,0,1.3333333,-83.751916,-62.684893)">
    <text
       xml:space="preserve"
       style="font-variant:normal;font-size:12px;font-family:CairoFont-1;-inkscape-font-specification:CairoFont-1-0;writing-mode:lr-tb;fill:#18191c;fill-opacity:1;fill-rule:nonzero;stroke:none"
       id="text15101"
       x="62.700001"
       y="55.75"><tspan
         x="62.700001 71.388 78.384003 87.540001 90.660004 93.720001 96.768005 102.876 109.38 112.428 118.248 121.368 128.03999 132.132 138.636 141.756 147.492 154.48801 161.244 164.364 168.276 175.29601 178.416 182.508 189.01199 195.444 202.44 213.09599 223.76399 230.256 237.024 243.924 247.04399 253.476 260.47202 266.90399 273.89999 277.96802 284.85602 287.97601 291.92401 298.92001 302.02802 309.02402 313.09201 319.84802 326.35202 330.56403 336.888"
         y="55.75"
         sodipodi:role="line"
         id="tspan15099">How likely are you to recommend cocotb to others?</tspan></text>
    <text
       xml:space="preserve"
       style="font-variant:normal;font-size:9px;font-family:CairoFont-1;-inkscape-font-specification:CairoFont-1-0;writing-mode:lr-tb;fill:#18191c;fill-opacity:1;fill-rule:nonzero;stroke:none"
       id="text15105"
       x="62.700001"
       y="75.5"><tspan
         x="62.700001 67.973999 73.238998 75.687004 78.873001 83.849998 88.709999 93.984001 99.339005 104.523 109.383 114.36"
         y="75.5"
         sodipodi:role="line"
         id="tspan15103">48 responses</tspan></text>
    <g
       id="g15129">
      <g
         id="g15131"
         clip-path="url(#clipPath15135)">
        <g
           id="g15137">
          <path
             d="M 107.5,104 H 514 V 239 H 107.5 Z"
             style="fill:none;stroke:#eeeeee;stroke-width:0.75;stroke-linecap:butt;stroke-linejoin:miter;stroke-miterlimit:4;stroke-dasharray:none;stroke-opacity:1"
             id="path15139" />
        </g>
      </g>
    </g>
    <g
       id="g15141">
      <g
         id="g15143"
         clip-path="url(#clipPath15147)">
        <path
           d="M 107.5,238.25 H 514 V 239 H 107.5 Z"
           style="fill:#eeeeee;fill-opacity:1;fill-rule:nonzero;stroke:none"
           id="path15149" />
      </g>
    </g>
    <g
       id="g15151">
      <g
         id="g15153"
         clip-path="url(#clipPath15157)">
        <path
           d="M 107.5,204.5 H 514 v 0.75 H 107.5 Z"
           style="fill:#eeeeee;fill-opacity:1;fill-rule:nonzero;stroke:none"
           id="path15159" />
      </g>
    </g>
    <g
       id="g15161">
      <g
         id="g15163"
         clip-path="url(#clipPath15167)">
        <path
           d="M 107.5,171.5 H 514 v 0.75 H 107.5 Z"
           style="fill:#eeeeee;fill-opacity:1;fill-rule:nonzero;stroke:none"
           id="path15169" />
      </g>
    </g>
    <g
       id="g15171">
      <g
         id="g15173"
         clip-path="url(#clipPath15177)">
        <path
           d="M 107.5,137.75 H 514 v 0.75 H 107.5 Z"
           style="fill:#eeeeee;fill-opacity:1;fill-rule:nonzero;stroke:none"
           id="path15179" />
      </g>
    </g>
    <g
       id="g15181">
      <g
         id="g15183"
         clip-path="url(#clipPath15187)">
        <path
           d="M 107.5,104 H 514 v 0.75 H 107.5 Z"
           style="fill:#eeeeee;fill-opacity:1;fill-rule:nonzero;stroke:none"
           id="path15189" />
      </g>
    </g>
    <g
       id="g15191">
      <g
         id="g15193"
         clip-path="url(#clipPath15197)">
        <path
           d="M 107.5,221.75 H 514 v 0.75 H 107.5 Z"
           style="fill:#f8f8f8;fill-opacity:1;fill-rule:nonzero;stroke:none"
           id="path15199" />
      </g>
    </g>
    <g
       id="g15201">
      <g
         id="g15203"
         clip-path="url(#clipPath15207)">
        <path
           d="M 107.5,188 H 514 v 0.75 H 107.5 Z"
           style="fill:#f8f8f8;fill-opacity:1;fill-rule:nonzero;stroke:none"
           id="path15209" />
      </g>
    </g>
    <g
       id="g15211">
      <g
         id="g15213"
         clip-path="url(#clipPath15217)">
        <path
           d="M 107.5,154.25 H 514 V 155 H 107.5 Z"
           style="fill:#f8f8f8;fill-opacity:1;fill-rule:nonzero;stroke:none"
           id="path15219" />
      </g>
    </g>
    <g
       id="g15221">
      <g
         id="g15223"
         clip-path="url(#clipPath15227)">
        <path
           d="M 107.5,120.5 H 514 v 0.75 H 107.5 Z"
           style="fill:#f8f8f8;fill-opacity:1;fill-rule:nonzero;stroke:none"
           id="path15229" />
      </g>
    </g>
    <g
       id="g15231">
      <path
         d="m 123.25,238.25 h 50.25 v 0.375 h -50.25 z"
         style="fill:#3776ab;fill-opacity:1;fill-rule:nonzero;stroke:none"
         id="path15233" />
      <path
         d="m 204.25,235.941 h 50.25 v 2.684 h -50.25 z"
         style="fill:#3776ab;fill-opacity:1;fill-rule:nonzero;stroke:none"
         id="path15235" />
      <path
         d="m 286,225.5 h 49.5 v 12.75 H 286 Z"
         style="fill:#3776ab;fill-opacity:1;fill-rule:nonzero;stroke:none"
         id="path15237" />
      <path
         d="m 367,218.75 h 50.25 v 19.5 H 367 Z"
         style="fill:#3776ab;fill-opacity:1;fill-rule:nonzero;stroke:none"
         id="path15239" />
      <path
         d="m 448,114.5 h 50.25 V 238.25 H 448 Z"
         style="fill:#3776ab;fill-opacity:1;fill-rule:nonzero;stroke:none"
         id="path15241" />
    </g>
    <g
       id="g15243">
      <g
         id="g15245"
         clip-path="url(#clipPath15249)">
        <path
           d="M 107.5,238.25 H 514 V 239 H 107.5 Z"
           style="fill:#333333;fill-opacity:1;fill-rule:nonzero;stroke:none"
           id="path15251" />
      </g>
    </g>
    <g
       id="g15253">
      <path
         d="m 148,229.25 h 0.75 v 9 H 148 Z"
         style="fill:#999999;fill-opacity:1;fill-rule:nonzero;stroke:none"
         id="path15255" />
      <path
         d="m 229,226.941 h 0.75 v 9 H 229 Z"
         style="fill:#999999;fill-opacity:1;fill-rule:nonzero;stroke:none"
         id="path15257" />
      <text
         xml:space="preserve"
         transform="translate(145.95,251.89999)"
         style="font-variant:normal;font-size:9px;font-family:CairoFont-2;-inkscape-font-specification:CairoFont-2-0;writing-mode:lr-tb;fill:#222222;fill-opacity:1;fill-rule:nonzero;stroke:none"
         id="text15261"><tspan
           x="0 81.153 162.3 243.453 324.60001"
           y="0"
           sodipodi:role="line"
           id="tspan15259">12345</tspan></text>
      <text
         xml:space="preserve"
         transform="translate(93.5,241.77499)"
         style="font-variant:normal;font-size:9px;font-family:CairoFont-2;-inkscape-font-specification:CairoFont-2-0;writing-mode:lr-tb;fill:#444444;fill-opacity:1;fill-rule:nonzero;stroke:none"
         id="text15273"><tspan
           x="0"
           y="0"
           id="tspan15263">0</tspan><tspan
           x="-5.0000038 0.0039960002"
           y="-33.562504"
           sodipodi:role="line"
           id="tspan15265">10</tspan><tspan
           x="-5.0000038 0.0039960002"
           y="-67.125008"
           sodipodi:role="line"
           id="tspan15267">20</tspan><tspan
           x="-5.0000038 0.0039960002"
           y="-100.68751"
           sodipodi:role="line"
           id="tspan15269">30</tspan><tspan
           x="-5.0000038 0.0039960002"
           y="-134.25"
           sodipodi:role="line"
           id="tspan15271">40</tspan></text>
      <g
         id="g15275">
        <path
           d="m 135.125,224.723 c 0,-0.762 0.078,-1.375 0.234,-1.84 0.157,-0.465 0.391,-0.821 0.7,-1.074 0.308,-0.25 0.695,-0.379 1.164,-0.379 0.347,0 0.652,0.07 0.91,0.211 0.262,0.136 0.476,0.339 0.648,0.601 0.168,0.262 0.301,0.582 0.399,0.957 0.097,0.379 0.144,0.887 0.144,1.524 0,0.757 -0.078,1.367 -0.23,1.832 -0.156,0.461 -0.391,0.82 -0.699,1.074 -0.309,0.254 -0.7,0.383 -1.172,0.383 -0.621,0 -1.106,-0.223 -1.461,-0.668 -0.426,-0.539 -0.637,-1.41 -0.637,-2.621 z m 0.813,0 c 0,1.058 0.121,1.761 0.371,2.113 0.246,0.348 0.55,0.523 0.914,0.523 0.363,0 0.672,-0.175 0.918,-0.527 0.246,-0.352 0.371,-1.055 0.371,-2.109 0,-1.059 -0.125,-1.766 -0.371,-2.114 -0.246,-0.347 -0.555,-0.523 -0.926,-0.523 -0.363,0 -0.653,0.152 -0.871,0.461 -0.27,0.394 -0.406,1.117 -0.406,2.176 z m 8.417,5.07 c -0.437,-0.551 -0.804,-1.195 -1.109,-1.934 -0.301,-0.738 -0.449,-1.5 -0.449,-2.293 0,-0.695 0.109,-1.363 0.336,-2.004 0.265,-0.742 0.672,-1.48 1.222,-2.214 h 0.567 c -0.356,0.609 -0.59,1.043 -0.703,1.304 -0.18,0.407 -0.321,0.828 -0.422,1.266 -0.125,0.547 -0.188,1.098 -0.188,1.652 0,1.41 0.438,2.817 1.313,4.223 z m 1.27,-5.07 c 0,-0.762 0.078,-1.375 0.234,-1.84 0.157,-0.465 0.391,-0.821 0.7,-1.074 0.308,-0.25 0.695,-0.379 1.164,-0.379 0.347,0 0.652,0.07 0.91,0.211 0.262,0.136 0.476,0.339 0.648,0.601 0.168,0.262 0.301,0.582 0.399,0.957 0.097,0.379 0.144,0.887 0.144,1.524 0,0.757 -0.078,1.367 -0.23,1.832 -0.156,0.461 -0.391,0.82 -0.699,1.074 -0.309,0.254 -0.7,0.383 -1.172,0.383 -0.621,0 -1.106,-0.223 -1.461,-0.668 -0.426,-0.539 -0.637,-1.41 -0.637,-2.621 z m 0.813,0 c 0,1.058 0.121,1.761 0.371,2.113 0.246,0.348 0.55,0.523 0.914,0.523 0.363,0 0.672,-0.175 0.918,-0.527 0.246,-0.352 0.371,-1.055 0.371,-2.109 0,-1.059 -0.125,-1.766 -0.371,-2.114 -0.246,-0.347 -0.555,-0.523 -0.926,-0.523 -0.363,0 -0.653,0.152 -0.871,0.461 -0.27,0.394 -0.406,1.117 -0.406,2.176 z m 4.335,-1.719 c 0,-0.461 0.118,-0.852 0.348,-1.172 0.231,-0.324 0.567,-0.484 1.004,-0.484 0.406,0 0.742,0.144 1.004,0.433 0.266,0.289 0.398,0.711 0.398,1.274 0,0.543 -0.132,0.961 -0.402,1.257 -0.266,0.293 -0.598,0.442 -0.988,0.442 -0.391,0 -0.715,-0.145 -0.977,-0.434 -0.258,-0.293 -0.387,-0.73 -0.387,-1.316 z m 1.375,-1.109 c -0.195,0 -0.359,0.082 -0.488,0.253 -0.133,0.168 -0.199,0.481 -0.199,0.934 0,0.414 0.066,0.707 0.199,0.875 0.133,0.168 0.293,0.25 0.488,0.25 0.2,0 0.364,-0.082 0.497,-0.254 0.128,-0.168 0.195,-0.48 0.195,-0.93 0,-0.418 -0.067,-0.711 -0.199,-0.878 -0.133,-0.168 -0.297,-0.25 -0.493,-0.25 z m 0.004,6.242 3.524,-6.789 h 0.644 l -3.511,6.789 z m 2.786,-1.75 c 0,-0.461 0.117,-0.852 0.347,-1.176 0.231,-0.32 0.57,-0.481 1.012,-0.481 0.406,0 0.738,0.145 1.004,0.434 0.265,0.289 0.398,0.715 0.398,1.274 0,0.542 -0.133,0.964 -0.402,1.257 -0.27,0.293 -0.602,0.442 -0.996,0.442 -0.391,0 -0.715,-0.145 -0.973,-0.438 -0.258,-0.289 -0.39,-0.726 -0.39,-1.312 z m 1.382,-1.11 c -0.199,0 -0.367,0.086 -0.496,0.254 -0.129,0.172 -0.195,0.481 -0.195,0.938 0,0.41 0.066,0.699 0.199,0.867 0.129,0.172 0.293,0.258 0.484,0.258 0.204,0 0.372,-0.086 0.5,-0.258 0.133,-0.168 0.196,-0.481 0.196,-0.93 0,-0.418 -0.067,-0.707 -0.196,-0.879 -0.132,-0.168 -0.296,-0.25 -0.492,-0.25 z m 3.043,4.516 h -0.566 c 0.875,-1.406 1.312,-2.813 1.312,-4.223 0,-0.55 -0.062,-1.097 -0.187,-1.636 -0.102,-0.442 -0.242,-0.864 -0.418,-1.266 -0.117,-0.266 -0.352,-0.703 -0.707,-1.32 h 0.566 c 0.551,0.734 0.957,1.472 1.219,2.214 0.227,0.641 0.34,1.309 0.34,2.004 0,0.793 -0.152,1.555 -0.453,2.293 -0.305,0.739 -0.672,1.383 -1.106,1.934 z"
           style="fill:#202124;fill-opacity:1;fill-rule:nonzero;stroke:#ffffff;stroke-width:2.25;stroke-linecap:butt;stroke-linejoin:miter;stroke-miterlimit:4;stroke-dasharray:none;stroke-opacity:1"
           id="path15277" />
      </g>
      <text
         xml:space="preserve"
         transform="translate(134.75,227.89999)"
         style="font-variant:normal;font-size:9px;font-family:CairoFont-2;-inkscape-font-specification:CairoFont-2-0;writing-mode:lr-tb;fill:#202124;fill-opacity:1;fill-rule:nonzero;stroke:none"
         id="text15281"><tspan
           x="0 5.0040002 7.4970002 10.494 15.498 23.499001"
           y="0"
           sodipodi:role="line"
           id="tspan15279">0 (0%)</tspan></text>
      <g
         id="g15283">
        <path
           d="m 215.352,225.59 h -0.79 v -5.039 c -0.191,0.179 -0.441,0.363 -0.75,0.543 -0.308,0.183 -0.585,0.32 -0.832,0.41 v -0.766 c 0.442,-0.207 0.829,-0.461 1.161,-0.754 0.332,-0.296 0.566,-0.586 0.703,-0.863 h 0.508 z m 6.253,1.894 c -0.437,-0.55 -0.804,-1.195 -1.109,-1.933 -0.301,-0.739 -0.453,-1.504 -0.449,-2.293 -0.004,-0.699 0.109,-1.367 0.336,-2.004 0.265,-0.742 0.672,-1.481 1.222,-2.215 h 0.567 c -0.356,0.609 -0.59,1.043 -0.703,1.305 -0.18,0.402 -0.321,0.824 -0.422,1.265 -0.125,0.547 -0.188,1.098 -0.188,1.653 0,1.41 0.438,2.816 1.313,4.222 z m 5.426,-2.656 v 0.762 h -4.258 c -0.007,-0.192 0.024,-0.375 0.09,-0.551 0.11,-0.289 0.285,-0.574 0.524,-0.855 0.238,-0.282 0.582,-0.606 1.035,-0.977 0.699,-0.574 1.172,-1.027 1.418,-1.363 0.246,-0.336 0.367,-0.653 0.371,-0.953 -0.004,-0.313 -0.113,-0.579 -0.34,-0.793 -0.223,-0.215 -0.516,-0.321 -0.875,-0.321 -0.383,0 -0.687,0.114 -0.914,0.34 -0.23,0.231 -0.344,0.547 -0.348,0.949 l -0.812,-0.082 c 0.055,-0.605 0.266,-1.07 0.629,-1.386 0.363,-0.317 0.851,-0.477 1.465,-0.477 0.617,0 1.105,0.172 1.464,0.516 0.36,0.34 0.543,0.765 0.543,1.273 0,0.258 -0.054,0.512 -0.16,0.762 -0.105,0.246 -0.281,0.508 -0.523,0.785 -0.246,0.273 -0.652,0.652 -1.219,1.133 -0.476,0.398 -0.781,0.668 -0.914,0.812 -0.137,0.141 -0.25,0.286 -0.336,0.426 z m 1.285,0.762 v -0.902 h 0.903 v 0.902 z m 5.036,0 h -0.79 v -5.039 c -0.191,0.179 -0.441,0.363 -0.75,0.543 -0.308,0.183 -0.585,0.32 -0.832,0.41 v -0.766 c 0.442,-0.207 0.829,-0.461 1.161,-0.754 0.332,-0.296 0.566,-0.586 0.703,-0.863 h 0.508 z m 2.171,-4.895 c 0,-0.461 0.118,-0.851 0.348,-1.175 0.231,-0.321 0.567,-0.481 1.004,-0.481 0.406,0 0.742,0.145 1.004,0.43 0.266,0.289 0.398,0.715 0.398,1.273 0,0.547 -0.132,0.965 -0.402,1.258 -0.266,0.297 -0.598,0.445 -0.988,0.445 -0.391,0 -0.715,-0.148 -0.977,-0.437 -0.258,-0.289 -0.387,-0.727 -0.387,-1.313 z m 1.375,-1.113 c -0.195,0 -0.359,0.086 -0.488,0.254 -0.133,0.172 -0.195,0.484 -0.195,0.937 0,0.415 0.062,0.704 0.195,0.872 0.133,0.167 0.297,0.253 0.488,0.253 0.2,0 0.364,-0.086 0.497,-0.253 0.128,-0.172 0.195,-0.481 0.195,-0.934 0,-0.414 -0.067,-0.707 -0.199,-0.875 -0.133,-0.168 -0.297,-0.254 -0.493,-0.254 z m 0.004,6.246 3.524,-6.789 h 0.644 l -3.511,6.789 z m 2.786,-1.75 c 0,-0.461 0.117,-0.855 0.347,-1.176 0.235,-0.32 0.57,-0.48 1.012,-0.48 0.406,0 0.738,0.144 1.004,0.433 0.265,0.29 0.398,0.711 0.398,1.27 0,0.547 -0.133,0.965 -0.402,1.262 -0.27,0.293 -0.602,0.441 -0.996,0.441 -0.391,0 -0.715,-0.148 -0.973,-0.437 -0.258,-0.293 -0.39,-0.731 -0.39,-1.313 z m 1.382,-1.113 c -0.199,0 -0.367,0.086 -0.496,0.258 -0.129,0.168 -0.195,0.48 -0.195,0.933 0,0.41 0.066,0.703 0.199,0.871 0.129,0.172 0.293,0.254 0.488,0.254 0.2,0 0.368,-0.082 0.496,-0.254 0.133,-0.168 0.196,-0.48 0.196,-0.929 0,-0.418 -0.067,-0.711 -0.196,-0.879 -0.132,-0.168 -0.296,-0.254 -0.492,-0.254 z m 3.043,4.519 h -0.566 c 0.875,-1.406 1.312,-2.812 1.312,-4.222 0,-0.551 -0.062,-1.098 -0.187,-1.641 -0.102,-0.437 -0.242,-0.859 -0.418,-1.266 -0.117,-0.261 -0.352,-0.703 -0.707,-1.316 h 0.566 c 0.551,0.734 0.957,1.473 1.219,2.215 0.227,0.637 0.34,1.305 0.34,2.004 0,0.789 -0.152,1.554 -0.453,2.293 -0.305,0.738 -0.672,1.383 -1.106,1.933 z"
           style="fill:#202124;fill-opacity:1;fill-rule:nonzero;stroke:#ffffff;stroke-width:2.25;stroke-linecap:butt;stroke-linejoin:miter;stroke-miterlimit:4;stroke-dasharray:none;stroke-opacity:1"
           id="path15285" />
      </g>
      <text
         xml:space="preserve"
         transform="translate(212,225.59)"
         style="font-variant:normal;font-size:9px;font-family:CairoFont-2;-inkscape-font-specification:CairoFont-2-0;writing-mode:lr-tb;fill:#202124;fill-opacity:1;fill-rule:nonzero;stroke:none"
         id="text15289"><tspan
           x="0 5.0040002 7.4970002 10.494 15.498 17.990999 22.995001 30.996"
           y="0"
           sodipodi:role="line"
           id="tspan15287">1 (2.1%)</tspan></text>
      <text
         xml:space="preserve"
         transform="translate(293.75,234.64999)"
         style="font-variant:normal;font-size:9px;font-family:CairoFont-2;-inkscape-font-specification:CairoFont-2-0;writing-mode:lr-tb;fill:#ffffff;fill-opacity:1;fill-rule:nonzero;stroke:none"
         id="text15297"><tspan
           x="0 5.0040002 7.4970002 10.494 15.498 17.990999 22.995001 30.996"
           y="0"
           sodipodi:role="line"
           id="tspan15291">4 (8.3%)</tspan><tspan
           x="78.5 83.503998 85.997002 88.993996 93.998001 99.001999 101.495 106.499 114.5"
           y="-6.75"
           sodipodi:role="line"
           id="tspan15293">6 (12.5%)</tspan><tspan
           x="157 162.004 167.008 169.50099 172.498 177.502 182.506 184.99899 189.976 197.97699"
           y="-110.99999"
           sodipodi:role="line"
           id="tspan15295">37 (77.1%)</tspan></text>
    </g>
  </g>
</svg>
