<?xml version="1.0" encoding="UTF-8" standalone="no"?>
<!-- Created with Inkscape (http://www.inkscape.org/) -->

<svg
   version="1.1"
   id="svg4819"
   width="592.95898"
   height="335.32816"
   viewBox="0 0 592.95899 335.32814"
   sodipodi:docname="cocotb user survey 2023.pdf"
   xmlns:inkscape="http://www.inkscape.org/namespaces/inkscape"
   xmlns:sodipodi="http://sodipodi.sourceforge.net/DTD/sodipodi-0.dtd"
   xmlns="http://www.w3.org/2000/svg"
   xmlns:svg="http://www.w3.org/2000/svg">
  <defs
     id="defs4823">
    <clipPath
       clipPathUnits="userSpaceOnUse"
       id="clipPath20669">
      <path
         d="M 175,343.5 H 470 V 497 H 175 Z"
         id="path20667" />
    </clipPath>
    <clipPath
       clipPathUnits="userSpaceOnUse"
       id="clipPath20681">
      <path
         d="M 175.75,343.5 H 177 v 153 h -1.25 z"
         id="path20679" />
    </clipPath>
    <clipPath
       clipPathUnits="userSpaceOnUse"
       id="clipPath20691">
      <path
         d="m 249,343.5 h 1 v 153 h -1 z"
         id="path20689" />
    </clipPath>
    <clipPath
       clipPathUnits="userSpaceOnUse"
       id="clipPath20701">
      <path
         d="m 322,343.5 h 1 v 153 h -1 z"
         id="path20699" />
    </clipPath>
    <clipPath
       clipPathUnits="userSpaceOnUse"
       id="clipPath20711">
      <path
         d="m 395,343.5 h 2 v 153 h -2 z"
         id="path20709" />
    </clipPath>
    <clipPath
       clipPathUnits="userSpaceOnUse"
       id="clipPath20721">
      <path
         d="m 468,343.5 h 1 v 153 h -1 z"
         id="path20719" />
    </clipPath>
    <clipPath
       clipPathUnits="userSpaceOnUse"
       id="clipPath20731">
      <path
         d="m 212,343.5 h 2 v 153 h -2 z"
         id="path20729" />
    </clipPath>
    <clipPath
       clipPathUnits="userSpaceOnUse"
       id="clipPath20741">
      <path
         d="m 285,343.5 h 1 v 153 h -1 z"
         id="path20739" />
    </clipPath>
    <clipPath
       clipPathUnits="userSpaceOnUse"
       id="clipPath20751">
      <path
         d="m 358,343.5 h 2 v 153 h -2 z"
         id="path20749" />
    </clipPath>
    <clipPath
       clipPathUnits="userSpaceOnUse"
       id="clipPath20761">
      <path
         d="m 431,343.5 h 2 v 153 h -2 z"
         id="path20759" />
    </clipPath>
    <clipPath
       clipPathUnits="userSpaceOnUse"
       id="clipPath20789">
      <path
         d="M 175.75,343.5 H 177 v 153 h -1.25 z"
         id="path20787" />
    </clipPath>
  </defs>
  <sodipodi:namedview
     id="namedview4821"
     pagecolor="#ffffff"
     bordercolor="#666666"
     borderopacity="1.0"
     inkscape:showpageshadow="2"
     inkscape:pageopacity="0.0"
     inkscape:pagecheckerboard="0"
     inkscape:deskcolor="#d1d1d1"
     showgrid="false" />
  <g
     id="g20489"
     inkscape:groupmode="layer"
     inkscape:label="Page 20"
     transform="matrix(1.3333333,0,0,1.3333333,-84.104426,-344.01823)">
    <text
       xml:space="preserve"
       style="font-variant:normal;font-size:12px;font-family:CairoFont-1;-inkscape-font-specification:CairoFont-1-0;writing-mode:lr-tb;fill:#18191c;fill-opacity:1;fill-rule:nonzero;stroke:none"
       id="text20589"
       x="62.700001"
       y="266.75"><tspan
         x="62.700001 66.096001 70.416 73.524002 79.260002 86.256004 93.024002 96.144005 99.192001 105.96 110.028 116.53201 120.50401 127.164 133.59601 137.664 144.168 151.06799 154.188 163.34399 166.392 170.46001 177.216 180.336 184.40401 191.16 197.664 200.772 207.20399 214.2 220.632 227.62799 231.696 238.584 241.70399 248.136 255.132 265.78799 276.444 283.21201 289.96802 293.02802 297.09601 302.91602 306.03601 309.09601 315.85199 318.97202 325.40402 332.16 338.82001 342.888 345.384 348.504 356.832 359.88 363.948 372.63602 379.40402 386.29202 389.40002 392.46002 398.78403 405.12003 411.87601 418.38 424.716 427.82401 434.832 439.03201 442.15201"
         y="266.75"
         sodipodi:role="line"
         id="tspan20583">If you interacted with the cocotb community in chat, GitHub issues or a</tspan><tspan
         x="62.700001 69.587997 76.344002 79.403999 82.452003 85.571999 89.664001 96.167999 103.14 109.896 116.4 122.736 126.804 129.864 132.98399 139.884 142.93201 149.832 152.952 158.688 165.68401 172.452 175.56 182.064 188.832 191.832 198.73199 204.552 207.672 211.73999 218.496 225.15599 229.224 232.34399 235.40399 242.16 246.228 252.73199 256.70401 263.36401 269.79599 273.86401 276.92401 283.92001 290.68802 296.496 299.616 302.952 310.668 313.716 320.22 326.88 333.216 339.72 342.84003 349.59601 355.92001 362.42401 365.54401 369.612 376.36801 382.87201 385.992 392.42401 399.42001 410.07602 420.73203 427.23602 434.004"
         y="284.75"
         sodipodi:role="line"
         id="tspan20585">pull request: did you enjoy that interaction? [Please use the comment</tspan><tspan
         x="62.700001 69.587997 76.464005 82.548004 85.667999 92.328003 96.396004 99.516006 103.584 110.34 116.844 119.964 126.468 133.224 140.12401 143.244 150.24001 154.56 157.668 161.73601 168.492 171.552 177.87601 180.996 187.332 194.088 198.396 204.276 210.70799 216.528 219.64799 222.696 227.01599 230.12399 235.86 242.856 249.62399 251.52 258.42001 261.54001 264.58801 267.64801 273.72 280.24802 283.36801 287.31601 294.31201 297.42001 303.92401 306.98401 313.64401 320.53201 327.52802 331.5 338.16 342.22803 348.73203 351.85202 356.16 362.91602 367.41602 371.48401 378.24002 384.74402 388.224 391.53601"
         y="302.75"
         sodipodi:role="line"
         id="tspan20587">box at the end of this survey if you'd like to elaborate further.]</tspan></text>
    <text
       xml:space="preserve"
       style="font-variant:normal;font-size:9px;font-family:CairoFont-1;-inkscape-font-specification:CairoFont-1-0;writing-mode:lr-tb;fill:#18191c;fill-opacity:1;fill-rule:nonzero;stroke:none"
       id="text20593"
       x="62.700001"
       y="322.5"><tspan
         x="62.700001 67.973999 73.238998 75.687004 78.873001 83.849998 88.709999 93.984001 99.339005 104.523 109.383 114.36"
         y="322.5"
         sodipodi:role="line"
         id="tspan20591">32 responses</tspan></text>
    <g
       id="g20663">
      <g
         id="g20665"
         clip-path="url(#clipPath20669)">
        <g
           id="g20671">
          <path
             d="M 175.75,343.5 H 469 v 153 H 175.75 Z"
             style="fill:none;stroke:#eeeeee;stroke-width:0.75;stroke-linecap:butt;stroke-linejoin:miter;stroke-miterlimit:4;stroke-dasharray:none;stroke-opacity:1"
             id="path20673" />
        </g>
      </g>
    </g>
    <g
       id="g20675">
      <g
         id="g20677"
         clip-path="url(#clipPath20681)">
        <path
           d="m 175.75,343.5 h 0.75 v 153 h -0.75 z"
           style="fill:#eeeeee;fill-opacity:1;fill-rule:nonzero;stroke:none"
           id="path20683" />
      </g>
    </g>
    <g
       id="g20685">
      <g
         id="g20687"
         clip-path="url(#clipPath20691)">
        <path
           d="M 249.25,343.5 H 250 v 153 h -0.75 z"
           style="fill:#eeeeee;fill-opacity:1;fill-rule:nonzero;stroke:none"
           id="path20693" />
      </g>
    </g>
    <g
       id="g20695">
      <g
         id="g20697"
         clip-path="url(#clipPath20701)">
        <path
           d="m 322,343.5 h 0.75 v 153 H 322 Z"
           style="fill:#eeeeee;fill-opacity:1;fill-rule:nonzero;stroke:none"
           id="path20703" />
      </g>
    </g>
    <g
       id="g20705">
      <g
         id="g20707"
         clip-path="url(#clipPath20711)">
        <path
           d="m 395.5,343.5 h 0.75 v 153 h -0.75 z"
           style="fill:#eeeeee;fill-opacity:1;fill-rule:nonzero;stroke:none"
           id="path20713" />
      </g>
    </g>
    <g
       id="g20715">
      <g
         id="g20717"
         clip-path="url(#clipPath20721)">
        <path
           d="M 468.25,343.5 H 469 v 153 h -0.75 z"
           style="fill:#eeeeee;fill-opacity:1;fill-rule:nonzero;stroke:none"
           id="path20723" />
      </g>
    </g>
    <g
       id="g20725">
      <g
         id="g20727"
         clip-path="url(#clipPath20731)">
        <path
           d="m 212.5,343.5 h 0.75 v 153 h -0.75 z"
           style="fill:#f8f8f8;fill-opacity:1;fill-rule:nonzero;stroke:none"
           id="path20733" />
      </g>
    </g>
    <g
       id="g20735">
      <g
         id="g20737"
         clip-path="url(#clipPath20741)">
        <path
           d="M 285.25,343.5 H 286 v 153 h -0.75 z"
           style="fill:#f8f8f8;fill-opacity:1;fill-rule:nonzero;stroke:none"
           id="path20743" />
      </g>
    </g>
    <g
       id="g20745">
      <g
         id="g20747"
         clip-path="url(#clipPath20751)">
        <path
           d="m 358.75,343.5 h 0.75 v 153 h -0.75 z"
           style="fill:#f8f8f8;fill-opacity:1;fill-rule:nonzero;stroke:none"
           id="path20753" />
      </g>
    </g>
    <g
       id="g20755">
      <g
         id="g20757"
         clip-path="url(#clipPath20761)">
        <path
           d="m 431.5,343.5 h 0.75 v 153 h -0.75 z"
           style="fill:#f8f8f8;fill-opacity:1;fill-rule:nonzero;stroke:none"
           id="path20763" />
      </g>
    </g>
    <g
       id="g20765">
      <path
         d="M 176.5,347.25 H 454 v 12 H 176.5 Z"
         style="fill:#3776ab;fill-opacity:1;fill-rule:nonzero;stroke:none"
         id="path20767" />
      <path
         d="M 176.5,366.75 H 424.75 V 378 H 176.5 Z"
         style="fill:#3776ab;fill-opacity:1;fill-rule:nonzero;stroke:none"
         id="path20769" />
      <path
         d="m 176.5,385.5 h 116.25 v 12 H 176.5 Z"
         style="fill:#3776ab;fill-opacity:1;fill-rule:nonzero;stroke:none"
         id="path20771" />
      <path
         d="m 176.5,404.25 h 87 v 12 h -87 z"
         style="fill:#3776ab;fill-opacity:1;fill-rule:nonzero;stroke:none"
         id="path20773" />
      <path
         d="m 176.5,423.75 h 14.25 v 12 H 176.5 Z"
         style="fill:#3776ab;fill-opacity:1;fill-rule:nonzero;stroke:none"
         id="path20775" />
      <path
         d="M 176.5,442.5 H 220 v 12 h -43.5 z"
         style="fill:#3776ab;fill-opacity:1;fill-rule:nonzero;stroke:none"
         id="path20777" />
      <path
         d="m 176.5,462 h 14.25 v 11.25 H 176.5 Z"
         style="fill:#3776ab;fill-opacity:1;fill-rule:nonzero;stroke:none"
         id="path20779" />
      <path
         d="m 176.5,480.75 h 14.25 v 12 H 176.5 Z"
         style="fill:#3776ab;fill-opacity:1;fill-rule:nonzero;stroke:none"
         id="path20781" />
    </g>
    <g
       id="g20783">
      <g
         id="g20785"
         clip-path="url(#clipPath20789)">
        <path
           d="m 175.75,343.5 h 0.75 v 153 h -0.75 z"
           style="fill:#333333;fill-opacity:1;fill-rule:nonzero;stroke:none"
           id="path20791" />
      </g>
    </g>
    <g
       id="g20793">
      <path
         d="m 454,353.25 h 9 V 354 h -9 z"
         style="fill:#999999;fill-opacity:1;fill-rule:nonzero;stroke:none"
         id="path20795" />
      <path
         d="m 424.75,372 h 9 v 0.75 h -9 z"
         style="fill:#999999;fill-opacity:1;fill-rule:nonzero;stroke:none"
         id="path20797" />
      <path
         d="m 292.75,391.5 h 9 v 0.75 h -9 z"
         style="fill:#999999;fill-opacity:1;fill-rule:nonzero;stroke:none"
         id="path20799" />
      <path
         d="m 263.5,410.25 h 9 V 411 h -9 z"
         style="fill:#999999;fill-opacity:1;fill-rule:nonzero;stroke:none"
         id="path20801" />
      <path
         d="m 190.75,429.75 h 9 v 0.75 h -9 z"
         style="fill:#999999;fill-opacity:1;fill-rule:nonzero;stroke:none"
         id="path20803" />
      <path
         d="m 220,448.5 h 9 v 0.75 h -9 z"
         style="fill:#999999;fill-opacity:1;fill-rule:nonzero;stroke:none"
         id="path20805" />
      <path
         d="m 190.75,467.25 h 9 V 468 h -9 z"
         style="fill:#999999;fill-opacity:1;fill-rule:nonzero;stroke:none"
         id="path20807" />
      <path
         d="m 190.75,486.75 h 9 v 0.75 h -9 z"
         style="fill:#999999;fill-opacity:1;fill-rule:nonzero;stroke:none"
         id="path20809" />
      <text
         xml:space="preserve"
         transform="translate(173.625,509.39999)"
         style="font-variant:normal;font-size:9px;font-family:CairoFont-2;-inkscape-font-specification:CairoFont-2-0;writing-mode:lr-tb;fill:#444444;fill-opacity:1;fill-rule:nonzero;stroke:none"
         id="text20813"><tspan
           x="0 73.125 143.75 148.754 216.875 221.879 290 295.004"
           y="0"
           sodipodi:role="line"
           id="tspan20811">05101520</tspan></text>
      <text
         xml:space="preserve"
         transform="translate(138.75,356.54062)"
         style="font-variant:normal;font-size:9px;font-family:CairoFont-2;-inkscape-font-specification:CairoFont-2-0;writing-mode:lr-tb;fill:#222222;fill-opacity:1;fill-rule:nonzero;stroke:none"
         id="text20831"><tspan
           x="0 6.4980001 11.502 13.5 18.504 20.997 26.000999"
           y="0"
           sodipodi:role="line"
           id="tspan20815">Helpful</tspan><tspan
           x="-16.337502 -8.0215015 -3.0175021 -1.019502 3.4804981 8.484498 15.981498 17.979498 22.983498"
           y="19.031246"
           sodipodi:role="line"
           id="tspan20817">Welcoming</tspan><tspan
           x="10.500003 15.990003 20.994003 25.494003"
           y="38.062492"
           sodipodi:role="line"
           id="tspan20819">Fast</tspan><tspan
           x="8.5000048 14.494005 16.492004 21.496004"
           y="57.093742"
           sodipodi:role="line"
           id="tspan20821">Slow</tspan><tspan
           x="-3.0124891 1.478511 6.482511 11.486511 13.484511 18.48851 23.492512"
           y="76.124985"
           sodipodi:role="line"
           id="tspan20823">Tedious</tspan><tspan
           x="-24.999992 -18.501993 -13.497993 -8.4939928 -5.4969931 -0.492993 4.5110068 9.4880066 13.988007 16.481007 18.479008 22.979008"
           y="95.156235"
           sodipodi:role="line"
           id="tspan20825">Unproductive</tspan><tspan
           x="-27.99999 -21.501989 -16.49799 -14.00499 -11.51199 -9.5139904 -4.5099902 -2.0169899 2.98701 5.9840102 10.98801 15.48801 17.98101 22.95801"
           y="114.18748"
           sodipodi:role="line"
           id="tspan20827">Not interacted</tspan><tspan
           x="14.000013 20.498013 22.991013"
           y="133.21873"
           sodipodi:role="line"
           id="tspan20829">N/a</tspan></text>
      <path
         d="m 466.352,356.398 h -0.79 v -5.039 c -0.191,0.184 -0.441,0.364 -0.75,0.547 -0.308,0.18 -0.585,0.317 -0.832,0.406 v -0.765 c 0.442,-0.207 0.829,-0.457 1.161,-0.754 0.332,-0.297 0.566,-0.582 0.703,-0.863 h 0.508 z m 2.14,-1.488 0.762,-0.07 c 0.062,0.359 0.187,0.617 0.367,0.777 0.184,0.16 0.414,0.242 0.699,0.242 0.242,0 0.457,-0.054 0.641,-0.168 0.184,-0.109 0.332,-0.257 0.449,-0.445 0.117,-0.187 0.215,-0.437 0.293,-0.754 0.082,-0.316 0.121,-0.637 0.121,-0.965 0,-0.035 -0.004,-0.089 -0.004,-0.16 -0.16,0.254 -0.375,0.457 -0.648,0.613 -0.274,0.157 -0.57,0.235 -0.891,0.235 -0.535,0 -0.984,-0.192 -1.355,-0.578 -0.367,-0.387 -0.551,-0.899 -0.551,-1.532 0,-0.652 0.191,-1.179 0.578,-1.578 0.383,-0.398 0.867,-0.597 1.445,-0.597 0.422,0 0.805,0.113 1.149,0.34 0.348,0.226 0.613,0.546 0.793,0.964 0.18,0.418 0.269,1.024 0.269,1.813 0,0.824 -0.089,1.48 -0.265,1.965 -0.18,0.488 -0.446,0.859 -0.801,1.117 -0.352,0.254 -0.766,0.383 -1.238,0.383 -0.504,0 -0.918,-0.141 -1.239,-0.422 -0.316,-0.281 -0.507,-0.672 -0.574,-1.18 z m 3.238,-2.844 c 0,-0.453 -0.121,-0.812 -0.363,-1.082 -0.242,-0.265 -0.531,-0.398 -0.871,-0.398 -0.351,0 -0.656,0.144 -0.918,0.43 -0.262,0.289 -0.39,0.66 -0.39,1.117 0,0.41 0.121,0.742 0.371,1 0.246,0.258 0.55,0.383 0.914,0.383 0.367,0 0.668,-0.125 0.906,-0.383 0.234,-0.258 0.351,-0.613 0.351,-1.067 z m 5.875,6.227 c -0.437,-0.551 -0.804,-1.195 -1.109,-1.934 -0.301,-0.738 -0.449,-1.5 -0.449,-2.293 0,-0.695 0.109,-1.363 0.336,-2.004 0.265,-0.742 0.672,-1.48 1.222,-2.214 h 0.567 c -0.356,0.609 -0.59,1.043 -0.703,1.304 -0.18,0.407 -0.321,0.828 -0.422,1.266 -0.125,0.547 -0.188,1.098 -0.188,1.652 0,1.41 0.438,2.817 1.313,4.223 z m 1.27,-3.582 0.828,-0.07 c 0.063,0.406 0.207,0.711 0.43,0.914 0.222,0.203 0.496,0.304 0.812,0.304 0.379,0 0.703,-0.144 0.965,-0.429 0.266,-0.289 0.395,-0.668 0.395,-1.145 0,-0.449 -0.125,-0.805 -0.379,-1.066 -0.254,-0.262 -0.586,-0.391 -0.996,-0.391 -0.254,0 -0.485,0.059 -0.688,0.172 -0.207,0.117 -0.367,0.266 -0.484,0.453 l -0.742,-0.098 0.621,-3.308 h 3.207 v 0.754 h -2.574 l -0.344,1.73 c 0.386,-0.269 0.789,-0.402 1.215,-0.402 0.562,0 1.039,0.195 1.425,0.586 0.387,0.387 0.579,0.89 0.579,1.5 0,0.586 -0.168,1.09 -0.508,1.512 -0.414,0.523 -0.977,0.785 -1.692,0.785 -0.586,0 -1.066,-0.164 -1.437,-0.492 -0.371,-0.329 -0.582,-0.766 -0.633,-1.309 z m 5.117,0.199 0.762,-0.07 c 0.062,0.359 0.187,0.617 0.367,0.777 0.184,0.16 0.414,0.242 0.699,0.242 0.242,0 0.457,-0.054 0.641,-0.168 0.184,-0.109 0.332,-0.257 0.449,-0.445 0.117,-0.187 0.215,-0.437 0.293,-0.754 0.082,-0.316 0.121,-0.637 0.121,-0.965 0,-0.035 -0.004,-0.089 -0.004,-0.16 -0.16,0.254 -0.375,0.457 -0.648,0.613 -0.274,0.157 -0.57,0.235 -0.891,0.235 -0.535,0 -0.984,-0.192 -1.355,-0.578 -0.367,-0.387 -0.551,-0.899 -0.551,-1.532 0,-0.652 0.191,-1.179 0.578,-1.578 0.383,-0.398 0.867,-0.597 1.445,-0.597 0.422,0 0.805,0.113 1.149,0.34 0.348,0.226 0.613,0.546 0.793,0.964 0.18,0.418 0.269,1.024 0.269,1.813 0,0.824 -0.089,1.48 -0.265,1.965 -0.18,0.488 -0.446,0.859 -0.801,1.117 -0.352,0.254 -0.766,0.383 -1.238,0.383 -0.504,0 -0.918,-0.141 -1.239,-0.422 -0.316,-0.281 -0.507,-0.672 -0.574,-1.18 z m 3.238,-2.844 c 0,-0.453 -0.121,-0.812 -0.363,-1.082 -0.242,-0.265 -0.531,-0.398 -0.871,-0.398 -0.351,0 -0.656,0.144 -0.918,0.43 -0.262,0.289 -0.39,0.66 -0.39,1.117 0,0.41 0.121,0.742 0.371,1 0.246,0.258 0.55,0.383 0.914,0.383 0.367,0 0.668,-0.125 0.906,-0.383 0.234,-0.258 0.351,-0.613 0.351,-1.067 z m 2.086,4.332 V 355.5 h 0.903 v 0.898 z m 4.594,0 v -1.539 h -2.797 v -0.726 l 2.942,-4.176 h 0.644 v 4.176 h 0.871 v 0.726 h -0.871 v 1.539 z m 0,-2.265 v -2.906 l -2.019,2.906 z m 2.613,-2.629 c 0,-0.461 0.118,-0.852 0.348,-1.172 0.231,-0.324 0.567,-0.484 1.004,-0.484 0.406,0 0.742,0.144 1.004,0.433 0.266,0.289 0.398,0.711 0.398,1.274 0,0.543 -0.132,0.961 -0.402,1.257 -0.266,0.293 -0.598,0.442 -0.988,0.442 -0.391,0 -0.715,-0.145 -0.977,-0.434 -0.258,-0.293 -0.387,-0.73 -0.387,-1.316 z m 1.375,-1.109 c -0.195,0 -0.359,0.082 -0.488,0.253 -0.133,0.168 -0.195,0.481 -0.195,0.934 0,0.414 0.062,0.707 0.195,0.875 0.133,0.168 0.297,0.25 0.488,0.25 0.2,0 0.364,-0.082 0.497,-0.254 0.128,-0.168 0.195,-0.48 0.195,-0.93 0,-0.418 -0.067,-0.711 -0.199,-0.878 -0.133,-0.168 -0.297,-0.25 -0.493,-0.25 z m 0.004,6.242 3.524,-6.789 h 0.644 l -3.511,6.789 z m 2.786,-1.75 c 0,-0.461 0.117,-0.852 0.347,-1.176 0.235,-0.32 0.57,-0.481 1.012,-0.481 0.406,0 0.738,0.145 1.004,0.434 0.265,0.289 0.398,0.715 0.398,1.274 0,0.542 -0.133,0.964 -0.402,1.257 -0.27,0.293 -0.602,0.442 -0.996,0.442 -0.391,0 -0.715,-0.145 -0.973,-0.438 -0.258,-0.289 -0.39,-0.726 -0.39,-1.312 z m 1.382,-1.11 c -0.199,0 -0.367,0.086 -0.496,0.254 -0.129,0.172 -0.195,0.481 -0.195,0.938 0,0.41 0.066,0.699 0.199,0.867 0.129,0.172 0.293,0.258 0.488,0.258 0.2,0 0.368,-0.086 0.496,-0.258 0.133,-0.168 0.196,-0.481 0.196,-0.93 0,-0.418 -0.067,-0.707 -0.196,-0.879 -0.132,-0.168 -0.296,-0.25 -0.492,-0.25 z m 3.043,4.516 h -0.566 c 0.875,-1.406 1.312,-2.813 1.312,-4.223 0,-0.55 -0.062,-1.097 -0.187,-1.636 -0.102,-0.442 -0.242,-0.864 -0.418,-1.266 -0.117,-0.266 -0.352,-0.703 -0.707,-1.32 h 0.566 c 0.551,0.734 0.957,1.472 1.219,2.214 0.227,0.641 0.34,1.309 0.34,2.004 0,0.793 -0.152,1.555 -0.453,2.293 -0.305,0.739 -0.672,1.383 -1.106,1.934 z"
         style="fill:#202124;fill-opacity:1;fill-rule:nonzero;stroke:none"
         id="path20833" />
      <g
         id="g20835">
        <path
           d="m 466.352,356.398 h -0.79 v -5.039 c -0.191,0.184 -0.441,0.364 -0.75,0.547 -0.308,0.18 -0.585,0.317 -0.832,0.406 v -0.765 c 0.442,-0.207 0.829,-0.457 1.161,-0.754 0.332,-0.297 0.566,-0.582 0.703,-0.863 h 0.508 z m 2.14,-1.488 0.762,-0.07 c 0.062,0.359 0.187,0.617 0.367,0.777 0.184,0.16 0.414,0.242 0.699,0.242 0.242,0 0.457,-0.054 0.641,-0.168 0.184,-0.109 0.332,-0.257 0.449,-0.445 0.117,-0.187 0.215,-0.437 0.293,-0.754 0.082,-0.316 0.121,-0.637 0.121,-0.965 0,-0.035 -0.004,-0.089 -0.004,-0.16 -0.16,0.254 -0.375,0.457 -0.648,0.613 -0.274,0.157 -0.57,0.235 -0.891,0.235 -0.535,0 -0.984,-0.192 -1.355,-0.578 -0.367,-0.387 -0.551,-0.899 -0.551,-1.532 0,-0.652 0.191,-1.179 0.578,-1.578 0.383,-0.398 0.867,-0.597 1.445,-0.597 0.422,0 0.805,0.113 1.149,0.34 0.348,0.226 0.613,0.546 0.793,0.964 0.18,0.418 0.269,1.024 0.269,1.813 0,0.824 -0.089,1.48 -0.265,1.965 -0.18,0.488 -0.446,0.859 -0.801,1.117 -0.352,0.254 -0.766,0.383 -1.238,0.383 -0.504,0 -0.918,-0.141 -1.239,-0.422 -0.316,-0.281 -0.507,-0.672 -0.574,-1.18 z m 3.238,-2.844 c 0,-0.453 -0.121,-0.812 -0.363,-1.082 -0.242,-0.265 -0.531,-0.398 -0.871,-0.398 -0.351,0 -0.656,0.144 -0.918,0.43 -0.262,0.289 -0.39,0.66 -0.39,1.117 0,0.41 0.121,0.742 0.371,1 0.246,0.258 0.55,0.383 0.914,0.383 0.367,0 0.668,-0.125 0.906,-0.383 0.234,-0.258 0.351,-0.613 0.351,-1.067 z m 5.875,6.227 c -0.437,-0.551 -0.804,-1.195 -1.109,-1.934 -0.301,-0.738 -0.449,-1.5 -0.449,-2.293 0,-0.695 0.109,-1.363 0.336,-2.004 0.265,-0.742 0.672,-1.48 1.222,-2.214 h 0.567 c -0.356,0.609 -0.59,1.043 -0.703,1.304 -0.18,0.407 -0.321,0.828 -0.422,1.266 -0.125,0.547 -0.188,1.098 -0.188,1.652 0,1.41 0.438,2.817 1.313,4.223 z m 1.27,-3.582 0.828,-0.07 c 0.063,0.406 0.207,0.711 0.43,0.914 0.222,0.203 0.496,0.304 0.812,0.304 0.379,0 0.703,-0.144 0.965,-0.429 0.266,-0.289 0.395,-0.668 0.395,-1.145 0,-0.449 -0.125,-0.805 -0.379,-1.066 -0.254,-0.262 -0.586,-0.391 -0.996,-0.391 -0.254,0 -0.485,0.059 -0.688,0.172 -0.207,0.117 -0.367,0.266 -0.484,0.453 l -0.742,-0.098 0.621,-3.308 h 3.207 v 0.754 h -2.574 l -0.344,1.73 c 0.386,-0.269 0.789,-0.402 1.215,-0.402 0.562,0 1.039,0.195 1.425,0.586 0.387,0.387 0.579,0.89 0.579,1.5 0,0.586 -0.168,1.09 -0.508,1.512 -0.414,0.523 -0.977,0.785 -1.692,0.785 -0.586,0 -1.066,-0.164 -1.437,-0.492 -0.371,-0.329 -0.582,-0.766 -0.633,-1.309 z m 5.117,0.199 0.762,-0.07 c 0.062,0.359 0.187,0.617 0.367,0.777 0.184,0.16 0.414,0.242 0.699,0.242 0.242,0 0.457,-0.054 0.641,-0.168 0.184,-0.109 0.332,-0.257 0.449,-0.445 0.117,-0.187 0.215,-0.437 0.293,-0.754 0.082,-0.316 0.121,-0.637 0.121,-0.965 0,-0.035 -0.004,-0.089 -0.004,-0.16 -0.16,0.254 -0.375,0.457 -0.648,0.613 -0.274,0.157 -0.57,0.235 -0.891,0.235 -0.535,0 -0.984,-0.192 -1.355,-0.578 -0.367,-0.387 -0.551,-0.899 -0.551,-1.532 0,-0.652 0.191,-1.179 0.578,-1.578 0.383,-0.398 0.867,-0.597 1.445,-0.597 0.422,0 0.805,0.113 1.149,0.34 0.348,0.226 0.613,0.546 0.793,0.964 0.18,0.418 0.269,1.024 0.269,1.813 0,0.824 -0.089,1.48 -0.265,1.965 -0.18,0.488 -0.446,0.859 -0.801,1.117 -0.352,0.254 -0.766,0.383 -1.238,0.383 -0.504,0 -0.918,-0.141 -1.239,-0.422 -0.316,-0.281 -0.507,-0.672 -0.574,-1.18 z m 3.238,-2.844 c 0,-0.453 -0.121,-0.812 -0.363,-1.082 -0.242,-0.265 -0.531,-0.398 -0.871,-0.398 -0.351,0 -0.656,0.144 -0.918,0.43 -0.262,0.289 -0.39,0.66 -0.39,1.117 0,0.41 0.121,0.742 0.371,1 0.246,0.258 0.55,0.383 0.914,0.383 0.367,0 0.668,-0.125 0.906,-0.383 0.234,-0.258 0.351,-0.613 0.351,-1.067 z m 2.086,4.332 V 355.5 h 0.903 v 0.898 z m 4.594,0 v -1.539 h -2.797 v -0.726 l 2.942,-4.176 h 0.644 v 4.176 h 0.871 v 0.726 h -0.871 v 1.539 z m 0,-2.265 v -2.906 l -2.019,2.906 z m 2.613,-2.629 c 0,-0.461 0.118,-0.852 0.348,-1.172 0.231,-0.324 0.567,-0.484 1.004,-0.484 0.406,0 0.742,0.144 1.004,0.433 0.266,0.289 0.398,0.711 0.398,1.274 0,0.543 -0.132,0.961 -0.402,1.257 -0.266,0.293 -0.598,0.442 -0.988,0.442 -0.391,0 -0.715,-0.145 -0.977,-0.434 -0.258,-0.293 -0.387,-0.73 -0.387,-1.316 z m 1.375,-1.109 c -0.195,0 -0.359,0.082 -0.488,0.253 -0.133,0.168 -0.195,0.481 -0.195,0.934 0,0.414 0.062,0.707 0.195,0.875 0.133,0.168 0.297,0.25 0.488,0.25 0.2,0 0.364,-0.082 0.497,-0.254 0.128,-0.168 0.195,-0.48 0.195,-0.93 0,-0.418 -0.067,-0.711 -0.199,-0.878 -0.133,-0.168 -0.297,-0.25 -0.493,-0.25 z m 0.004,6.242 3.524,-6.789 h 0.644 l -3.511,6.789 z m 2.786,-1.75 c 0,-0.461 0.117,-0.852 0.347,-1.176 0.235,-0.32 0.57,-0.481 1.012,-0.481 0.406,0 0.738,0.145 1.004,0.434 0.265,0.289 0.398,0.715 0.398,1.274 0,0.542 -0.133,0.964 -0.402,1.257 -0.27,0.293 -0.602,0.442 -0.996,0.442 -0.391,0 -0.715,-0.145 -0.973,-0.438 -0.258,-0.289 -0.39,-0.726 -0.39,-1.312 z m 1.382,-1.11 c -0.199,0 -0.367,0.086 -0.496,0.254 -0.129,0.172 -0.195,0.481 -0.195,0.938 0,0.41 0.066,0.699 0.199,0.867 0.129,0.172 0.293,0.258 0.488,0.258 0.2,0 0.368,-0.086 0.496,-0.258 0.133,-0.168 0.196,-0.481 0.196,-0.93 0,-0.418 -0.067,-0.707 -0.196,-0.879 -0.132,-0.168 -0.296,-0.25 -0.492,-0.25 z m 3.043,4.516 h -0.566 c 0.875,-1.406 1.312,-2.813 1.312,-4.223 0,-0.55 -0.062,-1.097 -0.187,-1.636 -0.102,-0.442 -0.242,-0.864 -0.418,-1.266 -0.117,-0.266 -0.352,-0.703 -0.707,-1.32 h 0.566 c 0.551,0.734 0.957,1.472 1.219,2.214 0.227,0.641 0.34,1.309 0.34,2.004 0,0.793 -0.152,1.555 -0.453,2.293 -0.305,0.739 -0.672,1.383 -1.106,1.934 z"
           style="fill:none;stroke:#ffffff;stroke-width:2.25;stroke-linecap:butt;stroke-linejoin:miter;stroke-miterlimit:4;stroke-dasharray:none;stroke-opacity:1"
           id="path20837" />
      </g>
      <text
         xml:space="preserve"
         transform="translate(463,356.39999)"
         style="font-variant:normal;font-size:9px;font-family:CairoFont-2;-inkscape-font-specification:CairoFont-2-0;writing-mode:lr-tb;fill:#202124;fill-opacity:1;fill-rule:nonzero;stroke:none"
         id="text20841"><tspan
           x="0 5.0040002 10.008 12.501 15.498 20.502001 25.506001 27.999001 32.976002 40.977001"
           y="0"
           sodipodi:role="line"
           id="tspan20839">19 (59.4%)</tspan></text>
      <g
         id="g20843">
        <path
           d="m 437.102,375.148 h -0.79 v -5.039 c -0.191,0.184 -0.441,0.364 -0.75,0.547 -0.308,0.18 -0.585,0.317 -0.832,0.406 v -0.765 c 0.442,-0.207 0.829,-0.457 1.161,-0.754 0.332,-0.297 0.566,-0.582 0.703,-0.863 h 0.508 z m 2.074,-5.597 v -0.758 h 4.172 v 0.613 c -0.41,0.438 -0.817,1.016 -1.219,1.742 -0.406,0.723 -0.715,1.465 -0.934,2.231 -0.16,0.539 -0.261,1.129 -0.304,1.769 h -0.813 c 0.008,-0.503 0.106,-1.117 0.297,-1.836 0.191,-0.718 0.465,-1.41 0.82,-2.074 0.356,-0.668 0.735,-1.23 1.137,-1.687 z m 9.179,7.492 c -0.437,-0.551 -0.804,-1.195 -1.109,-1.934 -0.301,-0.738 -0.449,-1.5 -0.449,-2.293 0,-0.695 0.109,-1.363 0.336,-2.004 0.265,-0.742 0.672,-1.48 1.222,-2.214 h 0.567 c -0.356,0.609 -0.59,1.043 -0.703,1.304 -0.18,0.407 -0.321,0.828 -0.422,1.266 -0.125,0.547 -0.188,1.098 -0.188,1.652 0,1.41 0.438,2.817 1.313,4.223 z m 1.27,-3.582 0.828,-0.07 c 0.063,0.406 0.207,0.711 0.43,0.914 0.222,0.203 0.496,0.304 0.812,0.304 0.379,0 0.703,-0.144 0.965,-0.429 0.266,-0.289 0.395,-0.668 0.395,-1.145 0,-0.449 -0.125,-0.805 -0.379,-1.066 -0.254,-0.262 -0.586,-0.391 -0.996,-0.391 -0.254,0 -0.485,0.059 -0.688,0.172 -0.207,0.117 -0.367,0.266 -0.484,0.453 l -0.742,-0.098 0.621,-3.308 h 3.207 v 0.754 h -2.574 l -0.344,1.73 c 0.386,-0.269 0.789,-0.402 1.215,-0.402 0.562,0 1.039,0.195 1.425,0.586 0.387,0.387 0.579,0.89 0.579,1.5 0,0.586 -0.168,1.09 -0.508,1.512 -0.414,0.523 -0.977,0.785 -1.692,0.785 -0.586,0 -1.066,-0.164 -1.437,-0.492 -0.371,-0.329 -0.582,-0.766 -0.633,-1.309 z m 5.004,-0.012 0.789,-0.105 c 0.094,0.449 0.246,0.769 0.465,0.968 0.219,0.2 0.484,0.297 0.797,0.297 0.371,0 0.687,-0.129 0.941,-0.386 0.258,-0.258 0.387,-0.578 0.387,-0.957 0,-0.364 -0.117,-0.664 -0.356,-0.899 -0.238,-0.238 -0.539,-0.355 -0.906,-0.355 -0.148,0 -0.336,0.031 -0.558,0.09 l 0.089,-0.696 c 0.051,0.004 0.094,0.008 0.125,0.008 0.34,0 0.641,-0.086 0.91,-0.262 0.27,-0.175 0.407,-0.449 0.407,-0.812 0,-0.293 -0.098,-0.531 -0.297,-0.723 -0.195,-0.191 -0.449,-0.285 -0.758,-0.285 -0.309,0 -0.566,0.098 -0.769,0.289 -0.207,0.195 -0.336,0.484 -0.395,0.871 l -0.793,-0.14 c 0.098,-0.532 0.316,-0.942 0.66,-1.235 0.344,-0.289 0.77,-0.437 1.278,-0.437 0.351,0 0.675,0.078 0.972,0.226 0.297,0.153 0.52,0.36 0.68,0.617 0.156,0.262 0.234,0.539 0.234,0.832 0,0.278 -0.074,0.532 -0.226,0.762 -0.149,0.227 -0.367,0.41 -0.66,0.543 0.378,0.09 0.675,0.27 0.886,0.547 0.211,0.277 0.317,0.625 0.317,1.039 0,0.563 -0.207,1.039 -0.618,1.43 -0.41,0.394 -0.925,0.59 -1.554,0.59 -0.567,0 -1.035,-0.168 -1.41,-0.508 -0.371,-0.336 -0.586,-0.774 -0.637,-1.309 z m 5.437,1.699 v -0.898 h 0.903 v 0.898 z m 5.036,0 h -0.79 v -5.039 c -0.191,0.184 -0.441,0.364 -0.75,0.547 -0.308,0.18 -0.585,0.317 -0.832,0.406 v -0.765 c 0.442,-0.207 0.829,-0.457 1.161,-0.754 0.332,-0.297 0.566,-0.582 0.703,-0.863 h 0.508 z m 2.171,-4.894 c 0,-0.461 0.118,-0.852 0.348,-1.172 0.231,-0.324 0.567,-0.484 1.004,-0.484 0.406,0 0.742,0.144 1.004,0.433 0.266,0.289 0.398,0.711 0.398,1.274 0,0.543 -0.132,0.961 -0.402,1.257 -0.266,0.293 -0.598,0.442 -0.988,0.442 -0.391,0 -0.715,-0.145 -0.977,-0.434 -0.258,-0.293 -0.387,-0.73 -0.387,-1.316 z m 1.375,-1.109 c -0.195,0 -0.359,0.082 -0.488,0.253 -0.133,0.168 -0.199,0.481 -0.199,0.934 0,0.414 0.066,0.707 0.199,0.875 0.133,0.168 0.293,0.25 0.488,0.25 0.2,0 0.364,-0.082 0.497,-0.254 0.128,-0.168 0.195,-0.48 0.195,-0.93 0,-0.418 -0.067,-0.711 -0.199,-0.878 -0.133,-0.168 -0.297,-0.25 -0.493,-0.25 z m 0.004,6.242 3.524,-6.789 h 0.644 l -3.511,6.789 z m 2.786,-1.75 c 0,-0.461 0.117,-0.852 0.347,-1.176 0.231,-0.32 0.57,-0.481 1.012,-0.481 0.406,0 0.738,0.145 1.004,0.434 0.265,0.289 0.398,0.715 0.398,1.274 0,0.542 -0.133,0.964 -0.402,1.257 -0.27,0.293 -0.602,0.442 -0.996,0.442 -0.391,0 -0.715,-0.145 -0.973,-0.438 -0.258,-0.289 -0.39,-0.726 -0.39,-1.312 z m 1.382,-1.11 c -0.199,0 -0.367,0.086 -0.496,0.254 -0.129,0.172 -0.195,0.481 -0.195,0.938 0,0.41 0.066,0.699 0.199,0.867 0.129,0.172 0.293,0.258 0.484,0.258 0.204,0 0.372,-0.086 0.5,-0.258 0.133,-0.168 0.196,-0.481 0.196,-0.93 0,-0.418 -0.067,-0.707 -0.196,-0.879 -0.132,-0.168 -0.296,-0.25 -0.492,-0.25 z m 3.043,4.516 h -0.566 c 0.875,-1.406 1.312,-2.813 1.312,-4.223 0,-0.55 -0.062,-1.097 -0.187,-1.636 -0.102,-0.442 -0.242,-0.864 -0.418,-1.266 -0.117,-0.266 -0.352,-0.703 -0.707,-1.32 h 0.566 c 0.551,0.734 0.957,1.472 1.219,2.214 0.227,0.641 0.34,1.309 0.34,2.004 0,0.793 -0.152,1.555 -0.453,2.293 -0.305,0.739 -0.672,1.383 -1.106,1.934 z"
           style="fill:#202124;fill-opacity:1;fill-rule:nonzero;stroke:#ffffff;stroke-width:2.25;stroke-linecap:butt;stroke-linejoin:miter;stroke-miterlimit:4;stroke-dasharray:none;stroke-opacity:1"
           id="path20845" />
      </g>
      <text
         xml:space="preserve"
         transform="translate(433.75,375.14999)"
         style="font-variant:normal;font-size:9px;font-family:CairoFont-2;-inkscape-font-specification:CairoFont-2-0;writing-mode:lr-tb;fill:#202124;fill-opacity:1;fill-rule:nonzero;stroke:none"
         id="text20849"><tspan
           x="0 5.0040002 10.008 12.501 15.498 20.502001 25.506001 27.999001 32.976002 40.977001"
           y="0"
           sodipodi:role="line"
           id="tspan20847">17 (53.1%)</tspan></text>
      <g
         id="g20851">
        <path
           d="m 303.34,391.156 c -0.328,-0.121 -0.57,-0.293 -0.731,-0.515 -0.156,-0.223 -0.234,-0.489 -0.234,-0.797 0,-0.469 0.168,-0.864 0.504,-1.184 0.336,-0.32 0.785,-0.48 1.344,-0.48 0.562,0 1.015,0.164 1.359,0.492 0.344,0.324 0.516,0.723 0.516,1.191 0,0.301 -0.078,0.559 -0.239,0.782 -0.156,0.222 -0.394,0.39 -0.711,0.511 0.395,0.129 0.696,0.336 0.903,0.625 0.207,0.285 0.308,0.629 0.308,1.028 0,0.55 -0.195,1.015 -0.586,1.39 -0.386,0.375 -0.898,0.563 -1.535,0.563 -0.636,0 -1.148,-0.192 -1.539,-0.567 -0.39,-0.375 -0.586,-0.847 -0.586,-1.41 0,-0.418 0.11,-0.769 0.321,-1.051 0.211,-0.281 0.515,-0.476 0.906,-0.578 z m -0.156,-1.34 c 0,0.305 0.097,0.555 0.293,0.746 0.195,0.196 0.453,0.29 0.765,0.29 0.305,0 0.555,-0.094 0.75,-0.286 0.196,-0.191 0.289,-0.429 0.289,-0.707 0,-0.289 -0.097,-0.535 -0.301,-0.73 -0.199,-0.199 -0.449,-0.297 -0.746,-0.297 -0.304,0 -0.554,0.098 -0.754,0.289 -0.199,0.195 -0.296,0.426 -0.296,0.695 z m -0.254,2.977 c 0,0.223 0.05,0.441 0.16,0.652 0.105,0.211 0.265,0.375 0.476,0.493 0.211,0.113 0.438,0.171 0.68,0.171 0.379,0 0.692,-0.121 0.938,-0.363 0.246,-0.246 0.367,-0.555 0.367,-0.93 0,-0.378 -0.125,-0.695 -0.379,-0.945 -0.254,-0.246 -0.57,-0.371 -0.953,-0.371 -0.371,0 -0.68,0.121 -0.926,0.367 -0.242,0.246 -0.363,0.555 -0.363,0.926 z m 8.425,3.75 c -0.437,-0.551 -0.804,-1.195 -1.109,-1.934 -0.301,-0.738 -0.449,-1.5 -0.449,-2.293 0,-0.695 0.109,-1.363 0.336,-2.004 0.265,-0.742 0.672,-1.48 1.222,-2.214 h 0.567 c -0.356,0.609 -0.59,1.043 -0.703,1.304 -0.18,0.407 -0.321,0.828 -0.422,1.266 -0.125,0.547 -0.188,1.098 -0.188,1.652 0,1.41 0.438,2.817 1.313,4.223 z m 5.426,-2.652 v 0.757 h -4.258 c -0.007,-0.187 0.024,-0.371 0.09,-0.546 0.11,-0.29 0.285,-0.579 0.524,-0.86 0.238,-0.281 0.582,-0.605 1.035,-0.972 0.699,-0.575 1.172,-1.032 1.418,-1.368 0.246,-0.336 0.371,-0.652 0.371,-0.949 0,-0.312 -0.113,-0.578 -0.34,-0.793 -0.223,-0.215 -0.516,-0.324 -0.875,-0.324 -0.379,0 -0.684,0.113 -0.914,0.344 -0.23,0.226 -0.344,0.543 -0.348,0.949 l -0.812,-0.086 c 0.055,-0.605 0.266,-1.066 0.629,-1.387 0.363,-0.316 0.851,-0.476 1.465,-0.476 0.617,0 1.105,0.172 1.464,0.515 0.364,0.344 0.543,0.77 0.543,1.274 0,0.258 -0.054,0.511 -0.16,0.761 -0.105,0.25 -0.281,0.512 -0.523,0.786 -0.246,0.277 -0.652,0.656 -1.223,1.136 -0.472,0.399 -0.777,0.668 -0.914,0.809 -0.133,0.141 -0.242,0.285 -0.332,0.43 z m 0.844,-0.93 0.828,-0.07 c 0.063,0.406 0.207,0.711 0.43,0.914 0.222,0.203 0.492,0.304 0.808,0.304 0.383,0 0.704,-0.144 0.969,-0.429 0.262,-0.289 0.395,-0.668 0.395,-1.145 0,-0.449 -0.125,-0.805 -0.379,-1.066 -0.254,-0.262 -0.586,-0.391 -0.996,-0.391 -0.254,0 -0.485,0.059 -0.692,0.172 -0.203,0.117 -0.363,0.266 -0.48,0.453 l -0.742,-0.098 0.621,-3.308 h 3.203 v 0.754 h -2.57 l -0.348,1.73 c 0.387,-0.269 0.793,-0.402 1.219,-0.402 0.562,0 1.039,0.195 1.425,0.586 0.387,0.387 0.579,0.89 0.579,1.5 0,0.586 -0.168,1.09 -0.508,1.512 -0.414,0.523 -0.981,0.785 -1.696,0.785 -0.586,0 -1.062,-0.164 -1.433,-0.492 -0.371,-0.329 -0.582,-0.766 -0.633,-1.309 z m 5.148,-3.207 c 0,-0.461 0.118,-0.852 0.348,-1.172 0.231,-0.324 0.567,-0.484 1.004,-0.484 0.406,0 0.742,0.144 1.004,0.433 0.266,0.289 0.398,0.711 0.398,1.274 0,0.543 -0.132,0.961 -0.402,1.257 -0.266,0.293 -0.598,0.442 -0.988,0.442 -0.391,0 -0.715,-0.145 -0.977,-0.434 -0.258,-0.293 -0.387,-0.73 -0.387,-1.316 z m 1.375,-1.109 c -0.195,0 -0.359,0.082 -0.488,0.253 -0.133,0.168 -0.195,0.481 -0.195,0.934 0,0.414 0.062,0.707 0.195,0.875 0.133,0.168 0.297,0.25 0.488,0.25 0.2,0 0.364,-0.082 0.497,-0.254 0.128,-0.168 0.195,-0.48 0.195,-0.93 0,-0.418 -0.067,-0.711 -0.199,-0.878 -0.133,-0.168 -0.297,-0.25 -0.493,-0.25 z m 0.004,6.242 3.524,-6.789 h 0.644 l -3.511,6.789 z m 2.786,-1.75 c 0,-0.461 0.117,-0.852 0.347,-1.176 0.235,-0.32 0.57,-0.481 1.012,-0.481 0.406,0 0.738,0.145 1.004,0.434 0.265,0.289 0.398,0.715 0.398,1.274 0,0.542 -0.133,0.964 -0.402,1.257 -0.27,0.293 -0.602,0.442 -0.996,0.442 -0.391,0 -0.715,-0.145 -0.973,-0.438 -0.258,-0.289 -0.39,-0.726 -0.39,-1.312 z m 1.382,-1.11 c -0.199,0 -0.367,0.086 -0.496,0.254 -0.129,0.172 -0.195,0.481 -0.195,0.938 0,0.41 0.066,0.699 0.199,0.867 0.129,0.172 0.293,0.258 0.488,0.258 0.2,0 0.368,-0.086 0.496,-0.258 0.133,-0.168 0.196,-0.481 0.196,-0.93 0,-0.418 -0.067,-0.707 -0.196,-0.879 -0.132,-0.168 -0.296,-0.25 -0.492,-0.25 z m 3.043,4.516 h -0.566 c 0.875,-1.406 1.312,-2.813 1.312,-4.223 0,-0.55 -0.062,-1.097 -0.187,-1.636 -0.102,-0.442 -0.242,-0.864 -0.418,-1.266 -0.117,-0.266 -0.352,-0.703 -0.707,-1.32 h 0.566 c 0.551,0.734 0.957,1.472 1.219,2.214 0.227,0.641 0.34,1.309 0.34,2.004 0,0.793 -0.152,1.555 -0.453,2.293 -0.305,0.739 -0.672,1.383 -1.106,1.934 z"
           style="fill:#202124;fill-opacity:1;fill-rule:nonzero;stroke:#ffffff;stroke-width:2.25;stroke-linecap:butt;stroke-linejoin:miter;stroke-miterlimit:4;stroke-dasharray:none;stroke-opacity:1"
           id="path20853" />
      </g>
      <text
         xml:space="preserve"
         transform="translate(301.75,394.64999)"
         style="font-variant:normal;font-size:9px;font-family:CairoFont-2;-inkscape-font-specification:CairoFont-2-0;writing-mode:lr-tb;fill:#202124;fill-opacity:1;fill-rule:nonzero;stroke:none"
         id="text20857"><tspan
           x="0 5.0040002 7.4970002 10.494 15.498 20.502001 28.503"
           y="0"
           sodipodi:role="line"
           id="tspan20855">8 (25%)</tspan></text>
      <g
         id="g20859">
        <path
           d="m 276.977,408.535 -0.786,0.063 c -0.07,-0.313 -0.168,-0.536 -0.3,-0.676 -0.211,-0.227 -0.477,-0.34 -0.789,-0.34 -0.25,0 -0.473,0.07 -0.664,0.211 -0.25,0.18 -0.446,0.445 -0.59,0.797 -0.141,0.348 -0.215,0.844 -0.223,1.488 0.191,-0.289 0.422,-0.504 0.699,-0.644 0.274,-0.141 0.563,-0.211 0.864,-0.211 0.531,0 0.976,0.191 1.347,0.582 0.371,0.386 0.559,0.886 0.559,1.504 0,0.402 -0.09,0.781 -0.262,1.125 -0.176,0.347 -0.414,0.613 -0.719,0.8 -0.304,0.184 -0.652,0.278 -1.039,0.278 -0.66,0 -1.195,-0.246 -1.613,-0.731 -0.414,-0.484 -0.621,-1.281 -0.621,-2.394 0,-1.246 0.23,-2.153 0.687,-2.719 0.403,-0.492 0.942,-0.738 1.621,-0.738 0.508,0 0.922,0.144 1.247,0.429 0.324,0.282 0.519,0.676 0.582,1.176 z m -3.227,2.777 c 0,0.274 0.055,0.536 0.172,0.782 0.117,0.25 0.277,0.441 0.484,0.57 0.211,0.129 0.426,0.195 0.656,0.195 0.333,0 0.622,-0.132 0.86,-0.402 0.242,-0.269 0.363,-0.637 0.363,-1.102 0,-0.445 -0.121,-0.796 -0.355,-1.05 -0.239,-0.258 -0.539,-0.387 -0.899,-0.387 -0.359,0 -0.66,0.129 -0.91,0.387 -0.25,0.254 -0.371,0.593 -0.371,1.007 z m 8.355,3.981 c -0.437,-0.551 -0.804,-1.195 -1.109,-1.934 -0.301,-0.738 -0.449,-1.5 -0.449,-2.293 0,-0.695 0.109,-1.363 0.336,-2.004 0.265,-0.742 0.672,-1.48 1.222,-2.214 h 0.567 c -0.356,0.609 -0.59,1.043 -0.703,1.304 -0.18,0.407 -0.321,0.828 -0.422,1.266 -0.125,0.547 -0.188,1.098 -0.188,1.652 0,1.41 0.438,2.817 1.313,4.223 z m 4.247,-1.895 h -0.79 v -5.039 c -0.191,0.184 -0.441,0.364 -0.75,0.547 -0.308,0.18 -0.585,0.317 -0.832,0.406 v -0.765 c 0.442,-0.207 0.829,-0.457 1.161,-0.754 0.332,-0.297 0.566,-0.582 0.703,-0.863 h 0.508 z m 3.238,-3.492 c -0.328,-0.121 -0.57,-0.293 -0.731,-0.515 -0.156,-0.223 -0.234,-0.489 -0.234,-0.797 0,-0.469 0.168,-0.864 0.504,-1.184 0.336,-0.32 0.785,-0.48 1.344,-0.48 0.562,0 1.015,0.164 1.359,0.492 0.344,0.324 0.516,0.723 0.516,1.191 0,0.301 -0.078,0.559 -0.239,0.782 -0.156,0.222 -0.394,0.39 -0.711,0.511 0.395,0.129 0.696,0.336 0.903,0.625 0.207,0.285 0.308,0.629 0.308,1.028 0,0.55 -0.195,1.015 -0.586,1.39 -0.386,0.375 -0.902,0.563 -1.535,0.563 -0.636,0 -1.148,-0.192 -1.539,-0.567 -0.39,-0.375 -0.586,-0.847 -0.586,-1.41 0,-0.418 0.11,-0.769 0.321,-1.051 0.211,-0.281 0.515,-0.476 0.906,-0.578 z m -0.156,-1.34 c 0,0.305 0.097,0.555 0.293,0.746 0.195,0.196 0.453,0.29 0.765,0.29 0.305,0 0.555,-0.094 0.75,-0.286 0.196,-0.191 0.289,-0.429 0.289,-0.707 0,-0.289 -0.097,-0.535 -0.301,-0.73 -0.199,-0.199 -0.449,-0.297 -0.746,-0.297 -0.304,0 -0.554,0.098 -0.754,0.289 -0.199,0.195 -0.296,0.426 -0.296,0.695 z m -0.258,2.977 c 0,0.223 0.054,0.441 0.164,0.652 0.105,0.211 0.265,0.375 0.476,0.493 0.211,0.113 0.438,0.171 0.68,0.171 0.379,0 0.692,-0.121 0.938,-0.363 0.246,-0.246 0.367,-0.555 0.367,-0.93 0,-0.378 -0.125,-0.695 -0.379,-0.945 -0.254,-0.246 -0.57,-0.371 -0.953,-0.371 -0.371,0 -0.68,0.121 -0.926,0.367 -0.242,0.246 -0.367,0.555 -0.367,0.926 z m 4.64,1.855 V 412.5 h 0.903 v 0.898 z m 3.274,-3.492 c -0.328,-0.121 -0.57,-0.293 -0.731,-0.515 -0.156,-0.223 -0.234,-0.489 -0.234,-0.797 0,-0.469 0.168,-0.864 0.504,-1.184 0.336,-0.32 0.785,-0.48 1.344,-0.48 0.562,0 1.015,0.164 1.359,0.492 0.344,0.324 0.516,0.723 0.516,1.191 0,0.301 -0.078,0.559 -0.239,0.782 -0.156,0.222 -0.394,0.39 -0.711,0.511 0.395,0.129 0.696,0.336 0.903,0.625 0.207,0.285 0.308,0.629 0.308,1.028 0,0.55 -0.195,1.015 -0.586,1.39 -0.386,0.375 -0.902,0.563 -1.535,0.563 -0.636,0 -1.148,-0.192 -1.539,-0.567 -0.39,-0.375 -0.586,-0.847 -0.586,-1.41 0,-0.418 0.11,-0.769 0.321,-1.051 0.211,-0.281 0.515,-0.476 0.906,-0.578 z m -0.156,-1.34 c 0,0.305 0.097,0.555 0.293,0.746 0.195,0.196 0.453,0.29 0.765,0.29 0.305,0 0.555,-0.094 0.75,-0.286 0.196,-0.191 0.289,-0.429 0.289,-0.707 0,-0.289 -0.097,-0.535 -0.301,-0.73 -0.199,-0.199 -0.449,-0.297 -0.746,-0.297 -0.304,0 -0.554,0.098 -0.754,0.289 -0.199,0.195 -0.296,0.426 -0.296,0.695 z m -0.258,2.977 c 0,0.223 0.054,0.441 0.164,0.652 0.105,0.211 0.265,0.375 0.476,0.493 0.211,0.113 0.438,0.171 0.68,0.171 0.379,0 0.692,-0.121 0.938,-0.363 0.246,-0.246 0.367,-0.555 0.367,-0.93 0,-0.378 -0.125,-0.695 -0.379,-0.945 -0.254,-0.246 -0.57,-0.371 -0.953,-0.371 -0.371,0 -0.68,0.121 -0.926,0.367 -0.242,0.246 -0.367,0.555 -0.367,0.926 z m 4.347,-3.039 c 0,-0.461 0.118,-0.852 0.348,-1.172 0.231,-0.324 0.567,-0.484 1.004,-0.484 0.406,0 0.742,0.144 1.004,0.433 0.266,0.289 0.398,0.711 0.398,1.274 0,0.543 -0.132,0.961 -0.402,1.257 -0.266,0.293 -0.598,0.442 -0.988,0.442 -0.391,0 -0.715,-0.145 -0.977,-0.434 -0.258,-0.293 -0.387,-0.73 -0.387,-1.316 z m 1.375,-1.109 c -0.195,0 -0.359,0.082 -0.488,0.253 -0.133,0.168 -0.195,0.481 -0.195,0.934 0,0.414 0.062,0.707 0.195,0.875 0.133,0.168 0.297,0.25 0.488,0.25 0.2,0 0.364,-0.082 0.497,-0.254 0.128,-0.168 0.195,-0.48 0.195,-0.93 0,-0.418 -0.067,-0.711 -0.199,-0.878 -0.133,-0.168 -0.297,-0.25 -0.493,-0.25 z m 0.004,6.242 3.524,-6.789 h 0.644 l -3.511,6.789 z m 2.786,-1.75 c 0,-0.461 0.117,-0.852 0.347,-1.176 0.235,-0.32 0.57,-0.481 1.012,-0.481 0.406,0 0.738,0.145 1.004,0.434 0.265,0.289 0.398,0.715 0.398,1.274 0,0.542 -0.133,0.964 -0.402,1.257 -0.27,0.293 -0.602,0.442 -0.996,0.442 -0.391,0 -0.715,-0.145 -0.973,-0.438 -0.258,-0.289 -0.39,-0.726 -0.39,-1.312 z m 1.382,-1.11 c -0.199,0 -0.367,0.086 -0.496,0.254 -0.129,0.172 -0.195,0.481 -0.195,0.938 0,0.41 0.066,0.699 0.199,0.867 0.129,0.172 0.293,0.258 0.488,0.258 0.2,0 0.368,-0.086 0.496,-0.258 0.133,-0.168 0.196,-0.481 0.196,-0.93 0,-0.418 -0.067,-0.707 -0.196,-0.879 -0.132,-0.168 -0.296,-0.25 -0.492,-0.25 z m 3.043,4.516 h -0.566 c 0.875,-1.406 1.312,-2.813 1.312,-4.223 0,-0.55 -0.062,-1.097 -0.187,-1.636 -0.102,-0.442 -0.242,-0.864 -0.418,-1.266 -0.117,-0.266 -0.352,-0.703 -0.707,-1.32 h 0.566 c 0.551,0.734 0.957,1.472 1.219,2.214 0.227,0.641 0.34,1.309 0.34,2.004 0,0.793 -0.152,1.555 -0.453,2.293 -0.305,0.739 -0.672,1.383 -1.106,1.934 z"
           style="fill:#202124;fill-opacity:1;fill-rule:nonzero;stroke:#ffffff;stroke-width:2.25;stroke-linecap:butt;stroke-linejoin:miter;stroke-miterlimit:4;stroke-dasharray:none;stroke-opacity:1"
           id="path20861" />
      </g>
      <text
         xml:space="preserve"
         transform="translate(272.5,413.39999)"
         style="font-variant:normal;font-size:9px;font-family:CairoFont-2;-inkscape-font-specification:CairoFont-2-0;writing-mode:lr-tb;fill:#202124;fill-opacity:1;fill-rule:nonzero;stroke:none"
         id="text20865"><tspan
           x="0 5.0040002 7.4970002 10.494 15.498 20.502001 22.995001 27.999001 36"
           y="0"
           sodipodi:role="line"
           id="tspan20863">6 (18.8%)</tspan></text>
      <g
         id="g20867">
        <path
           d="m 203.102,432.898 h -0.79 v -5.039 c -0.191,0.184 -0.441,0.364 -0.75,0.547 -0.308,0.18 -0.585,0.317 -0.832,0.406 v -0.765 c 0.442,-0.207 0.829,-0.457 1.161,-0.754 0.332,-0.297 0.566,-0.582 0.703,-0.863 h 0.508 z m 6.253,1.895 c -0.437,-0.551 -0.804,-1.195 -1.109,-1.934 -0.301,-0.738 -0.449,-1.5 -0.449,-2.293 0,-0.695 0.109,-1.363 0.336,-2.004 0.265,-0.742 0.672,-1.48 1.222,-2.214 h 0.567 c -0.356,0.609 -0.59,1.043 -0.703,1.304 -0.18,0.407 -0.321,0.828 -0.422,1.266 -0.125,0.547 -0.188,1.098 -0.188,1.652 0,1.41 0.438,2.817 1.313,4.223 z m 1.274,-3.594 0.789,-0.105 c 0.09,0.449 0.246,0.769 0.465,0.968 0.219,0.2 0.484,0.297 0.797,0.297 0.371,0 0.687,-0.129 0.941,-0.386 0.258,-0.258 0.387,-0.578 0.387,-0.957 0,-0.364 -0.117,-0.664 -0.356,-0.899 -0.238,-0.238 -0.539,-0.355 -0.906,-0.355 -0.148,0 -0.336,0.031 -0.558,0.09 l 0.089,-0.696 c 0.051,0.004 0.094,0.008 0.125,0.008 0.34,0 0.641,-0.086 0.91,-0.262 0.27,-0.175 0.407,-0.449 0.407,-0.812 0,-0.293 -0.102,-0.531 -0.297,-0.723 -0.195,-0.191 -0.449,-0.285 -0.758,-0.285 -0.309,0 -0.566,0.098 -0.769,0.289 -0.207,0.195 -0.34,0.484 -0.395,0.871 l -0.793,-0.14 c 0.098,-0.532 0.316,-0.942 0.66,-1.235 0.344,-0.289 0.77,-0.437 1.278,-0.437 0.351,0 0.675,0.078 0.972,0.226 0.297,0.153 0.52,0.36 0.68,0.617 0.156,0.262 0.234,0.539 0.234,0.832 0,0.278 -0.074,0.532 -0.226,0.762 -0.149,0.227 -0.367,0.41 -0.664,0.543 0.382,0.09 0.679,0.27 0.89,0.547 0.211,0.277 0.317,0.625 0.317,1.039 0,0.563 -0.207,1.039 -0.618,1.43 -0.41,0.394 -0.925,0.59 -1.554,0.59 -0.567,0 -1.035,-0.168 -1.41,-0.508 -0.371,-0.336 -0.586,-0.774 -0.637,-1.309 z m 5.437,1.699 V 432 h 0.903 v 0.898 z m 5.036,0 h -0.79 v -5.039 c -0.191,0.184 -0.441,0.364 -0.75,0.547 -0.308,0.18 -0.585,0.317 -0.832,0.406 v -0.765 c 0.442,-0.207 0.829,-0.457 1.161,-0.754 0.332,-0.297 0.566,-0.582 0.703,-0.863 h 0.508 z m 2.171,-4.894 c 0,-0.461 0.118,-0.852 0.348,-1.172 0.231,-0.324 0.567,-0.484 1.004,-0.484 0.406,0 0.742,0.144 1.004,0.433 0.266,0.289 0.398,0.711 0.398,1.274 0,0.543 -0.132,0.961 -0.402,1.257 -0.266,0.293 -0.598,0.442 -0.988,0.442 -0.391,0 -0.715,-0.145 -0.977,-0.434 -0.258,-0.293 -0.387,-0.73 -0.387,-1.316 z m 1.375,-1.109 c -0.195,0 -0.359,0.082 -0.488,0.253 -0.133,0.168 -0.195,0.481 -0.195,0.934 0,0.414 0.062,0.707 0.195,0.875 0.133,0.168 0.297,0.25 0.488,0.25 0.2,0 0.364,-0.082 0.497,-0.254 0.128,-0.168 0.195,-0.48 0.195,-0.93 0,-0.418 -0.067,-0.711 -0.199,-0.878 -0.133,-0.168 -0.297,-0.25 -0.493,-0.25 z m 0.004,6.242 3.524,-6.789 h 0.644 l -3.511,6.789 z m 2.786,-1.75 c 0,-0.461 0.117,-0.852 0.347,-1.176 0.235,-0.32 0.57,-0.481 1.012,-0.481 0.406,0 0.738,0.145 1.004,0.434 0.265,0.289 0.398,0.715 0.398,1.274 0,0.542 -0.133,0.964 -0.402,1.257 -0.27,0.293 -0.602,0.442 -0.996,0.442 -0.391,0 -0.715,-0.145 -0.973,-0.438 -0.258,-0.289 -0.39,-0.726 -0.39,-1.312 z m 1.382,-1.11 c -0.199,0 -0.367,0.086 -0.496,0.254 -0.129,0.172 -0.195,0.481 -0.195,0.938 0,0.41 0.066,0.699 0.199,0.867 0.129,0.172 0.293,0.258 0.488,0.258 0.2,0 0.368,-0.086 0.496,-0.258 0.133,-0.168 0.196,-0.481 0.196,-0.93 0,-0.418 -0.067,-0.707 -0.196,-0.879 -0.132,-0.168 -0.296,-0.25 -0.492,-0.25 z m 3.043,4.516 h -0.566 c 0.875,-1.406 1.312,-2.813 1.312,-4.223 0,-0.55 -0.062,-1.097 -0.187,-1.636 -0.102,-0.442 -0.242,-0.864 -0.418,-1.266 -0.117,-0.266 -0.352,-0.703 -0.707,-1.32 h 0.566 c 0.551,0.734 0.957,1.472 1.219,2.214 0.227,0.641 0.34,1.309 0.34,2.004 0,0.793 -0.152,1.555 -0.453,2.293 -0.305,0.739 -0.672,1.383 -1.106,1.934 z"
           style="fill:#202124;fill-opacity:1;fill-rule:nonzero;stroke:#ffffff;stroke-width:2.25;stroke-linecap:butt;stroke-linejoin:miter;stroke-miterlimit:4;stroke-dasharray:none;stroke-opacity:1"
           id="path20869" />
      </g>
      <text
         xml:space="preserve"
         transform="translate(199.75,432.89999)"
         style="font-variant:normal;font-size:9px;font-family:CairoFont-2;-inkscape-font-specification:CairoFont-2-0;writing-mode:lr-tb;fill:#202124;fill-opacity:1;fill-rule:nonzero;stroke:none"
         id="text20873"><tspan
           x="0 5.0040002 7.4970002 10.494 15.498 17.990999 22.995001 30.996"
           y="0"
           sodipodi:role="line"
           id="tspan20871">1 (3.1%)</tspan></text>
      <g
         id="g20875">
        <path
           d="m 229.379,449.949 0.789,-0.105 c 0.09,0.449 0.246,0.769 0.465,0.968 0.219,0.2 0.484,0.297 0.797,0.297 0.371,0 0.687,-0.129 0.941,-0.386 0.258,-0.258 0.387,-0.578 0.387,-0.957 0,-0.364 -0.117,-0.664 -0.356,-0.899 -0.238,-0.238 -0.539,-0.355 -0.906,-0.355 -0.148,0 -0.336,0.031 -0.558,0.09 l 0.089,-0.696 c 0.051,0.004 0.094,0.008 0.125,0.008 0.34,0 0.641,-0.086 0.91,-0.262 0.27,-0.175 0.407,-0.449 0.407,-0.812 0,-0.293 -0.102,-0.531 -0.297,-0.723 -0.195,-0.191 -0.449,-0.285 -0.758,-0.285 -0.309,0 -0.566,0.098 -0.769,0.289 -0.207,0.195 -0.34,0.484 -0.395,0.871 l -0.793,-0.14 c 0.098,-0.532 0.316,-0.942 0.66,-1.235 0.344,-0.289 0.77,-0.437 1.278,-0.437 0.351,0 0.675,0.078 0.972,0.226 0.297,0.153 0.52,0.36 0.68,0.617 0.156,0.262 0.234,0.539 0.234,0.832 0,0.278 -0.074,0.532 -0.226,0.762 -0.149,0.227 -0.367,0.41 -0.664,0.543 0.382,0.09 0.679,0.27 0.89,0.547 0.211,0.277 0.317,0.625 0.317,1.039 0,0.563 -0.207,1.039 -0.618,1.43 -0.41,0.394 -0.925,0.59 -1.554,0.59 -0.567,0 -1.035,-0.168 -1.41,-0.508 -0.371,-0.336 -0.586,-0.774 -0.637,-1.309 z m 9.226,3.594 c -0.437,-0.551 -0.804,-1.195 -1.109,-1.934 -0.301,-0.738 -0.449,-1.5 -0.449,-2.293 0,-0.695 0.109,-1.363 0.336,-2.004 0.265,-0.742 0.672,-1.48 1.222,-2.214 h 0.567 c -0.356,0.609 -0.59,1.043 -0.703,1.304 -0.18,0.407 -0.321,0.828 -0.422,1.266 -0.125,0.547 -0.188,1.098 -0.188,1.652 0,1.41 0.438,2.817 1.313,4.223 z m 1.387,-3.383 0.762,-0.07 c 0.062,0.359 0.187,0.617 0.367,0.777 0.184,0.16 0.414,0.242 0.699,0.242 0.242,0 0.457,-0.054 0.641,-0.168 0.184,-0.109 0.332,-0.257 0.449,-0.445 0.117,-0.187 0.215,-0.437 0.293,-0.754 0.082,-0.316 0.121,-0.637 0.121,-0.965 0,-0.035 -0.004,-0.089 -0.004,-0.16 -0.16,0.254 -0.375,0.457 -0.648,0.613 -0.274,0.157 -0.57,0.235 -0.891,0.235 -0.535,0 -0.984,-0.192 -1.355,-0.578 -0.367,-0.387 -0.551,-0.899 -0.551,-1.532 0,-0.652 0.191,-1.179 0.578,-1.578 0.383,-0.398 0.867,-0.597 1.445,-0.597 0.422,0 0.805,0.113 1.149,0.34 0.348,0.226 0.613,0.546 0.793,0.964 0.18,0.418 0.269,1.024 0.269,1.813 0,0.824 -0.089,1.48 -0.265,1.965 -0.18,0.488 -0.446,0.859 -0.801,1.117 -0.352,0.254 -0.766,0.383 -1.238,0.383 -0.508,0 -0.918,-0.141 -1.239,-0.422 -0.316,-0.281 -0.511,-0.672 -0.574,-1.18 z m 3.238,-2.844 c 0,-0.453 -0.121,-0.812 -0.363,-1.082 -0.242,-0.265 -0.531,-0.398 -0.871,-0.398 -0.351,0 -0.656,0.144 -0.918,0.43 -0.262,0.289 -0.39,0.66 -0.39,1.117 0,0.41 0.121,0.742 0.371,1 0.246,0.258 0.55,0.383 0.914,0.383 0.367,0 0.668,-0.125 0.906,-0.383 0.234,-0.258 0.351,-0.613 0.351,-1.067 z m 2.086,4.332 v -0.898 h 0.903 v 0.898 z m 4.594,0 v -1.539 h -2.797 v -0.726 l 2.942,-4.176 h 0.644 v 4.176 h 0.871 v 0.726 h -0.871 v 1.539 z m 0,-2.265 v -2.906 l -2.019,2.906 z m 2.613,-2.629 c 0,-0.461 0.118,-0.852 0.348,-1.172 0.231,-0.324 0.567,-0.484 1.004,-0.484 0.406,0 0.742,0.144 1.004,0.433 0.266,0.289 0.398,0.711 0.398,1.274 0,0.543 -0.132,0.961 -0.402,1.257 -0.266,0.293 -0.598,0.442 -0.988,0.442 -0.391,0 -0.715,-0.145 -0.977,-0.434 -0.258,-0.293 -0.387,-0.73 -0.387,-1.316 z m 1.375,-1.109 c -0.195,0 -0.359,0.082 -0.488,0.253 -0.133,0.168 -0.195,0.481 -0.195,0.934 0,0.414 0.062,0.707 0.195,0.875 0.133,0.168 0.297,0.25 0.488,0.25 0.2,0 0.364,-0.082 0.497,-0.254 0.128,-0.168 0.195,-0.48 0.195,-0.93 0,-0.418 -0.067,-0.711 -0.199,-0.878 -0.133,-0.168 -0.297,-0.25 -0.493,-0.25 z m 0.004,6.242 3.524,-6.789 h 0.644 l -3.511,6.789 z m 2.786,-1.75 c 0,-0.461 0.117,-0.852 0.347,-1.176 0.231,-0.32 0.57,-0.481 1.012,-0.481 0.402,0 0.738,0.145 1.004,0.434 0.265,0.289 0.398,0.715 0.398,1.274 0,0.542 -0.133,0.964 -0.402,1.257 -0.27,0.293 -0.602,0.442 -0.996,0.442 -0.391,0 -0.715,-0.145 -0.973,-0.438 -0.258,-0.289 -0.39,-0.726 -0.39,-1.312 z m 1.382,-1.11 c -0.199,0 -0.367,0.086 -0.496,0.254 -0.129,0.172 -0.195,0.481 -0.195,0.938 0,0.41 0.066,0.699 0.199,0.867 0.129,0.172 0.293,0.258 0.484,0.258 0.204,0 0.372,-0.086 0.5,-0.258 0.133,-0.168 0.196,-0.481 0.196,-0.93 0,-0.418 -0.067,-0.707 -0.196,-0.879 -0.132,-0.168 -0.296,-0.25 -0.492,-0.25 z m 3.043,4.516 h -0.566 c 0.875,-1.406 1.312,-2.813 1.312,-4.223 0,-0.55 -0.062,-1.097 -0.187,-1.636 -0.102,-0.442 -0.242,-0.864 -0.418,-1.266 -0.117,-0.266 -0.352,-0.703 -0.707,-1.32 h 0.566 c 0.551,0.734 0.957,1.472 1.219,2.214 0.227,0.641 0.34,1.309 0.34,2.004 0,0.793 -0.152,1.555 -0.453,2.293 -0.305,0.739 -0.672,1.383 -1.106,1.934 z"
           style="fill:#202124;fill-opacity:1;fill-rule:nonzero;stroke:#ffffff;stroke-width:2.25;stroke-linecap:butt;stroke-linejoin:miter;stroke-miterlimit:4;stroke-dasharray:none;stroke-opacity:1"
           id="path20877" />
      </g>
      <text
         xml:space="preserve"
         transform="translate(229,451.64999)"
         style="font-variant:normal;font-size:9px;font-family:CairoFont-2;-inkscape-font-specification:CairoFont-2-0;writing-mode:lr-tb;fill:#202124;fill-opacity:1;fill-rule:nonzero;stroke:none"
         id="text20881"><tspan
           x="0 5.0040002 7.4970002 10.494 15.498 17.990999 22.995001 30.996"
           y="0"
           sodipodi:role="line"
           id="tspan20879">3 (9.4%)</tspan></text>
      <g
         id="g20883">
        <path
           d="m 203.102,470.398 h -0.79 v -5.039 c -0.191,0.184 -0.441,0.364 -0.75,0.547 -0.308,0.18 -0.585,0.317 -0.832,0.406 v -0.765 c 0.442,-0.207 0.829,-0.457 1.161,-0.754 0.332,-0.297 0.566,-0.582 0.703,-0.863 h 0.508 z m 6.253,1.895 c -0.437,-0.551 -0.804,-1.195 -1.109,-1.934 -0.301,-0.738 -0.449,-1.5 -0.449,-2.293 0,-0.695 0.109,-1.363 0.336,-2.004 0.265,-0.742 0.672,-1.48 1.222,-2.214 h 0.567 c -0.356,0.609 -0.59,1.043 -0.703,1.304 -0.18,0.407 -0.321,0.828 -0.422,1.266 -0.125,0.547 -0.188,1.098 -0.188,1.652 0,1.41 0.438,2.817 1.313,4.223 z m 1.274,-3.594 0.789,-0.105 c 0.09,0.449 0.246,0.769 0.465,0.968 0.219,0.2 0.484,0.297 0.797,0.297 0.371,0 0.687,-0.129 0.941,-0.386 0.258,-0.258 0.387,-0.578 0.387,-0.957 0,-0.364 -0.117,-0.664 -0.356,-0.899 -0.238,-0.238 -0.539,-0.355 -0.906,-0.355 -0.148,0 -0.336,0.031 -0.558,0.09 l 0.089,-0.696 c 0.051,0.004 0.094,0.008 0.125,0.008 0.34,0 0.641,-0.086 0.91,-0.262 0.27,-0.175 0.407,-0.449 0.407,-0.812 0,-0.293 -0.102,-0.531 -0.297,-0.723 -0.195,-0.191 -0.449,-0.285 -0.758,-0.285 -0.309,0 -0.566,0.098 -0.769,0.289 -0.207,0.195 -0.34,0.484 -0.395,0.871 l -0.793,-0.14 c 0.098,-0.532 0.316,-0.942 0.66,-1.235 0.344,-0.289 0.77,-0.437 1.278,-0.437 0.351,0 0.675,0.078 0.972,0.226 0.297,0.153 0.52,0.36 0.68,0.617 0.156,0.262 0.234,0.539 0.234,0.832 0,0.278 -0.074,0.532 -0.226,0.762 -0.149,0.227 -0.367,0.41 -0.664,0.543 0.382,0.09 0.679,0.27 0.89,0.547 0.211,0.277 0.317,0.625 0.317,1.039 0,0.563 -0.207,1.039 -0.618,1.43 -0.41,0.394 -0.925,0.59 -1.554,0.59 -0.567,0 -1.035,-0.168 -1.41,-0.508 -0.371,-0.336 -0.586,-0.774 -0.637,-1.309 z m 5.437,1.699 V 469.5 h 0.903 v 0.898 z m 5.036,0 h -0.79 v -5.039 c -0.191,0.184 -0.441,0.364 -0.75,0.547 -0.308,0.18 -0.585,0.317 -0.832,0.406 v -0.765 c 0.442,-0.207 0.829,-0.457 1.161,-0.754 0.332,-0.297 0.566,-0.582 0.703,-0.863 h 0.508 z m 2.171,-4.894 c 0,-0.461 0.118,-0.852 0.348,-1.172 0.231,-0.324 0.567,-0.484 1.004,-0.484 0.406,0 0.742,0.144 1.004,0.433 0.266,0.289 0.398,0.711 0.398,1.274 0,0.543 -0.132,0.961 -0.402,1.257 -0.266,0.293 -0.598,0.442 -0.988,0.442 -0.391,0 -0.715,-0.145 -0.977,-0.434 -0.258,-0.293 -0.387,-0.73 -0.387,-1.316 z m 1.375,-1.109 c -0.195,0 -0.359,0.082 -0.488,0.253 -0.133,0.168 -0.195,0.481 -0.195,0.934 0,0.414 0.062,0.707 0.195,0.875 0.133,0.168 0.297,0.25 0.488,0.25 0.2,0 0.364,-0.082 0.497,-0.254 0.128,-0.168 0.195,-0.48 0.195,-0.93 0,-0.418 -0.067,-0.711 -0.199,-0.878 -0.133,-0.168 -0.297,-0.25 -0.493,-0.25 z m 0.004,6.242 3.524,-6.789 h 0.644 l -3.511,6.789 z m 2.786,-1.75 c 0,-0.461 0.117,-0.852 0.347,-1.176 0.235,-0.32 0.57,-0.481 1.012,-0.481 0.406,0 0.738,0.145 1.004,0.434 0.265,0.289 0.398,0.715 0.398,1.274 0,0.542 -0.133,0.964 -0.402,1.257 -0.27,0.293 -0.602,0.442 -0.996,0.442 -0.391,0 -0.715,-0.145 -0.973,-0.438 -0.258,-0.289 -0.39,-0.726 -0.39,-1.312 z m 1.382,-1.11 c -0.199,0 -0.367,0.086 -0.496,0.254 -0.129,0.172 -0.195,0.481 -0.195,0.938 0,0.41 0.066,0.699 0.199,0.867 0.129,0.172 0.293,0.258 0.488,0.258 0.2,0 0.368,-0.086 0.496,-0.258 0.133,-0.168 0.196,-0.481 0.196,-0.93 0,-0.418 -0.067,-0.707 -0.196,-0.879 -0.132,-0.168 -0.296,-0.25 -0.492,-0.25 z m 3.043,4.516 h -0.566 c 0.875,-1.406 1.312,-2.813 1.312,-4.223 0,-0.55 -0.062,-1.097 -0.187,-1.636 -0.102,-0.442 -0.242,-0.864 -0.418,-1.266 -0.117,-0.266 -0.352,-0.703 -0.707,-1.32 h 0.566 c 0.551,0.734 0.957,1.472 1.219,2.214 0.227,0.641 0.34,1.309 0.34,2.004 0,0.793 -0.152,1.555 -0.453,2.293 -0.305,0.739 -0.672,1.383 -1.106,1.934 z"
           style="fill:#202124;fill-opacity:1;fill-rule:nonzero;stroke:#ffffff;stroke-width:2.25;stroke-linecap:butt;stroke-linejoin:miter;stroke-miterlimit:4;stroke-dasharray:none;stroke-opacity:1"
           id="path20885" />
      </g>
      <text
         xml:space="preserve"
         transform="translate(199.75,470.39999)"
         style="font-variant:normal;font-size:9px;font-family:CairoFont-2;-inkscape-font-specification:CairoFont-2-0;writing-mode:lr-tb;fill:#202124;fill-opacity:1;fill-rule:nonzero;stroke:none"
         id="text20889"><tspan
           x="0 5.0040002 7.4970002 10.494 15.498 17.990999 22.995001 30.996"
           y="0"
           sodipodi:role="line"
           id="tspan20887">1 (3.1%)</tspan></text>
      <g
         id="g20891">
        <path
           d="m 203.102,489.898 h -0.79 v -5.039 c -0.191,0.184 -0.441,0.364 -0.75,0.547 -0.308,0.18 -0.585,0.317 -0.832,0.406 v -0.765 c 0.442,-0.207 0.829,-0.457 1.161,-0.754 0.332,-0.297 0.566,-0.582 0.703,-0.863 h 0.508 z m 6.253,1.895 c -0.437,-0.551 -0.804,-1.195 -1.109,-1.934 -0.301,-0.738 -0.449,-1.5 -0.449,-2.293 0,-0.695 0.109,-1.363 0.336,-2.004 0.265,-0.742 0.672,-1.48 1.222,-2.214 h 0.567 c -0.356,0.609 -0.59,1.043 -0.703,1.304 -0.18,0.407 -0.321,0.828 -0.422,1.266 -0.125,0.547 -0.188,1.098 -0.188,1.652 0,1.41 0.438,2.817 1.313,4.223 z m 1.274,-3.594 0.789,-0.105 c 0.09,0.449 0.246,0.769 0.465,0.968 0.219,0.2 0.484,0.297 0.797,0.297 0.371,0 0.687,-0.129 0.941,-0.386 0.258,-0.258 0.387,-0.578 0.387,-0.957 0,-0.364 -0.117,-0.664 -0.356,-0.899 -0.238,-0.238 -0.539,-0.355 -0.906,-0.355 -0.148,0 -0.336,0.031 -0.558,0.09 l 0.089,-0.696 c 0.051,0.004 0.094,0.008 0.125,0.008 0.34,0 0.641,-0.086 0.91,-0.262 0.27,-0.175 0.407,-0.449 0.407,-0.812 0,-0.293 -0.102,-0.531 -0.297,-0.723 -0.195,-0.191 -0.449,-0.285 -0.758,-0.285 -0.309,0 -0.566,0.098 -0.769,0.289 -0.207,0.195 -0.34,0.484 -0.395,0.871 l -0.793,-0.14 c 0.098,-0.532 0.316,-0.942 0.66,-1.235 0.344,-0.289 0.77,-0.437 1.278,-0.437 0.351,0 0.675,0.078 0.972,0.226 0.297,0.153 0.52,0.36 0.68,0.617 0.156,0.262 0.234,0.539 0.234,0.832 0,0.278 -0.074,0.532 -0.226,0.762 -0.149,0.227 -0.367,0.41 -0.664,0.543 0.382,0.09 0.679,0.27 0.89,0.547 0.211,0.277 0.317,0.625 0.317,1.039 0,0.563 -0.207,1.039 -0.618,1.43 -0.41,0.394 -0.925,0.59 -1.554,0.59 -0.567,0 -1.035,-0.168 -1.41,-0.508 -0.371,-0.336 -0.586,-0.774 -0.637,-1.309 z m 5.437,1.699 V 489 h 0.903 v 0.898 z m 5.036,0 h -0.79 v -5.039 c -0.191,0.184 -0.441,0.364 -0.75,0.547 -0.308,0.18 -0.585,0.317 -0.832,0.406 v -0.765 c 0.442,-0.207 0.829,-0.457 1.161,-0.754 0.332,-0.297 0.566,-0.582 0.703,-0.863 h 0.508 z m 2.171,-4.894 c 0,-0.461 0.118,-0.852 0.348,-1.172 0.231,-0.324 0.567,-0.484 1.004,-0.484 0.406,0 0.742,0.144 1.004,0.433 0.266,0.289 0.398,0.711 0.398,1.274 0,0.543 -0.132,0.961 -0.402,1.257 -0.266,0.293 -0.598,0.442 -0.988,0.442 -0.391,0 -0.715,-0.145 -0.977,-0.434 -0.258,-0.293 -0.387,-0.73 -0.387,-1.316 z m 1.375,-1.109 c -0.195,0 -0.359,0.082 -0.488,0.253 -0.133,0.168 -0.195,0.481 -0.195,0.934 0,0.414 0.062,0.707 0.195,0.875 0.133,0.168 0.297,0.25 0.488,0.25 0.2,0 0.364,-0.082 0.497,-0.254 0.128,-0.168 0.195,-0.48 0.195,-0.93 0,-0.418 -0.067,-0.711 -0.199,-0.878 -0.133,-0.168 -0.297,-0.25 -0.493,-0.25 z m 0.004,6.242 3.524,-6.789 h 0.644 l -3.511,6.789 z m 2.786,-1.75 c 0,-0.461 0.117,-0.852 0.347,-1.176 0.235,-0.32 0.57,-0.481 1.012,-0.481 0.406,0 0.738,0.145 1.004,0.434 0.265,0.289 0.398,0.715 0.398,1.274 0,0.542 -0.133,0.964 -0.402,1.257 -0.27,0.293 -0.602,0.442 -0.996,0.442 -0.391,0 -0.715,-0.145 -0.973,-0.438 -0.258,-0.289 -0.39,-0.726 -0.39,-1.312 z m 1.382,-1.11 c -0.199,0 -0.367,0.086 -0.496,0.254 -0.129,0.172 -0.195,0.481 -0.195,0.938 0,0.41 0.066,0.699 0.199,0.867 0.129,0.172 0.293,0.258 0.488,0.258 0.2,0 0.368,-0.086 0.496,-0.258 0.133,-0.168 0.196,-0.481 0.196,-0.93 0,-0.418 -0.067,-0.707 -0.196,-0.879 -0.132,-0.168 -0.296,-0.25 -0.492,-0.25 z m 3.043,4.516 h -0.566 c 0.875,-1.406 1.312,-2.813 1.312,-4.223 0,-0.55 -0.062,-1.097 -0.187,-1.636 -0.102,-0.442 -0.242,-0.864 -0.418,-1.266 -0.117,-0.266 -0.352,-0.703 -0.707,-1.32 h 0.566 c 0.551,0.734 0.957,1.472 1.219,2.214 0.227,0.641 0.34,1.309 0.34,2.004 0,0.793 -0.152,1.555 -0.453,2.293 -0.305,0.739 -0.672,1.383 -1.106,1.934 z"
           style="fill:#202124;fill-opacity:1;fill-rule:nonzero;stroke:#ffffff;stroke-width:2.25;stroke-linecap:butt;stroke-linejoin:miter;stroke-miterlimit:4;stroke-dasharray:none;stroke-opacity:1"
           id="path20893" />
      </g>
      <text
         xml:space="preserve"
         transform="translate(199.75,489.89999)"
         style="font-variant:normal;font-size:9px;font-family:CairoFont-2;-inkscape-font-specification:CairoFont-2-0;writing-mode:lr-tb;fill:#202124;fill-opacity:1;fill-rule:nonzero;stroke:none"
         id="text20897"><tspan
           x="0 5.0040002 7.4970002 10.494 15.498 17.990999 22.995001 30.996"
           y="0"
           sodipodi:role="line"
           id="tspan20895">1 (3.1%)</tspan></text>
    </g>
  </g>
</svg>
