<?xml version="1.0" encoding="UTF-8" standalone="no"?>
<!-- Created with Inkscape (http://www.inkscape.org/) -->

<svg
   version="1.1"
   id="svg4819"
   width="601.73468"
   height="265.98172"
   viewBox="0 0 601.73468 265.98171"
   sodipodi:docname="cocotb user survey 2023.pdf"
   xmlns:inkscape="http://www.inkscape.org/namespaces/inkscape"
   xmlns:sodipodi="http://sodipodi.sourceforge.net/DTD/sodipodi-0.dtd"
   xmlns="http://www.w3.org/2000/svg"
   xmlns:svg="http://www.w3.org/2000/svg">
  <defs
     id="defs4823">
    <clipPath
       clipPathUnits="userSpaceOnUse"
       id="clipPath5127">
      <path
         d="M 62.699,428 H 514 V 578 H 62.699 Z"
         id="path5125" />
    </clipPath>
  </defs>
  <sodipodi:namedview
     id="namedview4821"
     pagecolor="#ffffff"
     bordercolor="#666666"
     borderopacity="1.0"
     inkscape:showpageshadow="2"
     inkscape:pageopacity="0.0"
     inkscape:pagecheckerboard="0"
     inkscape:deskcolor="#d1d1d1"
     showgrid="false" />
  <g
     id="g4827"
     inkscape:groupmode="layer"
     inkscape:label="Page 1"
     transform="matrix(1.3333333,0,0,1.3333333,-83.598663,-504.68487)">
    <text
       xml:space="preserve"
       style="font-variant:normal;font-size:12px;font-family:CairoFont-1;-inkscape-font-specification:CairoFont-1-0;writing-mode:lr-tb;fill:#18191c;fill-opacity:1;fill-rule:nonzero;stroke:none"
       id="text4951"
       x="62.700001"
       y="387.25"><tspan
         x="62.700001 66.096001 70.416 73.524002 79.260002 86.256004 93.024002 96.144005 102.576 109.32 115.82401 122.256 128.364 134.868 141.76801 144.888 155.54401 162.3 165.36 169.42799 172.476 179.364 182.424 188.916 191.976 195.09599 205.896 212.65199 219.15599 223.248 229.752 232.87199 239.772 246.76799 249.888 255.62399 262.62 269.37601 272.496 279.25201 285.58801 292.09201 295.21201 298.26001 302.328 305.448 312.336 316.53601 319.59601 330.25201 336.91202 341.12402 344.18402 347.23203 353.052"
         y="387.25"
         sodipodi:role="line"
         id="tspan4949">If you checked multiple: Where do you use it primarily?</tspan></text>
    <text
       xml:space="preserve"
       style="font-variant:normal;font-size:9px;font-family:CairoFont-1;-inkscape-font-specification:CairoFont-1-0;writing-mode:lr-tb;fill:#18191c;fill-opacity:1;fill-rule:nonzero;stroke:none"
       id="text4955"
       x="62.700001"
       y="407"><tspan
         x="62.700001 67.973999 73.238998 75.687004 78.873001 83.849998 88.709999 93.984001 99.339005 104.523 109.383 114.36"
         y="407"
         sodipodi:role="line"
         id="tspan4953">44 responses</tspan></text>
    <g
       id="g5123"
       clip-path="url(#clipPath5127)">
      <path
         d="M 62.5,428 H 514 V 578 H 62.5 Z"
         style="fill:#ffffff;fill-opacity:1;fill-rule:nonzero;stroke:none"
         id="path5129" />
      <text
         xml:space="preserve"
         transform="translate(363.25,443.14999)"
         style="font-variant:normal;font-size:9px;font-family:CairoFont-2;-inkscape-font-specification:CairoFont-2-0;writing-mode:lr-tb;fill:#222222;fill-opacity:1;fill-rule:nonzero;stroke:none"
         id="text5133"><tspan
           x="0 2.493 7.4970002 12.501 17.504999 22.004999 24.497999 27.495001"
           y="0"
           sodipodi:role="line"
           id="tspan5131">Industry</tspan></text>
      <path
         d="m 359.5,440 c 0,2.484 -2.016,4.5 -4.5,4.5 -2.484,0 -4.5,-2.016 -4.5,-4.5 0,-2.484 2.016,-4.5 4.5,-4.5 2.484,0 4.5,2.016 4.5,4.5"
         style="fill:#3366cc;fill-opacity:1;fill-rule:nonzero;stroke:none"
         id="path5135" />
      <text
         xml:space="preserve"
         transform="translate(363.25,457.39999)"
         style="font-variant:normal;font-size:9px;font-family:CairoFont-2;-inkscape-font-specification:CairoFont-2-0;writing-mode:lr-tb;fill:#222222;fill-opacity:1;fill-rule:nonzero;stroke:none"
         id="text5139"><tspan
           x="0 5.994 10.494 15.498 20.502001 25.506001 33.002998 35.000999"
           y="0"
           sodipodi:role="line"
           id="tspan5137">Academia</tspan></text>
      <path
         d="m 359.5,454.25 c 0,2.484 -2.016,4.5 -4.5,4.5 -2.484,0 -4.5,-2.016 -4.5,-4.5 0,-2.484 2.016,-4.5 4.5,-4.5 2.484,0 4.5,2.016 4.5,4.5"
         style="fill:#dc3912;fill-opacity:1;fill-rule:nonzero;stroke:none"
         id="path5141" />
      <text
         xml:space="preserve"
         transform="translate(363.25,471.64999)"
         style="font-variant:normal;font-size:9px;font-family:CairoFont-2;-inkscape-font-specification:CairoFont-2-0;writing-mode:lr-tb;fill:#222222;fill-opacity:1;fill-rule:nonzero;stroke:none"
         id="text5145"><tspan
           x="0 2.493 7.4970002 9.9899998 14.994 19.997999 25.002001 29.979 34.479 36.972 41.976002 44.973 49.977001 51.974998 56.979 61.479 63.972"
           y="0"
           sodipodi:role="line"
           id="tspan5143">In hobby projects</tspan></text>
      <path
         d="m 359.5,468.5 c 0,2.484 -2.016,4.5 -4.5,4.5 -2.484,0 -4.5,-2.016 -4.5,-4.5 0,-2.484 2.016,-4.5 4.5,-4.5 2.484,0 4.5,2.016 4.5,4.5"
         style="fill:#ff9900;fill-opacity:1;fill-rule:nonzero;stroke:none"
         id="path5147" />
      <g
         id="g5149">
        <path
           d="m 211,503 -28.039,-61.398 c 20.894,-9.543 45.207,-7.805 64.531,4.613 C 266.816,458.633 278.5,480.027 278.5,503 H 211"
           style="fill:#ff9900;fill-opacity:1;fill-rule:nonzero;stroke:#ffffff;stroke-width:0.75;stroke-linecap:butt;stroke-linejoin:miter;stroke-miterlimit:4;stroke-dasharray:none;stroke-opacity:1"
           id="path5151" />
      </g>
      <text
         xml:space="preserve"
         transform="translate(223.78467,466.41727)"
         style="font-variant:normal;font-size:9px;font-family:CairoFont-2;-inkscape-font-specification:CairoFont-2-0;writing-mode:lr-tb;fill:#ffffff;fill-opacity:1;fill-rule:nonzero;stroke:none"
         id="text5155"><tspan
           x="0 5.0040002 10.008 12.501 17.504999"
           y="0"
           sodipodi:role="line"
           id="tspan5153">31.8%</tspan></text>
      <g
         id="g5157">
        <path
           d="m 211,503 -56.785,-36.492 c 6.996,-10.887 16.973,-19.531 28.746,-24.906 L 211,503"
           style="fill:#dc3912;fill-opacity:1;fill-rule:nonzero;stroke:#ffffff;stroke-width:0.75;stroke-linecap:butt;stroke-linejoin:miter;stroke-miterlimit:4;stroke-dasharray:none;stroke-opacity:1"
           id="path5159" />
      </g>
      <text
         xml:space="preserve"
         transform="translate(169.25888,469.66305)"
         style="font-variant:normal;font-size:9px;font-family:CairoFont-2;-inkscape-font-specification:CairoFont-2-0;writing-mode:lr-tb;fill:#ffffff;fill-opacity:1;fill-rule:nonzero;stroke:none"
         id="text5163"><tspan
           x="0 5.0040002 7.4970002 12.501"
           y="0"
           sodipodi:role="line"
           id="tspan5161">9.1%</tspan></text>
      <g
         id="g5165">
        <path
           d="m 211,503 h 67.5 c 0,28.77 -18.234,54.379 -45.422,63.789 -27.187,9.41 -57.351,0.551 -75.137,-22.062 -17.785,-22.618 -19.281,-54.016 -3.726,-78.219 L 211,503"
           style="fill:#3366cc;fill-opacity:1;fill-rule:nonzero;stroke:#ffffff;stroke-width:0.75;stroke-linecap:butt;stroke-linejoin:miter;stroke-miterlimit:4;stroke-dasharray:none;stroke-opacity:1"
           id="path5167" />
      </g>
      <text
         xml:space="preserve"
         transform="translate(184.28923,553.69598)"
         style="font-variant:normal;font-size:9px;font-family:CairoFont-2;-inkscape-font-specification:CairoFont-2-0;writing-mode:lr-tb;fill:#ffffff;fill-opacity:1;fill-rule:nonzero;stroke:none"
         id="text5171"><tspan
           x="0 5.0040002 10.008 12.501 17.504999"
           y="0"
           sodipodi:role="line"
           id="tspan5169">59.1%</tspan></text>
    </g>
  </g>
</svg>
