<?xml version="1.0" encoding="UTF-8" standalone="no"?>
<!-- Created with Inkscape (http://www.inkscape.org/) -->

<svg
   version="1.1"
   id="svg4819"
   width="583.31036"
   height="287.33411"
   viewBox="0 0 583.31037 287.33409"
   sodipodi:docname="cocotb user survey 2023.pdf"
   xmlns:inkscape="http://www.inkscape.org/namespaces/inkscape"
   xmlns:sodipodi="http://sodipodi.sourceforge.net/DTD/sodipodi-0.dtd"
   xmlns="http://www.w3.org/2000/svg"
   xmlns:svg="http://www.w3.org/2000/svg">
  <defs
     id="defs4823">
    <clipPath
       clipPathUnits="userSpaceOnUse"
       id="clipPath5665">
      <path
         d="M 175,96.5 H 470 V 250 H 175 Z"
         id="path5663" />
    </clipPath>
    <clipPath
       clipPathUnits="userSpaceOnUse"
       id="clipPath5677">
      <path
         d="M 175.75,96.5 H 177 v 153 h -1.25 z"
         id="path5675" />
    </clipPath>
    <clipPath
       clipPathUnits="userSpaceOnUse"
       id="clipPath5687">
      <path
         d="m 249,96.5 h 1 v 153 h -1 z"
         id="path5685" />
    </clipPath>
    <clipPath
       clipPathUnits="userSpaceOnUse"
       id="clipPath5697">
      <path
         d="m 322,96.5 h 1 v 153 h -1 z"
         id="path5695" />
    </clipPath>
    <clipPath
       clipPathUnits="userSpaceOnUse"
       id="clipPath5707">
      <path
         d="m 395,96.5 h 2 v 153 h -2 z"
         id="path5705" />
    </clipPath>
    <clipPath
       clipPathUnits="userSpaceOnUse"
       id="clipPath5717">
      <path
         d="m 468,96.5 h 1 v 153 h -1 z"
         id="path5715" />
    </clipPath>
    <clipPath
       clipPathUnits="userSpaceOnUse"
       id="clipPath5727">
      <path
         d="m 212,96.5 h 2 v 153 h -2 z"
         id="path5725" />
    </clipPath>
    <clipPath
       clipPathUnits="userSpaceOnUse"
       id="clipPath5737">
      <path
         d="m 285,96.5 h 1 v 153 h -1 z"
         id="path5735" />
    </clipPath>
    <clipPath
       clipPathUnits="userSpaceOnUse"
       id="clipPath5747">
      <path
         d="m 358,96.5 h 2 v 153 h -2 z"
         id="path5745" />
    </clipPath>
    <clipPath
       clipPathUnits="userSpaceOnUse"
       id="clipPath5757">
      <path
         d="m 431,96.5 h 2 v 153 h -2 z"
         id="path5755" />
    </clipPath>
    <clipPath
       clipPathUnits="userSpaceOnUse"
       id="clipPath5777">
      <path
         d="M 175.75,96.5 H 177 v 153 h -1.25 z"
         id="path5775" />
    </clipPath>
  </defs>
  <sodipodi:namedview
     id="namedview4821"
     pagecolor="#ffffff"
     bordercolor="#666666"
     borderopacity="1.0"
     inkscape:showpageshadow="2"
     inkscape:pageopacity="0.0"
     inkscape:pagecheckerboard="0"
     inkscape:deskcolor="#d1d1d1"
     showgrid="false" />
  <g
     id="g5555"
     inkscape:groupmode="layer"
     inkscape:label="Page 2"
     transform="matrix(1.3333333,0,0,1.3333333,-83.752333,-62.684893)">
    <text
       xml:space="preserve"
       style="font-variant:normal;font-size:12px;font-family:CairoFont-1;-inkscape-font-specification:CairoFont-1-0;writing-mode:lr-tb;fill:#18191c;fill-opacity:1;fill-rule:nonzero;stroke:none"
       id="text5623"
       x="62.700001"
       y="55.75"><tspan
         x="62.700001 73.5 80.256004 86.916 90.984001 94.104004 100.332 103.38 110.148 117.048 120.168 127.164 131.472 134.592 138.66 145.32001 149.412 156.3 162.804 166.87199 169.992 176.892 183.888 187.008 192.744 199.73999 206.496 209.616 216.37199 222.70799 229.21199 232.332 238.76399 245.75999 252.192 259.18802 263.25601 270.14401 273.26401 277.57199 284.56799 288.76801"
         y="55.75"
         sodipodi:role="line"
         id="tspan5621">What kind of target do you use cocotb for?</tspan></text>
    <text
       xml:space="preserve"
       style="font-variant:normal;font-size:9px;font-family:CairoFont-1;-inkscape-font-specification:CairoFont-1-0;writing-mode:lr-tb;fill:#18191c;fill-opacity:1;fill-rule:nonzero;stroke:none"
       id="text5627"
       x="62.700001"
       y="75.5"><tspan
         x="62.700001 67.973999 73.238998 75.687004 78.873001 83.849998 88.709999 93.984001 99.339005 104.523 109.383 114.36"
         y="75.5"
         sodipodi:role="line"
         id="tspan5625">48 responses</tspan></text>
    <g
       id="g5659">
      <g
         id="g5661"
         clip-path="url(#clipPath5665)">
        <g
           id="g5667">
          <path
             d="M 175.75,96.5 H 469 v 153 H 175.75 Z"
             style="fill:none;stroke:#eeeeee;stroke-width:0.75;stroke-linecap:butt;stroke-linejoin:miter;stroke-miterlimit:4;stroke-dasharray:none;stroke-opacity:1"
             id="path5669" />
        </g>
      </g>
    </g>
    <g
       id="g5671">
      <g
         id="g5673"
         clip-path="url(#clipPath5677)">
        <path
           d="m 175.75,96.5 h 0.75 v 153 h -0.75 z"
           style="fill:#eeeeee;fill-opacity:1;fill-rule:nonzero;stroke:none"
           id="path5679" />
      </g>
    </g>
    <g
       id="g5681">
      <g
         id="g5683"
         clip-path="url(#clipPath5687)">
        <path
           d="M 249.25,96.5 H 250 v 153 h -0.75 z"
           style="fill:#eeeeee;fill-opacity:1;fill-rule:nonzero;stroke:none"
           id="path5689" />
      </g>
    </g>
    <g
       id="g5691">
      <g
         id="g5693"
         clip-path="url(#clipPath5697)">
        <path
           d="m 322,96.5 h 0.75 v 153 H 322 Z"
           style="fill:#eeeeee;fill-opacity:1;fill-rule:nonzero;stroke:none"
           id="path5699" />
      </g>
    </g>
    <g
       id="g5701">
      <g
         id="g5703"
         clip-path="url(#clipPath5707)">
        <path
           d="m 395.5,96.5 h 0.75 v 153 h -0.75 z"
           style="fill:#eeeeee;fill-opacity:1;fill-rule:nonzero;stroke:none"
           id="path5709" />
      </g>
    </g>
    <g
       id="g5711">
      <g
         id="g5713"
         clip-path="url(#clipPath5717)">
        <path
           d="M 468.25,96.5 H 469 v 153 h -0.75 z"
           style="fill:#eeeeee;fill-opacity:1;fill-rule:nonzero;stroke:none"
           id="path5719" />
      </g>
    </g>
    <g
       id="g5721">
      <g
         id="g5723"
         clip-path="url(#clipPath5727)">
        <path
           d="m 212.5,96.5 h 0.75 v 153 h -0.75 z"
           style="fill:#f8f8f8;fill-opacity:1;fill-rule:nonzero;stroke:none"
           id="path5729" />
      </g>
    </g>
    <g
       id="g5731">
      <g
         id="g5733"
         clip-path="url(#clipPath5737)">
        <path
           d="M 285.25,96.5 H 286 v 153 h -0.75 z"
           style="fill:#f8f8f8;fill-opacity:1;fill-rule:nonzero;stroke:none"
           id="path5739" />
      </g>
    </g>
    <g
       id="g5741">
      <g
         id="g5743"
         clip-path="url(#clipPath5747)">
        <path
           d="m 358.75,96.5 h 0.75 v 153 h -0.75 z"
           style="fill:#f8f8f8;fill-opacity:1;fill-rule:nonzero;stroke:none"
           id="path5749" />
      </g>
    </g>
    <g
       id="g5751">
      <g
         id="g5753"
         clip-path="url(#clipPath5757)">
        <path
           d="m 431.5,96.5 h 0.75 v 153 h -0.75 z"
           style="fill:#f8f8f8;fill-opacity:1;fill-rule:nonzero;stroke:none"
           id="path5759" />
      </g>
    </g>
    <g
       id="g5761">
      <path
         d="m 176.5,104 h 270 v 24 h -270 z"
         style="fill:#3776ab;fill-opacity:1;fill-rule:nonzero;stroke:none"
         id="path5763" />
      <path
         d="M 176.5,142.25 H 322 V 165.5 H 176.5 Z"
         style="fill:#3776ab;fill-opacity:1;fill-rule:nonzero;stroke:none"
         id="path5765" />
      <path
         d="m 176.5,180.5 h 6.75 v 23.25 h -6.75 z"
         style="fill:#3776ab;fill-opacity:1;fill-rule:nonzero;stroke:none"
         id="path5767" />
      <path
         d="m 176.5,218 h 6.75 v 24 h -6.75 z"
         style="fill:#3776ab;fill-opacity:1;fill-rule:nonzero;stroke:none"
         id="path5769" />
    </g>
    <g
       id="g5771">
      <g
         id="g5773"
         clip-path="url(#clipPath5777)">
        <path
           d="m 175.75,96.5 h 0.75 v 153 h -0.75 z"
           style="fill:#333333;fill-opacity:1;fill-rule:nonzero;stroke:none"
           id="path5779" />
      </g>
    </g>
    <path
       d="m 446.5,116 h 9 v 0.75 h -9 z"
       style="fill:#999999;fill-opacity:1;fill-rule:nonzero;stroke:none"
       id="path5783" />
    <path
       d="m 322,153.5 h 9 v 0.75 h -9 z"
       style="fill:#999999;fill-opacity:1;fill-rule:nonzero;stroke:none"
       id="path5785" />
    <path
       d="m 183.25,191.75 h 9 v 0.75 h -9 z"
       style="fill:#999999;fill-opacity:1;fill-rule:nonzero;stroke:none"
       id="path5787" />
    <path
       d="m 183.25,230 h 9 v 0.75 h -9 z"
       style="fill:#999999;fill-opacity:1;fill-rule:nonzero;stroke:none"
       id="path5789" />
    <text
       xml:space="preserve"
       style="font-variant:normal;font-size:9px;font-family:CairoFont-2;-inkscape-font-specification:CairoFont-2-0;writing-mode:lr-tb;fill:#444444;fill-opacity:1;fill-rule:nonzero;stroke:none"
       id="text5793"
       x="173.625"
       y="262.39999"><tspan
         x="173.625 244.248 249.252 317.375 322.379 390.5 395.504 463.625 468.629"
         y="262.39999"
         sodipodi:role="line"
         id="tspan5791">010203040</tspan></text>
    <text
       xml:space="preserve"
       style="font-variant:normal;font-size:9px;font-family:CairoFont-2;-inkscape-font-specification:CairoFont-2-0;writing-mode:lr-tb;fill:#222222;fill-opacity:1;fill-rule:nonzero;stroke:none"
       id="text5803"
       x="142.25"
       y="119.05625"><tspan
         x="142.25 147.74001 153.73399 160.72701"
         y="119.05625"
         sodipodi:role="line"
         id="tspan5795">FPGA</tspan><tspan
         x="145.75 151.744 157.73801 160.231"
         y="157.11874"
         sodipodi:role="line"
         id="tspan5797">ASIC</tspan><tspan
         x="105.75 111.744 113.742 121.23901 126.243 128.241 133.24501 135.73801 137.73601 142.74001 147.744 150.237 155.214 160.218 162.216"
         y="195.18124"
         sodipodi:role="line"
         id="tspan5799">Simulation only</tspan><tspan
         x="105.425 111.752 117.242 122.246 124.739 130.733 132.731 140.228 145.23199 147.23 152.23399 154.72701 156.72501 161.729"
         y="233.24374"
         sodipodi:role="line"
         id="tspan5801">RTL Simulation</tspan></text>
    <g
       id="g5805">
      <path
         d="m 455.879,117.449 0.789,-0.105 c 0.094,0.449 0.246,0.769 0.465,0.968 0.219,0.2 0.484,0.297 0.797,0.297 0.371,0 0.687,-0.129 0.941,-0.386 0.258,-0.258 0.387,-0.578 0.387,-0.957 0,-0.364 -0.117,-0.664 -0.356,-0.899 -0.238,-0.238 -0.539,-0.355 -0.906,-0.355 -0.148,0 -0.336,0.031 -0.558,0.09 l 0.089,-0.696 c 0.051,0.004 0.094,0.008 0.125,0.008 0.34,0 0.641,-0.086 0.91,-0.262 0.27,-0.175 0.407,-0.449 0.407,-0.812 0,-0.293 -0.098,-0.531 -0.297,-0.723 -0.195,-0.191 -0.449,-0.285 -0.758,-0.285 -0.309,0 -0.566,0.098 -0.769,0.289 -0.207,0.195 -0.336,0.484 -0.395,0.871 l -0.793,-0.14 c 0.098,-0.532 0.316,-0.942 0.66,-1.235 0.344,-0.289 0.77,-0.437 1.278,-0.437 0.351,0 0.675,0.078 0.972,0.226 0.297,0.153 0.52,0.36 0.68,0.617 0.156,0.262 0.234,0.539 0.234,0.832 0,0.278 -0.074,0.532 -0.226,0.762 -0.149,0.227 -0.367,0.41 -0.66,0.543 0.378,0.09 0.675,0.27 0.886,0.547 0.211,0.277 0.317,0.625 0.317,1.039 0,0.563 -0.207,1.039 -0.618,1.43 -0.41,0.394 -0.925,0.59 -1.554,0.59 -0.567,0 -1.035,-0.168 -1.41,-0.508 -0.371,-0.336 -0.586,-0.774 -0.637,-1.309 z m 5.047,-3.898 v -0.758 h 4.172 v 0.613 c -0.41,0.438 -0.817,1.016 -1.219,1.742 -0.406,0.723 -0.715,1.465 -0.934,2.231 -0.16,0.539 -0.261,1.129 -0.304,1.769 h -0.813 c 0.008,-0.503 0.11,-1.117 0.297,-1.836 0.191,-0.718 0.465,-1.41 0.82,-2.074 0.356,-0.668 0.735,-1.23 1.137,-1.687 z m 9.179,7.492 c -0.437,-0.551 -0.804,-1.195 -1.109,-1.934 -0.301,-0.738 -0.449,-1.5 -0.449,-2.293 0,-0.695 0.109,-1.363 0.336,-2.004 0.265,-0.742 0.672,-1.48 1.222,-2.214 h 0.567 c -0.356,0.609 -0.59,1.043 -0.703,1.304 -0.18,0.407 -0.321,0.828 -0.422,1.266 -0.125,0.547 -0.188,1.098 -0.188,1.652 0,1.41 0.438,2.817 1.313,4.223 z m 1.321,-7.492 v -0.758 h 4.172 v 0.613 c -0.41,0.438 -0.817,1.016 -1.219,1.742 -0.406,0.723 -0.715,1.465 -0.934,2.231 -0.16,0.539 -0.261,1.129 -0.304,1.769 h -0.813 c 0.008,-0.503 0.11,-1.117 0.297,-1.836 0.191,-0.718 0.465,-1.41 0.82,-2.074 0.356,-0.668 0.735,-1.23 1.137,-1.687 z m 5,0 v -0.758 h 4.172 v 0.613 c -0.41,0.438 -0.817,1.016 -1.219,1.742 -0.406,0.723 -0.715,1.465 -0.934,2.231 -0.16,0.539 -0.261,1.129 -0.304,1.769 h -0.813 c 0.008,-0.503 0.11,-1.117 0.297,-1.836 0.191,-0.718 0.465,-1.41 0.82,-2.074 0.356,-0.668 0.735,-1.23 1.137,-1.687 z m 5.39,5.597 v -0.898 h 0.903 v 0.898 z m 5.036,0 h -0.79 v -5.039 c -0.191,0.184 -0.441,0.364 -0.75,0.547 -0.308,0.18 -0.585,0.317 -0.832,0.406 v -0.765 c 0.442,-0.207 0.829,-0.457 1.161,-0.754 0.332,-0.297 0.566,-0.582 0.703,-0.863 h 0.508 z m 2.171,-4.894 c 0,-0.461 0.118,-0.852 0.348,-1.172 0.231,-0.324 0.567,-0.484 1.004,-0.484 0.406,0 0.742,0.144 1.004,0.433 0.266,0.289 0.398,0.711 0.398,1.274 0,0.543 -0.132,0.961 -0.402,1.257 -0.266,0.293 -0.598,0.442 -0.988,0.442 -0.391,0 -0.715,-0.145 -0.977,-0.434 -0.258,-0.293 -0.387,-0.73 -0.387,-1.316 z m 1.375,-1.109 c -0.195,0 -0.359,0.082 -0.488,0.253 -0.133,0.168 -0.195,0.481 -0.195,0.934 0,0.414 0.062,0.707 0.195,0.875 0.133,0.168 0.297,0.25 0.488,0.25 0.2,0 0.364,-0.082 0.497,-0.254 0.128,-0.168 0.195,-0.48 0.195,-0.93 0,-0.418 -0.067,-0.711 -0.199,-0.878 -0.133,-0.168 -0.297,-0.25 -0.493,-0.25 z m 0.004,6.242 3.524,-6.789 h 0.644 l -3.511,6.789 z m 2.786,-1.75 c 0,-0.461 0.117,-0.852 0.347,-1.176 0.235,-0.32 0.57,-0.481 1.012,-0.481 0.406,0 0.738,0.145 1.004,0.434 0.265,0.289 0.398,0.715 0.398,1.274 0,0.542 -0.133,0.964 -0.402,1.257 -0.27,0.293 -0.602,0.442 -0.996,0.442 -0.391,0 -0.715,-0.145 -0.973,-0.438 -0.258,-0.289 -0.39,-0.726 -0.39,-1.312 z m 1.382,-1.11 c -0.199,0 -0.367,0.086 -0.496,0.254 -0.129,0.172 -0.195,0.481 -0.195,0.938 0,0.41 0.066,0.699 0.199,0.867 0.129,0.172 0.293,0.258 0.488,0.258 0.2,0 0.368,-0.086 0.496,-0.258 0.133,-0.168 0.196,-0.481 0.196,-0.93 0,-0.418 -0.067,-0.707 -0.196,-0.879 -0.132,-0.168 -0.296,-0.25 -0.492,-0.25 z m 3.043,4.516 h -0.566 c 0.875,-1.406 1.312,-2.813 1.312,-4.223 0,-0.55 -0.062,-1.097 -0.187,-1.636 -0.102,-0.442 -0.242,-0.864 -0.418,-1.266 -0.117,-0.266 -0.352,-0.703 -0.707,-1.32 h 0.566 c 0.551,0.734 0.957,1.472 1.219,2.214 0.227,0.641 0.34,1.309 0.34,2.004 0,0.793 -0.152,1.555 -0.453,2.293 -0.305,0.739 -0.672,1.383 -1.106,1.934 z"
         style="fill:#202124;fill-opacity:1;fill-rule:nonzero;stroke:#ffffff;stroke-width:2.25;stroke-linecap:butt;stroke-linejoin:miter;stroke-miterlimit:4;stroke-dasharray:none;stroke-opacity:1"
         id="path5807" />
    </g>
    <text
       xml:space="preserve"
       style="font-variant:normal;font-size:9px;font-family:CairoFont-2;-inkscape-font-specification:CairoFont-2-0;writing-mode:lr-tb;fill:#202124;fill-opacity:1;fill-rule:nonzero;stroke:none"
       id="text5811"
       x="455.5"
       y="119.15"><tspan
         x="455.5 460.504 465.508 468.00101 470.99799 476.00201 481.00601 483.49899 488.47601 496.47699"
         y="119.15"
         sodipodi:role="line"
         id="tspan5809">37 (77.1%)</tspan></text>
    <g
       id="g5813">
      <path
         d="m 335.531,155.891 v 0.757 h -4.258 c -0.007,-0.187 0.024,-0.371 0.09,-0.546 0.11,-0.29 0.285,-0.579 0.524,-0.86 0.238,-0.281 0.582,-0.605 1.035,-0.972 0.699,-0.575 1.172,-1.032 1.418,-1.368 0.246,-0.336 0.371,-0.652 0.371,-0.949 0,-0.312 -0.113,-0.578 -0.34,-0.793 -0.223,-0.215 -0.516,-0.324 -0.875,-0.324 -0.379,0 -0.684,0.113 -0.914,0.344 -0.23,0.226 -0.344,0.543 -0.348,0.949 l -0.812,-0.086 c 0.055,-0.605 0.266,-1.066 0.629,-1.387 0.363,-0.316 0.851,-0.476 1.465,-0.476 0.617,0 1.105,0.172 1.464,0.515 0.364,0.344 0.543,0.77 0.543,1.274 0,0.258 -0.054,0.511 -0.16,0.761 -0.105,0.25 -0.281,0.512 -0.523,0.786 -0.246,0.277 -0.652,0.656 -1.223,1.136 -0.472,0.399 -0.777,0.668 -0.914,0.809 -0.133,0.141 -0.242,0.285 -0.332,0.43 z m 0.844,-2.418 c 0,-0.762 0.078,-1.375 0.234,-1.84 0.157,-0.465 0.391,-0.821 0.7,-1.074 0.308,-0.25 0.695,-0.379 1.164,-0.379 0.347,0 0.648,0.07 0.91,0.211 0.262,0.136 0.476,0.339 0.648,0.601 0.168,0.262 0.301,0.582 0.399,0.957 0.097,0.379 0.144,0.887 0.144,1.524 0,0.757 -0.078,1.367 -0.234,1.832 -0.152,0.461 -0.387,0.82 -0.695,1.074 -0.309,0.254 -0.7,0.383 -1.172,0.383 -0.621,0 -1.11,-0.223 -1.461,-0.668 -0.426,-0.539 -0.637,-1.41 -0.637,-2.621 z m 0.813,0 c 0,1.058 0.121,1.761 0.371,2.113 0.246,0.348 0.55,0.523 0.914,0.523 0.363,0 0.672,-0.175 0.918,-0.527 0.246,-0.352 0.371,-1.055 0.371,-2.109 0,-1.059 -0.125,-1.766 -0.371,-2.114 -0.246,-0.347 -0.555,-0.523 -0.926,-0.523 -0.363,0 -0.653,0.152 -0.871,0.461 -0.27,0.394 -0.406,1.117 -0.406,2.176 z m 8.417,5.07 c -0.437,-0.551 -0.804,-1.195 -1.109,-1.934 -0.301,-0.738 -0.453,-1.5 -0.453,-2.293 0,-0.695 0.113,-1.363 0.34,-2.004 0.265,-0.742 0.672,-1.48 1.222,-2.214 h 0.567 c -0.356,0.609 -0.59,1.043 -0.703,1.304 -0.18,0.407 -0.321,0.828 -0.422,1.266 -0.125,0.547 -0.188,1.098 -0.188,1.652 0,1.41 0.438,2.817 1.313,4.223 z m 3.805,-1.895 v -1.539 h -2.797 v -0.726 l 2.942,-4.176 h 0.644 v 4.176 h 0.871 v 0.726 h -0.871 v 1.539 z m 0,-2.265 v -2.906 l -2.019,2.906 z m 5.442,2.265 h -0.79 v -5.039 c -0.191,0.184 -0.441,0.364 -0.75,0.547 -0.308,0.18 -0.585,0.317 -0.832,0.406 v -0.765 c 0.442,-0.207 0.829,-0.457 1.161,-0.754 0.332,-0.297 0.566,-0.582 0.703,-0.863 h 0.508 z m 2.464,0 v -0.898 h 0.903 v 0.898 z m 2.11,-5.597 v -0.758 h 4.172 v 0.613 c -0.41,0.438 -0.817,1.016 -1.219,1.742 -0.406,0.723 -0.715,1.465 -0.934,2.231 -0.16,0.539 -0.261,1.129 -0.304,1.769 h -0.813 c 0.008,-0.503 0.11,-1.117 0.297,-1.836 0.191,-0.718 0.465,-1.41 0.82,-2.074 0.356,-0.668 0.735,-1.23 1.137,-1.687 z m 5.097,0.703 c 0,-0.461 0.118,-0.852 0.348,-1.172 0.231,-0.324 0.567,-0.484 1.004,-0.484 0.406,0 0.742,0.144 1.004,0.433 0.266,0.289 0.398,0.711 0.398,1.274 0,0.543 -0.132,0.961 -0.402,1.257 -0.266,0.293 -0.598,0.442 -0.988,0.442 -0.391,0 -0.715,-0.145 -0.977,-0.434 -0.258,-0.293 -0.387,-0.73 -0.387,-1.316 z m 1.375,-1.109 c -0.195,0 -0.359,0.082 -0.488,0.253 -0.133,0.168 -0.199,0.481 -0.199,0.934 0,0.414 0.066,0.707 0.199,0.875 0.133,0.168 0.293,0.25 0.488,0.25 0.2,0 0.364,-0.082 0.497,-0.254 0.128,-0.168 0.195,-0.48 0.195,-0.93 0,-0.418 -0.067,-0.711 -0.199,-0.878 -0.133,-0.168 -0.297,-0.25 -0.493,-0.25 z m 0.004,6.242 3.524,-6.789 h 0.644 l -3.511,6.789 z m 2.786,-1.75 c 0,-0.461 0.117,-0.852 0.347,-1.176 0.231,-0.32 0.57,-0.481 1.012,-0.481 0.406,0 0.738,0.145 1.004,0.434 0.265,0.289 0.398,0.715 0.398,1.274 0,0.542 -0.133,0.964 -0.402,1.257 -0.27,0.293 -0.602,0.442 -0.996,0.442 -0.391,0 -0.715,-0.145 -0.973,-0.438 -0.258,-0.289 -0.39,-0.726 -0.39,-1.312 z m 1.382,-1.11 c -0.199,0 -0.367,0.086 -0.496,0.254 -0.129,0.172 -0.195,0.481 -0.195,0.938 0,0.41 0.066,0.699 0.199,0.867 0.129,0.172 0.293,0.258 0.484,0.258 0.204,0 0.372,-0.086 0.5,-0.258 0.133,-0.168 0.196,-0.481 0.196,-0.93 0,-0.418 -0.067,-0.707 -0.196,-0.879 -0.132,-0.168 -0.296,-0.25 -0.492,-0.25 z m 3.043,4.516 h -0.57 c 0.879,-1.406 1.316,-2.813 1.316,-4.223 0,-0.55 -0.062,-1.097 -0.191,-1.636 -0.098,-0.442 -0.238,-0.864 -0.414,-1.266 -0.117,-0.266 -0.352,-0.703 -0.711,-1.32 h 0.57 c 0.551,0.734 0.957,1.472 1.219,2.214 0.227,0.641 0.34,1.309 0.34,2.004 0,0.793 -0.152,1.555 -0.453,2.293 -0.305,0.739 -0.672,1.383 -1.106,1.934 z"
         style="fill:#202124;fill-opacity:1;fill-rule:nonzero;stroke:#ffffff;stroke-width:2.25;stroke-linecap:butt;stroke-linejoin:miter;stroke-miterlimit:4;stroke-dasharray:none;stroke-opacity:1"
         id="path5815" />
    </g>
    <text
       xml:space="preserve"
       style="font-variant:normal;font-size:9px;font-family:CairoFont-2;-inkscape-font-specification:CairoFont-2-0;writing-mode:lr-tb;fill:#202124;fill-opacity:1;fill-rule:nonzero;stroke:none"
       id="text5819"
       x="331"
       y="156.64999"><tspan
         x="331 336.004 341.008 343.50101 346.49799 351.50201 356.50601 358.99899 363.97601 371.97699"
         y="156.64999"
         sodipodi:role="line"
         id="tspan5817">20 (41.7%)</tspan></text>
    <g
       id="g5821">
      <path
         d="m 195.602,194.898 h -0.79 v -5.039 c -0.191,0.184 -0.441,0.364 -0.75,0.547 -0.308,0.18 -0.585,0.317 -0.832,0.406 v -0.765 c 0.442,-0.207 0.829,-0.457 1.161,-0.754 0.332,-0.297 0.566,-0.582 0.703,-0.863 h 0.508 z m 6.253,1.895 c -0.437,-0.551 -0.804,-1.195 -1.109,-1.934 -0.301,-0.738 -0.449,-1.5 -0.449,-2.293 0,-0.695 0.109,-1.363 0.336,-2.004 0.265,-0.742 0.672,-1.48 1.222,-2.214 h 0.567 c -0.356,0.609 -0.59,1.043 -0.703,1.304 -0.18,0.407 -0.321,0.828 -0.422,1.266 -0.125,0.547 -0.188,1.098 -0.188,1.652 0,1.41 0.438,2.817 1.313,4.223 z m 5.426,-2.652 v 0.757 h -4.258 c -0.007,-0.187 0.024,-0.371 0.09,-0.546 0.11,-0.29 0.285,-0.579 0.524,-0.86 0.238,-0.281 0.582,-0.605 1.035,-0.972 0.699,-0.575 1.172,-1.032 1.418,-1.368 0.246,-0.336 0.371,-0.652 0.371,-0.949 0,-0.312 -0.113,-0.578 -0.34,-0.793 -0.223,-0.215 -0.516,-0.324 -0.875,-0.324 -0.379,0 -0.684,0.113 -0.914,0.344 -0.23,0.226 -0.344,0.543 -0.348,0.949 l -0.812,-0.086 c 0.055,-0.605 0.266,-1.066 0.629,-1.387 0.363,-0.316 0.851,-0.476 1.465,-0.476 0.617,0 1.105,0.172 1.464,0.515 0.364,0.344 0.543,0.77 0.543,1.274 0,0.258 -0.054,0.511 -0.16,0.761 -0.105,0.25 -0.281,0.512 -0.523,0.786 -0.246,0.277 -0.652,0.656 -1.223,1.136 -0.472,0.399 -0.777,0.668 -0.914,0.809 -0.133,0.141 -0.242,0.285 -0.332,0.43 z m 1.285,0.757 V 194 h 0.903 v 0.898 z m 5.036,0 h -0.79 v -5.039 c -0.191,0.184 -0.441,0.364 -0.75,0.547 -0.308,0.18 -0.585,0.317 -0.832,0.406 v -0.765 c 0.442,-0.207 0.829,-0.457 1.161,-0.754 0.332,-0.297 0.566,-0.582 0.703,-0.863 h 0.508 z m 2.171,-4.894 c 0,-0.461 0.118,-0.852 0.348,-1.172 0.231,-0.324 0.567,-0.484 1.004,-0.484 0.406,0 0.742,0.144 1.004,0.433 0.266,0.289 0.398,0.711 0.398,1.274 0,0.543 -0.132,0.961 -0.402,1.257 -0.266,0.293 -0.598,0.442 -0.988,0.442 -0.391,0 -0.715,-0.145 -0.977,-0.434 -0.258,-0.293 -0.387,-0.73 -0.387,-1.316 z m 1.375,-1.109 c -0.195,0 -0.359,0.082 -0.488,0.253 -0.133,0.168 -0.195,0.481 -0.195,0.934 0,0.414 0.062,0.707 0.195,0.875 0.133,0.168 0.297,0.25 0.488,0.25 0.2,0 0.364,-0.082 0.497,-0.254 0.128,-0.168 0.195,-0.48 0.195,-0.93 0,-0.418 -0.067,-0.711 -0.199,-0.878 -0.133,-0.168 -0.297,-0.25 -0.493,-0.25 z m 0.004,6.242 3.524,-6.789 h 0.644 l -3.511,6.789 z m 2.786,-1.75 c 0,-0.461 0.117,-0.852 0.347,-1.176 0.235,-0.32 0.57,-0.481 1.012,-0.481 0.406,0 0.738,0.145 1.004,0.434 0.265,0.289 0.398,0.715 0.398,1.274 0,0.542 -0.133,0.964 -0.402,1.257 -0.27,0.293 -0.602,0.442 -0.996,0.442 -0.391,0 -0.715,-0.145 -0.973,-0.438 -0.258,-0.289 -0.39,-0.726 -0.39,-1.312 z m 1.382,-1.11 c -0.199,0 -0.367,0.086 -0.496,0.254 -0.129,0.172 -0.195,0.481 -0.195,0.938 0,0.41 0.066,0.699 0.199,0.867 0.129,0.172 0.293,0.258 0.488,0.258 0.2,0 0.368,-0.086 0.496,-0.258 0.133,-0.168 0.196,-0.481 0.196,-0.93 0,-0.418 -0.067,-0.707 -0.196,-0.879 -0.132,-0.168 -0.296,-0.25 -0.492,-0.25 z m 3.043,4.516 h -0.566 c 0.875,-1.406 1.312,-2.813 1.312,-4.223 0,-0.55 -0.062,-1.097 -0.187,-1.636 -0.102,-0.442 -0.242,-0.864 -0.418,-1.266 -0.117,-0.266 -0.352,-0.703 -0.707,-1.32 h 0.566 c 0.551,0.734 0.957,1.472 1.219,2.214 0.227,0.641 0.34,1.309 0.34,2.004 0,0.793 -0.152,1.555 -0.453,2.293 -0.305,0.739 -0.672,1.383 -1.106,1.934 z"
         style="fill:#202124;fill-opacity:1;fill-rule:nonzero;stroke:#ffffff;stroke-width:2.25;stroke-linecap:butt;stroke-linejoin:miter;stroke-miterlimit:4;stroke-dasharray:none;stroke-opacity:1"
         id="path5823" />
    </g>
    <text
       xml:space="preserve"
       style="font-variant:normal;font-size:9px;font-family:CairoFont-2;-inkscape-font-specification:CairoFont-2-0;writing-mode:lr-tb;fill:#202124;fill-opacity:1;fill-rule:nonzero;stroke:none"
       id="text5827"
       x="192.25"
       y="194.89999"><tspan
         x="192.25 197.254 199.74699 202.744 207.748 210.241 215.245 223.246"
         y="194.89999"
         sodipodi:role="line"
         id="tspan5825">1 (2.1%)</tspan></text>
    <g
       id="g5829">
      <path
         d="m 195.602,233.148 h -0.79 v -5.039 c -0.191,0.184 -0.441,0.364 -0.75,0.547 -0.308,0.18 -0.585,0.317 -0.832,0.406 v -0.765 c 0.442,-0.207 0.829,-0.457 1.161,-0.754 0.332,-0.297 0.566,-0.582 0.703,-0.863 h 0.508 z m 6.253,1.895 c -0.437,-0.551 -0.804,-1.195 -1.109,-1.934 -0.301,-0.738 -0.449,-1.5 -0.449,-2.293 0,-0.695 0.109,-1.363 0.336,-2.004 0.265,-0.742 0.672,-1.48 1.222,-2.214 h 0.567 c -0.356,0.609 -0.59,1.043 -0.703,1.304 -0.18,0.407 -0.321,0.828 -0.422,1.266 -0.125,0.547 -0.188,1.098 -0.188,1.652 0,1.41 0.438,2.817 1.313,4.223 z m 5.426,-2.652 v 0.757 h -4.258 c -0.007,-0.187 0.024,-0.371 0.09,-0.546 0.11,-0.29 0.285,-0.579 0.524,-0.86 0.238,-0.281 0.582,-0.605 1.035,-0.972 0.699,-0.575 1.172,-1.032 1.418,-1.368 0.246,-0.336 0.371,-0.652 0.371,-0.949 0,-0.312 -0.113,-0.578 -0.34,-0.793 -0.223,-0.215 -0.516,-0.324 -0.875,-0.324 -0.379,0 -0.684,0.113 -0.914,0.344 -0.23,0.226 -0.344,0.543 -0.348,0.949 l -0.812,-0.086 c 0.055,-0.605 0.266,-1.066 0.629,-1.387 0.363,-0.316 0.851,-0.476 1.465,-0.476 0.617,0 1.105,0.172 1.464,0.515 0.364,0.344 0.543,0.77 0.543,1.274 0,0.258 -0.054,0.511 -0.16,0.761 -0.105,0.25 -0.281,0.512 -0.523,0.786 -0.246,0.277 -0.652,0.656 -1.223,1.136 -0.472,0.399 -0.777,0.668 -0.914,0.809 -0.133,0.141 -0.242,0.285 -0.332,0.43 z m 1.285,0.757 v -0.898 h 0.903 v 0.898 z m 5.036,0 h -0.79 v -5.039 c -0.191,0.184 -0.441,0.364 -0.75,0.547 -0.308,0.18 -0.585,0.317 -0.832,0.406 v -0.765 c 0.442,-0.207 0.829,-0.457 1.161,-0.754 0.332,-0.297 0.566,-0.582 0.703,-0.863 h 0.508 z m 2.171,-4.894 c 0,-0.461 0.118,-0.852 0.348,-1.172 0.231,-0.324 0.567,-0.484 1.004,-0.484 0.406,0 0.742,0.144 1.004,0.433 0.266,0.289 0.398,0.711 0.398,1.274 0,0.543 -0.132,0.961 -0.402,1.257 -0.266,0.293 -0.598,0.442 -0.988,0.442 -0.391,0 -0.715,-0.145 -0.977,-0.434 -0.258,-0.293 -0.387,-0.73 -0.387,-1.316 z m 1.375,-1.109 c -0.195,0 -0.359,0.082 -0.488,0.253 -0.133,0.168 -0.195,0.481 -0.195,0.934 0,0.414 0.062,0.707 0.195,0.875 0.133,0.168 0.297,0.25 0.488,0.25 0.2,0 0.364,-0.082 0.497,-0.254 0.128,-0.168 0.195,-0.48 0.195,-0.93 0,-0.418 -0.067,-0.711 -0.199,-0.878 -0.133,-0.168 -0.297,-0.25 -0.493,-0.25 z m 0.004,6.242 3.524,-6.789 h 0.644 l -3.511,6.789 z m 2.786,-1.75 c 0,-0.461 0.117,-0.852 0.347,-1.176 0.235,-0.32 0.57,-0.481 1.012,-0.481 0.406,0 0.738,0.145 1.004,0.434 0.265,0.289 0.398,0.715 0.398,1.274 0,0.542 -0.133,0.964 -0.402,1.257 -0.27,0.293 -0.602,0.442 -0.996,0.442 -0.391,0 -0.715,-0.145 -0.973,-0.438 -0.258,-0.289 -0.39,-0.726 -0.39,-1.312 z m 1.382,-1.11 c -0.199,0 -0.367,0.086 -0.496,0.254 -0.129,0.172 -0.195,0.481 -0.195,0.938 0,0.41 0.066,0.699 0.199,0.867 0.129,0.172 0.293,0.258 0.488,0.258 0.2,0 0.368,-0.086 0.496,-0.258 0.133,-0.168 0.196,-0.481 0.196,-0.93 0,-0.418 -0.067,-0.707 -0.196,-0.879 -0.132,-0.168 -0.296,-0.25 -0.492,-0.25 z m 3.043,4.516 h -0.566 c 0.875,-1.406 1.312,-2.813 1.312,-4.223 0,-0.55 -0.062,-1.097 -0.187,-1.636 -0.102,-0.442 -0.242,-0.864 -0.418,-1.266 -0.117,-0.266 -0.352,-0.703 -0.707,-1.32 h 0.566 c 0.551,0.734 0.957,1.472 1.219,2.214 0.227,0.641 0.34,1.309 0.34,2.004 0,0.793 -0.152,1.555 -0.453,2.293 -0.305,0.739 -0.672,1.383 -1.106,1.934 z"
         style="fill:#202124;fill-opacity:1;fill-rule:nonzero;stroke:#ffffff;stroke-width:2.25;stroke-linecap:butt;stroke-linejoin:miter;stroke-miterlimit:4;stroke-dasharray:none;stroke-opacity:1"
         id="path5831" />
    </g>
    <text
       xml:space="preserve"
       style="font-variant:normal;font-size:9px;font-family:CairoFont-2;-inkscape-font-specification:CairoFont-2-0;writing-mode:lr-tb;fill:#202124;fill-opacity:1;fill-rule:nonzero;stroke:none"
       id="text5835"
       x="192.25"
       y="233.14999"><tspan
         x="192.25 197.254 199.74699 202.744 207.748 210.241 215.245 223.246"
         y="233.14999"
         sodipodi:role="line"
         id="tspan5833">1 (2.1%)</tspan></text>
  </g>
</svg>
