<?xml version="1.0" encoding="UTF-8" standalone="no"?>
<!-- Created with Inkscape (http://www.inkscape.org/) -->

<svg
   version="1.1"
   id="svg4819"
   width="601.7345"
   height="329.98175"
   viewBox="0 0 601.7345 329.98174"
   sodipodi:docname="cocotb user survey 2023.pdf"
   xmlns:inkscape="http://www.inkscape.org/namespaces/inkscape"
   xmlns:sodipodi="http://sodipodi.sourceforge.net/DTD/sodipodi-0.dtd"
   xmlns="http://www.w3.org/2000/svg"
   xmlns:svg="http://www.w3.org/2000/svg">
  <defs
     id="defs4823">
    <clipPath
       clipPathUnits="userSpaceOnUse"
       id="clipPath6853">
      <path
         d="M 62.699,355.5 H 514 v 180 H 62.699 Z"
         id="path6851" />
    </clipPath>
    <clipPath
       clipPathUnits="userSpaceOnUse"
       id="clipPath6863">
      <path
         d="M 175,355.5 H 470 V 509 H 175 Z"
         id="path6861" />
    </clipPath>
    <clipPath
       clipPathUnits="userSpaceOnUse"
       id="clipPath6875">
      <path
         d="M 175.75,355.5 H 177 v 153 h -1.25 z"
         id="path6873" />
    </clipPath>
    <clipPath
       clipPathUnits="userSpaceOnUse"
       id="clipPath6885">
      <path
         d="m 273,355.5 h 1 v 153 h -1 z"
         id="path6883" />
    </clipPath>
    <clipPath
       clipPathUnits="userSpaceOnUse"
       id="clipPath6895">
      <path
         d="m 370,355.5 h 2 v 153 h -2 z"
         id="path6893" />
    </clipPath>
    <clipPath
       clipPathUnits="userSpaceOnUse"
       id="clipPath6905">
      <path
         d="m 468,355.5 h 1 v 153 h -1 z"
         id="path6903" />
    </clipPath>
    <clipPath
       clipPathUnits="userSpaceOnUse"
       id="clipPath6915">
      <path
         d="m 224,355.5 h 2 v 153 h -2 z"
         id="path6913" />
    </clipPath>
    <clipPath
       clipPathUnits="userSpaceOnUse"
       id="clipPath6925">
      <path
         d="m 322,355.5 h 1 v 153 h -1 z"
         id="path6923" />
    </clipPath>
    <clipPath
       clipPathUnits="userSpaceOnUse"
       id="clipPath6935">
      <path
         d="m 419,355.5 h 2 v 153 h -2 z"
         id="path6933" />
    </clipPath>
    <clipPath
       clipPathUnits="userSpaceOnUse"
       id="clipPath6971">
      <path
         d="M 175.75,355.5 H 177 v 153 h -1.25 z"
         id="path6969" />
    </clipPath>
  </defs>
  <sodipodi:namedview
     id="namedview4821"
     pagecolor="#ffffff"
     bordercolor="#666666"
     borderopacity="1.0"
     inkscape:showpageshadow="2"
     inkscape:pageopacity="0.0"
     inkscape:pagecheckerboard="0"
     inkscape:deskcolor="#d1d1d1"
     showgrid="false" />
  <g
     id="g6545"
     inkscape:groupmode="layer"
     inkscape:label="Page 3"
     transform="matrix(1.3333333,0,0,1.3333333,-83.5987,-384.0182)">
    <text
       xml:space="preserve"
       style="font-variant:normal;font-size:12px;font-family:CairoFont-1;-inkscape-font-specification:CairoFont-1-0;writing-mode:lr-tb;fill:#18191c;fill-opacity:1;fill-rule:nonzero;stroke:none"
       id="text6603"
       x="62.700001"
       y="296.75"><tspan
         x="62.700001 73.5 80.256004 83.304001 89.736 96.492004 99.612 106.608 110.676 117.42001 123.924 128.136 131.256 135.32401 141.828 148.15201 152.22 155.34 162 168.76801 175.668 178.78799 184.668 191.172 195.384 198.43199 202.752 205.8 212.23199 218.90399 222.95999 226.02 233.01599 239.784 242.90399 249.564 256.452 263.34 267.396 274.41602 281.07602 287.508 294.26401 300.76801 307.104 310.21201 317.12399 324.12003 327.22803 332.96402 339.96002 346.72803 351.828 357.56403 364.56 371.31601 375.52802 378.63602 385.06802 392.06403 402.72 409.608 416.28 423.048"
         y="296.75"
         sodipodi:role="line"
         id="tspan6599">Which other test and verification approaches do you/your company</tspan><tspan
         x="62.700001 69.456001 75.792 82.296005"
         y="314.75"
         sodipodi:role="line"
         id="tspan6601">use?</tspan></text>
    <text
       xml:space="preserve"
       style="font-variant:normal;font-size:9px;font-family:CairoFont-1;-inkscape-font-specification:CairoFont-1-0;writing-mode:lr-tb;fill:#18191c;fill-opacity:1;fill-rule:nonzero;stroke:none"
       id="text6607"
       x="62.700001"
       y="334.5"><tspan
         x="62.700001 67.973999 73.238998 75.687004 78.873001 83.849998 88.709999 93.984001 99.339005 104.523 109.383 114.36"
         y="334.5"
         sodipodi:role="line"
         id="tspan6605">43 responses</tspan></text>
    <g
       id="g6847">
      <g
         id="g6849"
         clip-path="url(#clipPath6853)">
        <path
           d="M 62.5,355.5 H 514 v 180 H 62.5 Z"
           style="fill:#ffffff;fill-opacity:1;fill-rule:nonzero;stroke:none"
           id="path6855" />
      </g>
    </g>
    <g
       id="g6857">
      <g
         id="g6859"
         clip-path="url(#clipPath6863)">
        <g
           id="g6865">
          <path
             d="M 175.75,355.5 H 469 v 153 H 175.75 Z"
             style="fill:none;stroke:#eeeeee;stroke-width:0.75;stroke-linecap:butt;stroke-linejoin:miter;stroke-miterlimit:4;stroke-dasharray:none;stroke-opacity:1"
             id="path6867" />
        </g>
      </g>
    </g>
    <g
       id="g6869">
      <g
         id="g6871"
         clip-path="url(#clipPath6875)">
        <path
           d="m 175.75,355.5 h 0.75 v 153 h -0.75 z"
           style="fill:#eeeeee;fill-opacity:1;fill-rule:nonzero;stroke:none"
           id="path6877" />
      </g>
    </g>
    <g
       id="g6879">
      <g
         id="g6881"
         clip-path="url(#clipPath6885)">
        <path
           d="M 273.25,355.5 H 274 v 153 h -0.75 z"
           style="fill:#eeeeee;fill-opacity:1;fill-rule:nonzero;stroke:none"
           id="path6887" />
      </g>
    </g>
    <g
       id="g6889">
      <g
         id="g6891"
         clip-path="url(#clipPath6895)">
        <path
           d="m 370.75,355.5 h 0.75 v 153 h -0.75 z"
           style="fill:#eeeeee;fill-opacity:1;fill-rule:nonzero;stroke:none"
           id="path6897" />
      </g>
    </g>
    <g
       id="g6899">
      <g
         id="g6901"
         clip-path="url(#clipPath6905)">
        <path
           d="M 468.25,355.5 H 469 v 153 h -0.75 z"
           style="fill:#eeeeee;fill-opacity:1;fill-rule:nonzero;stroke:none"
           id="path6907" />
      </g>
    </g>
    <g
       id="g6909">
      <g
         id="g6911"
         clip-path="url(#clipPath6915)">
        <path
           d="m 224.5,355.5 h 0.75 v 153 h -0.75 z"
           style="fill:#f8f8f8;fill-opacity:1;fill-rule:nonzero;stroke:none"
           id="path6917" />
      </g>
    </g>
    <g
       id="g6919">
      <g
         id="g6921"
         clip-path="url(#clipPath6925)">
        <path
           d="m 322,355.5 h 0.75 v 153 H 322 Z"
           style="fill:#f8f8f8;fill-opacity:1;fill-rule:nonzero;stroke:none"
           id="path6927" />
      </g>
    </g>
    <g
       id="g6929">
      <g
         id="g6931"
         clip-path="url(#clipPath6935)">
        <path
           d="m 419.5,355.5 h 0.75 v 153 h -0.75 z"
           style="fill:#f8f8f8;fill-opacity:1;fill-rule:nonzero;stroke:none"
           id="path6937" />
      </g>
    </g>
    <g
       id="g6939">
      <path
         d="m 176.5,358.5 h 204 v 7.5 h -204 z"
         style="fill:#3776ab;fill-opacity:1;fill-rule:nonzero;stroke:none"
         id="path6941" />
      <path
         d="m 176.5,371.25 h 38.25 v 7.5 H 176.5 Z"
         style="fill:#3776ab;fill-opacity:1;fill-rule:nonzero;stroke:none"
         id="path6943" />
      <path
         d="m 176.5,384 h 116.25 v 7.5 H 176.5 Z"
         style="fill:#3776ab;fill-opacity:1;fill-rule:nonzero;stroke:none"
         id="path6945" />
      <path
         d="m 176.5,396 h 18.75 v 8.25 H 176.5 Z"
         style="fill:#3776ab;fill-opacity:1;fill-rule:nonzero;stroke:none"
         id="path6947" />
      <path
         d="m 176.5,408.75 h 96.75 V 417 H 176.5 Z"
         style="fill:#3776ab;fill-opacity:1;fill-rule:nonzero;stroke:none"
         id="path6949" />
      <path
         d="m 176.5,421.5 h 126 v 8.25 h -126 z"
         style="fill:#3776ab;fill-opacity:1;fill-rule:nonzero;stroke:none"
         id="path6951" />
      <path
         d="m 176.5,434.25 h 135.75 v 8.25 H 176.5 Z"
         style="fill:#3776ab;fill-opacity:1;fill-rule:nonzero;stroke:none"
         id="path6953" />
      <path
         d="m 176.5,447 h 9 v 8.25 h -9 z"
         style="fill:#3776ab;fill-opacity:1;fill-rule:nonzero;stroke:none"
         id="path6955" />
      <path
         d="m 176.5,459.75 h 9 V 468 h -9 z"
         style="fill:#3776ab;fill-opacity:1;fill-rule:nonzero;stroke:none"
         id="path6957" />
      <path
         d="m 176.5,472.5 h 9 v 7.5 h -9 z"
         style="fill:#3776ab;fill-opacity:1;fill-rule:nonzero;stroke:none"
         id="path6959" />
      <path
         d="m 176.5,485.25 h 9 v 7.5 h -9 z"
         style="fill:#3776ab;fill-opacity:1;fill-rule:nonzero;stroke:none"
         id="path6961" />
      <path
         d="m 176.5,498 h 9 v 7.5 h -9 z"
         style="fill:#3776ab;fill-opacity:1;fill-rule:nonzero;stroke:none"
         id="path6963" />
    </g>
    <g
       id="g6965">
      <g
         id="g6967"
         clip-path="url(#clipPath6971)">
        <path
           d="m 175.75,355.5 h 0.75 v 153 h -0.75 z"
           style="fill:#333333;fill-opacity:1;fill-rule:nonzero;stroke:none"
           id="path6973" />
      </g>
    </g>
    <g
       id="g6975">
      <path
         d="m 380.5,362.25 h 9 V 363 h -9 z"
         style="fill:#999999;fill-opacity:1;fill-rule:nonzero;stroke:none"
         id="path6977" />
      <path
         d="m 214.75,375 h 9 v 0.75 h -9 z"
         style="fill:#999999;fill-opacity:1;fill-rule:nonzero;stroke:none"
         id="path6979" />
      <path
         d="m 292.75,387.75 h 9 v 0.75 h -9 z"
         style="fill:#999999;fill-opacity:1;fill-rule:nonzero;stroke:none"
         id="path6981" />
      <path
         d="m 195.25,399.75 h 9 v 0.75 h -9 z"
         style="fill:#999999;fill-opacity:1;fill-rule:nonzero;stroke:none"
         id="path6983" />
      <path
         d="m 273.25,412.5 h 9 v 0.75 h -9 z"
         style="fill:#999999;fill-opacity:1;fill-rule:nonzero;stroke:none"
         id="path6985" />
      <path
         d="m 302.5,425.25 h 9 V 426 h -9 z"
         style="fill:#999999;fill-opacity:1;fill-rule:nonzero;stroke:none"
         id="path6987" />
      <path
         d="m 312.25,438 h 9 v 0.75 h -9 z"
         style="fill:#999999;fill-opacity:1;fill-rule:nonzero;stroke:none"
         id="path6989" />
      <path
         d="m 185.5,450.75 h 9 v 0.75 h -9 z"
         style="fill:#999999;fill-opacity:1;fill-rule:nonzero;stroke:none"
         id="path6991" />
      <path
         d="m 185.5,463.5 h 9 v 0.75 h -9 z"
         style="fill:#999999;fill-opacity:1;fill-rule:nonzero;stroke:none"
         id="path6993" />
      <path
         d="m 185.5,476.25 h 9 V 477 h -9 z"
         style="fill:#999999;fill-opacity:1;fill-rule:nonzero;stroke:none"
         id="path6995" />
      <path
         d="m 185.5,489 h 9 v 0.75 h -9 z"
         style="fill:#999999;fill-opacity:1;fill-rule:nonzero;stroke:none"
         id="path6997" />
      <path
         d="m 185.5,501.75 h 9 v 0.75 h -9 z"
         style="fill:#999999;fill-opacity:1;fill-rule:nonzero;stroke:none"
         id="path6999" />
      <text
         xml:space="preserve"
         transform="translate(173.625,521.39996)"
         style="font-variant:normal;font-size:9px;font-family:CairoFont-2;-inkscape-font-specification:CairoFont-2-0;writing-mode:lr-tb;fill:#444444;fill-opacity:1;fill-rule:nonzero;stroke:none"
         id="text7003"><tspan
           x="0 94.995003 99.999001 192.5 197.504 289.99701 295.00101"
           y="0"
           sodipodi:role="line"
           id="tspan7001">0102030</tspan></text>
      <text
         xml:space="preserve"
         transform="translate(94.237495,365.36874)"
         style="font-variant:normal;font-size:9px;font-family:CairoFont-2;-inkscape-font-specification:CairoFont-2-0;writing-mode:lr-tb;fill:#222222;fill-opacity:1;fill-rule:nonzero;stroke:none"
         id="text7029"><tspan
           x="0 5.994 10.494 14.994 17.487 22.490999 29.988001 35.469002 40.473 43.470001 45.467999 47.466 52.470001 57.473999 59.966999 66.464996 72.459"
           y="0"
           sodipodi:role="line"
           id="tspan7005">SystemVerilog UVM</tspan><tspan
           x="47.512505 54.505505 60.499504 66.4935 72.487503"
           y="12.687498"
           sodipodi:role="line"
           id="tspan7007">OSVVM</tspan><tspan
           x="56.012501 62.0065 68.504501 75.002502"
           y="25.374996"
           sodipodi:role="line"
           id="tspan7009">VHDL</tspan><tspan
           x="28.512495 33.516495 36.009495 39.006496 45.000496 50.004494 55.008495 59.508495 67.005493 72.009499 76.986496"
           y="38.062492"
           sodipodi:role="line"
           id="tspan7011">e (Specman)</tspan><tspan
           x="54.012493 60.51049 63.00349 69.501495 74.748489"
           y="50.749992"
           sodipodi:role="line"
           id="tspan7013">C/C++</tspan><tspan
           x="-29.987505 -23.993505 -19.493505 -17.000505 -11.996505 -6.9925051 -1.988505 1.008495 6.012495 10.989495 15.489495 20.493496 25.497496 27.990496 32.490494 37.494495 40.491493 42.489494 44.982494 46.980495 51.480495 56.484493 58.977493 60.975494 65.952492 70.956497"
           y="63.437489"
           sodipodi:role="line"
           id="tspan7015">Python-based verification…</tspan><tspan
           x="9.512496 12.005496 17.009497 20.006496 27.503496 32.507496 34.505497 36.998497 41.498497 46.502495 49.499496 51.497498 53.990498 55.988495 60.488495 65.492493 67.985497 69.983498 74.987495"
           y="76.124985"
           sodipodi:role="line"
           id="tspan7017">formal verification</tspan><tspan
           x="-26.487503 -19.989504 -14.985504 -10.485504 -7.9925041 -2.9885039 4.5084958 7.0014958 9.9984961 15.992496 22.490496 28.988497 33.992496 36.485497 41.489494 44.486496 46.484497 50.984497 55.988495 58.985497 63.485497 65.978493 70.955498"
           y="88.812485"
           sodipodi:role="line"
           id="tspan7019">Custom (VHDL drivers a…</tspan><tspan
           x="-30.487509 -23.98951 -18.98551 -16.49251 -11.488509 -8.9955091 -3.991509 1.012491 3.4874909 5.9804912 8.4734907 14.971491 19.975491 22.468491 26.968491 29.461491 32.458492 37.46249 42.466492 47.47049 49.468491 53.968491 56.461491 60.961491 65.965492 70.94249"
           y="101.49998"
           sodipodi:role="line"
           id="tspan7021">No other, we strongly sup…</tspan><tspan
           x="19.012491 26.509491 31.513491 34.006493 36.00449 41.008492 46.012489 48.505489 50.998489 56.002491 58.999493 61.492493 67.990494 73.984489"
           y="114.18748"
           sodipodi:role="line"
           id="tspan7023">Matlab for DSP</tspan><tspan
           x="-25.487505 -18.989506 -13.985505 -11.492505 -6.4885049 -1.4845051 1.512495 4.0054951 6.0034952 10.503495 15.507495 17.505495 22.482494 25.479494 27.972494 32.472496 37.476494 40.473495 42.471497 44.964497 46.962494 51.462494 56.466496 58.959496 60.957497 65.961494 70.965492"
           y="126.87498"
           sodipodi:role="line"
           id="tspan7025">No particular verification…</tspan><tspan
           x="-21.012506 -15.018507 -13.020507 -5.5235071 -0.51950699 1.478493 6.4824929 8.9754934 14.456493 19.460493 22.457493 24.455494 26.453493 31.457493 36.461494 38.954494 43.445492 48.449493 52.949493 55.442493 60.446491 65.450493 70.454491 74.954491"
           y="139.56248"
           sodipodi:role="line"
           id="tspan7027">Simple Verilog Testbench</tspan></text>
      <path
         d="m 394.031,364.641 v 0.757 h -4.258 c -0.007,-0.187 0.024,-0.371 0.09,-0.546 0.11,-0.29 0.285,-0.579 0.524,-0.86 0.238,-0.281 0.582,-0.605 1.035,-0.972 0.699,-0.575 1.172,-1.032 1.418,-1.368 0.246,-0.336 0.371,-0.652 0.371,-0.949 0,-0.312 -0.113,-0.578 -0.34,-0.793 -0.223,-0.215 -0.516,-0.324 -0.875,-0.324 -0.379,0 -0.684,0.113 -0.914,0.344 -0.227,0.226 -0.344,0.543 -0.348,0.949 l -0.812,-0.086 c 0.055,-0.605 0.266,-1.066 0.629,-1.387 0.363,-0.316 0.851,-0.476 1.465,-0.476 0.617,0 1.105,0.172 1.464,0.515 0.364,0.344 0.543,0.77 0.543,1.274 0,0.258 -0.054,0.511 -0.16,0.761 -0.105,0.25 -0.281,0.512 -0.523,0.786 -0.246,0.277 -0.652,0.656 -1.219,1.136 -0.476,0.399 -0.781,0.668 -0.914,0.809 -0.137,0.141 -0.246,0.285 -0.336,0.43 z m 3.821,0.757 h -0.79 v -5.039 c -0.191,0.184 -0.441,0.364 -0.75,0.547 -0.308,0.18 -0.585,0.317 -0.832,0.406 v -0.765 c 0.442,-0.207 0.829,-0.457 1.161,-0.754 0.332,-0.297 0.566,-0.582 0.703,-0.863 h 0.508 z m 6.253,1.895 c -0.437,-0.551 -0.804,-1.195 -1.109,-1.934 -0.301,-0.738 -0.453,-1.5 -0.449,-2.293 -0.004,-0.695 0.109,-1.363 0.336,-2.004 0.265,-0.742 0.672,-1.48 1.222,-2.214 h 0.567 c -0.356,0.609 -0.59,1.043 -0.703,1.304 -0.18,0.407 -0.321,0.828 -0.422,1.266 -0.125,0.547 -0.188,1.098 -0.188,1.652 0,1.41 0.438,2.817 1.313,4.223 z m 3.805,-1.895 v -1.539 h -2.797 v -0.726 l 2.942,-4.176 h 0.644 v 4.176 h 0.871 v 0.726 h -0.871 v 1.539 z m 0,-2.265 v -2.906 l -2.019,2.906 z m 3.68,-1.227 c -0.328,-0.121 -0.57,-0.293 -0.727,-0.515 -0.16,-0.223 -0.238,-0.489 -0.238,-0.797 0,-0.469 0.168,-0.864 0.504,-1.184 0.336,-0.32 0.785,-0.48 1.344,-0.48 0.562,0 1.015,0.164 1.359,0.492 0.344,0.324 0.516,0.723 0.516,1.191 0,0.301 -0.078,0.559 -0.239,0.782 -0.156,0.222 -0.394,0.39 -0.711,0.511 0.395,0.129 0.696,0.336 0.903,0.625 0.207,0.285 0.308,0.629 0.308,1.028 0,0.55 -0.195,1.015 -0.582,1.39 -0.39,0.375 -0.902,0.563 -1.539,0.563 -0.636,0 -1.148,-0.192 -1.539,-0.567 -0.39,-0.375 -0.586,-0.847 -0.586,-1.41 0,-0.418 0.11,-0.769 0.321,-1.051 0.211,-0.281 0.515,-0.476 0.906,-0.578 z m -0.156,-1.34 c 0,0.305 0.097,0.555 0.293,0.746 0.195,0.196 0.453,0.29 0.765,0.29 0.305,0 0.555,-0.094 0.75,-0.286 0.196,-0.191 0.293,-0.429 0.293,-0.707 0,-0.289 -0.101,-0.535 -0.305,-0.73 -0.199,-0.199 -0.449,-0.297 -0.746,-0.297 -0.304,0 -0.554,0.098 -0.754,0.289 -0.199,0.195 -0.296,0.426 -0.296,0.695 z m -0.254,2.977 c 0,0.223 0.05,0.441 0.16,0.652 0.105,0.211 0.265,0.375 0.476,0.493 0.211,0.113 0.438,0.171 0.68,0.171 0.379,0 0.692,-0.121 0.938,-0.363 0.246,-0.246 0.367,-0.555 0.367,-0.93 0,-0.378 -0.125,-0.695 -0.379,-0.945 -0.254,-0.246 -0.57,-0.371 -0.953,-0.371 -0.371,0 -0.68,0.121 -0.926,0.367 -0.242,0.246 -0.363,0.555 -0.363,0.926 z m 4.636,1.855 V 364.5 h 0.903 v 0.898 z m 3.274,-3.492 c -0.328,-0.121 -0.57,-0.293 -0.727,-0.515 -0.16,-0.223 -0.238,-0.489 -0.238,-0.797 0,-0.469 0.168,-0.864 0.504,-1.184 0.336,-0.32 0.785,-0.48 1.344,-0.48 0.562,0 1.015,0.164 1.359,0.492 0.344,0.324 0.516,0.723 0.516,1.191 0,0.301 -0.078,0.559 -0.239,0.782 -0.156,0.222 -0.394,0.39 -0.711,0.511 0.395,0.129 0.696,0.336 0.903,0.625 0.207,0.285 0.308,0.629 0.308,1.028 0,0.55 -0.195,1.015 -0.582,1.39 -0.39,0.375 -0.902,0.563 -1.539,0.563 -0.636,0 -1.148,-0.192 -1.539,-0.567 -0.39,-0.375 -0.586,-0.847 -0.586,-1.41 0,-0.418 0.11,-0.769 0.321,-1.051 0.211,-0.281 0.515,-0.476 0.906,-0.578 z m -0.156,-1.34 c 0,0.305 0.097,0.555 0.293,0.746 0.195,0.196 0.453,0.29 0.765,0.29 0.305,0 0.555,-0.094 0.75,-0.286 0.196,-0.191 0.293,-0.429 0.293,-0.707 0,-0.289 -0.101,-0.535 -0.305,-0.73 -0.199,-0.199 -0.449,-0.297 -0.746,-0.297 -0.304,0 -0.554,0.098 -0.754,0.289 -0.199,0.195 -0.296,0.426 -0.296,0.695 z m -0.254,2.977 c 0,0.223 0.05,0.441 0.16,0.652 0.105,0.211 0.265,0.375 0.476,0.493 0.211,0.113 0.438,0.171 0.68,0.171 0.379,0 0.692,-0.121 0.938,-0.363 0.246,-0.246 0.367,-0.555 0.367,-0.93 0,-0.378 -0.125,-0.695 -0.379,-0.945 -0.254,-0.246 -0.57,-0.371 -0.953,-0.371 -0.371,0 -0.68,0.121 -0.926,0.367 -0.242,0.246 -0.363,0.555 -0.363,0.926 z m 4.343,-3.039 c 0,-0.461 0.118,-0.852 0.348,-1.172 0.231,-0.324 0.567,-0.484 1.004,-0.484 0.406,0 0.742,0.144 1.004,0.433 0.266,0.289 0.398,0.711 0.398,1.274 0,0.543 -0.132,0.961 -0.402,1.257 -0.266,0.293 -0.598,0.442 -0.988,0.442 -0.391,0 -0.715,-0.145 -0.977,-0.434 -0.258,-0.293 -0.387,-0.73 -0.387,-1.316 z m 1.375,-1.109 c -0.195,0 -0.359,0.082 -0.488,0.253 -0.133,0.168 -0.195,0.481 -0.195,0.934 0,0.414 0.062,0.707 0.195,0.875 0.133,0.168 0.297,0.25 0.488,0.25 0.2,0 0.364,-0.082 0.497,-0.254 0.128,-0.168 0.195,-0.48 0.195,-0.93 0,-0.418 -0.067,-0.711 -0.199,-0.878 -0.133,-0.168 -0.297,-0.25 -0.493,-0.25 z m 0.004,6.242 3.524,-6.789 h 0.644 l -3.511,6.789 z m 2.786,-1.75 c 0,-0.461 0.117,-0.852 0.347,-1.176 0.235,-0.32 0.57,-0.481 1.012,-0.481 0.406,0 0.738,0.145 1.004,0.434 0.265,0.289 0.398,0.715 0.398,1.274 0,0.542 -0.133,0.964 -0.402,1.257 -0.27,0.293 -0.602,0.442 -0.996,0.442 -0.391,0 -0.715,-0.145 -0.973,-0.438 -0.258,-0.289 -0.39,-0.726 -0.39,-1.312 z m 1.382,-1.11 c -0.199,0 -0.367,0.086 -0.496,0.254 -0.129,0.172 -0.195,0.481 -0.195,0.938 0,0.41 0.066,0.699 0.199,0.867 0.129,0.172 0.293,0.258 0.488,0.258 0.2,0 0.368,-0.086 0.496,-0.258 0.133,-0.168 0.196,-0.481 0.196,-0.93 0,-0.418 -0.067,-0.707 -0.196,-0.879 -0.132,-0.168 -0.296,-0.25 -0.492,-0.25 z m 3.043,4.516 h -0.566 c 0.875,-1.406 1.312,-2.813 1.312,-4.223 0,-0.55 -0.062,-1.097 -0.187,-1.636 -0.102,-0.442 -0.242,-0.864 -0.418,-1.266 -0.117,-0.266 -0.352,-0.703 -0.707,-1.32 h 0.566 c 0.551,0.734 0.957,1.472 1.219,2.214 0.227,0.641 0.34,1.309 0.34,2.004 0,0.793 -0.152,1.555 -0.453,2.293 -0.305,0.739 -0.672,1.383 -1.106,1.934 z"
         style="fill:#202124;fill-opacity:1;fill-rule:nonzero;stroke:none"
         id="path7031" />
      <g
         id="g7033">
        <path
           d="m 394.031,364.641 v 0.757 h -4.258 c -0.007,-0.187 0.024,-0.371 0.09,-0.546 0.11,-0.29 0.285,-0.579 0.524,-0.86 0.238,-0.281 0.582,-0.605 1.035,-0.972 0.699,-0.575 1.172,-1.032 1.418,-1.368 0.246,-0.336 0.371,-0.652 0.371,-0.949 0,-0.312 -0.113,-0.578 -0.34,-0.793 -0.223,-0.215 -0.516,-0.324 -0.875,-0.324 -0.379,0 -0.684,0.113 -0.914,0.344 -0.227,0.226 -0.344,0.543 -0.348,0.949 l -0.812,-0.086 c 0.055,-0.605 0.266,-1.066 0.629,-1.387 0.363,-0.316 0.851,-0.476 1.465,-0.476 0.617,0 1.105,0.172 1.464,0.515 0.364,0.344 0.543,0.77 0.543,1.274 0,0.258 -0.054,0.511 -0.16,0.761 -0.105,0.25 -0.281,0.512 -0.523,0.786 -0.246,0.277 -0.652,0.656 -1.219,1.136 -0.476,0.399 -0.781,0.668 -0.914,0.809 -0.137,0.141 -0.246,0.285 -0.336,0.43 z m 3.821,0.757 h -0.79 v -5.039 c -0.191,0.184 -0.441,0.364 -0.75,0.547 -0.308,0.18 -0.585,0.317 -0.832,0.406 v -0.765 c 0.442,-0.207 0.829,-0.457 1.161,-0.754 0.332,-0.297 0.566,-0.582 0.703,-0.863 h 0.508 z m 6.253,1.895 c -0.437,-0.551 -0.804,-1.195 -1.109,-1.934 -0.301,-0.738 -0.453,-1.5 -0.449,-2.293 -0.004,-0.695 0.109,-1.363 0.336,-2.004 0.265,-0.742 0.672,-1.48 1.222,-2.214 h 0.567 c -0.356,0.609 -0.59,1.043 -0.703,1.304 -0.18,0.407 -0.321,0.828 -0.422,1.266 -0.125,0.547 -0.188,1.098 -0.188,1.652 0,1.41 0.438,2.817 1.313,4.223 z m 3.805,-1.895 v -1.539 h -2.797 v -0.726 l 2.942,-4.176 h 0.644 v 4.176 h 0.871 v 0.726 h -0.871 v 1.539 z m 0,-2.265 v -2.906 l -2.019,2.906 z m 3.68,-1.227 c -0.328,-0.121 -0.57,-0.293 -0.727,-0.515 -0.16,-0.223 -0.238,-0.489 -0.238,-0.797 0,-0.469 0.168,-0.864 0.504,-1.184 0.336,-0.32 0.785,-0.48 1.344,-0.48 0.562,0 1.015,0.164 1.359,0.492 0.344,0.324 0.516,0.723 0.516,1.191 0,0.301 -0.078,0.559 -0.239,0.782 -0.156,0.222 -0.394,0.39 -0.711,0.511 0.395,0.129 0.696,0.336 0.903,0.625 0.207,0.285 0.308,0.629 0.308,1.028 0,0.55 -0.195,1.015 -0.582,1.39 -0.39,0.375 -0.902,0.563 -1.539,0.563 -0.636,0 -1.148,-0.192 -1.539,-0.567 -0.39,-0.375 -0.586,-0.847 -0.586,-1.41 0,-0.418 0.11,-0.769 0.321,-1.051 0.211,-0.281 0.515,-0.476 0.906,-0.578 z m -0.156,-1.34 c 0,0.305 0.097,0.555 0.293,0.746 0.195,0.196 0.453,0.29 0.765,0.29 0.305,0 0.555,-0.094 0.75,-0.286 0.196,-0.191 0.293,-0.429 0.293,-0.707 0,-0.289 -0.101,-0.535 -0.305,-0.73 -0.199,-0.199 -0.449,-0.297 -0.746,-0.297 -0.304,0 -0.554,0.098 -0.754,0.289 -0.199,0.195 -0.296,0.426 -0.296,0.695 z m -0.254,2.977 c 0,0.223 0.05,0.441 0.16,0.652 0.105,0.211 0.265,0.375 0.476,0.493 0.211,0.113 0.438,0.171 0.68,0.171 0.379,0 0.692,-0.121 0.938,-0.363 0.246,-0.246 0.367,-0.555 0.367,-0.93 0,-0.378 -0.125,-0.695 -0.379,-0.945 -0.254,-0.246 -0.57,-0.371 -0.953,-0.371 -0.371,0 -0.68,0.121 -0.926,0.367 -0.242,0.246 -0.363,0.555 -0.363,0.926 z m 4.636,1.855 V 364.5 h 0.903 v 0.898 z m 3.274,-3.492 c -0.328,-0.121 -0.57,-0.293 -0.727,-0.515 -0.16,-0.223 -0.238,-0.489 -0.238,-0.797 0,-0.469 0.168,-0.864 0.504,-1.184 0.336,-0.32 0.785,-0.48 1.344,-0.48 0.562,0 1.015,0.164 1.359,0.492 0.344,0.324 0.516,0.723 0.516,1.191 0,0.301 -0.078,0.559 -0.239,0.782 -0.156,0.222 -0.394,0.39 -0.711,0.511 0.395,0.129 0.696,0.336 0.903,0.625 0.207,0.285 0.308,0.629 0.308,1.028 0,0.55 -0.195,1.015 -0.582,1.39 -0.39,0.375 -0.902,0.563 -1.539,0.563 -0.636,0 -1.148,-0.192 -1.539,-0.567 -0.39,-0.375 -0.586,-0.847 -0.586,-1.41 0,-0.418 0.11,-0.769 0.321,-1.051 0.211,-0.281 0.515,-0.476 0.906,-0.578 z m -0.156,-1.34 c 0,0.305 0.097,0.555 0.293,0.746 0.195,0.196 0.453,0.29 0.765,0.29 0.305,0 0.555,-0.094 0.75,-0.286 0.196,-0.191 0.293,-0.429 0.293,-0.707 0,-0.289 -0.101,-0.535 -0.305,-0.73 -0.199,-0.199 -0.449,-0.297 -0.746,-0.297 -0.304,0 -0.554,0.098 -0.754,0.289 -0.199,0.195 -0.296,0.426 -0.296,0.695 z m -0.254,2.977 c 0,0.223 0.05,0.441 0.16,0.652 0.105,0.211 0.265,0.375 0.476,0.493 0.211,0.113 0.438,0.171 0.68,0.171 0.379,0 0.692,-0.121 0.938,-0.363 0.246,-0.246 0.367,-0.555 0.367,-0.93 0,-0.378 -0.125,-0.695 -0.379,-0.945 -0.254,-0.246 -0.57,-0.371 -0.953,-0.371 -0.371,0 -0.68,0.121 -0.926,0.367 -0.242,0.246 -0.363,0.555 -0.363,0.926 z m 4.343,-3.039 c 0,-0.461 0.118,-0.852 0.348,-1.172 0.231,-0.324 0.567,-0.484 1.004,-0.484 0.406,0 0.742,0.144 1.004,0.433 0.266,0.289 0.398,0.711 0.398,1.274 0,0.543 -0.132,0.961 -0.402,1.257 -0.266,0.293 -0.598,0.442 -0.988,0.442 -0.391,0 -0.715,-0.145 -0.977,-0.434 -0.258,-0.293 -0.387,-0.73 -0.387,-1.316 z m 1.375,-1.109 c -0.195,0 -0.359,0.082 -0.488,0.253 -0.133,0.168 -0.195,0.481 -0.195,0.934 0,0.414 0.062,0.707 0.195,0.875 0.133,0.168 0.297,0.25 0.488,0.25 0.2,0 0.364,-0.082 0.497,-0.254 0.128,-0.168 0.195,-0.48 0.195,-0.93 0,-0.418 -0.067,-0.711 -0.199,-0.878 -0.133,-0.168 -0.297,-0.25 -0.493,-0.25 z m 0.004,6.242 3.524,-6.789 h 0.644 l -3.511,6.789 z m 2.786,-1.75 c 0,-0.461 0.117,-0.852 0.347,-1.176 0.235,-0.32 0.57,-0.481 1.012,-0.481 0.406,0 0.738,0.145 1.004,0.434 0.265,0.289 0.398,0.715 0.398,1.274 0,0.542 -0.133,0.964 -0.402,1.257 -0.27,0.293 -0.602,0.442 -0.996,0.442 -0.391,0 -0.715,-0.145 -0.973,-0.438 -0.258,-0.289 -0.39,-0.726 -0.39,-1.312 z m 1.382,-1.11 c -0.199,0 -0.367,0.086 -0.496,0.254 -0.129,0.172 -0.195,0.481 -0.195,0.938 0,0.41 0.066,0.699 0.199,0.867 0.129,0.172 0.293,0.258 0.488,0.258 0.2,0 0.368,-0.086 0.496,-0.258 0.133,-0.168 0.196,-0.481 0.196,-0.93 0,-0.418 -0.067,-0.707 -0.196,-0.879 -0.132,-0.168 -0.296,-0.25 -0.492,-0.25 z m 3.043,4.516 h -0.566 c 0.875,-1.406 1.312,-2.813 1.312,-4.223 0,-0.55 -0.062,-1.097 -0.187,-1.636 -0.102,-0.442 -0.242,-0.864 -0.418,-1.266 -0.117,-0.266 -0.352,-0.703 -0.707,-1.32 h 0.566 c 0.551,0.734 0.957,1.472 1.219,2.214 0.227,0.641 0.34,1.309 0.34,2.004 0,0.793 -0.152,1.555 -0.453,2.293 -0.305,0.739 -0.672,1.383 -1.106,1.934 z"
           style="fill:none;stroke:#ffffff;stroke-width:2.25;stroke-linecap:butt;stroke-linejoin:miter;stroke-miterlimit:4;stroke-dasharray:none;stroke-opacity:1"
           id="path7035" />
      </g>
      <text
         xml:space="preserve"
         transform="translate(389.5,365.39999)"
         style="font-variant:normal;font-size:9px;font-family:CairoFont-2;-inkscape-font-specification:CairoFont-2-0;writing-mode:lr-tb;fill:#202124;fill-opacity:1;fill-rule:nonzero;stroke:none"
         id="text7039"><tspan
           x="0 5.0040002 10.008 12.501 15.498 20.502001 25.506001 27.999001 32.976002 40.977001"
           y="0"
           sodipodi:role="line"
           id="tspan7037">21 (48.8%)</tspan></text>
      <g
         id="g7041">
        <path
           d="m 226.66,378.148 v -1.539 h -2.797 v -0.726 l 2.942,-4.176 h 0.644 v 4.176 h 0.871 v 0.726 h -0.871 v 1.539 z m 0,-2.265 v -2.906 l -2.019,2.906 z m 6.695,4.16 c -0.437,-0.551 -0.804,-1.195 -1.109,-1.934 -0.301,-0.738 -0.449,-1.5 -0.449,-2.293 0,-0.695 0.109,-1.363 0.336,-2.004 0.265,-0.742 0.672,-1.48 1.222,-2.214 h 0.567 c -0.356,0.609 -0.59,1.043 -0.703,1.304 -0.18,0.407 -0.321,0.828 -0.422,1.266 -0.125,0.547 -0.188,1.098 -0.188,1.652 0,1.41 0.438,2.817 1.313,4.223 z m 1.387,-3.383 0.762,-0.07 c 0.062,0.359 0.187,0.617 0.367,0.777 0.184,0.16 0.414,0.242 0.699,0.242 0.242,0 0.457,-0.054 0.641,-0.168 0.184,-0.109 0.332,-0.257 0.449,-0.445 0.117,-0.187 0.215,-0.437 0.293,-0.754 0.082,-0.316 0.121,-0.637 0.121,-0.965 0,-0.035 -0.004,-0.089 -0.004,-0.16 -0.16,0.254 -0.375,0.457 -0.648,0.613 -0.274,0.157 -0.57,0.235 -0.891,0.235 -0.535,0 -0.984,-0.192 -1.355,-0.578 -0.367,-0.387 -0.551,-0.899 -0.551,-1.532 0,-0.652 0.191,-1.179 0.578,-1.578 0.383,-0.398 0.867,-0.597 1.445,-0.597 0.422,0 0.805,0.113 1.149,0.34 0.348,0.226 0.613,0.546 0.793,0.964 0.18,0.418 0.269,1.024 0.269,1.813 0,0.824 -0.089,1.48 -0.265,1.965 -0.18,0.488 -0.446,0.859 -0.801,1.117 -0.352,0.254 -0.766,0.383 -1.238,0.383 -0.508,0 -0.918,-0.141 -1.239,-0.422 -0.316,-0.281 -0.511,-0.672 -0.574,-1.18 z m 3.238,-2.844 c 0,-0.453 -0.121,-0.812 -0.363,-1.082 -0.242,-0.265 -0.531,-0.398 -0.871,-0.398 -0.351,0 -0.656,0.144 -0.918,0.43 -0.262,0.289 -0.39,0.66 -0.39,1.117 0,0.41 0.121,0.742 0.371,1 0.246,0.258 0.55,0.383 0.914,0.383 0.367,0 0.668,-0.125 0.906,-0.383 0.234,-0.258 0.351,-0.613 0.351,-1.067 z m 2.086,4.332 v -0.898 h 0.903 v 0.898 z m 2.063,-1.699 0.789,-0.105 c 0.09,0.449 0.246,0.769 0.465,0.968 0.219,0.2 0.484,0.297 0.797,0.297 0.371,0 0.687,-0.129 0.941,-0.386 0.258,-0.258 0.387,-0.578 0.387,-0.957 0,-0.364 -0.117,-0.664 -0.356,-0.899 -0.238,-0.238 -0.539,-0.355 -0.906,-0.355 -0.148,0 -0.336,0.031 -0.558,0.09 l 0.089,-0.696 c 0.051,0.004 0.094,0.008 0.125,0.008 0.34,0 0.641,-0.086 0.91,-0.262 0.27,-0.175 0.407,-0.449 0.407,-0.812 0,-0.293 -0.102,-0.531 -0.297,-0.723 -0.195,-0.191 -0.449,-0.285 -0.758,-0.285 -0.309,0 -0.566,0.098 -0.769,0.289 -0.207,0.195 -0.34,0.484 -0.395,0.871 l -0.793,-0.14 c 0.098,-0.532 0.316,-0.942 0.66,-1.235 0.344,-0.289 0.77,-0.437 1.278,-0.437 0.351,0 0.675,0.078 0.972,0.226 0.297,0.153 0.52,0.36 0.68,0.617 0.156,0.262 0.234,0.539 0.234,0.832 0,0.278 -0.074,0.532 -0.226,0.762 -0.149,0.227 -0.367,0.41 -0.664,0.543 0.382,0.09 0.679,0.27 0.89,0.547 0.211,0.277 0.317,0.625 0.317,1.039 0,0.563 -0.207,1.039 -0.618,1.43 -0.41,0.394 -0.925,0.59 -1.554,0.59 -0.567,0 -1.035,-0.168 -1.41,-0.508 -0.371,-0.336 -0.586,-0.774 -0.637,-1.309 z m 5.144,-3.195 c 0,-0.461 0.118,-0.852 0.348,-1.172 0.231,-0.324 0.567,-0.484 1.004,-0.484 0.406,0 0.742,0.144 1.004,0.433 0.266,0.289 0.398,0.711 0.398,1.274 0,0.543 -0.132,0.961 -0.402,1.257 -0.266,0.293 -0.598,0.442 -0.988,0.442 -0.391,0 -0.715,-0.145 -0.977,-0.434 -0.258,-0.293 -0.387,-0.73 -0.387,-1.316 z m 1.375,-1.109 c -0.195,0 -0.359,0.082 -0.488,0.253 -0.133,0.168 -0.195,0.481 -0.195,0.934 0,0.414 0.062,0.707 0.195,0.875 0.133,0.168 0.297,0.25 0.488,0.25 0.2,0 0.364,-0.082 0.497,-0.254 0.128,-0.168 0.195,-0.48 0.195,-0.93 0,-0.418 -0.067,-0.711 -0.199,-0.878 -0.133,-0.168 -0.297,-0.25 -0.493,-0.25 z m 0.004,6.242 3.524,-6.789 h 0.644 l -3.511,6.789 z m 2.786,-1.75 c 0,-0.461 0.117,-0.852 0.347,-1.176 0.235,-0.32 0.57,-0.481 1.012,-0.481 0.406,0 0.738,0.145 1.004,0.434 0.265,0.289 0.398,0.715 0.398,1.274 0,0.542 -0.133,0.964 -0.402,1.257 -0.27,0.293 -0.602,0.442 -0.996,0.442 -0.391,0 -0.715,-0.145 -0.973,-0.438 -0.258,-0.289 -0.39,-0.726 -0.39,-1.312 z m 1.382,-1.11 c -0.199,0 -0.367,0.086 -0.496,0.254 -0.129,0.172 -0.195,0.481 -0.195,0.938 0,0.41 0.066,0.699 0.199,0.867 0.129,0.172 0.293,0.258 0.488,0.258 0.2,0 0.368,-0.086 0.496,-0.258 0.133,-0.168 0.196,-0.481 0.196,-0.93 0,-0.418 -0.067,-0.707 -0.196,-0.879 -0.132,-0.168 -0.296,-0.25 -0.492,-0.25 z m 3.043,4.516 h -0.566 c 0.875,-1.406 1.312,-2.813 1.312,-4.223 0,-0.55 -0.062,-1.097 -0.187,-1.636 -0.102,-0.442 -0.242,-0.864 -0.418,-1.266 -0.117,-0.266 -0.352,-0.703 -0.707,-1.32 h 0.566 c 0.551,0.734 0.957,1.472 1.219,2.214 0.227,0.641 0.34,1.309 0.34,2.004 0,0.793 -0.152,1.555 -0.453,2.293 -0.305,0.739 -0.672,1.383 -1.106,1.934 z"
           style="fill:#202124;fill-opacity:1;fill-rule:nonzero;stroke:#ffffff;stroke-width:2.25;stroke-linecap:butt;stroke-linejoin:miter;stroke-miterlimit:4;stroke-dasharray:none;stroke-opacity:1"
           id="path7043" />
      </g>
      <text
         xml:space="preserve"
         transform="translate(223.75,378.14999)"
         style="font-variant:normal;font-size:9px;font-family:CairoFont-2;-inkscape-font-specification:CairoFont-2-0;writing-mode:lr-tb;fill:#202124;fill-opacity:1;fill-rule:nonzero;stroke:none"
         id="text7047"><tspan
           x="0 5.0040002 7.4970002 10.494 15.498 17.990999 22.995001 30.996"
           y="0"
           sodipodi:role="line"
           id="tspan7045">4 (9.3%)</tspan></text>
      <g
         id="g7049">
        <path
           d="m 305.102,390.898 h -0.79 v -5.039 c -0.191,0.184 -0.441,0.364 -0.75,0.547 -0.308,0.18 -0.585,0.317 -0.832,0.406 v -0.765 c 0.442,-0.207 0.829,-0.457 1.161,-0.754 0.332,-0.297 0.566,-0.582 0.703,-0.863 h 0.508 z m 6.179,-0.757 v 0.757 h -4.258 c -0.007,-0.187 0.024,-0.371 0.09,-0.546 0.11,-0.29 0.285,-0.579 0.524,-0.86 0.238,-0.281 0.582,-0.605 1.035,-0.972 0.699,-0.575 1.172,-1.032 1.418,-1.368 0.246,-0.336 0.367,-0.652 0.367,-0.949 0,-0.312 -0.109,-0.578 -0.336,-0.793 -0.223,-0.215 -0.516,-0.324 -0.875,-0.324 -0.383,0 -0.687,0.113 -0.914,0.344 -0.23,0.226 -0.344,0.543 -0.348,0.949 l -0.812,-0.086 c 0.055,-0.605 0.266,-1.066 0.629,-1.387 0.363,-0.316 0.851,-0.476 1.461,-0.476 0.621,0 1.109,0.172 1.468,0.515 0.36,0.344 0.543,0.77 0.543,1.274 0,0.258 -0.054,0.511 -0.16,0.761 -0.105,0.25 -0.281,0.512 -0.523,0.786 -0.246,0.277 -0.652,0.656 -1.223,1.136 -0.472,0.399 -0.777,0.668 -0.914,0.809 -0.133,0.141 -0.246,0.285 -0.332,0.43 z m 5.074,2.652 c -0.437,-0.551 -0.804,-1.195 -1.109,-1.934 -0.301,-0.738 -0.453,-1.5 -0.453,-2.293 0,-0.695 0.113,-1.363 0.34,-2.004 0.265,-0.742 0.672,-1.48 1.222,-2.214 h 0.567 c -0.356,0.609 -0.59,1.043 -0.703,1.304 -0.18,0.407 -0.321,0.828 -0.422,1.266 -0.125,0.547 -0.188,1.098 -0.188,1.652 0,1.41 0.438,2.817 1.313,4.223 z m 5.426,-2.652 v 0.757 h -4.258 c -0.007,-0.187 0.024,-0.371 0.09,-0.546 0.11,-0.29 0.285,-0.579 0.524,-0.86 0.238,-0.281 0.582,-0.605 1.035,-0.972 0.699,-0.575 1.172,-1.032 1.418,-1.368 0.246,-0.336 0.367,-0.652 0.367,-0.949 0,-0.312 -0.109,-0.578 -0.336,-0.793 -0.223,-0.215 -0.516,-0.324 -0.875,-0.324 -0.383,0 -0.687,0.113 -0.914,0.344 -0.23,0.226 -0.344,0.543 -0.348,0.949 l -0.812,-0.086 c 0.055,-0.605 0.266,-1.066 0.629,-1.387 0.363,-0.316 0.851,-0.476 1.461,-0.476 0.621,0 1.109,0.172 1.468,0.515 0.36,0.344 0.543,0.77 0.543,1.274 0,0.258 -0.054,0.511 -0.16,0.761 -0.105,0.25 -0.281,0.512 -0.523,0.786 -0.246,0.277 -0.652,0.656 -1.223,1.136 -0.472,0.399 -0.777,0.668 -0.914,0.809 -0.133,0.141 -0.246,0.285 -0.332,0.43 z m 0.895,-4.84 v -0.758 h 4.172 v 0.613 c -0.41,0.438 -0.817,1.016 -1.219,1.742 -0.406,0.723 -0.715,1.465 -0.934,2.231 -0.16,0.539 -0.261,1.129 -0.304,1.769 h -0.813 c 0.008,-0.503 0.11,-1.117 0.297,-1.836 0.191,-0.718 0.465,-1.41 0.82,-2.074 0.356,-0.668 0.735,-1.23 1.137,-1.687 z m 5.39,5.597 V 390 h 0.903 v 0.898 z m 2.176,-1.488 0.762,-0.07 c 0.062,0.359 0.187,0.617 0.367,0.777 0.184,0.16 0.414,0.242 0.699,0.242 0.242,0 0.457,-0.054 0.641,-0.168 0.184,-0.109 0.332,-0.257 0.449,-0.445 0.117,-0.187 0.215,-0.437 0.293,-0.754 0.082,-0.316 0.121,-0.637 0.121,-0.965 0,-0.035 -0.004,-0.089 -0.004,-0.16 -0.16,0.254 -0.375,0.457 -0.648,0.613 -0.274,0.157 -0.57,0.235 -0.891,0.235 -0.535,0 -0.984,-0.192 -1.355,-0.578 -0.367,-0.387 -0.551,-0.899 -0.551,-1.532 0,-0.652 0.191,-1.179 0.578,-1.578 0.383,-0.398 0.867,-0.597 1.445,-0.597 0.422,0 0.805,0.113 1.149,0.34 0.348,0.226 0.613,0.546 0.793,0.964 0.18,0.418 0.269,1.024 0.269,1.813 0,0.824 -0.089,1.48 -0.265,1.965 -0.18,0.488 -0.446,0.859 -0.801,1.117 -0.352,0.254 -0.766,0.383 -1.238,0.383 -0.504,0 -0.918,-0.141 -1.239,-0.422 -0.316,-0.281 -0.507,-0.672 -0.574,-1.18 z m 3.238,-2.844 c 0,-0.453 -0.121,-0.812 -0.363,-1.082 -0.242,-0.265 -0.531,-0.398 -0.871,-0.398 -0.351,0 -0.656,0.144 -0.918,0.43 -0.262,0.289 -0.39,0.66 -0.39,1.117 0,0.41 0.121,0.742 0.371,1 0.246,0.258 0.55,0.383 0.914,0.383 0.367,0 0.668,-0.125 0.906,-0.383 0.234,-0.258 0.351,-0.613 0.351,-1.067 z m 1.793,-0.562 c 0,-0.461 0.118,-0.852 0.348,-1.172 0.231,-0.324 0.567,-0.484 1.004,-0.484 0.406,0 0.742,0.144 1.004,0.433 0.266,0.289 0.398,0.711 0.398,1.274 0,0.543 -0.132,0.961 -0.402,1.257 -0.266,0.293 -0.598,0.442 -0.988,0.442 -0.391,0 -0.715,-0.145 -0.977,-0.434 -0.258,-0.293 -0.387,-0.73 -0.387,-1.316 z m 1.375,-1.109 c -0.195,0 -0.359,0.082 -0.488,0.253 -0.133,0.168 -0.199,0.481 -0.199,0.934 0,0.414 0.066,0.707 0.199,0.875 0.133,0.168 0.293,0.25 0.488,0.25 0.2,0 0.364,-0.082 0.497,-0.254 0.128,-0.168 0.195,-0.48 0.195,-0.93 0,-0.418 -0.067,-0.711 -0.199,-0.878 -0.133,-0.168 -0.297,-0.25 -0.493,-0.25 z m 0.004,6.242 3.524,-6.789 h 0.644 l -3.511,6.789 z m 2.786,-1.75 c 0,-0.461 0.117,-0.852 0.347,-1.176 0.231,-0.32 0.57,-0.481 1.012,-0.481 0.406,0 0.738,0.145 1.004,0.434 0.265,0.289 0.398,0.715 0.398,1.274 0,0.542 -0.133,0.964 -0.402,1.257 -0.27,0.293 -0.602,0.442 -0.996,0.442 -0.391,0 -0.715,-0.145 -0.973,-0.438 -0.258,-0.289 -0.39,-0.726 -0.39,-1.312 z m 1.382,-1.11 c -0.199,0 -0.367,0.086 -0.496,0.254 -0.129,0.172 -0.195,0.481 -0.195,0.938 0,0.41 0.066,0.699 0.199,0.867 0.129,0.172 0.293,0.258 0.484,0.258 0.204,0 0.372,-0.086 0.5,-0.258 0.133,-0.168 0.196,-0.481 0.196,-0.93 0,-0.418 -0.067,-0.707 -0.196,-0.879 -0.132,-0.168 -0.296,-0.25 -0.492,-0.25 z m 3.043,4.516 h -0.57 c 0.879,-1.406 1.316,-2.813 1.316,-4.223 0,-0.55 -0.062,-1.097 -0.191,-1.636 -0.098,-0.442 -0.238,-0.864 -0.414,-1.266 -0.117,-0.266 -0.352,-0.703 -0.711,-1.32 h 0.57 c 0.551,0.734 0.957,1.472 1.219,2.214 0.227,0.641 0.34,1.309 0.34,2.004 0,0.793 -0.152,1.555 -0.453,2.293 -0.305,0.739 -0.672,1.383 -1.106,1.934 z"
           style="fill:#202124;fill-opacity:1;fill-rule:nonzero;stroke:#ffffff;stroke-width:2.25;stroke-linecap:butt;stroke-linejoin:miter;stroke-miterlimit:4;stroke-dasharray:none;stroke-opacity:1"
           id="path7051" />
      </g>
      <text
         xml:space="preserve"
         transform="translate(301.75,390.89999)"
         style="font-variant:normal;font-size:9px;font-family:CairoFont-2;-inkscape-font-specification:CairoFont-2-0;writing-mode:lr-tb;fill:#202124;fill-opacity:1;fill-rule:nonzero;stroke:none"
         id="text7055"><tspan
           x="0 5.0040002 10.008 12.501 15.498 20.502001 25.506001 27.999001 32.976002 40.977001"
           y="0"
           sodipodi:role="line"
           id="tspan7053">12 (27.9%)</tspan></text>
      <g
         id="g7057">
        <path
           d="m 208.781,402.141 v 0.757 h -4.258 c -0.007,-0.187 0.024,-0.371 0.09,-0.546 0.11,-0.29 0.285,-0.579 0.524,-0.86 0.238,-0.281 0.582,-0.605 1.035,-0.972 0.699,-0.575 1.172,-1.032 1.418,-1.368 0.246,-0.336 0.371,-0.652 0.371,-0.949 0,-0.312 -0.113,-0.578 -0.34,-0.793 -0.223,-0.215 -0.516,-0.324 -0.875,-0.324 -0.379,0 -0.684,0.113 -0.914,0.344 -0.23,0.226 -0.344,0.543 -0.348,0.949 l -0.812,-0.086 c 0.055,-0.605 0.266,-1.066 0.629,-1.387 0.363,-0.316 0.851,-0.476 1.465,-0.476 0.617,0 1.105,0.172 1.464,0.515 0.364,0.344 0.543,0.77 0.543,1.274 0,0.258 -0.054,0.511 -0.16,0.761 -0.105,0.25 -0.281,0.512 -0.523,0.786 -0.246,0.277 -0.652,0.656 -1.223,1.136 -0.472,0.399 -0.777,0.668 -0.914,0.809 -0.133,0.141 -0.242,0.285 -0.332,0.43 z m 5.074,2.652 c -0.437,-0.551 -0.804,-1.195 -1.109,-1.934 -0.301,-0.738 -0.449,-1.5 -0.449,-2.293 0,-0.695 0.109,-1.363 0.336,-2.004 0.265,-0.742 0.672,-1.48 1.222,-2.214 h 0.567 c -0.356,0.609 -0.59,1.043 -0.703,1.304 -0.18,0.407 -0.321,0.828 -0.422,1.266 -0.125,0.547 -0.188,1.098 -0.188,1.652 0,1.41 0.438,2.817 1.313,4.223 z m 3.805,-1.895 v -1.539 h -2.797 v -0.726 l 2.942,-4.176 h 0.644 v 4.176 h 0.871 v 0.726 h -0.871 v 1.539 z m 0,-2.265 v -2.906 l -2.019,2.906 z m 2.906,2.265 V 402 h 0.903 v 0.898 z m 2.11,-5.597 v -0.758 h 4.172 v 0.613 c -0.41,0.438 -0.817,1.016 -1.219,1.742 -0.406,0.723 -0.715,1.465 -0.934,2.231 -0.16,0.539 -0.261,1.129 -0.304,1.769 h -0.813 c 0.008,-0.503 0.11,-1.117 0.297,-1.836 0.191,-0.718 0.465,-1.41 0.82,-2.074 0.356,-0.668 0.735,-1.23 1.137,-1.687 z m 5.097,0.703 c 0,-0.461 0.118,-0.852 0.348,-1.172 0.231,-0.324 0.567,-0.484 1.004,-0.484 0.406,0 0.742,0.144 1.004,0.433 0.266,0.289 0.398,0.711 0.398,1.274 0,0.543 -0.132,0.961 -0.402,1.257 -0.266,0.293 -0.598,0.442 -0.988,0.442 -0.391,0 -0.715,-0.145 -0.977,-0.434 -0.258,-0.293 -0.387,-0.73 -0.387,-1.316 z m 1.375,-1.109 c -0.195,0 -0.359,0.082 -0.488,0.253 -0.133,0.168 -0.195,0.481 -0.195,0.934 0,0.414 0.062,0.707 0.195,0.875 0.133,0.168 0.297,0.25 0.488,0.25 0.2,0 0.364,-0.082 0.497,-0.254 0.128,-0.168 0.195,-0.48 0.195,-0.93 0,-0.418 -0.067,-0.711 -0.199,-0.878 -0.133,-0.168 -0.297,-0.25 -0.493,-0.25 z m 0.004,6.242 3.524,-6.789 h 0.644 l -3.511,6.789 z m 2.786,-1.75 c 0,-0.461 0.117,-0.852 0.347,-1.176 0.235,-0.32 0.57,-0.481 1.012,-0.481 0.406,0 0.738,0.145 1.004,0.434 0.265,0.289 0.398,0.715 0.398,1.274 0,0.542 -0.133,0.964 -0.402,1.257 -0.27,0.293 -0.602,0.442 -0.996,0.442 -0.391,0 -0.715,-0.145 -0.973,-0.438 -0.258,-0.289 -0.39,-0.726 -0.39,-1.312 z m 1.382,-1.11 c -0.199,0 -0.367,0.086 -0.496,0.254 -0.129,0.172 -0.195,0.481 -0.195,0.938 0,0.41 0.066,0.699 0.199,0.867 0.129,0.172 0.293,0.258 0.488,0.258 0.2,0 0.368,-0.086 0.496,-0.258 0.133,-0.168 0.196,-0.481 0.196,-0.93 0,-0.418 -0.067,-0.707 -0.196,-0.879 -0.132,-0.168 -0.296,-0.25 -0.492,-0.25 z m 3.043,4.516 h -0.566 c 0.875,-1.406 1.312,-2.813 1.312,-4.223 0,-0.55 -0.062,-1.097 -0.187,-1.636 -0.102,-0.442 -0.242,-0.864 -0.418,-1.266 -0.117,-0.266 -0.352,-0.703 -0.707,-1.32 h 0.566 c 0.551,0.734 0.957,1.472 1.219,2.214 0.227,0.641 0.34,1.309 0.34,2.004 0,0.793 -0.152,1.555 -0.453,2.293 -0.305,0.739 -0.672,1.383 -1.106,1.934 z"
           style="fill:#202124;fill-opacity:1;fill-rule:nonzero;stroke:#ffffff;stroke-width:2.25;stroke-linecap:butt;stroke-linejoin:miter;stroke-miterlimit:4;stroke-dasharray:none;stroke-opacity:1"
           id="path7059" />
      </g>
      <text
         xml:space="preserve"
         transform="translate(204.25,402.89999)"
         style="font-variant:normal;font-size:9px;font-family:CairoFont-2;-inkscape-font-specification:CairoFont-2-0;writing-mode:lr-tb;fill:#202124;fill-opacity:1;fill-rule:nonzero;stroke:none"
         id="text7063"><tspan
           x="0 5.0040002 7.4970002 10.494 15.498 17.990999 22.995001 30.996"
           y="0"
           sodipodi:role="line"
           id="tspan7061">2 (4.7%)</tspan></text>
      <g
         id="g7065">
        <path
           d="m 285.602,415.648 h -0.79 v -5.039 c -0.191,0.184 -0.441,0.364 -0.75,0.547 -0.308,0.18 -0.585,0.317 -0.832,0.406 v -0.765 c 0.442,-0.207 0.829,-0.457 1.161,-0.754 0.332,-0.297 0.566,-0.582 0.703,-0.863 h 0.508 z m 2.023,-3.175 c 0,-0.762 0.078,-1.375 0.234,-1.84 0.157,-0.465 0.391,-0.821 0.7,-1.074 0.308,-0.25 0.695,-0.379 1.164,-0.379 0.347,0 0.648,0.07 0.91,0.211 0.262,0.136 0.476,0.339 0.648,0.601 0.168,0.262 0.301,0.582 0.399,0.957 0.097,0.379 0.144,0.887 0.144,1.524 0,0.757 -0.078,1.367 -0.234,1.832 -0.152,0.461 -0.387,0.82 -0.695,1.074 -0.309,0.254 -0.7,0.383 -1.172,0.383 -0.621,0 -1.11,-0.223 -1.461,-0.668 -0.426,-0.539 -0.637,-1.41 -0.637,-2.621 z m 0.813,0 c 0,1.058 0.121,1.761 0.371,2.113 0.246,0.348 0.55,0.523 0.914,0.523 0.363,0 0.672,-0.175 0.918,-0.527 0.246,-0.352 0.371,-1.055 0.371,-2.109 0,-1.059 -0.125,-1.766 -0.371,-2.114 -0.246,-0.347 -0.555,-0.523 -0.926,-0.523 -0.363,0 -0.653,0.152 -0.871,0.461 -0.27,0.394 -0.406,1.117 -0.406,2.176 z m 8.417,5.07 c -0.437,-0.551 -0.804,-1.195 -1.109,-1.934 -0.301,-0.738 -0.453,-1.5 -0.453,-2.293 0,-0.695 0.113,-1.363 0.34,-2.004 0.265,-0.742 0.672,-1.48 1.222,-2.214 h 0.567 c -0.356,0.609 -0.59,1.043 -0.703,1.304 -0.18,0.407 -0.321,0.828 -0.422,1.266 -0.125,0.547 -0.188,1.098 -0.188,1.652 0,1.41 0.438,2.817 1.313,4.223 z m 5.426,-2.652 v 0.757 h -4.258 c -0.007,-0.187 0.024,-0.371 0.09,-0.546 0.11,-0.29 0.285,-0.579 0.524,-0.86 0.238,-0.281 0.582,-0.605 1.035,-0.972 0.699,-0.575 1.172,-1.032 1.418,-1.368 0.246,-0.336 0.367,-0.652 0.367,-0.949 0,-0.312 -0.109,-0.578 -0.336,-0.793 -0.223,-0.215 -0.516,-0.324 -0.875,-0.324 -0.383,0 -0.687,0.113 -0.914,0.344 -0.23,0.226 -0.344,0.543 -0.348,0.949 l -0.812,-0.086 c 0.055,-0.605 0.266,-1.066 0.629,-1.387 0.363,-0.316 0.851,-0.476 1.461,-0.476 0.621,0 1.109,0.172 1.468,0.515 0.36,0.344 0.543,0.77 0.543,1.274 0,0.258 -0.054,0.511 -0.16,0.761 -0.105,0.25 -0.281,0.512 -0.523,0.786 -0.246,0.277 -0.652,0.656 -1.223,1.136 -0.472,0.399 -0.777,0.668 -0.914,0.809 -0.133,0.141 -0.246,0.285 -0.332,0.43 z m 0.848,-0.942 0.789,-0.105 c 0.094,0.449 0.246,0.769 0.465,0.968 0.219,0.2 0.484,0.297 0.797,0.297 0.371,0 0.687,-0.129 0.941,-0.386 0.258,-0.258 0.387,-0.578 0.387,-0.957 0,-0.364 -0.117,-0.664 -0.356,-0.899 -0.238,-0.238 -0.539,-0.355 -0.906,-0.355 -0.148,0 -0.336,0.031 -0.558,0.09 l 0.089,-0.696 c 0.051,0.004 0.094,0.008 0.125,0.008 0.34,0 0.641,-0.086 0.91,-0.262 0.27,-0.175 0.407,-0.449 0.407,-0.812 0,-0.293 -0.098,-0.531 -0.297,-0.723 -0.195,-0.191 -0.449,-0.285 -0.758,-0.285 -0.309,0 -0.566,0.098 -0.769,0.289 -0.207,0.195 -0.336,0.484 -0.395,0.871 l -0.793,-0.14 c 0.098,-0.532 0.316,-0.942 0.66,-1.235 0.344,-0.289 0.77,-0.437 1.278,-0.437 0.351,0 0.675,0.078 0.972,0.226 0.297,0.153 0.52,0.36 0.68,0.617 0.156,0.262 0.234,0.539 0.234,0.832 0,0.278 -0.074,0.532 -0.226,0.762 -0.149,0.227 -0.367,0.41 -0.66,0.543 0.378,0.09 0.675,0.27 0.886,0.547 0.211,0.277 0.317,0.625 0.317,1.039 0,0.563 -0.207,1.039 -0.618,1.43 -0.41,0.394 -0.925,0.59 -1.554,0.59 -0.567,0 -1.035,-0.168 -1.41,-0.508 -0.371,-0.336 -0.586,-0.774 -0.637,-1.309 z m 5.437,1.699 v -0.898 h 0.903 v 0.898 z m 2.063,-1.699 0.789,-0.105 c 0.094,0.449 0.246,0.769 0.465,0.968 0.219,0.2 0.484,0.297 0.797,0.297 0.371,0 0.687,-0.129 0.941,-0.386 0.258,-0.258 0.387,-0.578 0.387,-0.957 0,-0.364 -0.117,-0.664 -0.356,-0.899 -0.238,-0.238 -0.539,-0.355 -0.906,-0.355 -0.148,0 -0.336,0.031 -0.558,0.09 l 0.089,-0.696 c 0.051,0.004 0.094,0.008 0.125,0.008 0.34,0 0.641,-0.086 0.91,-0.262 0.27,-0.175 0.407,-0.449 0.407,-0.812 0,-0.293 -0.098,-0.531 -0.297,-0.723 -0.195,-0.191 -0.449,-0.285 -0.758,-0.285 -0.309,0 -0.566,0.098 -0.769,0.289 -0.207,0.195 -0.336,0.484 -0.395,0.871 l -0.793,-0.14 c 0.098,-0.532 0.316,-0.942 0.66,-1.235 0.344,-0.289 0.77,-0.437 1.278,-0.437 0.351,0 0.675,0.078 0.972,0.226 0.297,0.153 0.52,0.36 0.68,0.617 0.156,0.262 0.234,0.539 0.234,0.832 0,0.278 -0.074,0.532 -0.226,0.762 -0.149,0.227 -0.367,0.41 -0.66,0.543 0.378,0.09 0.675,0.27 0.886,0.547 0.211,0.277 0.317,0.625 0.317,1.039 0,0.563 -0.207,1.039 -0.618,1.43 -0.41,0.394 -0.925,0.59 -1.554,0.59 -0.567,0 -1.035,-0.168 -1.41,-0.508 -0.371,-0.336 -0.586,-0.774 -0.637,-1.309 z m 5.144,-3.195 c 0,-0.461 0.118,-0.852 0.348,-1.172 0.231,-0.324 0.567,-0.484 1.004,-0.484 0.406,0 0.742,0.144 1.004,0.433 0.266,0.289 0.398,0.711 0.398,1.274 0,0.543 -0.132,0.961 -0.402,1.257 -0.266,0.293 -0.598,0.442 -0.988,0.442 -0.391,0 -0.715,-0.145 -0.977,-0.434 -0.258,-0.293 -0.387,-0.73 -0.387,-1.316 z m 1.375,-1.109 c -0.195,0 -0.359,0.082 -0.488,0.253 -0.133,0.168 -0.199,0.481 -0.199,0.934 0,0.414 0.066,0.707 0.199,0.875 0.133,0.168 0.293,0.25 0.488,0.25 0.2,0 0.364,-0.082 0.497,-0.254 0.128,-0.168 0.195,-0.48 0.195,-0.93 0,-0.418 -0.067,-0.711 -0.199,-0.878 -0.133,-0.168 -0.297,-0.25 -0.493,-0.25 z m 0.004,6.242 3.524,-6.789 h 0.644 l -3.511,6.789 z m 2.786,-1.75 c 0,-0.461 0.117,-0.852 0.347,-1.176 0.231,-0.32 0.57,-0.481 1.012,-0.481 0.406,0 0.738,0.145 1.004,0.434 0.265,0.289 0.398,0.715 0.398,1.274 0,0.542 -0.133,0.964 -0.402,1.257 -0.27,0.293 -0.602,0.442 -0.996,0.442 -0.391,0 -0.715,-0.145 -0.973,-0.438 -0.258,-0.289 -0.39,-0.726 -0.39,-1.312 z m 1.382,-1.11 c -0.199,0 -0.367,0.086 -0.496,0.254 -0.129,0.172 -0.195,0.481 -0.195,0.938 0,0.41 0.066,0.699 0.199,0.867 0.129,0.172 0.293,0.258 0.484,0.258 0.204,0 0.372,-0.086 0.5,-0.258 0.133,-0.168 0.196,-0.481 0.196,-0.93 0,-0.418 -0.067,-0.707 -0.196,-0.879 -0.132,-0.168 -0.296,-0.25 -0.492,-0.25 z m 3.043,4.516 h -0.57 c 0.879,-1.406 1.316,-2.813 1.316,-4.223 0,-0.55 -0.062,-1.097 -0.191,-1.636 -0.098,-0.442 -0.238,-0.864 -0.414,-1.266 -0.117,-0.266 -0.352,-0.703 -0.711,-1.32 h 0.57 c 0.551,0.734 0.957,1.472 1.219,2.214 0.227,0.641 0.34,1.309 0.34,2.004 0,0.793 -0.152,1.555 -0.453,2.293 -0.305,0.739 -0.672,1.383 -1.106,1.934 z"
           style="fill:#202124;fill-opacity:1;fill-rule:nonzero;stroke:#ffffff;stroke-width:2.25;stroke-linecap:butt;stroke-linejoin:miter;stroke-miterlimit:4;stroke-dasharray:none;stroke-opacity:1"
           id="path7067" />
      </g>
      <text
         xml:space="preserve"
         transform="translate(282.25,415.64999)"
         style="font-variant:normal;font-size:9px;font-family:CairoFont-2;-inkscape-font-specification:CairoFont-2-0;writing-mode:lr-tb;fill:#202124;fill-opacity:1;fill-rule:nonzero;stroke:none"
         id="text7071"><tspan
           x="0 5.0040002 10.008 12.501 15.498 20.502001 25.506001 27.999001 32.976002 40.977001"
           y="0"
           sodipodi:role="line"
           id="tspan7069">10 (23.3%)</tspan></text>
      <g
         id="g7073">
        <path
           d="m 314.852,428.398 h -0.79 v -5.039 c -0.191,0.184 -0.441,0.364 -0.75,0.547 -0.308,0.18 -0.585,0.317 -0.832,0.406 v -0.765 c 0.442,-0.207 0.829,-0.457 1.161,-0.754 0.332,-0.297 0.566,-0.582 0.703,-0.863 h 0.508 z m 2.027,-1.699 0.789,-0.105 c 0.09,0.449 0.246,0.769 0.465,0.968 0.219,0.2 0.484,0.297 0.797,0.297 0.371,0 0.687,-0.129 0.941,-0.386 0.258,-0.258 0.387,-0.578 0.387,-0.957 0,-0.364 -0.121,-0.664 -0.356,-0.899 -0.238,-0.238 -0.539,-0.355 -0.906,-0.355 -0.148,0 -0.336,0.031 -0.558,0.09 l 0.089,-0.696 c 0.051,0.004 0.094,0.008 0.125,0.008 0.336,0 0.641,-0.086 0.91,-0.262 0.27,-0.175 0.407,-0.449 0.407,-0.812 0,-0.293 -0.102,-0.531 -0.297,-0.723 -0.195,-0.191 -0.449,-0.285 -0.758,-0.285 -0.309,0 -0.566,0.098 -0.769,0.289 -0.207,0.195 -0.34,0.484 -0.399,0.871 l -0.789,-0.14 c 0.098,-0.532 0.316,-0.942 0.66,-1.235 0.34,-0.289 0.77,-0.437 1.278,-0.437 0.351,0 0.675,0.078 0.972,0.226 0.293,0.153 0.52,0.36 0.68,0.617 0.156,0.262 0.234,0.539 0.234,0.832 0,0.278 -0.074,0.532 -0.226,0.762 -0.149,0.227 -0.371,0.41 -0.664,0.543 0.382,0.09 0.679,0.27 0.89,0.547 0.211,0.277 0.317,0.625 0.317,1.039 0,0.563 -0.207,1.039 -0.618,1.43 -0.41,0.394 -0.929,0.59 -1.554,0.59 -0.567,0 -1.035,-0.168 -1.41,-0.508 -0.371,-0.336 -0.586,-0.774 -0.637,-1.309 z m 9.226,3.594 c -0.437,-0.551 -0.804,-1.195 -1.109,-1.934 -0.301,-0.738 -0.453,-1.5 -0.453,-2.293 0,-0.695 0.113,-1.363 0.34,-2.004 0.265,-0.742 0.672,-1.48 1.222,-2.214 h 0.567 c -0.356,0.609 -0.59,1.043 -0.703,1.304 -0.18,0.407 -0.321,0.828 -0.422,1.266 -0.125,0.547 -0.188,1.098 -0.188,1.652 0,1.41 0.438,2.817 1.313,4.223 z m 1.274,-3.594 0.789,-0.105 c 0.09,0.449 0.246,0.769 0.465,0.968 0.219,0.2 0.484,0.297 0.797,0.297 0.371,0 0.687,-0.129 0.941,-0.386 0.258,-0.258 0.387,-0.578 0.387,-0.957 0,-0.364 -0.121,-0.664 -0.356,-0.899 -0.238,-0.238 -0.539,-0.355 -0.906,-0.355 -0.148,0 -0.336,0.031 -0.558,0.09 l 0.089,-0.696 c 0.051,0.004 0.094,0.008 0.125,0.008 0.336,0 0.641,-0.086 0.91,-0.262 0.27,-0.175 0.407,-0.449 0.407,-0.812 0,-0.293 -0.102,-0.531 -0.297,-0.723 -0.195,-0.191 -0.449,-0.285 -0.758,-0.285 -0.309,0 -0.566,0.098 -0.769,0.289 -0.207,0.195 -0.34,0.484 -0.399,0.871 l -0.789,-0.14 c 0.098,-0.532 0.316,-0.942 0.66,-1.235 0.34,-0.289 0.77,-0.437 1.278,-0.437 0.351,0 0.675,0.078 0.972,0.226 0.293,0.153 0.52,0.36 0.68,0.617 0.156,0.262 0.234,0.539 0.234,0.832 0,0.278 -0.074,0.532 -0.226,0.762 -0.149,0.227 -0.371,0.41 -0.664,0.543 0.382,0.09 0.679,0.27 0.89,0.547 0.211,0.277 0.317,0.625 0.317,1.039 0,0.563 -0.207,1.039 -0.618,1.43 -0.41,0.394 -0.929,0.59 -1.554,0.59 -0.567,0 -1.035,-0.168 -1.41,-0.508 -0.371,-0.336 -0.586,-0.774 -0.637,-1.309 z m 4.996,-1.476 c 0,-0.762 0.078,-1.375 0.234,-1.84 0.157,-0.465 0.391,-0.821 0.7,-1.074 0.308,-0.25 0.695,-0.379 1.164,-0.379 0.347,0 0.652,0.07 0.91,0.211 0.262,0.136 0.476,0.339 0.648,0.601 0.168,0.262 0.301,0.582 0.399,0.957 0.097,0.379 0.144,0.887 0.144,1.524 0,0.757 -0.078,1.367 -0.23,1.832 -0.156,0.461 -0.391,0.82 -0.699,1.074 -0.309,0.254 -0.7,0.383 -1.172,0.383 -0.621,0 -1.106,-0.223 -1.461,-0.668 -0.426,-0.539 -0.637,-1.41 -0.637,-2.621 z m 0.813,0 c 0,1.058 0.121,1.761 0.371,2.113 0.246,0.348 0.55,0.523 0.914,0.523 0.363,0 0.672,-0.175 0.918,-0.527 0.246,-0.352 0.371,-1.055 0.371,-2.109 0,-1.059 -0.125,-1.766 -0.371,-2.114 -0.246,-0.347 -0.555,-0.523 -0.926,-0.523 -0.363,0 -0.653,0.152 -0.871,0.461 -0.27,0.394 -0.406,1.117 -0.406,2.176 z m 4.628,3.175 V 427.5 h 0.903 v 0.898 z m 6.215,-0.757 v 0.757 h -4.258 c -0.007,-0.187 0.024,-0.371 0.09,-0.546 0.11,-0.29 0.285,-0.579 0.524,-0.86 0.238,-0.281 0.582,-0.605 1.035,-0.972 0.699,-0.575 1.172,-1.032 1.418,-1.368 0.246,-0.336 0.371,-0.652 0.371,-0.949 0,-0.312 -0.113,-0.578 -0.34,-0.793 -0.223,-0.215 -0.516,-0.324 -0.875,-0.324 -0.379,0 -0.684,0.113 -0.914,0.344 -0.227,0.226 -0.344,0.543 -0.348,0.949 l -0.812,-0.086 c 0.055,-0.605 0.266,-1.066 0.629,-1.387 0.363,-0.316 0.851,-0.476 1.465,-0.476 0.617,0 1.105,0.172 1.464,0.515 0.364,0.344 0.543,0.77 0.543,1.274 0,0.258 -0.054,0.511 -0.16,0.761 -0.105,0.25 -0.281,0.512 -0.523,0.786 -0.246,0.277 -0.652,0.656 -1.219,1.136 -0.476,0.399 -0.781,0.668 -0.914,0.809 -0.137,0.141 -0.246,0.285 -0.336,0.43 z m 0.992,-4.137 c 0,-0.461 0.118,-0.852 0.348,-1.172 0.231,-0.324 0.567,-0.484 1.004,-0.484 0.406,0 0.742,0.144 1.004,0.433 0.266,0.289 0.398,0.711 0.398,1.274 0,0.543 -0.132,0.961 -0.402,1.257 -0.266,0.293 -0.598,0.442 -0.988,0.442 -0.391,0 -0.715,-0.145 -0.977,-0.434 -0.258,-0.293 -0.387,-0.73 -0.387,-1.316 z m 1.375,-1.109 c -0.195,0 -0.359,0.082 -0.488,0.253 -0.133,0.168 -0.199,0.481 -0.199,0.934 0,0.414 0.066,0.707 0.199,0.875 0.133,0.168 0.293,0.25 0.488,0.25 0.2,0 0.364,-0.082 0.497,-0.254 0.128,-0.168 0.195,-0.48 0.195,-0.93 0,-0.418 -0.067,-0.711 -0.199,-0.878 -0.133,-0.168 -0.297,-0.25 -0.493,-0.25 z m 0.004,6.242 3.524,-6.789 h 0.644 l -3.511,6.789 z m 2.786,-1.75 c 0,-0.461 0.117,-0.852 0.347,-1.176 0.231,-0.32 0.57,-0.481 1.012,-0.481 0.406,0 0.738,0.145 1.004,0.434 0.265,0.289 0.398,0.715 0.398,1.274 0,0.542 -0.133,0.964 -0.402,1.257 -0.27,0.293 -0.602,0.442 -0.996,0.442 -0.391,0 -0.715,-0.145 -0.973,-0.438 -0.258,-0.289 -0.39,-0.726 -0.39,-1.312 z m 1.382,-1.11 c -0.199,0 -0.367,0.086 -0.496,0.254 -0.129,0.172 -0.195,0.481 -0.195,0.938 0,0.41 0.066,0.699 0.199,0.867 0.129,0.172 0.293,0.258 0.484,0.258 0.204,0 0.372,-0.086 0.5,-0.258 0.133,-0.168 0.196,-0.481 0.196,-0.93 0,-0.418 -0.067,-0.707 -0.196,-0.879 -0.132,-0.168 -0.296,-0.25 -0.492,-0.25 z m 3.043,4.516 h -0.57 c 0.879,-1.406 1.316,-2.813 1.316,-4.223 0,-0.55 -0.062,-1.097 -0.191,-1.636 -0.098,-0.442 -0.238,-0.864 -0.414,-1.266 -0.117,-0.266 -0.352,-0.703 -0.711,-1.32 h 0.57 c 0.551,0.734 0.957,1.472 1.219,2.214 0.227,0.641 0.34,1.309 0.34,2.004 0,0.793 -0.152,1.555 -0.453,2.293 -0.305,0.739 -0.672,1.383 -1.106,1.934 z"
           style="fill:#202124;fill-opacity:1;fill-rule:nonzero;stroke:#ffffff;stroke-width:2.25;stroke-linecap:butt;stroke-linejoin:miter;stroke-miterlimit:4;stroke-dasharray:none;stroke-opacity:1"
           id="path7075" />
      </g>
      <text
         xml:space="preserve"
         transform="translate(311.5,428.39999)"
         style="font-variant:normal;font-size:9px;font-family:CairoFont-2;-inkscape-font-specification:CairoFont-2-0;writing-mode:lr-tb;fill:#202124;fill-opacity:1;fill-rule:nonzero;stroke:none"
         id="text7079"><tspan
           x="0 5.0040002 10.008 12.501 15.498 20.502001 25.506001 27.999001 32.976002 40.977001"
           y="0"
           sodipodi:role="line"
           id="tspan7077">13 (30.2%)</tspan></text>
      <g
         id="g7081">
        <path
           d="m 324.602,441.148 h -0.79 v -5.039 c -0.191,0.184 -0.441,0.364 -0.75,0.547 -0.308,0.18 -0.585,0.317 -0.832,0.406 v -0.765 c 0.442,-0.207 0.829,-0.457 1.161,-0.754 0.332,-0.297 0.566,-0.582 0.703,-0.863 h 0.508 z m 4.558,0 v -1.539 h -2.797 v -0.726 l 2.942,-4.176 h 0.644 v 4.176 h 0.871 v 0.726 h -0.871 v 1.539 z m 0,-2.265 v -2.906 l -2.019,2.906 z m 6.695,4.16 c -0.437,-0.551 -0.804,-1.195 -1.109,-1.934 -0.301,-0.738 -0.453,-1.5 -0.453,-2.293 0,-0.695 0.113,-1.363 0.34,-2.004 0.265,-0.742 0.672,-1.48 1.222,-2.214 h 0.567 c -0.356,0.609 -0.59,1.043 -0.703,1.304 -0.18,0.407 -0.321,0.828 -0.422,1.266 -0.125,0.547 -0.188,1.098 -0.188,1.652 0,1.41 0.438,2.817 1.313,4.223 z m 1.274,-3.594 0.789,-0.105 c 0.09,0.449 0.246,0.769 0.465,0.968 0.219,0.2 0.484,0.297 0.797,0.297 0.371,0 0.687,-0.129 0.941,-0.386 0.258,-0.258 0.387,-0.578 0.387,-0.957 0,-0.364 -0.121,-0.664 -0.356,-0.899 -0.238,-0.238 -0.539,-0.355 -0.906,-0.355 -0.148,0 -0.336,0.031 -0.558,0.09 l 0.089,-0.696 c 0.051,0.004 0.094,0.008 0.125,0.008 0.336,0 0.641,-0.086 0.91,-0.262 0.27,-0.175 0.407,-0.449 0.407,-0.812 0,-0.293 -0.102,-0.531 -0.297,-0.723 -0.195,-0.191 -0.449,-0.285 -0.758,-0.285 -0.309,0 -0.566,0.098 -0.769,0.289 -0.207,0.195 -0.34,0.484 -0.399,0.871 l -0.789,-0.14 c 0.098,-0.532 0.316,-0.942 0.66,-1.235 0.34,-0.289 0.77,-0.437 1.278,-0.437 0.351,0 0.675,0.078 0.972,0.226 0.293,0.153 0.52,0.36 0.68,0.617 0.156,0.262 0.234,0.539 0.234,0.832 0,0.278 -0.074,0.532 -0.226,0.762 -0.149,0.227 -0.371,0.41 -0.664,0.543 0.382,0.09 0.679,0.27 0.89,0.547 0.211,0.277 0.317,0.625 0.317,1.039 0,0.563 -0.207,1.039 -0.618,1.43 -0.41,0.394 -0.929,0.59 -1.554,0.59 -0.567,0 -1.035,-0.168 -1.41,-0.508 -0.371,-0.336 -0.586,-0.774 -0.637,-1.309 z m 9.152,0.942 v 0.757 h -4.258 c -0.007,-0.187 0.024,-0.371 0.09,-0.546 0.11,-0.29 0.285,-0.579 0.524,-0.86 0.238,-0.281 0.582,-0.605 1.035,-0.972 0.699,-0.575 1.172,-1.032 1.418,-1.368 0.246,-0.336 0.371,-0.652 0.371,-0.949 0,-0.312 -0.113,-0.578 -0.34,-0.793 -0.223,-0.215 -0.516,-0.324 -0.875,-0.324 -0.379,0 -0.684,0.113 -0.914,0.344 -0.227,0.226 -0.344,0.543 -0.348,0.949 l -0.812,-0.086 c 0.055,-0.605 0.266,-1.066 0.629,-1.387 0.363,-0.316 0.851,-0.476 1.465,-0.476 0.617,0 1.105,0.172 1.464,0.515 0.364,0.344 0.543,0.77 0.543,1.274 0,0.258 -0.054,0.511 -0.16,0.761 -0.105,0.25 -0.281,0.512 -0.523,0.786 -0.246,0.277 -0.652,0.656 -1.219,1.136 -0.476,0.399 -0.781,0.668 -0.914,0.809 -0.137,0.141 -0.246,0.285 -0.336,0.43 z m 1.285,0.757 v -0.898 h 0.903 v 0.898 z m 6.161,-4.863 -0.786,0.063 c -0.07,-0.313 -0.168,-0.536 -0.296,-0.676 -0.215,-0.227 -0.481,-0.34 -0.793,-0.34 -0.25,0 -0.473,0.07 -0.664,0.211 -0.25,0.18 -0.446,0.445 -0.59,0.797 -0.141,0.348 -0.215,0.844 -0.223,1.488 0.191,-0.289 0.422,-0.504 0.699,-0.644 0.274,-0.141 0.563,-0.211 0.867,-0.211 0.528,0 0.973,0.191 1.344,0.582 0.371,0.386 0.559,0.886 0.559,1.504 0,0.402 -0.09,0.781 -0.262,1.125 -0.176,0.347 -0.414,0.613 -0.719,0.8 -0.304,0.184 -0.652,0.278 -1.039,0.278 -0.656,0 -1.195,-0.246 -1.613,-0.731 -0.414,-0.484 -0.621,-1.281 -0.621,-2.394 0,-1.246 0.23,-2.153 0.687,-2.719 0.403,-0.492 0.942,-0.738 1.621,-0.738 0.508,0 0.922,0.144 1.247,0.429 0.324,0.282 0.519,0.676 0.582,1.176 z m -3.227,2.777 c 0,0.274 0.055,0.536 0.172,0.782 0.117,0.25 0.277,0.441 0.484,0.57 0.211,0.129 0.426,0.195 0.656,0.195 0.333,0 0.622,-0.132 0.86,-0.402 0.242,-0.269 0.363,-0.637 0.363,-1.102 0,-0.445 -0.121,-0.796 -0.355,-1.05 -0.239,-0.258 -0.539,-0.387 -0.899,-0.387 -0.355,0 -0.66,0.129 -0.91,0.387 -0.25,0.254 -0.371,0.593 -0.371,1.007 z m 4.273,-2.808 c 0,-0.461 0.118,-0.852 0.348,-1.172 0.231,-0.324 0.567,-0.484 1.004,-0.484 0.406,0 0.742,0.144 1.004,0.433 0.266,0.289 0.398,0.711 0.398,1.274 0,0.543 -0.132,0.961 -0.402,1.257 -0.266,0.293 -0.598,0.442 -0.988,0.442 -0.391,0 -0.715,-0.145 -0.977,-0.434 -0.258,-0.293 -0.387,-0.73 -0.387,-1.316 z m 1.375,-1.109 c -0.195,0 -0.359,0.082 -0.488,0.253 -0.133,0.168 -0.199,0.481 -0.199,0.934 0,0.414 0.066,0.707 0.199,0.875 0.133,0.168 0.293,0.25 0.488,0.25 0.2,0 0.364,-0.082 0.497,-0.254 0.128,-0.168 0.195,-0.48 0.195,-0.93 0,-0.418 -0.067,-0.711 -0.199,-0.878 -0.133,-0.168 -0.297,-0.25 -0.493,-0.25 z m 0.004,6.242 3.524,-6.789 h 0.644 l -3.511,6.789 z m 2.786,-1.75 c 0,-0.461 0.117,-0.852 0.347,-1.176 0.231,-0.32 0.57,-0.481 1.012,-0.481 0.406,0 0.738,0.145 1.004,0.434 0.265,0.289 0.398,0.715 0.398,1.274 0,0.542 -0.133,0.964 -0.402,1.257 -0.27,0.293 -0.602,0.442 -0.996,0.442 -0.391,0 -0.715,-0.145 -0.973,-0.438 -0.258,-0.289 -0.39,-0.726 -0.39,-1.312 z m 1.382,-1.11 c -0.199,0 -0.367,0.086 -0.496,0.254 -0.129,0.172 -0.195,0.481 -0.195,0.938 0,0.41 0.066,0.699 0.199,0.867 0.129,0.172 0.293,0.258 0.484,0.258 0.204,0 0.372,-0.086 0.5,-0.258 0.133,-0.168 0.196,-0.481 0.196,-0.93 0,-0.418 -0.067,-0.707 -0.196,-0.879 -0.132,-0.168 -0.296,-0.25 -0.492,-0.25 z m 3.043,4.516 h -0.57 c 0.879,-1.406 1.316,-2.813 1.316,-4.223 0,-0.55 -0.062,-1.097 -0.191,-1.636 -0.098,-0.442 -0.238,-0.864 -0.414,-1.266 -0.117,-0.266 -0.352,-0.703 -0.711,-1.32 h 0.57 c 0.551,0.734 0.957,1.472 1.219,2.214 0.227,0.641 0.34,1.309 0.34,2.004 0,0.793 -0.152,1.555 -0.453,2.293 -0.305,0.739 -0.672,1.383 -1.106,1.934 z"
           style="fill:#202124;fill-opacity:1;fill-rule:nonzero;stroke:#ffffff;stroke-width:2.25;stroke-linecap:butt;stroke-linejoin:miter;stroke-miterlimit:4;stroke-dasharray:none;stroke-opacity:1"
           id="path7083" />
      </g>
      <text
         xml:space="preserve"
         transform="translate(321.25,441.14999)"
         style="font-variant:normal;font-size:9px;font-family:CairoFont-2;-inkscape-font-specification:CairoFont-2-0;writing-mode:lr-tb;fill:#202124;fill-opacity:1;fill-rule:nonzero;stroke:none"
         id="text7087"><tspan
           x="0 5.0040002 10.008 12.501 15.498 20.502001 25.506001 27.999001 32.976002 40.977001"
           y="0"
           sodipodi:role="line"
           id="tspan7085">14 (32.6%)</tspan></text>
      <g
         id="g7089">
        <path
           d="m 197.852,453.898 h -0.79 v -5.039 c -0.191,0.184 -0.441,0.364 -0.75,0.547 -0.308,0.18 -0.585,0.317 -0.832,0.406 v -0.765 c 0.442,-0.207 0.829,-0.457 1.161,-0.754 0.332,-0.297 0.566,-0.582 0.703,-0.863 h 0.508 z m 6.253,1.895 c -0.437,-0.551 -0.804,-1.195 -1.109,-1.934 -0.301,-0.738 -0.449,-1.5 -0.449,-2.293 0,-0.695 0.109,-1.363 0.336,-2.004 0.265,-0.742 0.672,-1.48 1.222,-2.214 h 0.567 c -0.356,0.609 -0.59,1.043 -0.703,1.304 -0.18,0.407 -0.321,0.828 -0.422,1.266 -0.125,0.547 -0.188,1.098 -0.188,1.652 0,1.41 0.438,2.817 1.313,4.223 z m 5.426,-2.652 v 0.757 h -4.258 c -0.007,-0.187 0.024,-0.371 0.09,-0.546 0.11,-0.29 0.285,-0.579 0.524,-0.86 0.238,-0.281 0.582,-0.605 1.035,-0.972 0.699,-0.575 1.172,-1.032 1.418,-1.368 0.246,-0.336 0.371,-0.652 0.371,-0.949 0,-0.312 -0.113,-0.578 -0.34,-0.793 -0.223,-0.215 -0.516,-0.324 -0.875,-0.324 -0.379,0 -0.684,0.113 -0.914,0.344 -0.23,0.226 -0.344,0.543 -0.348,0.949 l -0.812,-0.086 c 0.055,-0.605 0.266,-1.066 0.629,-1.387 0.363,-0.316 0.851,-0.476 1.465,-0.476 0.617,0 1.105,0.172 1.464,0.515 0.364,0.344 0.543,0.77 0.543,1.274 0,0.258 -0.054,0.511 -0.16,0.761 -0.105,0.25 -0.281,0.512 -0.523,0.786 -0.246,0.277 -0.652,0.656 -1.223,1.136 -0.472,0.399 -0.777,0.668 -0.914,0.809 -0.133,0.141 -0.242,0.285 -0.332,0.43 z m 1.285,0.757 V 453 h 0.903 v 0.898 z m 2.063,-1.699 0.789,-0.105 c 0.09,0.449 0.246,0.769 0.465,0.968 0.219,0.2 0.484,0.297 0.797,0.297 0.371,0 0.687,-0.129 0.941,-0.386 0.258,-0.258 0.387,-0.578 0.387,-0.957 0,-0.364 -0.117,-0.664 -0.356,-0.899 -0.238,-0.238 -0.539,-0.355 -0.906,-0.355 -0.148,0 -0.336,0.031 -0.558,0.09 l 0.089,-0.696 c 0.051,0.004 0.094,0.008 0.125,0.008 0.34,0 0.641,-0.086 0.91,-0.262 0.27,-0.175 0.407,-0.449 0.407,-0.812 0,-0.293 -0.102,-0.531 -0.297,-0.723 -0.195,-0.191 -0.449,-0.285 -0.758,-0.285 -0.309,0 -0.566,0.098 -0.769,0.289 -0.207,0.195 -0.34,0.484 -0.395,0.871 l -0.793,-0.14 c 0.098,-0.532 0.316,-0.942 0.66,-1.235 0.344,-0.289 0.77,-0.437 1.278,-0.437 0.351,0 0.675,0.078 0.972,0.226 0.297,0.153 0.52,0.36 0.68,0.617 0.156,0.262 0.234,0.539 0.234,0.832 0,0.278 -0.074,0.532 -0.226,0.762 -0.149,0.227 -0.367,0.41 -0.664,0.543 0.382,0.09 0.679,0.27 0.89,0.547 0.211,0.277 0.317,0.625 0.317,1.039 0,0.563 -0.207,1.039 -0.618,1.43 -0.41,0.394 -0.925,0.59 -1.554,0.59 -0.567,0 -1.035,-0.168 -1.41,-0.508 -0.371,-0.336 -0.586,-0.774 -0.637,-1.309 z m 5.144,-3.195 c 0,-0.461 0.118,-0.852 0.348,-1.172 0.231,-0.324 0.567,-0.484 1.004,-0.484 0.406,0 0.742,0.144 1.004,0.433 0.266,0.289 0.398,0.711 0.398,1.274 0,0.543 -0.132,0.961 -0.402,1.257 -0.266,0.293 -0.598,0.442 -0.988,0.442 -0.391,0 -0.715,-0.145 -0.977,-0.434 -0.258,-0.293 -0.387,-0.73 -0.387,-1.316 z m 1.375,-1.109 c -0.195,0 -0.359,0.082 -0.488,0.253 -0.133,0.168 -0.195,0.481 -0.195,0.934 0,0.414 0.062,0.707 0.195,0.875 0.133,0.168 0.297,0.25 0.488,0.25 0.2,0 0.364,-0.082 0.497,-0.254 0.128,-0.168 0.195,-0.48 0.195,-0.93 0,-0.418 -0.067,-0.711 -0.199,-0.878 -0.133,-0.168 -0.297,-0.25 -0.493,-0.25 z m 0.004,6.242 3.524,-6.789 h 0.644 l -3.511,6.789 z m 2.786,-1.75 c 0,-0.461 0.117,-0.852 0.347,-1.176 0.235,-0.32 0.57,-0.481 1.012,-0.481 0.406,0 0.738,0.145 1.004,0.434 0.265,0.289 0.398,0.715 0.398,1.274 0,0.542 -0.133,0.964 -0.402,1.257 -0.27,0.293 -0.602,0.442 -0.996,0.442 -0.391,0 -0.715,-0.145 -0.973,-0.438 -0.258,-0.289 -0.39,-0.726 -0.39,-1.312 z m 1.382,-1.11 c -0.199,0 -0.367,0.086 -0.496,0.254 -0.129,0.172 -0.195,0.481 -0.195,0.938 0,0.41 0.066,0.699 0.199,0.867 0.129,0.172 0.293,0.258 0.488,0.258 0.2,0 0.368,-0.086 0.496,-0.258 0.133,-0.168 0.196,-0.481 0.196,-0.93 0,-0.418 -0.067,-0.707 -0.196,-0.879 -0.132,-0.168 -0.296,-0.25 -0.492,-0.25 z m 3.043,4.516 h -0.566 c 0.875,-1.406 1.312,-2.813 1.312,-4.223 0,-0.55 -0.062,-1.097 -0.187,-1.636 -0.102,-0.442 -0.242,-0.864 -0.418,-1.266 -0.117,-0.266 -0.352,-0.703 -0.707,-1.32 h 0.566 c 0.551,0.734 0.957,1.472 1.219,2.214 0.227,0.641 0.34,1.309 0.34,2.004 0,0.793 -0.152,1.555 -0.453,2.293 -0.305,0.739 -0.672,1.383 -1.106,1.934 z"
           style="fill:#202124;fill-opacity:1;fill-rule:nonzero;stroke:#ffffff;stroke-width:2.25;stroke-linecap:butt;stroke-linejoin:miter;stroke-miterlimit:4;stroke-dasharray:none;stroke-opacity:1"
           id="path7091" />
      </g>
      <text
         xml:space="preserve"
         transform="translate(194.5,453.89999)"
         style="font-variant:normal;font-size:9px;font-family:CairoFont-2;-inkscape-font-specification:CairoFont-2-0;writing-mode:lr-tb;fill:#202124;fill-opacity:1;fill-rule:nonzero;stroke:none"
         id="text7095"><tspan
           x="0 5.0040002 7.4970002 10.494 15.498 17.990999 22.995001 30.996"
           y="0"
           sodipodi:role="line"
           id="tspan7093">1 (2.3%)</tspan></text>
      <g
         id="g7097">
        <path
           d="m 197.852,466.648 h -0.79 v -5.039 c -0.191,0.184 -0.441,0.364 -0.75,0.547 -0.308,0.18 -0.585,0.317 -0.832,0.406 v -0.765 c 0.442,-0.207 0.829,-0.457 1.161,-0.754 0.332,-0.297 0.566,-0.582 0.703,-0.863 h 0.508 z m 6.253,1.895 c -0.437,-0.551 -0.804,-1.195 -1.109,-1.934 -0.301,-0.738 -0.449,-1.5 -0.449,-2.293 0,-0.695 0.109,-1.363 0.336,-2.004 0.265,-0.742 0.672,-1.48 1.222,-2.214 h 0.567 c -0.356,0.609 -0.59,1.043 -0.703,1.304 -0.18,0.407 -0.321,0.828 -0.422,1.266 -0.125,0.547 -0.188,1.098 -0.188,1.652 0,1.41 0.438,2.817 1.313,4.223 z m 5.426,-2.652 v 0.757 h -4.258 c -0.007,-0.187 0.024,-0.371 0.09,-0.546 0.11,-0.29 0.285,-0.579 0.524,-0.86 0.238,-0.281 0.582,-0.605 1.035,-0.972 0.699,-0.575 1.172,-1.032 1.418,-1.368 0.246,-0.336 0.371,-0.652 0.371,-0.949 0,-0.312 -0.113,-0.578 -0.34,-0.793 -0.223,-0.215 -0.516,-0.324 -0.875,-0.324 -0.379,0 -0.684,0.113 -0.914,0.344 -0.23,0.226 -0.344,0.543 -0.348,0.949 l -0.812,-0.086 c 0.055,-0.605 0.266,-1.066 0.629,-1.387 0.363,-0.316 0.851,-0.476 1.465,-0.476 0.617,0 1.105,0.172 1.464,0.515 0.364,0.344 0.543,0.77 0.543,1.274 0,0.258 -0.054,0.511 -0.16,0.761 -0.105,0.25 -0.281,0.512 -0.523,0.786 -0.246,0.277 -0.652,0.656 -1.223,1.136 -0.472,0.399 -0.777,0.668 -0.914,0.809 -0.133,0.141 -0.242,0.285 -0.332,0.43 z m 1.285,0.757 v -0.898 h 0.903 v 0.898 z m 2.063,-1.699 0.789,-0.105 c 0.09,0.449 0.246,0.769 0.465,0.968 0.219,0.2 0.484,0.297 0.797,0.297 0.371,0 0.687,-0.129 0.941,-0.386 0.258,-0.258 0.387,-0.578 0.387,-0.957 0,-0.364 -0.117,-0.664 -0.356,-0.899 -0.238,-0.238 -0.539,-0.355 -0.906,-0.355 -0.148,0 -0.336,0.031 -0.558,0.09 l 0.089,-0.696 c 0.051,0.004 0.094,0.008 0.125,0.008 0.34,0 0.641,-0.086 0.91,-0.262 0.27,-0.175 0.407,-0.449 0.407,-0.812 0,-0.293 -0.102,-0.531 -0.297,-0.723 -0.195,-0.191 -0.449,-0.285 -0.758,-0.285 -0.309,0 -0.566,0.098 -0.769,0.289 -0.207,0.195 -0.34,0.484 -0.395,0.871 l -0.793,-0.14 c 0.098,-0.532 0.316,-0.942 0.66,-1.235 0.344,-0.289 0.77,-0.437 1.278,-0.437 0.351,0 0.675,0.078 0.972,0.226 0.297,0.153 0.52,0.36 0.68,0.617 0.156,0.262 0.234,0.539 0.234,0.832 0,0.278 -0.074,0.532 -0.226,0.762 -0.149,0.227 -0.367,0.41 -0.664,0.543 0.382,0.09 0.679,0.27 0.89,0.547 0.211,0.277 0.317,0.625 0.317,1.039 0,0.563 -0.207,1.039 -0.618,1.43 -0.41,0.394 -0.925,0.59 -1.554,0.59 -0.567,0 -1.035,-0.168 -1.41,-0.508 -0.371,-0.336 -0.586,-0.774 -0.637,-1.309 z m 5.144,-3.195 c 0,-0.461 0.118,-0.852 0.348,-1.172 0.231,-0.324 0.567,-0.484 1.004,-0.484 0.406,0 0.742,0.144 1.004,0.433 0.266,0.289 0.398,0.711 0.398,1.274 0,0.543 -0.132,0.961 -0.402,1.257 -0.266,0.293 -0.598,0.442 -0.988,0.442 -0.391,0 -0.715,-0.145 -0.977,-0.434 -0.258,-0.293 -0.387,-0.73 -0.387,-1.316 z m 1.375,-1.109 c -0.195,0 -0.359,0.082 -0.488,0.253 -0.133,0.168 -0.195,0.481 -0.195,0.934 0,0.414 0.062,0.707 0.195,0.875 0.133,0.168 0.297,0.25 0.488,0.25 0.2,0 0.364,-0.082 0.497,-0.254 0.128,-0.168 0.195,-0.48 0.195,-0.93 0,-0.418 -0.067,-0.711 -0.199,-0.878 -0.133,-0.168 -0.297,-0.25 -0.493,-0.25 z m 0.004,6.242 3.524,-6.789 h 0.644 l -3.511,6.789 z m 2.786,-1.75 c 0,-0.461 0.117,-0.852 0.347,-1.176 0.235,-0.32 0.57,-0.481 1.012,-0.481 0.406,0 0.738,0.145 1.004,0.434 0.265,0.289 0.398,0.715 0.398,1.274 0,0.542 -0.133,0.964 -0.402,1.257 -0.27,0.293 -0.602,0.442 -0.996,0.442 -0.391,0 -0.715,-0.145 -0.973,-0.438 -0.258,-0.289 -0.39,-0.726 -0.39,-1.312 z m 1.382,-1.11 c -0.199,0 -0.367,0.086 -0.496,0.254 -0.129,0.172 -0.195,0.481 -0.195,0.938 0,0.41 0.066,0.699 0.199,0.867 0.129,0.172 0.293,0.258 0.488,0.258 0.2,0 0.368,-0.086 0.496,-0.258 0.133,-0.168 0.196,-0.481 0.196,-0.93 0,-0.418 -0.067,-0.707 -0.196,-0.879 -0.132,-0.168 -0.296,-0.25 -0.492,-0.25 z m 3.043,4.516 h -0.566 c 0.875,-1.406 1.312,-2.813 1.312,-4.223 0,-0.55 -0.062,-1.097 -0.187,-1.636 -0.102,-0.442 -0.242,-0.864 -0.418,-1.266 -0.117,-0.266 -0.352,-0.703 -0.707,-1.32 h 0.566 c 0.551,0.734 0.957,1.472 1.219,2.214 0.227,0.641 0.34,1.309 0.34,2.004 0,0.793 -0.152,1.555 -0.453,2.293 -0.305,0.739 -0.672,1.383 -1.106,1.934 z"
           style="fill:#202124;fill-opacity:1;fill-rule:nonzero;stroke:#ffffff;stroke-width:2.25;stroke-linecap:butt;stroke-linejoin:miter;stroke-miterlimit:4;stroke-dasharray:none;stroke-opacity:1"
           id="path7099" />
      </g>
      <text
         xml:space="preserve"
         transform="translate(194.5,466.64999)"
         style="font-variant:normal;font-size:9px;font-family:CairoFont-2;-inkscape-font-specification:CairoFont-2-0;writing-mode:lr-tb;fill:#202124;fill-opacity:1;fill-rule:nonzero;stroke:none"
         id="text7103"><tspan
           x="0 5.0040002 7.4970002 10.494 15.498 17.990999 22.995001 30.996"
           y="0"
           sodipodi:role="line"
           id="tspan7101">1 (2.3%)</tspan></text>
      <g
         id="g7105">
        <path
           d="m 197.852,479.398 h -0.79 v -5.039 c -0.191,0.184 -0.441,0.364 -0.75,0.547 -0.308,0.18 -0.585,0.317 -0.832,0.406 v -0.765 c 0.442,-0.207 0.829,-0.457 1.161,-0.754 0.332,-0.297 0.566,-0.582 0.703,-0.863 h 0.508 z m 6.253,1.895 c -0.437,-0.551 -0.804,-1.195 -1.109,-1.934 -0.301,-0.738 -0.449,-1.5 -0.449,-2.293 0,-0.695 0.109,-1.363 0.336,-2.004 0.265,-0.742 0.672,-1.48 1.222,-2.214 h 0.567 c -0.356,0.609 -0.59,1.043 -0.703,1.304 -0.18,0.407 -0.321,0.828 -0.422,1.266 -0.125,0.547 -0.188,1.098 -0.188,1.652 0,1.41 0.438,2.817 1.313,4.223 z m 5.426,-2.652 v 0.757 h -4.258 c -0.007,-0.187 0.024,-0.371 0.09,-0.546 0.11,-0.29 0.285,-0.579 0.524,-0.86 0.238,-0.281 0.582,-0.605 1.035,-0.972 0.699,-0.575 1.172,-1.032 1.418,-1.368 0.246,-0.336 0.371,-0.652 0.371,-0.949 0,-0.312 -0.113,-0.578 -0.34,-0.793 -0.223,-0.215 -0.516,-0.324 -0.875,-0.324 -0.379,0 -0.684,0.113 -0.914,0.344 -0.23,0.226 -0.344,0.543 -0.348,0.949 l -0.812,-0.086 c 0.055,-0.605 0.266,-1.066 0.629,-1.387 0.363,-0.316 0.851,-0.476 1.465,-0.476 0.617,0 1.105,0.172 1.464,0.515 0.364,0.344 0.543,0.77 0.543,1.274 0,0.258 -0.054,0.511 -0.16,0.761 -0.105,0.25 -0.281,0.512 -0.523,0.786 -0.246,0.277 -0.652,0.656 -1.223,1.136 -0.472,0.399 -0.777,0.668 -0.914,0.809 -0.133,0.141 -0.242,0.285 -0.332,0.43 z m 1.285,0.757 V 478.5 h 0.903 v 0.898 z m 2.063,-1.699 0.789,-0.105 c 0.09,0.449 0.246,0.769 0.465,0.968 0.219,0.2 0.484,0.297 0.797,0.297 0.371,0 0.687,-0.129 0.941,-0.386 0.258,-0.258 0.387,-0.578 0.387,-0.957 0,-0.364 -0.117,-0.664 -0.356,-0.899 -0.238,-0.238 -0.539,-0.355 -0.906,-0.355 -0.148,0 -0.336,0.031 -0.558,0.09 l 0.089,-0.696 c 0.051,0.004 0.094,0.008 0.125,0.008 0.34,0 0.641,-0.086 0.91,-0.262 0.27,-0.175 0.407,-0.449 0.407,-0.812 0,-0.293 -0.102,-0.531 -0.297,-0.723 -0.195,-0.191 -0.449,-0.285 -0.758,-0.285 -0.309,0 -0.566,0.098 -0.769,0.289 -0.207,0.195 -0.34,0.484 -0.395,0.871 l -0.793,-0.14 c 0.098,-0.532 0.316,-0.942 0.66,-1.235 0.344,-0.289 0.77,-0.437 1.278,-0.437 0.351,0 0.675,0.078 0.972,0.226 0.297,0.153 0.52,0.36 0.68,0.617 0.156,0.262 0.234,0.539 0.234,0.832 0,0.278 -0.074,0.532 -0.226,0.762 -0.149,0.227 -0.367,0.41 -0.664,0.543 0.382,0.09 0.679,0.27 0.89,0.547 0.211,0.277 0.317,0.625 0.317,1.039 0,0.563 -0.207,1.039 -0.618,1.43 -0.41,0.394 -0.925,0.59 -1.554,0.59 -0.567,0 -1.035,-0.168 -1.41,-0.508 -0.371,-0.336 -0.586,-0.774 -0.637,-1.309 z m 5.144,-3.195 c 0,-0.461 0.118,-0.852 0.348,-1.172 0.231,-0.324 0.567,-0.484 1.004,-0.484 0.406,0 0.742,0.144 1.004,0.433 0.266,0.289 0.398,0.711 0.398,1.274 0,0.543 -0.132,0.961 -0.402,1.257 -0.266,0.293 -0.598,0.442 -0.988,0.442 -0.391,0 -0.715,-0.145 -0.977,-0.434 -0.258,-0.293 -0.387,-0.73 -0.387,-1.316 z m 1.375,-1.109 c -0.195,0 -0.359,0.082 -0.488,0.253 -0.133,0.168 -0.195,0.481 -0.195,0.934 0,0.414 0.062,0.707 0.195,0.875 0.133,0.168 0.297,0.25 0.488,0.25 0.2,0 0.364,-0.082 0.497,-0.254 0.128,-0.168 0.195,-0.48 0.195,-0.93 0,-0.418 -0.067,-0.711 -0.199,-0.878 -0.133,-0.168 -0.297,-0.25 -0.493,-0.25 z m 0.004,6.242 3.524,-6.789 h 0.644 l -3.511,6.789 z m 2.786,-1.75 c 0,-0.461 0.117,-0.852 0.347,-1.176 0.235,-0.32 0.57,-0.481 1.012,-0.481 0.406,0 0.738,0.145 1.004,0.434 0.265,0.289 0.398,0.715 0.398,1.274 0,0.542 -0.133,0.964 -0.402,1.257 -0.27,0.293 -0.602,0.442 -0.996,0.442 -0.391,0 -0.715,-0.145 -0.973,-0.438 -0.258,-0.289 -0.39,-0.726 -0.39,-1.312 z m 1.382,-1.11 c -0.199,0 -0.367,0.086 -0.496,0.254 -0.129,0.172 -0.195,0.481 -0.195,0.938 0,0.41 0.066,0.699 0.199,0.867 0.129,0.172 0.293,0.258 0.488,0.258 0.2,0 0.368,-0.086 0.496,-0.258 0.133,-0.168 0.196,-0.481 0.196,-0.93 0,-0.418 -0.067,-0.707 -0.196,-0.879 -0.132,-0.168 -0.296,-0.25 -0.492,-0.25 z m 3.043,4.516 h -0.566 c 0.875,-1.406 1.312,-2.813 1.312,-4.223 0,-0.55 -0.062,-1.097 -0.187,-1.636 -0.102,-0.442 -0.242,-0.864 -0.418,-1.266 -0.117,-0.266 -0.352,-0.703 -0.707,-1.32 h 0.566 c 0.551,0.734 0.957,1.472 1.219,2.214 0.227,0.641 0.34,1.309 0.34,2.004 0,0.793 -0.152,1.555 -0.453,2.293 -0.305,0.739 -0.672,1.383 -1.106,1.934 z"
           style="fill:#202124;fill-opacity:1;fill-rule:nonzero;stroke:#ffffff;stroke-width:2.25;stroke-linecap:butt;stroke-linejoin:miter;stroke-miterlimit:4;stroke-dasharray:none;stroke-opacity:1"
           id="path7107" />
      </g>
      <text
         xml:space="preserve"
         transform="translate(194.5,479.39999)"
         style="font-variant:normal;font-size:9px;font-family:CairoFont-2;-inkscape-font-specification:CairoFont-2-0;writing-mode:lr-tb;fill:#202124;fill-opacity:1;fill-rule:nonzero;stroke:none"
         id="text7111"><tspan
           x="0 5.0040002 7.4970002 10.494 15.498 17.990999 22.995001 30.996"
           y="0"
           sodipodi:role="line"
           id="tspan7109">1 (2.3%)</tspan></text>
      <g
         id="g7113">
        <path
           d="m 197.852,492.148 h -0.79 v -5.039 c -0.191,0.184 -0.441,0.364 -0.75,0.547 -0.308,0.18 -0.585,0.317 -0.832,0.406 v -0.765 c 0.442,-0.207 0.829,-0.457 1.161,-0.754 0.332,-0.297 0.566,-0.582 0.703,-0.863 h 0.508 z m 6.253,1.895 c -0.437,-0.551 -0.804,-1.195 -1.109,-1.934 -0.301,-0.738 -0.449,-1.5 -0.449,-2.293 0,-0.695 0.109,-1.363 0.336,-2.004 0.265,-0.742 0.672,-1.48 1.222,-2.214 h 0.567 c -0.356,0.609 -0.59,1.043 -0.703,1.304 -0.18,0.407 -0.321,0.828 -0.422,1.266 -0.125,0.547 -0.188,1.098 -0.188,1.652 0,1.41 0.438,2.817 1.313,4.223 z m 5.426,-2.652 v 0.757 h -4.258 c -0.007,-0.187 0.024,-0.371 0.09,-0.546 0.11,-0.29 0.285,-0.579 0.524,-0.86 0.238,-0.281 0.582,-0.605 1.035,-0.972 0.699,-0.575 1.172,-1.032 1.418,-1.368 0.246,-0.336 0.371,-0.652 0.371,-0.949 0,-0.312 -0.113,-0.578 -0.34,-0.793 -0.223,-0.215 -0.516,-0.324 -0.875,-0.324 -0.379,0 -0.684,0.113 -0.914,0.344 -0.23,0.226 -0.344,0.543 -0.348,0.949 l -0.812,-0.086 c 0.055,-0.605 0.266,-1.066 0.629,-1.387 0.363,-0.316 0.851,-0.476 1.465,-0.476 0.617,0 1.105,0.172 1.464,0.515 0.364,0.344 0.543,0.77 0.543,1.274 0,0.258 -0.054,0.511 -0.16,0.761 -0.105,0.25 -0.281,0.512 -0.523,0.786 -0.246,0.277 -0.652,0.656 -1.223,1.136 -0.472,0.399 -0.777,0.668 -0.914,0.809 -0.133,0.141 -0.242,0.285 -0.332,0.43 z m 1.285,0.757 v -0.898 h 0.903 v 0.898 z m 2.063,-1.699 0.789,-0.105 c 0.09,0.449 0.246,0.769 0.465,0.968 0.219,0.2 0.484,0.297 0.797,0.297 0.371,0 0.687,-0.129 0.941,-0.386 0.258,-0.258 0.387,-0.578 0.387,-0.957 0,-0.364 -0.117,-0.664 -0.356,-0.899 -0.238,-0.238 -0.539,-0.355 -0.906,-0.355 -0.148,0 -0.336,0.031 -0.558,0.09 l 0.089,-0.696 c 0.051,0.004 0.094,0.008 0.125,0.008 0.34,0 0.641,-0.086 0.91,-0.262 0.27,-0.175 0.407,-0.449 0.407,-0.812 0,-0.293 -0.102,-0.531 -0.297,-0.723 -0.195,-0.191 -0.449,-0.285 -0.758,-0.285 -0.309,0 -0.566,0.098 -0.769,0.289 -0.207,0.195 -0.34,0.484 -0.395,0.871 l -0.793,-0.14 c 0.098,-0.532 0.316,-0.942 0.66,-1.235 0.344,-0.289 0.77,-0.437 1.278,-0.437 0.351,0 0.675,0.078 0.972,0.226 0.297,0.153 0.52,0.36 0.68,0.617 0.156,0.262 0.234,0.539 0.234,0.832 0,0.278 -0.074,0.532 -0.226,0.762 -0.149,0.227 -0.367,0.41 -0.664,0.543 0.382,0.09 0.679,0.27 0.89,0.547 0.211,0.277 0.317,0.625 0.317,1.039 0,0.563 -0.207,1.039 -0.618,1.43 -0.41,0.394 -0.925,0.59 -1.554,0.59 -0.567,0 -1.035,-0.168 -1.41,-0.508 -0.371,-0.336 -0.586,-0.774 -0.637,-1.309 z m 5.144,-3.195 c 0,-0.461 0.118,-0.852 0.348,-1.172 0.231,-0.324 0.567,-0.484 1.004,-0.484 0.406,0 0.742,0.144 1.004,0.433 0.266,0.289 0.398,0.711 0.398,1.274 0,0.543 -0.132,0.961 -0.402,1.257 -0.266,0.293 -0.598,0.442 -0.988,0.442 -0.391,0 -0.715,-0.145 -0.977,-0.434 -0.258,-0.293 -0.387,-0.73 -0.387,-1.316 z m 1.375,-1.109 c -0.195,0 -0.359,0.082 -0.488,0.253 -0.133,0.168 -0.195,0.481 -0.195,0.934 0,0.414 0.062,0.707 0.195,0.875 0.133,0.168 0.297,0.25 0.488,0.25 0.2,0 0.364,-0.082 0.497,-0.254 0.128,-0.168 0.195,-0.48 0.195,-0.93 0,-0.418 -0.067,-0.711 -0.199,-0.878 -0.133,-0.168 -0.297,-0.25 -0.493,-0.25 z m 0.004,6.242 3.524,-6.789 h 0.644 l -3.511,6.789 z m 2.786,-1.75 c 0,-0.461 0.117,-0.852 0.347,-1.176 0.235,-0.32 0.57,-0.481 1.012,-0.481 0.406,0 0.738,0.145 1.004,0.434 0.265,0.289 0.398,0.715 0.398,1.274 0,0.542 -0.133,0.964 -0.402,1.257 -0.27,0.293 -0.602,0.442 -0.996,0.442 -0.391,0 -0.715,-0.145 -0.973,-0.438 -0.258,-0.289 -0.39,-0.726 -0.39,-1.312 z m 1.382,-1.11 c -0.199,0 -0.367,0.086 -0.496,0.254 -0.129,0.172 -0.195,0.481 -0.195,0.938 0,0.41 0.066,0.699 0.199,0.867 0.129,0.172 0.293,0.258 0.488,0.258 0.2,0 0.368,-0.086 0.496,-0.258 0.133,-0.168 0.196,-0.481 0.196,-0.93 0,-0.418 -0.067,-0.707 -0.196,-0.879 -0.132,-0.168 -0.296,-0.25 -0.492,-0.25 z m 3.043,4.516 h -0.566 c 0.875,-1.406 1.312,-2.813 1.312,-4.223 0,-0.55 -0.062,-1.097 -0.187,-1.636 -0.102,-0.442 -0.242,-0.864 -0.418,-1.266 -0.117,-0.266 -0.352,-0.703 -0.707,-1.32 h 0.566 c 0.551,0.734 0.957,1.472 1.219,2.214 0.227,0.641 0.34,1.309 0.34,2.004 0,0.793 -0.152,1.555 -0.453,2.293 -0.305,0.739 -0.672,1.383 -1.106,1.934 z"
           style="fill:#202124;fill-opacity:1;fill-rule:nonzero;stroke:#ffffff;stroke-width:2.25;stroke-linecap:butt;stroke-linejoin:miter;stroke-miterlimit:4;stroke-dasharray:none;stroke-opacity:1"
           id="path7115" />
      </g>
      <text
         xml:space="preserve"
         transform="translate(194.5,492.14999)"
         style="font-variant:normal;font-size:9px;font-family:CairoFont-2;-inkscape-font-specification:CairoFont-2-0;writing-mode:lr-tb;fill:#202124;fill-opacity:1;fill-rule:nonzero;stroke:none"
         id="text7119"><tspan
           x="0 5.0040002 7.4970002 10.494 15.498 17.990999 22.995001 30.996"
           y="0"
           sodipodi:role="line"
           id="tspan7117">1 (2.3%)</tspan></text>
      <g
         id="g7121">
        <path
           d="m 197.852,504.898 h -0.79 v -5.039 c -0.191,0.184 -0.441,0.364 -0.75,0.547 -0.308,0.18 -0.585,0.317 -0.832,0.406 v -0.765 c 0.442,-0.207 0.829,-0.457 1.161,-0.754 0.332,-0.297 0.566,-0.582 0.703,-0.863 h 0.508 z m 6.253,1.895 c -0.437,-0.551 -0.804,-1.195 -1.109,-1.934 -0.301,-0.738 -0.449,-1.5 -0.449,-2.293 0,-0.695 0.109,-1.363 0.336,-2.004 0.265,-0.742 0.672,-1.48 1.222,-2.214 h 0.567 c -0.356,0.609 -0.59,1.043 -0.703,1.304 -0.18,0.407 -0.321,0.828 -0.422,1.266 -0.125,0.547 -0.188,1.098 -0.188,1.652 0,1.41 0.438,2.817 1.313,4.223 z m 5.426,-2.652 v 0.757 h -4.258 c -0.007,-0.187 0.024,-0.371 0.09,-0.546 0.11,-0.29 0.285,-0.579 0.524,-0.86 0.238,-0.281 0.582,-0.605 1.035,-0.972 0.699,-0.575 1.172,-1.032 1.418,-1.368 0.246,-0.336 0.371,-0.652 0.371,-0.949 0,-0.312 -0.113,-0.578 -0.34,-0.793 -0.223,-0.215 -0.516,-0.324 -0.875,-0.324 -0.379,0 -0.684,0.113 -0.914,0.344 -0.23,0.226 -0.344,0.543 -0.348,0.949 l -0.812,-0.086 c 0.055,-0.605 0.266,-1.066 0.629,-1.387 0.363,-0.316 0.851,-0.476 1.465,-0.476 0.617,0 1.105,0.172 1.464,0.515 0.364,0.344 0.543,0.77 0.543,1.274 0,0.258 -0.054,0.511 -0.16,0.761 -0.105,0.25 -0.281,0.512 -0.523,0.786 -0.246,0.277 -0.652,0.656 -1.223,1.136 -0.472,0.399 -0.777,0.668 -0.914,0.809 -0.133,0.141 -0.242,0.285 -0.332,0.43 z m 1.285,0.757 V 504 h 0.903 v 0.898 z m 2.063,-1.699 0.789,-0.105 c 0.09,0.449 0.246,0.769 0.465,0.968 0.219,0.2 0.484,0.297 0.797,0.297 0.371,0 0.687,-0.129 0.941,-0.386 0.258,-0.258 0.387,-0.578 0.387,-0.957 0,-0.364 -0.117,-0.664 -0.356,-0.899 -0.238,-0.238 -0.539,-0.355 -0.906,-0.355 -0.148,0 -0.336,0.031 -0.558,0.09 l 0.089,-0.696 c 0.051,0.004 0.094,0.008 0.125,0.008 0.34,0 0.641,-0.086 0.91,-0.262 0.27,-0.175 0.407,-0.449 0.407,-0.812 0,-0.293 -0.102,-0.531 -0.297,-0.723 -0.195,-0.191 -0.449,-0.285 -0.758,-0.285 -0.309,0 -0.566,0.098 -0.769,0.289 -0.207,0.195 -0.34,0.484 -0.395,0.871 l -0.793,-0.14 c 0.098,-0.532 0.316,-0.942 0.66,-1.235 0.344,-0.289 0.77,-0.437 1.278,-0.437 0.351,0 0.675,0.078 0.972,0.226 0.297,0.153 0.52,0.36 0.68,0.617 0.156,0.262 0.234,0.539 0.234,0.832 0,0.278 -0.074,0.532 -0.226,0.762 -0.149,0.227 -0.367,0.41 -0.664,0.543 0.382,0.09 0.679,0.27 0.89,0.547 0.211,0.277 0.317,0.625 0.317,1.039 0,0.563 -0.207,1.039 -0.618,1.43 -0.41,0.394 -0.925,0.59 -1.554,0.59 -0.567,0 -1.035,-0.168 -1.41,-0.508 -0.371,-0.336 -0.586,-0.774 -0.637,-1.309 z m 5.144,-3.195 c 0,-0.461 0.118,-0.852 0.348,-1.172 0.231,-0.324 0.567,-0.484 1.004,-0.484 0.406,0 0.742,0.144 1.004,0.433 0.266,0.289 0.398,0.711 0.398,1.274 0,0.543 -0.132,0.961 -0.402,1.257 -0.266,0.293 -0.598,0.442 -0.988,0.442 -0.391,0 -0.715,-0.145 -0.977,-0.434 -0.258,-0.293 -0.387,-0.73 -0.387,-1.316 z m 1.375,-1.109 c -0.195,0 -0.359,0.082 -0.488,0.253 -0.133,0.168 -0.195,0.481 -0.195,0.934 0,0.414 0.062,0.707 0.195,0.875 0.133,0.168 0.297,0.25 0.488,0.25 0.2,0 0.364,-0.082 0.497,-0.254 0.128,-0.168 0.195,-0.48 0.195,-0.93 0,-0.418 -0.067,-0.711 -0.199,-0.878 -0.133,-0.168 -0.297,-0.25 -0.493,-0.25 z m 0.004,6.242 3.524,-6.789 h 0.644 l -3.511,6.789 z m 2.786,-1.75 c 0,-0.461 0.117,-0.852 0.347,-1.176 0.235,-0.32 0.57,-0.481 1.012,-0.481 0.406,0 0.738,0.145 1.004,0.434 0.265,0.289 0.398,0.715 0.398,1.274 0,0.542 -0.133,0.964 -0.402,1.257 -0.27,0.293 -0.602,0.442 -0.996,0.442 -0.391,0 -0.715,-0.145 -0.973,-0.438 -0.258,-0.289 -0.39,-0.726 -0.39,-1.312 z m 1.382,-1.11 c -0.199,0 -0.367,0.086 -0.496,0.254 -0.129,0.172 -0.195,0.481 -0.195,0.938 0,0.41 0.066,0.699 0.199,0.867 0.129,0.172 0.293,0.258 0.488,0.258 0.2,0 0.368,-0.086 0.496,-0.258 0.133,-0.168 0.196,-0.481 0.196,-0.93 0,-0.418 -0.067,-0.707 -0.196,-0.879 -0.132,-0.168 -0.296,-0.25 -0.492,-0.25 z m 3.043,4.516 h -0.566 c 0.875,-1.406 1.312,-2.813 1.312,-4.223 0,-0.55 -0.062,-1.097 -0.187,-1.636 -0.102,-0.442 -0.242,-0.864 -0.418,-1.266 -0.117,-0.266 -0.352,-0.703 -0.707,-1.32 h 0.566 c 0.551,0.734 0.957,1.472 1.219,2.214 0.227,0.641 0.34,1.309 0.34,2.004 0,0.793 -0.152,1.555 -0.453,2.293 -0.305,0.739 -0.672,1.383 -1.106,1.934 z"
           style="fill:#202124;fill-opacity:1;fill-rule:nonzero;stroke:#ffffff;stroke-width:2.25;stroke-linecap:butt;stroke-linejoin:miter;stroke-miterlimit:4;stroke-dasharray:none;stroke-opacity:1"
           id="path7123" />
      </g>
      <text
         xml:space="preserve"
         transform="translate(194.5,504.89999)"
         style="font-variant:normal;font-size:9px;font-family:CairoFont-2;-inkscape-font-specification:CairoFont-2-0;writing-mode:lr-tb;fill:#202124;fill-opacity:1;fill-rule:nonzero;stroke:none"
         id="text7127"><tspan
           x="0 5.0040002 7.4970002 10.494 15.498 17.990999 22.995001 30.996"
           y="0"
           sodipodi:role="line"
           id="tspan7125">1 (2.3%)</tspan></text>
    </g>
  </g>
</svg>
